<?xml version="1.0" standalone="no"?>
<!DOCTYPE svg PUBLIC "-//W3C//DTD SVG 1.1//EN" "http://www.w3.org/Graphics/SVG/1.1/DTD/svg11.dtd">
<svg width="44mm" height="45mm" viewBox="74 -141 44 45" xmlns="http://www.w3.org/2000/svg" version="1.1">
<title>OpenSCAD Model</title>
<path d="
M 98.1774,-96.593 L 100.436,-96.9507 L 102.644,-97.5425 L 104.779,-98.3619 L 106.816,-99.3999 L 108.733,-100.645
 L 110.51,-102.084 L 112.127,-103.701 L 113.566,-105.478 L 114.811,-107.395 L 115.849,-109.432 L 116.669,-111.567
 L 117.26,-113.775 L 117.618,-116.034 L 117.738,-118.317 L 117.618,-120.6 L 117.26,-122.859 L 116.669,-125.067
 L 115.849,-127.202 L 114.811,-129.239 L 113.566,-131.156 L 112.127,-132.933 L 110.51,-134.55 L 108.733,-135.989
 L 106.816,-137.234 L 104.779,-138.272 L 102.644,-139.092 L 100.436,-139.683 L 98.1774,-140.041 L 95.8941,-140.161
 L 93.6108,-140.041 L 91.3526,-139.683 L 89.1441,-139.092 L 87.0095,-138.272 L 84.9723,-137.234 L 83.0547,-135.989
 L 81.2779,-134.55 L 79.6611,-132.933 L 78.2222,-131.156 L 76.977,-129.239 L 75.9389,-127.202 L 75.1196,-125.067
 L 74.5278,-122.859 L 74.1701,-120.6 L 74.0505,-118.317 L 74.1701,-116.034 L 74.5278,-113.775 L 75.1196,-111.567
 L 75.9389,-109.432 L 76.977,-107.395 L 78.2222,-105.478 L 79.6611,-103.701 L 81.2779,-102.084 L 83.0547,-100.645
 L 84.9723,-99.3999 L 87.0095,-98.3619 L 89.1441,-97.5425 L 91.3526,-96.9507 L 93.6108,-96.593 L 95.8941,-96.4734
 z
M 95.5151,-137.714 L 95.2809,-137.925 L 95.1527,-138.213 L 95.1527,-138.528 L 95.2809,-138.816 L 95.5151,-139.027
 L 95.8149,-139.124 L 96.1283,-139.091 L 96.4013,-138.934 L 96.5866,-138.679 L 96.6521,-138.371 L 96.5866,-138.062
 L 96.4013,-137.807 L 96.1283,-137.65 L 95.8149,-137.617 z
M 92.8976,-137.543 L 92.6634,-137.753 L 92.5352,-138.041 L 92.5352,-138.357 L 92.6634,-138.645 L 92.8976,-138.855
 L 93.1974,-138.953 L 93.5108,-138.92 L 93.7838,-138.762 L 93.9691,-138.507 L 94.0346,-138.199 L 93.9691,-137.891
 L 93.7838,-137.636 L 93.5108,-137.478 L 93.1974,-137.445 z
M 98.1326,-137.543 L 97.8984,-137.753 L 97.7702,-138.041 L 97.7702,-138.357 L 97.8984,-138.645 L 98.1326,-138.855
 L 98.4324,-138.953 L 98.7458,-138.92 L 99.0188,-138.762 L 99.2041,-138.507 L 99.2696,-138.199 L 99.2041,-137.891
 L 99.0188,-137.636 L 98.7458,-137.478 L 98.4324,-137.445 z
M 90.3249,-137.031 L 90.0907,-137.242 L 89.9624,-137.53 L 89.9624,-137.845 L 90.0907,-138.133 L 90.3249,-138.344
 L 90.6247,-138.441 L 90.9381,-138.408 L 91.2111,-138.251 L 91.3963,-137.996 L 91.4619,-137.687 L 91.3963,-137.379
 L 91.2111,-137.124 L 90.9381,-136.966 L 90.6247,-136.933 z
M 100.705,-137.031 L 100.471,-137.242 L 100.343,-137.53 L 100.343,-137.845 L 100.471,-138.133 L 100.705,-138.344
 L 101.005,-138.441 L 101.319,-138.408 L 101.592,-138.251 L 101.777,-137.996 L 101.842,-137.687 L 101.777,-137.379
 L 101.592,-137.124 L 101.319,-136.966 L 101.005,-136.933 z
M 87.841,-136.188 L 87.6067,-136.399 L 87.4785,-136.686 L 87.4785,-137.002 L 87.6067,-137.29 L 87.841,-137.5
 L 88.1408,-137.598 L 88.4542,-137.565 L 88.7271,-137.407 L 88.9124,-137.152 L 88.978,-136.844 L 88.9124,-136.536
 L 88.7271,-136.281 L 88.4542,-136.123 L 88.1408,-136.09 z
M 103.189,-136.188 L 102.955,-136.399 L 102.827,-136.686 L 102.827,-137.002 L 102.955,-137.29 L 103.189,-137.5
 L 103.489,-137.598 L 103.802,-137.565 L 104.075,-137.407 L 104.261,-137.152 L 104.326,-136.844 L 104.261,-136.536
 L 104.075,-136.281 L 103.802,-136.123 L 103.489,-136.09 z
M 85.4883,-135.027 L 85.2541,-135.238 L 85.1259,-135.526 L 85.1259,-135.841 L 85.2541,-136.129 L 85.4884,-136.34
 L 85.7881,-136.438 L 86.1016,-136.405 L 86.3745,-136.247 L 86.5598,-135.992 L 86.6253,-135.684 L 86.5598,-135.376
 L 86.3745,-135.121 L 86.1016,-134.963 L 85.7881,-134.93 z
M 105.542,-135.027 L 105.308,-135.238 L 105.179,-135.526 L 105.179,-135.841 L 105.308,-136.129 L 105.542,-136.34
 L 105.842,-136.438 L 106.155,-136.405 L 106.428,-136.247 L 106.613,-135.992 L 106.679,-135.684 L 106.613,-135.376
 L 106.428,-135.121 L 106.155,-134.963 L 105.842,-134.93 z
M 83.3073,-133.57 L 83.0731,-133.781 L 82.9449,-134.069 L 82.9449,-134.384 L 83.0731,-134.672 L 83.3073,-134.883
 L 83.6071,-134.98 L 83.9205,-134.947 L 84.1935,-134.79 L 84.3788,-134.535 L 84.4443,-134.227 L 84.3788,-133.918
 L 84.1935,-133.663 L 83.9205,-133.506 L 83.6071,-133.473 z
M 107.723,-133.57 L 107.489,-133.781 L 107.36,-134.069 L 107.36,-134.384 L 107.489,-134.672 L 107.723,-134.883
 L 108.023,-134.98 L 108.336,-134.947 L 108.609,-134.79 L 108.794,-134.535 L 108.86,-134.227 L 108.794,-133.918
 L 108.609,-133.663 L 108.336,-133.506 L 108.023,-133.473 z
M 81.3351,-131.841 L 81.1009,-132.051 L 80.9727,-132.339 L 80.9727,-132.655 L 81.1009,-132.943 L 81.3351,-133.153
 L 81.6349,-133.251 L 81.9484,-133.218 L 82.2213,-133.06 L 82.4066,-132.805 L 82.4721,-132.497 L 82.4066,-132.189
 L 82.2213,-131.934 L 81.9484,-131.776 L 81.6349,-131.743 z
M 109.695,-131.841 L 109.461,-132.051 L 109.333,-132.339 L 109.333,-132.655 L 109.461,-132.943 L 109.695,-133.153
 L 109.995,-133.251 L 110.308,-133.218 L 110.581,-133.06 L 110.767,-132.805 L 110.832,-132.497 L 110.767,-132.189
 L 110.581,-131.934 L 110.308,-131.776 L 109.995,-131.743 z
M 79.6056,-129.868 L 79.3714,-130.079 L 79.2431,-130.367 L 79.2431,-130.682 L 79.3714,-130.97 L 79.6056,-131.181
 L 79.9054,-131.279 L 80.2188,-131.246 L 80.4918,-131.088 L 80.677,-130.833 L 80.7426,-130.525 L 80.677,-130.217
 L 80.4918,-129.962 L 80.2188,-129.804 L 79.9054,-129.771 z
M 111.425,-129.868 L 111.19,-130.079 L 111.062,-130.367 L 111.062,-130.682 L 111.19,-130.97 L 111.425,-131.181
 L 111.724,-131.279 L 112.038,-131.246 L 112.311,-131.088 L 112.496,-130.833 L 112.562,-130.525 L 112.496,-130.217
 L 112.311,-129.962 L 112.038,-129.804 L 111.724,-129.771 z
M 78.1482,-127.687 L 77.914,-127.898 L 77.7858,-128.186 L 77.7858,-128.501 L 77.914,-128.789 L 78.1482,-129
 L 78.448,-129.098 L 78.7615,-129.065 L 79.0344,-128.907 L 79.2197,-128.652 L 79.2852,-128.344 L 79.2197,-128.036
 L 79.0344,-127.78 L 78.7615,-127.623 L 78.448,-127.59 z
M 112.882,-127.687 L 112.648,-127.898 L 112.52,-128.186 L 112.52,-128.501 L 112.648,-128.789 L 112.882,-129
 L 113.182,-129.098 L 113.495,-129.065 L 113.768,-128.907 L 113.953,-128.652 L 114.019,-128.344 L 113.953,-128.036
 L 113.768,-127.78 L 113.495,-127.623 L 113.182,-127.59 z
M 92.9841,-124.907 L 92.9841,-127.727 L 98.8041,-127.727 L 98.8041,-124.907 z
M 76.9881,-125.335 L 76.7538,-125.546 L 76.6256,-125.834 L 76.6256,-126.149 L 76.7538,-126.437 L 76.9881,-126.648
 L 77.2879,-126.745 L 77.6013,-126.712 L 77.8743,-126.554 L 78.0595,-126.299 L 78.1251,-125.991 L 78.0595,-125.683
 L 77.8743,-125.428 L 77.6013,-125.27 L 77.2879,-125.237 z
M 114.042,-125.335 L 113.808,-125.546 L 113.68,-125.834 L 113.68,-126.149 L 113.808,-126.437 L 114.042,-126.648
 L 114.342,-126.745 L 114.655,-126.712 L 114.928,-126.554 L 115.114,-126.299 L 115.179,-125.991 L 115.114,-125.683
 L 114.928,-125.428 L 114.655,-125.27 L 114.342,-125.237 z
M 76.1449,-122.851 L 75.9107,-123.062 L 75.7825,-123.35 L 75.7825,-123.665 L 75.9107,-123.953 L 76.1449,-124.164
 L 76.4447,-124.261 L 76.7581,-124.228 L 77.0311,-124.071 L 77.2164,-123.816 L 77.2819,-123.507 L 77.2164,-123.199
 L 77.0311,-122.944 L 76.7581,-122.786 L 76.4447,-122.753 z
M 114.885,-122.851 L 114.651,-123.062 L 114.523,-123.35 L 114.523,-123.665 L 114.651,-123.953 L 114.885,-124.164
 L 115.185,-124.261 L 115.499,-124.228 L 115.771,-124.071 L 115.957,-123.816 L 116.022,-123.507 L 115.957,-123.199
 L 115.771,-122.944 L 115.499,-122.786 L 115.185,-122.753 z
M 93.8753,-114.82 L 91.8566,-118.317 L 93.8753,-121.814 L 97.9129,-121.814 L 99.9316,-118.317 L 97.9129,-114.82
 z
M 75.6331,-120.278 L 75.3989,-120.489 L 75.2707,-120.777 L 75.2707,-121.092 L 75.3989,-121.38 L 75.6331,-121.591
 L 75.9329,-121.688 L 76.2464,-121.655 L 76.5193,-121.498 L 76.7046,-121.243 L 76.7701,-120.935 L 76.7046,-120.626
 L 76.5193,-120.371 L 76.2464,-120.214 L 75.9329,-120.181 z
M 115.397,-120.278 L 115.163,-120.489 L 115.035,-120.777 L 115.035,-121.092 L 115.163,-121.38 L 115.397,-121.591
 L 115.697,-121.688 L 116.01,-121.655 L 116.283,-121.498 L 116.469,-121.243 L 116.534,-120.935 L 116.469,-120.626
 L 116.283,-120.371 L 116.01,-120.214 L 115.697,-120.181 z
M 102.484,-115.407 L 102.484,-121.227 L 105.304,-121.227 L 105.304,-115.407 z
M 86.4841,-115.407 L 86.4841,-121.227 L 89.3041,-121.227 L 89.3041,-115.407 z
M 75.4616,-117.661 L 75.2274,-117.872 L 75.0992,-118.159 L 75.0992,-118.475 L 75.2274,-118.763 L 75.4616,-118.973
 L 75.7614,-119.071 L 76.0748,-119.038 L 76.3478,-118.88 L 76.5331,-118.625 L 76.5986,-118.317 L 76.5331,-118.009
 L 76.3478,-117.754 L 76.0748,-117.596 L 75.7614,-117.563 z
M 115.569,-117.661 L 115.334,-117.872 L 115.206,-118.159 L 115.206,-118.475 L 115.334,-118.763 L 115.569,-118.973
 L 115.868,-119.071 L 116.182,-119.038 L 116.455,-118.88 L 116.64,-118.625 L 116.706,-118.317 L 116.64,-118.009
 L 116.455,-117.754 L 116.182,-117.596 L 115.868,-117.563 z
M 75.6331,-115.043 L 75.3989,-115.254 L 75.2707,-115.542 L 75.2707,-115.857 L 75.3989,-116.145 L 75.6331,-116.356
 L 75.9329,-116.453 L 76.2464,-116.42 L 76.5193,-116.263 L 76.7046,-116.008 L 76.7701,-115.7 L 76.7046,-115.391
 L 76.5193,-115.136 L 76.2464,-114.979 L 75.9329,-114.946 z
M 115.397,-115.043 L 115.163,-115.254 L 115.035,-115.542 L 115.035,-115.857 L 115.163,-116.145 L 115.397,-116.356
 L 115.697,-116.453 L 116.01,-116.42 L 116.283,-116.263 L 116.469,-116.008 L 116.534,-115.7 L 116.469,-115.391
 L 116.283,-115.136 L 116.01,-114.979 L 115.697,-114.946 z
M 76.1449,-112.47 L 75.9107,-112.681 L 75.7825,-112.969 L 75.7825,-113.284 L 75.9107,-113.572 L 76.1449,-113.783
 L 76.4447,-113.881 L 76.7581,-113.848 L 77.0311,-113.69 L 77.2164,-113.435 L 77.2819,-113.127 L 77.2164,-112.819
 L 77.0311,-112.564 L 76.7581,-112.406 L 76.4447,-112.373 z
M 114.885,-112.47 L 114.651,-112.681 L 114.523,-112.969 L 114.523,-113.284 L 114.651,-113.572 L 114.885,-113.783
 L 115.185,-113.881 L 115.499,-113.848 L 115.771,-113.69 L 115.957,-113.435 L 116.022,-113.127 L 115.957,-112.819
 L 115.771,-112.564 L 115.499,-112.406 L 115.185,-112.373 z
M 92.9841,-108.907 L 92.9841,-111.727 L 98.8041,-111.727 L 98.8041,-108.907 z
M 76.9881,-109.986 L 76.7538,-110.197 L 76.6256,-110.485 L 76.6256,-110.8 L 76.7538,-111.088 L 76.9881,-111.299
 L 77.2879,-111.397 L 77.6013,-111.364 L 77.8743,-111.206 L 78.0595,-110.951 L 78.1251,-110.643 L 78.0595,-110.335
 L 77.8743,-110.08 L 77.6013,-109.922 L 77.2879,-109.889 z
M 114.042,-109.986 L 113.808,-110.197 L 113.68,-110.485 L 113.68,-110.8 L 113.808,-111.088 L 114.042,-111.299
 L 114.342,-111.397 L 114.655,-111.364 L 114.928,-111.206 L 115.114,-110.951 L 115.179,-110.643 L 115.114,-110.335
 L 114.928,-110.08 L 114.655,-109.922 L 114.342,-109.889 z
M 78.1482,-107.634 L 77.914,-107.845 L 77.7858,-108.133 L 77.7858,-108.448 L 77.914,-108.736 L 78.1482,-108.947
 L 78.448,-109.044 L 78.7615,-109.011 L 79.0344,-108.854 L 79.2197,-108.599 L 79.2852,-108.29 L 79.2197,-107.982
 L 79.0344,-107.727 L 78.7615,-107.569 L 78.448,-107.536 z
M 112.882,-107.634 L 112.648,-107.845 L 112.52,-108.133 L 112.52,-108.448 L 112.648,-108.736 L 112.882,-108.947
 L 113.182,-109.044 L 113.495,-109.011 L 113.768,-108.854 L 113.953,-108.599 L 114.019,-108.29 L 113.953,-107.982
 L 113.768,-107.727 L 113.495,-107.569 L 113.182,-107.536 z
M 79.6056,-105.453 L 79.3714,-105.664 L 79.2431,-105.952 L 79.2431,-106.267 L 79.3714,-106.555 L 79.6056,-106.766
 L 79.9054,-106.863 L 80.2188,-106.83 L 80.4918,-106.673 L 80.677,-106.418 L 80.7426,-106.109 L 80.677,-105.801
 L 80.4918,-105.546 L 80.2188,-105.388 L 79.9054,-105.355 z
M 111.425,-105.453 L 111.19,-105.664 L 111.062,-105.952 L 111.062,-106.267 L 111.19,-106.555 L 111.425,-106.766
 L 111.724,-106.863 L 112.038,-106.83 L 112.311,-106.673 L 112.496,-106.418 L 112.562,-106.109 L 112.496,-105.801
 L 112.311,-105.546 L 112.038,-105.388 L 111.724,-105.355 z
M 81.3351,-103.481 L 81.1009,-103.692 L 80.9727,-103.979 L 80.9727,-104.295 L 81.1009,-104.583 L 81.3351,-104.793
 L 81.6349,-104.891 L 81.9484,-104.858 L 82.2213,-104.7 L 82.4066,-104.445 L 82.4721,-104.137 L 82.4066,-103.829
 L 82.2213,-103.574 L 81.9484,-103.416 L 81.6349,-103.383 z
M 109.695,-103.481 L 109.461,-103.692 L 109.333,-103.979 L 109.333,-104.295 L 109.461,-104.583 L 109.695,-104.793
 L 109.995,-104.891 L 110.308,-104.858 L 110.581,-104.7 L 110.767,-104.445 L 110.832,-104.137 L 110.767,-103.829
 L 110.581,-103.574 L 110.308,-103.416 L 109.995,-103.383 z
M 83.3073,-101.751 L 83.0731,-101.962 L 82.9449,-102.25 L 82.9449,-102.565 L 83.0731,-102.853 L 83.3073,-103.064
 L 83.6071,-103.161 L 83.9205,-103.128 L 84.1935,-102.971 L 84.3788,-102.716 L 84.4443,-102.408 L 84.3788,-102.099
 L 84.1935,-101.844 L 83.9205,-101.687 L 83.6071,-101.654 z
M 107.723,-101.751 L 107.489,-101.962 L 107.36,-102.25 L 107.36,-102.565 L 107.489,-102.853 L 107.723,-103.064
 L 108.023,-103.161 L 108.336,-103.128 L 108.609,-102.971 L 108.794,-102.716 L 108.86,-102.408 L 108.794,-102.099
 L 108.609,-101.844 L 108.336,-101.687 L 108.023,-101.654 z
M 85.4884,-100.294 L 85.2541,-100.505 L 85.1259,-100.793 L 85.1259,-101.108 L 85.2541,-101.396 L 85.4883,-101.607
 L 85.7881,-101.704 L 86.1016,-101.671 L 86.3745,-101.513 L 86.5598,-101.258 L 86.6253,-100.95 L 86.5598,-100.642
 L 86.3745,-100.387 L 86.1016,-100.229 L 85.7881,-100.196 z
M 105.542,-100.294 L 105.308,-100.505 L 105.179,-100.793 L 105.179,-101.108 L 105.308,-101.396 L 105.542,-101.607
 L 105.842,-101.704 L 106.155,-101.671 L 106.428,-101.513 L 106.613,-101.258 L 106.679,-100.95 L 106.613,-100.642
 L 106.428,-100.387 L 106.155,-100.229 L 105.842,-100.196 z
M 87.841,-99.1336 L 87.6067,-99.3445 L 87.4785,-99.6324 L 87.4785,-99.9476 L 87.6067,-100.236 L 87.841,-100.446
 L 88.1408,-100.544 L 88.4542,-100.511 L 88.7271,-100.353 L 88.9124,-100.098 L 88.978,-99.79 L 88.9124,-99.4817
 L 88.7271,-99.2267 L 88.4542,-99.0691 L 88.1408,-99.0362 z
M 103.189,-99.1336 L 102.955,-99.3445 L 102.827,-99.6324 L 102.827,-99.9476 L 102.955,-100.236 L 103.189,-100.446
 L 103.489,-100.544 L 103.802,-100.511 L 104.075,-100.353 L 104.261,-100.098 L 104.326,-99.79 L 104.261,-99.4817
 L 104.075,-99.2267 L 103.802,-99.0691 L 103.489,-99.0362 z
M 90.3249,-98.2904 L 90.0907,-98.5013 L 89.9624,-98.7892 L 89.9624,-99.1044 L 90.0907,-99.3923 L 90.3249,-99.6033
 L 90.6247,-99.7007 L 90.9381,-99.6677 L 91.2111,-99.5101 L 91.3963,-99.2551 L 91.4619,-98.9468 L 91.3963,-98.6385
 L 91.2111,-98.3835 L 90.9381,-98.2259 L 90.6247,-98.193 z
M 100.705,-98.2904 L 100.471,-98.5013 L 100.343,-98.7892 L 100.343,-99.1044 L 100.471,-99.3923 L 100.705,-99.6033
 L 101.005,-99.7007 L 101.319,-99.6677 L 101.592,-99.5101 L 101.777,-99.2551 L 101.842,-98.9468 L 101.777,-98.6385
 L 101.592,-98.3835 L 101.319,-98.2259 L 101.005,-98.193 z
M 92.8976,-97.7787 L 92.6634,-97.9895 L 92.5352,-98.2775 L 92.5352,-98.5927 L 92.6634,-98.8806 L 92.8976,-99.0915
 L 93.1974,-99.1889 L 93.5108,-99.156 L 93.7838,-98.9984 L 93.9691,-98.7434 L 94.0346,-98.4351 L 93.9691,-98.1268
 L 93.7838,-97.8718 L 93.5108,-97.7142 L 93.1974,-97.6812 z
M 98.1326,-97.7787 L 97.8984,-97.9895 L 97.7702,-98.2775 L 97.7702,-98.5927 L 97.8984,-98.8806 L 98.1326,-99.0915
 L 98.4324,-99.1889 L 98.7458,-99.156 L 99.0188,-98.9984 L 99.2041,-98.7434 L 99.2696,-98.4351 L 99.2041,-98.1268
 L 99.0188,-97.8718 L 98.7458,-97.7142 L 98.4324,-97.6812 z
M 95.5151,-97.6071 L 95.2809,-97.818 L 95.1527,-98.1059 L 95.1527,-98.4211 L 95.2809,-98.709 L 95.5151,-98.9199
 L 95.8149,-99.0173 L 96.1283,-98.9844 L 96.4013,-98.8268 L 96.5866,-98.5718 L 96.6521,-98.2635 L 96.5866,-97.9552
 L 96.4013,-97.7002 L 96.1283,-97.5426 L 95.8149,-97.5097 z
" stroke="black" fill="lightgray" stroke-width="0.5"/>
</svg>
