<?xml version="1.0" standalone="no"?>
<!DOCTYPE svg PUBLIC "-//W3C//DTD SVG 1.1//EN" "http://www.w3.org/Graphics/SVG/1.1/DTD/svg11.dtd">
<svg width="45mm" height="45mm" viewBox="28 -141 45 45" xmlns="http://www.w3.org/2000/svg" version="1.1">
<title>OpenSCAD Model</title>
<path d="
M 52.6703,-96.593 L 54.9286,-96.9507 L 57.1371,-97.5425 L 59.2717,-98.3619 L 61.3089,-99.3999 L 63.2264,-100.645
 L 65.0033,-102.084 L 66.62,-103.701 L 68.0589,-105.478 L 69.3042,-107.395 L 70.3422,-109.432 L 71.1616,-111.567
 L 71.7534,-113.775 L 72.111,-116.034 L 72.2307,-118.317 L 72.111,-120.6 L 71.7534,-122.859 L 71.1616,-125.067
 L 70.3422,-127.202 L 69.3042,-129.239 L 68.0589,-131.156 L 66.62,-132.933 L 65.0033,-134.55 L 63.2264,-135.989
 L 61.3089,-137.234 L 59.2717,-138.272 L 57.1371,-139.092 L 54.9286,-139.683 L 52.6703,-140.041 L 50.3871,-140.161
 L 48.1038,-140.041 L 45.8455,-139.683 L 43.637,-139.092 L 41.5025,-138.272 L 39.4652,-137.234 L 37.5477,-135.989
 L 35.7708,-134.55 L 34.1541,-132.933 L 32.7152,-131.156 L 31.4699,-129.239 L 30.4319,-127.202 L 29.6125,-125.067
 L 29.0208,-122.859 L 28.6631,-120.6 L 28.5434,-118.317 L 28.6631,-116.034 L 29.0208,-113.775 L 29.6125,-111.567
 L 30.4319,-109.432 L 31.4699,-107.395 L 32.7152,-105.478 L 34.1541,-103.701 L 35.7708,-102.084 L 37.5477,-100.645
 L 39.4652,-99.3999 L 41.5025,-98.3619 L 43.637,-97.5425 L 45.8455,-96.9507 L 48.1038,-96.593 L 50.3871,-96.4734
 z
M 50.0081,-137.714 L 49.7738,-137.925 L 49.6456,-138.213 L 49.6456,-138.528 L 49.7738,-138.816 L 50.0081,-139.027
 L 50.3078,-139.124 L 50.6213,-139.091 L 50.8942,-138.934 L 51.0795,-138.679 L 51.145,-138.371 L 51.0795,-138.062
 L 50.8942,-137.807 L 50.6213,-137.65 L 50.3078,-137.617 z
M 47.3905,-137.543 L 47.1563,-137.753 L 47.0281,-138.041 L 47.0281,-138.357 L 47.1563,-138.645 L 47.3905,-138.855
 L 47.6904,-138.953 L 48.0038,-138.92 L 48.2767,-138.762 L 48.462,-138.507 L 48.5275,-138.199 L 48.462,-137.891
 L 48.2767,-137.636 L 48.0038,-137.478 L 47.6903,-137.445 z
M 52.6255,-137.543 L 52.3913,-137.753 L 52.2631,-138.041 L 52.2631,-138.357 L 52.3913,-138.645 L 52.6255,-138.855
 L 52.9254,-138.953 L 53.2388,-138.92 L 53.5117,-138.762 L 53.697,-138.507 L 53.7625,-138.199 L 53.697,-137.891
 L 53.5117,-137.636 L 53.2388,-137.478 L 52.9253,-137.445 z
M 44.8178,-137.031 L 44.5836,-137.242 L 44.4554,-137.53 L 44.4554,-137.845 L 44.5836,-138.133 L 44.8178,-138.344
 L 45.1176,-138.441 L 45.4311,-138.408 L 45.704,-138.251 L 45.8893,-137.996 L 45.9548,-137.687 L 45.8893,-137.379
 L 45.704,-137.124 L 45.4311,-136.966 L 45.1176,-136.933 z
M 55.1983,-137.031 L 54.9641,-137.242 L 54.8358,-137.53 L 54.8358,-137.845 L 54.9641,-138.133 L 55.1983,-138.344
 L 55.4981,-138.441 L 55.8115,-138.408 L 56.0845,-138.251 L 56.2697,-137.996 L 56.3353,-137.687 L 56.2697,-137.379
 L 56.0845,-137.124 L 55.8115,-136.966 L 55.4981,-136.933 z
M 42.3339,-136.188 L 42.0997,-136.399 L 41.9715,-136.686 L 41.9715,-137.002 L 42.0997,-137.29 L 42.3339,-137.5
 L 42.6337,-137.598 L 42.9471,-137.565 L 43.2201,-137.407 L 43.4054,-137.152 L 43.4709,-136.844 L 43.4054,-136.536
 L 43.2201,-136.281 L 42.9471,-136.123 L 42.6337,-136.09 z
M 57.6822,-136.188 L 57.448,-136.399 L 57.3198,-136.686 L 57.3198,-137.002 L 57.448,-137.29 L 57.6822,-137.5
 L 57.982,-137.598 L 58.2954,-137.565 L 58.5684,-137.407 L 58.7537,-137.152 L 58.8192,-136.844 L 58.7537,-136.536
 L 58.5684,-136.281 L 58.2954,-136.123 L 57.982,-136.09 z
M 48.8831,-130.893 L 47.9535,-131.73 L 47.4448,-132.872 L 47.4448,-134.123 L 47.9535,-135.266 L 48.8831,-136.103
 L 50.0726,-136.489 L 51.3166,-136.358 L 52.3998,-135.733 L 53.135,-134.721 L 53.395,-133.498 L 53.135,-132.274
 L 52.3998,-131.262 L 51.3166,-130.637 L 50.0726,-130.506 z
M 39.9813,-135.027 L 39.7471,-135.238 L 39.6189,-135.526 L 39.6189,-135.841 L 39.7471,-136.129 L 39.9813,-136.34
 L 40.2811,-136.438 L 40.5945,-136.405 L 40.8675,-136.247 L 41.0528,-135.992 L 41.1183,-135.684 L 41.0528,-135.376
 L 40.8675,-135.121 L 40.5945,-134.963 L 40.2811,-134.93 z
M 60.0348,-135.027 L 59.8006,-135.238 L 59.6724,-135.526 L 59.6724,-135.841 L 59.8006,-136.129 L 60.0348,-136.34
 L 60.3346,-136.438 L 60.648,-136.405 L 60.921,-136.247 L 61.1063,-135.992 L 61.1718,-135.684 L 61.1063,-135.376
 L 60.921,-135.121 L 60.648,-134.963 L 60.3346,-134.93 z
M 37.8002,-133.57 L 37.566,-133.781 L 37.4378,-134.069 L 37.4378,-134.384 L 37.566,-134.672 L 37.8002,-134.883
 L 38.1001,-134.98 L 38.4135,-134.947 L 38.6864,-134.79 L 38.8717,-134.535 L 38.9372,-134.227 L 38.8717,-133.918
 L 38.6864,-133.663 L 38.4135,-133.506 L 38.1001,-133.473 z
M 62.2159,-133.57 L 61.9816,-133.781 L 61.8534,-134.069 L 61.8534,-134.384 L 61.9816,-134.672 L 62.2159,-134.883
 L 62.5157,-134.98 L 62.8291,-134.947 L 63.102,-134.79 L 63.2873,-134.535 L 63.3528,-134.227 L 63.2873,-133.918
 L 63.102,-133.663 L 62.8291,-133.506 L 62.5157,-133.473 z
M 35.8281,-131.841 L 35.5938,-132.051 L 35.4657,-132.339 L 35.4657,-132.655 L 35.5938,-132.943 L 35.8281,-133.153
 L 36.1279,-133.251 L 36.4413,-133.218 L 36.7143,-133.06 L 36.8996,-132.805 L 36.9651,-132.497 L 36.8996,-132.189
 L 36.7143,-131.934 L 36.4413,-131.776 L 36.1279,-131.743 z
M 64.188,-131.841 L 63.9538,-132.051 L 63.8256,-132.339 L 63.8256,-132.655 L 63.9538,-132.943 L 64.188,-133.153
 L 64.4878,-133.251 L 64.8013,-133.218 L 65.0742,-133.06 L 65.2595,-132.805 L 65.325,-132.497 L 65.2595,-132.189
 L 65.0742,-131.934 L 64.8013,-131.776 L 64.4878,-131.743 z
M 34.0985,-129.868 L 33.8643,-130.079 L 33.7361,-130.367 L 33.7361,-130.682 L 33.8643,-130.97 L 34.0985,-131.181
 L 34.3983,-131.279 L 34.7118,-131.246 L 34.9847,-131.088 L 35.17,-130.833 L 35.2355,-130.525 L 35.17,-130.217
 L 34.9847,-129.962 L 34.7118,-129.804 L 34.3983,-129.771 z
M 65.9176,-129.868 L 65.6833,-130.079 L 65.5551,-130.367 L 65.5551,-130.682 L 65.6833,-130.97 L 65.9176,-131.181
 L 66.2174,-131.279 L 66.5308,-131.246 L 66.8038,-131.088 L 66.989,-130.833 L 67.0546,-130.525 L 66.989,-130.217
 L 66.8038,-129.962 L 66.5308,-129.804 L 66.2174,-129.771 z
M 32.6412,-127.687 L 32.407,-127.898 L 32.2788,-128.186 L 32.2788,-128.501 L 32.407,-128.789 L 32.6412,-129
 L 32.941,-129.098 L 33.2544,-129.065 L 33.5274,-128.907 L 33.7127,-128.652 L 33.7782,-128.344 L 33.7127,-128.036
 L 33.5274,-127.78 L 33.2544,-127.623 L 32.941,-127.59 z
M 67.3749,-127.687 L 67.1407,-127.898 L 67.0125,-128.186 L 67.0125,-128.501 L 67.1407,-128.789 L 67.3749,-129
 L 67.6747,-129.098 L 67.9881,-129.065 L 68.2611,-128.907 L 68.4464,-128.652 L 68.5119,-128.344 L 68.4464,-128.036
 L 68.2611,-127.78 L 67.9881,-127.623 L 67.6747,-127.59 z
M 46.4771,-124.907 L 46.4771,-127.727 L 54.2971,-127.727 L 54.2971,-124.907 z
M 31.481,-125.335 L 31.2468,-125.546 L 31.1186,-125.834 L 31.1186,-126.149 L 31.2468,-126.437 L 31.481,-126.648
 L 31.7808,-126.745 L 32.0943,-126.712 L 32.3672,-126.554 L 32.5525,-126.299 L 32.618,-125.991 L 32.5525,-125.683
 L 32.3672,-125.428 L 32.0943,-125.27 L 31.7808,-125.237 z
M 68.5351,-125.335 L 68.3009,-125.546 L 68.1727,-125.834 L 68.1727,-126.149 L 68.3009,-126.437 L 68.5351,-126.648
 L 68.8349,-126.745 L 69.1483,-126.712 L 69.4213,-126.554 L 69.6066,-126.299 L 69.6721,-125.991 L 69.6066,-125.683
 L 69.4213,-125.428 L 69.1483,-125.27 L 68.8349,-125.237 z
M 30.6378,-122.851 L 30.4036,-123.062 L 30.2754,-123.35 L 30.2754,-123.665 L 30.4036,-123.953 L 30.6378,-124.164
 L 30.9376,-124.261 L 31.2511,-124.228 L 31.524,-124.071 L 31.7093,-123.816 L 31.7748,-123.507 L 31.7093,-123.199
 L 31.524,-122.944 L 31.2511,-122.786 L 30.9376,-122.753 z
M 69.3783,-122.851 L 69.144,-123.062 L 69.0158,-123.35 L 69.0158,-123.665 L 69.144,-123.953 L 69.3783,-124.164
 L 69.6781,-124.261 L 69.9915,-124.228 L 70.2645,-124.071 L 70.4497,-123.816 L 70.5153,-123.507 L 70.4497,-123.199
 L 70.2645,-122.944 L 69.9915,-122.786 L 69.6781,-122.753 z
M 56.9771,-114.407 L 56.9771,-122.227 L 59.7971,-122.227 L 59.7971,-114.407 z
M 40.9771,-114.407 L 40.9771,-122.227 L 43.7971,-122.227 L 43.7971,-114.407 z
M 30.1261,-120.278 L 29.8919,-120.489 L 29.7637,-120.777 L 29.7637,-121.092 L 29.8919,-121.38 L 30.1261,-121.591
 L 30.4259,-121.688 L 30.7393,-121.655 L 31.0123,-121.498 L 31.1976,-121.243 L 31.2631,-120.935 L 31.1976,-120.626
 L 31.0123,-120.371 L 30.7393,-120.214 L 30.4259,-120.181 z
M 69.89,-120.278 L 69.6558,-120.489 L 69.5276,-120.777 L 69.5276,-121.092 L 69.6558,-121.38 L 69.89,-121.591
 L 70.1898,-121.688 L 70.5033,-121.655 L 70.7762,-121.498 L 70.9615,-121.243 L 71.027,-120.935 L 70.9615,-120.626
 L 70.7762,-120.371 L 70.5033,-120.214 L 70.1898,-120.181 z
M 50.095,-116.006 L 49.8077,-116.06 L 49.5293,-116.151 L 49.2646,-116.275 L 49.0177,-116.432 L 48.9771,-116.466
 L 48.9771,-117.99 L 45.4771,-117.99 L 45.4771,-118.644 L 48.9771,-118.644 L 48.9771,-120.168 L 49.0177,-120.202
 L 49.2646,-120.359 L 49.5293,-120.483 L 49.8077,-120.574 L 50.095,-120.628 L 50.3871,-120.647 L 50.6791,-120.628
 L 50.9664,-120.574 L 51.2448,-120.483 L 51.5095,-120.359 L 51.7564,-120.202 L 51.7971,-120.168 L 51.7971,-118.644
 L 55.2971,-118.644 L 55.2971,-117.99 L 51.7971,-117.99 L 51.7971,-116.466 L 51.7564,-116.432 L 51.5095,-116.275
 L 51.2448,-116.151 L 50.9664,-116.06 L 50.6791,-116.006 L 50.3871,-115.987 z
M 29.9545,-117.661 L 29.7203,-117.872 L 29.5921,-118.159 L 29.5921,-118.475 L 29.7203,-118.763 L 29.9545,-118.973
 L 30.2543,-119.071 L 30.5678,-119.038 L 30.8407,-118.88 L 31.026,-118.625 L 31.0915,-118.317 L 31.026,-118.009
 L 30.8407,-117.754 L 30.5678,-117.596 L 30.2543,-117.563 z
M 70.0616,-117.661 L 69.8273,-117.872 L 69.6991,-118.159 L 69.6991,-118.475 L 69.8273,-118.763 L 70.0616,-118.973
 L 70.3614,-119.071 L 70.6748,-119.038 L 70.9478,-118.88 L 71.133,-118.625 L 71.1986,-118.317 L 71.133,-118.009
 L 70.9478,-117.754 L 70.6748,-117.596 L 70.3614,-117.563 z
M 30.1261,-115.043 L 29.8919,-115.254 L 29.7637,-115.542 L 29.7637,-115.857 L 29.8919,-116.145 L 30.1261,-116.356
 L 30.4259,-116.453 L 30.7393,-116.42 L 31.0123,-116.263 L 31.1976,-116.008 L 31.2631,-115.7 L 31.1976,-115.391
 L 31.0123,-115.136 L 30.7393,-114.979 L 30.4259,-114.946 z
M 69.89,-115.043 L 69.6558,-115.254 L 69.5276,-115.542 L 69.5276,-115.857 L 69.6558,-116.145 L 69.89,-116.356
 L 70.1898,-116.453 L 70.5033,-116.42 L 70.7762,-116.263 L 70.9615,-116.008 L 71.027,-115.7 L 70.9615,-115.391
 L 70.7762,-115.136 L 70.5033,-114.979 L 70.1898,-114.946 z
M 30.6378,-112.47 L 30.4036,-112.681 L 30.2754,-112.969 L 30.2754,-113.284 L 30.4036,-113.572 L 30.6378,-113.783
 L 30.9376,-113.881 L 31.2511,-113.848 L 31.524,-113.69 L 31.7093,-113.435 L 31.7748,-113.127 L 31.7093,-112.819
 L 31.524,-112.564 L 31.2511,-112.406 L 30.9376,-112.373 z
M 69.3783,-112.47 L 69.144,-112.681 L 69.0158,-112.969 L 69.0158,-113.284 L 69.144,-113.572 L 69.3783,-113.783
 L 69.6781,-113.881 L 69.9915,-113.848 L 70.2645,-113.69 L 70.4497,-113.435 L 70.5153,-113.127 L 70.4497,-112.819
 L 70.2645,-112.564 L 69.9915,-112.406 L 69.6781,-112.373 z
M 46.4771,-108.907 L 46.4771,-111.727 L 54.2971,-111.727 L 54.2971,-108.907 z
M 31.481,-109.986 L 31.2468,-110.197 L 31.1186,-110.485 L 31.1186,-110.8 L 31.2468,-111.088 L 31.481,-111.299
 L 31.7808,-111.397 L 32.0943,-111.364 L 32.3672,-111.206 L 32.5525,-110.951 L 32.618,-110.643 L 32.5525,-110.335
 L 32.3672,-110.08 L 32.0943,-109.922 L 31.7808,-109.889 z
M 68.5351,-109.986 L 68.3009,-110.197 L 68.1727,-110.485 L 68.1727,-110.8 L 68.3009,-111.088 L 68.5351,-111.299
 L 68.8349,-111.397 L 69.1483,-111.364 L 69.4213,-111.206 L 69.6066,-110.951 L 69.6721,-110.643 L 69.6066,-110.335
 L 69.4213,-110.08 L 69.1483,-109.922 L 68.8349,-109.889 z
M 32.6412,-107.634 L 32.407,-107.845 L 32.2788,-108.133 L 32.2788,-108.448 L 32.407,-108.736 L 32.6412,-108.947
 L 32.941,-109.044 L 33.2544,-109.011 L 33.5274,-108.854 L 33.7127,-108.599 L 33.7782,-108.29 L 33.7127,-107.982
 L 33.5274,-107.727 L 33.2544,-107.569 L 32.941,-107.536 z
M 67.3749,-107.634 L 67.1407,-107.845 L 67.0125,-108.133 L 67.0125,-108.448 L 67.1407,-108.736 L 67.3749,-108.947
 L 67.6747,-109.044 L 67.9881,-109.011 L 68.2611,-108.854 L 68.4464,-108.599 L 68.5119,-108.29 L 68.4464,-107.982
 L 68.2611,-107.727 L 67.9881,-107.569 L 67.6747,-107.536 z
M 34.0985,-105.453 L 33.8643,-105.664 L 33.7361,-105.952 L 33.7361,-106.267 L 33.8643,-106.555 L 34.0985,-106.766
 L 34.3983,-106.863 L 34.7118,-106.83 L 34.9847,-106.673 L 35.17,-106.418 L 35.2355,-106.109 L 35.17,-105.801
 L 34.9847,-105.546 L 34.7118,-105.388 L 34.3983,-105.355 z
M 65.9176,-105.453 L 65.6833,-105.664 L 65.5551,-105.952 L 65.5551,-106.267 L 65.6833,-106.555 L 65.9176,-106.766
 L 66.2174,-106.863 L 66.5308,-106.83 L 66.8038,-106.673 L 66.989,-106.418 L 67.0546,-106.109 L 66.989,-105.801
 L 66.8038,-105.546 L 66.5308,-105.388 L 66.2174,-105.355 z
M 35.8281,-103.481 L 35.5938,-103.692 L 35.4657,-103.979 L 35.4657,-104.295 L 35.5938,-104.583 L 35.8281,-104.793
 L 36.1279,-104.891 L 36.4413,-104.858 L 36.7143,-104.7 L 36.8996,-104.445 L 36.9651,-104.137 L 36.8996,-103.829
 L 36.7143,-103.574 L 36.4413,-103.416 L 36.1279,-103.383 z
M 64.188,-103.481 L 63.9538,-103.692 L 63.8256,-103.979 L 63.8256,-104.295 L 63.9538,-104.583 L 64.188,-104.793
 L 64.4878,-104.891 L 64.8013,-104.858 L 65.0742,-104.7 L 65.2595,-104.445 L 65.325,-104.137 L 65.2595,-103.829
 L 65.0742,-103.574 L 64.8013,-103.416 L 64.4878,-103.383 z
M 37.8002,-101.751 L 37.566,-101.962 L 37.4378,-102.25 L 37.4378,-102.565 L 37.566,-102.853 L 37.8002,-103.064
 L 38.1001,-103.161 L 38.4135,-103.128 L 38.6864,-102.971 L 38.8717,-102.716 L 38.9372,-102.408 L 38.8717,-102.099
 L 38.6864,-101.844 L 38.4135,-101.687 L 38.1001,-101.654 z
M 62.2159,-101.751 L 61.9816,-101.962 L 61.8534,-102.25 L 61.8534,-102.565 L 61.9816,-102.853 L 62.2159,-103.064
 L 62.5157,-103.161 L 62.8291,-103.128 L 63.102,-102.971 L 63.2873,-102.716 L 63.3528,-102.408 L 63.2873,-102.099
 L 63.102,-101.844 L 62.8291,-101.687 L 62.5157,-101.654 z
M 39.9813,-100.294 L 39.7471,-100.505 L 39.6189,-100.793 L 39.6189,-101.108 L 39.7471,-101.396 L 39.9813,-101.607
 L 40.2811,-101.704 L 40.5945,-101.671 L 40.8675,-101.513 L 41.0528,-101.258 L 41.1183,-100.95 L 41.0528,-100.642
 L 40.8675,-100.387 L 40.5945,-100.229 L 40.2811,-100.196 z
M 60.0348,-100.294 L 59.8006,-100.505 L 59.6724,-100.793 L 59.6724,-101.108 L 59.8006,-101.396 L 60.0348,-101.607
 L 60.3346,-101.704 L 60.648,-101.671 L 60.921,-101.513 L 61.1063,-101.258 L 61.1718,-100.95 L 61.1063,-100.642
 L 60.921,-100.387 L 60.648,-100.229 L 60.3346,-100.196 z
M 42.3339,-99.1336 L 42.0997,-99.3445 L 41.9715,-99.6324 L 41.9715,-99.9476 L 42.0997,-100.236 L 42.3339,-100.446
 L 42.6337,-100.544 L 42.9471,-100.511 L 43.2201,-100.353 L 43.4054,-100.098 L 43.4709,-99.79 L 43.4054,-99.4817
 L 43.2201,-99.2267 L 42.9471,-99.0691 L 42.6337,-99.0362 z
M 57.6822,-99.1336 L 57.448,-99.3445 L 57.3198,-99.6324 L 57.3198,-99.9476 L 57.448,-100.236 L 57.6822,-100.446
 L 57.982,-100.544 L 58.2954,-100.511 L 58.5684,-100.353 L 58.7537,-100.098 L 58.8192,-99.79 L 58.7537,-99.4817
 L 58.5684,-99.2267 L 58.2954,-99.0691 L 57.982,-99.0362 z
M 44.8178,-98.2904 L 44.5836,-98.5013 L 44.4554,-98.7892 L 44.4554,-99.1044 L 44.5836,-99.3923 L 44.8178,-99.6033
 L 45.1176,-99.7007 L 45.4311,-99.6677 L 45.704,-99.5101 L 45.8893,-99.2551 L 45.9548,-98.9468 L 45.8893,-98.6385
 L 45.704,-98.3835 L 45.4311,-98.2259 L 45.1176,-98.193 z
M 55.1983,-98.2904 L 54.9641,-98.5013 L 54.8358,-98.7892 L 54.8358,-99.1044 L 54.9641,-99.3923 L 55.1983,-99.6033
 L 55.4981,-99.7007 L 55.8115,-99.6677 L 56.0845,-99.5101 L 56.2697,-99.2551 L 56.3353,-98.9468 L 56.2697,-98.6385
 L 56.0845,-98.3835 L 55.8115,-98.2259 L 55.4981,-98.193 z
M 47.3905,-97.7787 L 47.1563,-97.9895 L 47.0281,-98.2775 L 47.0281,-98.5927 L 47.1563,-98.8806 L 47.3905,-99.0915
 L 47.6903,-99.1889 L 48.0038,-99.156 L 48.2767,-98.9984 L 48.462,-98.7434 L 48.5275,-98.4351 L 48.462,-98.1268
 L 48.2767,-97.8718 L 48.0038,-97.7142 L 47.6904,-97.6812 z
M 52.6255,-97.7787 L 52.3913,-97.9895 L 52.2631,-98.2775 L 52.2631,-98.5927 L 52.3913,-98.8806 L 52.6255,-99.0915
 L 52.9253,-99.1889 L 53.2388,-99.156 L 53.5117,-98.9984 L 53.697,-98.7434 L 53.7625,-98.4351 L 53.697,-98.1268
 L 53.5117,-97.8718 L 53.2388,-97.7142 L 52.9254,-97.6812 z
M 50.0081,-97.6071 L 49.7738,-97.818 L 49.6456,-98.1059 L 49.6456,-98.4211 L 49.7738,-98.709 L 50.0081,-98.9199
 L 50.3078,-99.0173 L 50.6213,-98.9844 L 50.8942,-98.8268 L 51.0795,-98.5718 L 51.145,-98.2635 L 51.0795,-97.9552
 L 50.8942,-97.7002 L 50.6213,-97.5426 L 50.3078,-97.5097 z
" stroke="black" fill="lightgray" stroke-width="0.5"/>
</svg>
