<?xml version="1.0" standalone="no"?>
<!DOCTYPE svg PUBLIC "-//W3C//DTD SVG 1.1//EN" "http://www.w3.org/Graphics/SVG/1.1/DTD/svg11.dtd">
<svg width="102mm" height="45mm" viewBox="-1 -44 102 45" xmlns="http://www.w3.org/2000/svg" version="1.1">
<title>OpenSCAD Model</title>
<path d="
M 100.979,-43.0435 L 99.4986,-43.0435 L 99.4986,-39.0435 L 96.2786,-39.0435 L 96.2786,-43.0435 L 4.61,-43.0435
 L 4.61,-39.0435 L 1.38998,-39.0435 L 1.38998,-43.0435 L -0.0899963,-43.0435 L -0.0899963,-18.41 L 3.42142,-18.41
 L 3.94669,-18.3687 L 4.45549,-18.2465 L 4.93889,-18.0463 L 5.38507,-17.7728 L 5.78299,-17.433 L 6.12285,-17.0351
 L 6.39626,-16.5889 L 6.5965,-16.1055 L 6.71866,-15.5967 L 6.75972,-15.075 L 6.71866,-14.5533 L 6.5965,-14.0445
 L 6.39626,-13.5611 L 6.12285,-13.1149 L 5.78299,-12.717 L 5.38507,-12.3772 L 4.93889,-12.1037 L 4.45549,-11.9035
 L 3.94669,-11.7813 L 3.42142,-11.74 L 1.24646,-11.74 L 1.04033,-11.7238 L 0.835846,-11.6747 L 0.641541,-11.5942
 L 0.462204,-11.4843 L 0.302277,-11.3477 L 0.165695,-11.1878 L 0.0558014,-11.0085 L -0.0246735,-10.8142 L -0.0737762,-10.6097
 L -0.0899963,-10.4035 L -0.0899963,0.0899963 L 100.979,0.0899963 z
M 64.6046,-38.1377 L 64.1751,-38.2772 L 63.7842,-38.5029 L 63.4487,-38.805 L 63.1833,-39.1703 L 62.9997,-39.5827
 L 62.9058,-40.0242 L 62.9058,-40.4757 L 62.9997,-40.9173 L 63.1833,-41.3297 L 63.4487,-41.695 L 63.7842,-41.9971
 L 64.1751,-42.2228 L 64.6046,-42.3623 L 65.0535,-42.4095 L 65.5025,-42.3623 L 65.9319,-42.2228 L 66.3228,-41.9971
 L 66.6583,-41.695 L 66.9237,-41.3297 L 67.1073,-40.9173 L 67.2012,-40.4757 L 67.2012,-40.0242 L 67.1073,-39.5827
 L 66.9237,-39.1703 L 66.6583,-38.805 L 66.3228,-38.5029 L 65.9319,-38.2772 L 65.5025,-38.1377 L 65.0535,-38.0905
 z
M 93.4286,-35.1668 L 93.4286,-37.5868 L 96.3486,-37.5868 L 96.3486,-35.1668 z
M 4.54001,-35.1668 L 4.54001,-37.5868 L 7.45999,-37.5868 L 7.45999,-35.1668 z
M 55.5571,-8.34 L 54.7854,-8.40074 L 54.0363,-8.58058 L 53.3246,-8.8754 L 52.6677,-9.27795 L 52.0818,-9.77832
 L 51.5815,-10.3642 L 51.1789,-11.0211 L 50.8841,-11.7328 L 50.7043,-12.4819 L 50.6435,-13.2536 L 50.6435,-32.2464
 L 50.7043,-33.0181 L 50.8841,-33.7672 L 51.1789,-34.4789 L 51.5815,-35.1358 L 52.0818,-35.7217 L 52.6677,-36.222
 L 53.3246,-36.6246 L 54.0363,-36.9194 L 54.7854,-37.0993 L 55.5571,-37.16 L 80.5499,-37.16 L 81.3216,-37.0993
 L 82.0707,-36.9194 L 82.7824,-36.6246 L 83.4393,-36.222 L 84.0252,-35.7217 L 84.5256,-35.1358 L 84.9281,-34.4789
 L 85.2229,-33.7672 L 85.4028,-33.0181 L 85.4635,-32.2464 L 85.4635,-13.2536 L 85.4028,-12.4819 L 85.2229,-11.7328
 L 84.9281,-11.0211 L 84.5256,-10.3642 L 84.0252,-9.77832 L 83.4393,-9.27795 L 82.7824,-8.8754 L 82.0707,-8.58058
 L 81.3216,-8.40074 L 80.5499,-8.34 z
M 94.6629,-28.5791 L 94.2213,-28.6729 L 93.8089,-28.8566 L 93.4436,-29.1219 L 93.1415,-29.4574 L 92.9158,-29.8484
 L 92.7763,-30.2778 L 92.7291,-30.7268 L 92.7763,-31.1757 L 92.9158,-31.6051 L 93.1415,-31.9961 L 93.4436,-32.3316
 L 93.8089,-32.597 L 94.2213,-32.7806 L 94.6629,-32.8745 L 95.1143,-32.8745 L 95.5559,-32.7806 L 95.9683,-32.597
 L 96.3336,-32.3316 L 96.6357,-31.9961 L 96.8614,-31.6051 L 97.0009,-31.1757 L 97.0481,-30.7268 L 97.0009,-30.2778
 L 96.8614,-29.8484 L 96.6357,-29.4574 L 96.3336,-29.1219 L 95.9683,-28.8566 L 95.5559,-28.6729 L 95.1143,-28.5791
 z
M 5.77426,-28.5791 L 5.33269,-28.6729 L 4.92029,-28.8566 L 4.55501,-29.1219 L 4.25293,-29.4574 L 4.02722,-29.8484
 L 3.8877,-30.2778 L 3.8405,-30.7268 L 3.8877,-31.1757 L 4.02722,-31.6051 L 4.25293,-31.9961 L 4.55501,-32.3316
 L 4.92029,-32.597 L 5.33269,-32.7806 L 5.77426,-32.8745 L 6.22574,-32.8745 L 6.66731,-32.7806 L 7.07971,-32.597
 L 7.44499,-32.3316 L 7.74707,-31.9961 L 7.97278,-31.6051 L 8.1123,-31.1757 L 8.1595,-30.7268 L 8.1123,-30.2778
 L 7.97278,-29.8484 L 7.74707,-29.4574 L 7.44499,-29.1219 L 7.07971,-28.8566 L 6.66731,-28.6729 L 6.22574,-28.5791
 z
M 38.4039,-9.01768 L 37.9745,-9.15721 L 37.5836,-9.38292 L 37.2481,-9.685 L 36.9827,-10.0503 L 36.7991,-10.4627
 L 36.7052,-10.9043 L 36.7052,-29.8057 L 36.7991,-30.2473 L 36.9827,-30.6597 L 37.2481,-31.025 L 37.5836,-31.3271
 L 37.9745,-31.5528 L 38.4039,-31.6923 L 38.8529,-31.7395 L 39.3018,-31.6923 L 39.7312,-31.5528 L 40.1222,-31.3271
 L 40.4577,-31.025 L 40.7231,-30.6597 L 40.9067,-30.2473 L 41.0005,-29.8057 L 41.0005,-10.9043 L 40.9067,-10.4627
 L 40.7231,-10.0503 L 40.4577,-9.685 L 40.1222,-9.38292 L 39.7312,-9.15721 L 39.3018,-9.01768 L 38.8529,-8.97049
 z
M 30.1279,-12.2474 L 29.9653,-12.3197 L 29.8463,-12.452 L 29.7897,-12.6259 L 29.7897,-29.7269 L 29.8098,-29.9182
 L 29.8988,-30.0724 L 30.0428,-30.177 L 30.2169,-30.214 L 30.3909,-30.177 L 30.5349,-30.0724 L 30.6239,-29.9182
 L 30.644,-29.7269 L 30.644,-12.6259 L 30.5875,-12.452 L 30.4684,-12.3197 L 30.3059,-12.2474 z
M 93.4286,-19.54 L 93.4286,-24.46 L 96.3486,-24.46 L 96.3486,-19.54 z
M 4.54001,-19.54 L 4.54001,-24.46 L 7.45999,-24.46 L 7.45999,-19.54 z
M 26.2072,-5.09274 L 26.1235,-5.11053 L 26.0453,-5.14536 L 25.976,-5.19569 L 25.9187,-5.25932 L 25.8759,-5.33344
 L 25.8495,-5.41489 L 25.84,-5.50478 L 25.84,-7.49522 L 25.8495,-7.58511 L 25.8759,-7.66656 L 25.9187,-7.74068
 L 25.976,-7.80431 L 26.0453,-7.85464 L 26.1235,-7.88947 L 26.2072,-7.90726 L 27.2928,-7.90726 L 27.3765,-7.88947
 L 27.4547,-7.85464 L 27.524,-7.80431 L 27.5813,-7.74068 L 27.6241,-7.66656 L 27.6505,-7.58511 L 27.66,-7.49522
 L 27.66,-5.50478 L 27.6505,-5.41489 L 27.6241,-5.33344 L 27.5813,-5.25932 L 27.524,-5.19569 L 27.4547,-5.14536
 L 27.3765,-5.11053 L 27.2928,-5.09274 z
M 17.7072,-5.09274 L 17.6235,-5.11053 L 17.5453,-5.14536 L 17.476,-5.19569 L 17.4187,-5.25932 L 17.3759,-5.33344
 L 17.3495,-5.41489 L 17.34,-5.50478 L 17.34,-7.49522 L 17.3495,-7.58511 L 17.3759,-7.66656 L 17.4187,-7.74068
 L 17.476,-7.80431 L 17.5453,-7.85464 L 17.6235,-7.88947 L 17.7072,-7.90726 L 18.7928,-7.90726 L 18.8765,-7.88947
 L 18.9547,-7.85464 L 19.024,-7.80431 L 19.0813,-7.74068 L 19.1241,-7.66656 L 19.1505,-7.58511 L 19.16,-7.49522
 L 19.16,-5.50478 L 19.1505,-5.41489 L 19.1241,-5.33344 L 19.0813,-5.25932 L 19.024,-5.19569 L 18.9547,-5.14536
 L 18.8765,-5.11053 L 18.7928,-5.09274 z
M 64.6046,-3.1377 L 64.1751,-3.27722 L 63.7842,-3.50293 L 63.4487,-3.80501 L 63.1833,-4.17029 L 62.9997,-4.58269
 L 62.9058,-5.02426 L 62.9058,-5.47575 L 62.9997,-5.91733 L 63.1833,-6.32973 L 63.4487,-6.69501 L 63.7842,-6.99709
 L 64.1751,-7.22279 L 64.6046,-7.36232 L 65.0535,-7.4095 L 65.5025,-7.36232 L 65.9319,-7.22279 L 66.3228,-6.99709
 L 66.6583,-6.69501 L 66.9237,-6.32973 L 67.1073,-5.91733 L 67.2012,-5.47575 L 67.2012,-5.02426 L 67.1073,-4.58269
 L 66.9237,-4.17029 L 66.6583,-3.80501 L 66.3228,-3.50293 L 65.9319,-3.27722 L 65.5025,-3.1377 L 65.0535,-3.0905
 z
" stroke="black" fill="lightgray" stroke-width="0.5"/>
</svg>
