<?xml version="1.0" standalone="no"?>
<!DOCTYPE svg PUBLIC "-//W3C//DTD SVG 1.1//EN" "http://www.w3.org/Graphics/SVG/1.1/DTD/svg11.dtd">
<svg width="20mm" height="20mm" viewBox="58 -28 20 20" xmlns="http://www.w3.org/2000/svg" version="1.1">
<title>OpenSCAD Model</title>
<path d="
M 64.0935,-11.39 L 72.0135,-11.39 L 72.0135,-8.34 L 77.6435,-8.34 L 77.6435,-13.97 L 74.5935,-13.97
 L 74.5935,-21.89 L 77.6435,-21.89 L 77.6435,-27.52 L 72.0135,-27.52 L 72.0135,-24.47 L 64.0935,-24.47
 L 64.0935,-27.52 L 58.4635,-27.52 L 58.4635,-21.89 L 61.5135,-21.89 L 61.5135,-13.97 L 58.4635,-13.97
 L 58.4635,-8.34 L 64.0935,-8.34 z
M 67.8278,-15.7823 L 67.3862,-15.8762 L 66.9738,-16.0598 L 66.6085,-16.3252 L 66.3064,-16.6607 L 66.0807,-17.0516
 L 65.9412,-17.481 L 65.894,-17.93 L 65.9412,-18.3789 L 66.0807,-18.8084 L 66.3064,-19.1993 L 66.6085,-19.5348
 L 66.9738,-19.8002 L 67.3862,-19.9838 L 67.8278,-20.0777 L 68.2793,-20.0777 L 68.7208,-19.9838 L 69.1332,-19.8002
 L 69.4985,-19.5348 L 69.8006,-19.1993 L 70.0263,-18.8084 L 70.1658,-18.3789 L 70.213,-17.93 L 70.1658,-17.481
 L 70.0263,-17.0516 L 69.8006,-16.6607 L 69.4985,-16.3252 L 69.1332,-16.0598 L 68.7208,-15.8762 L 68.2793,-15.7823
 z
" stroke="black" fill="lightgray" stroke-width="0.5"/>
</svg>
