<?xml version="1.0" standalone="no"?>
<!DOCTYPE svg PUBLIC "-//W3C//DTD SVG 1.1//EN" "http://www.w3.org/Graphics/SVG/1.1/DTD/svg11.dtd">
<svg width="48mm" height="2mm" viewBox="66 -119 48 2" xmlns="http://www.w3.org/2000/svg" version="1.1">
<title>OpenSCAD Model</title>
<path d="
M 113.501,-117.999 L 113.565,-118.027 L 113.621,-118.068 L 113.668,-118.12 L 113.703,-118.181 L 113.725,-118.248
 L 113.732,-118.317 L 113.725,-118.387 L 113.703,-118.453 L 113.668,-118.514 L 113.621,-118.566 L 113.565,-118.607
 L 113.501,-118.635 L 113.433,-118.65 L 112.3,-118.65 L 112.232,-118.635 L 112.168,-118.607 L 112.111,-118.566
 L 112.064,-118.514 L 112.03,-118.453 L 112.008,-118.387 L 112.001,-118.317 L 112.008,-118.248 L 112.03,-118.181
 L 112.064,-118.12 L 112.111,-118.068 L 112.168,-118.027 L 112.232,-117.999 L 112.3,-117.984 L 113.433,-117.984
 z
M 67.994,-117.999 L 68.0578,-118.027 L 68.1144,-118.068 L 68.1612,-118.12 L 68.1962,-118.181 L 68.2178,-118.248
 L 68.2251,-118.317 L 68.2178,-118.387 L 68.1962,-118.453 L 68.1612,-118.514 L 68.1144,-118.566 L 68.0578,-118.607
 L 67.994,-118.635 L 67.9255,-118.65 L 66.7931,-118.65 L 66.7247,-118.635 L 66.6609,-118.607 L 66.6042,-118.566
 L 66.5575,-118.514 L 66.5225,-118.453 L 66.5009,-118.387 L 66.4936,-118.317 L 66.5009,-118.248 L 66.5225,-118.181
 L 66.5575,-118.12 L 66.6042,-118.068 L 66.6609,-118.027 L 66.7247,-117.999 L 66.7931,-117.984 L 67.9255,-117.984
 z
" stroke="black" fill="lightgray" stroke-width="0.5"/>
</svg>
