<?xml version="1.0" standalone="no"?>
<!DOCTYPE svg PUBLIC "-//W3C//DTD SVG 1.1//EN" "http://www.w3.org/Graphics/SVG/1.1/DTD/svg11.dtd">
<svg width="3mm" height="3mm" viewBox="9 -66 3 3" xmlns="http://www.w3.org/2000/svg" version="1.1">
<title>OpenSCAD Model</title>
<path d="
M 10.582,-63.8065 L 10.6633,-63.8193 L 10.7426,-63.8406 L 10.8192,-63.87 L 10.8925,-63.9073 L 10.9613,-63.952
 L 11.0251,-64.0037 L 11.0833,-64.0619 L 11.135,-64.1257 L 11.1797,-64.1946 L 11.217,-64.2677 L 11.2465,-64.3446
 L 11.2677,-64.4237 L 11.2806,-64.5051 L 11.2849,-64.587 L 11.2806,-64.669 L 11.2677,-64.7504 L 11.2465,-64.8294
 L 11.217,-64.9064 L 11.1797,-64.9794 L 11.135,-65.0484 L 11.0833,-65.1122 L 11.0251,-65.1703 L 10.9613,-65.222
 L 10.8925,-65.2667 L 10.8192,-65.3041 L 10.7425,-65.3335 L 10.6633,-65.3547 L 10.582,-65.3676 L 10.5,-65.3719
 L 10.418,-65.3676 L 10.3367,-65.3547 L 10.2575,-65.3335 L 10.1807,-65.304 L 10.1076,-65.2668 L 10.0387,-65.222
 L 9.97484,-65.1703 L 9.9167,-65.1122 L 9.86499,-65.0484 L 9.82025,-64.9794 L 9.78302,-64.9064 L 9.75349,-64.8294
 L 9.7323,-64.7504 L 9.71942,-64.669 L 9.71512,-64.587 L 9.71942,-64.5051 L 9.7323,-64.4237 L 9.75349,-64.3446
 L 9.78302,-64.2677 L 9.82025,-64.1946 L 9.86499,-64.1257 L 9.9167,-64.0619 L 9.97484,-64.0037 L 10.0387,-63.9521
 L 10.1076,-63.9073 L 10.1808,-63.87 L 10.2574,-63.8406 L 10.3367,-63.8193 L 10.418,-63.8065 L 10.5,-63.8022
 z
" stroke="black" fill="lightgray" stroke-width="0.5"/>
</svg>
