<?xml version="1.0" standalone="no"?>
<!DOCTYPE svg PUBLIC "-//W3C//DTD SVG 1.1//EN" "http://www.w3.org/Graphics/SVG/1.1/DTD/svg11.dtd">
<svg width="102mm" height="25mm" viewBox="-1 -68 102 25" xmlns="http://www.w3.org/2000/svg" version="1.1">
<title>OpenSCAD Model</title>
<path d="
M 100.979,-67.677 L 99.4986,-67.677 L 99.4986,-63.677 L 96.2786,-63.677 L 96.2786,-67.677 L 4.61,-67.677
 L 4.61,-63.677 L 1.38998,-63.677 L 1.38998,-67.677 L -0.0899963,-67.677 L -0.0899963,-43.0435 L 100.979,-43.0435
 z
M 83.2004,-45.5146 L 82.5336,-46.1151 L 82.1686,-46.9348 L 82.1686,-61.8322 L 82.5336,-62.6519 L 83.2004,-63.2524
 L 84.0538,-63.5297 L 84.9463,-63.4359 L 85.7234,-62.9872 L 86.2508,-62.2612 L 86.4394,-61.3741 L 86.4394,-47.3929
 L 86.2508,-46.5058 L 85.7234,-45.7798 L 84.9463,-45.3311 L 84.0538,-45.2373 z
M 93.4286,-59.8003 L 93.4286,-62.2203 L 96.3486,-62.2203 L 96.3486,-59.8003 z
M 4.54001,-59.8003 L 4.54001,-62.2203 L 7.45999,-62.2203 L 7.45999,-59.8003 z
M 94.6629,-53.2126 L 94.2213,-53.3065 L 93.8089,-53.4901 L 93.4436,-53.7555 L 93.1415,-54.091 L 92.9158,-54.4819
 L 92.7763,-54.9113 L 92.7291,-55.3603 L 92.7763,-55.8092 L 92.9158,-56.2387 L 93.1415,-56.6296 L 93.4436,-56.9651
 L 93.8089,-57.2305 L 94.2213,-57.4141 L 94.6629,-57.508 L 95.1143,-57.508 L 95.5559,-57.4141 L 95.9683,-57.2305
 L 96.3336,-56.9651 L 96.6357,-56.6296 L 96.8614,-56.2387 L 97.0009,-55.8092 L 97.0481,-55.3603 L 97.0009,-54.9113
 L 96.8614,-54.4819 L 96.6357,-54.091 L 96.3336,-53.7555 L 95.9683,-53.4901 L 95.5559,-53.3065 L 95.1143,-53.2126
 z
M 5.77426,-53.2126 L 5.33269,-53.3065 L 4.92029,-53.4901 L 4.55501,-53.7555 L 4.25293,-54.091 L 4.02722,-54.4819
 L 3.8877,-54.9113 L 3.8405,-55.3603 L 3.8877,-55.8092 L 4.02722,-56.2387 L 4.25293,-56.6296 L 4.55501,-56.9651
 L 4.92029,-57.2305 L 5.33269,-57.4141 L 5.77426,-57.508 L 6.22574,-57.508 L 6.66731,-57.4141 L 7.07971,-57.2305
 L 7.44499,-56.9651 L 7.74707,-56.6296 L 7.97278,-56.2387 L 8.1123,-55.8092 L 8.1595,-55.3603 L 8.1123,-54.9113
 L 7.97278,-54.4819 L 7.74707,-54.091 L 7.44499,-53.7555 L 7.07971,-53.4901 L 6.66731,-53.3065 L 6.22574,-53.2126
 z
M 93.4286,-46.0003 L 93.4286,-50.9203 L 96.3486,-50.9203 L 96.3486,-46.0003 z
M 4.54001,-46.0003 L 4.54001,-50.9203 L 7.45999,-50.9203 L 7.45999,-46.0003 z
M 43.6198,-45.3353 L 43.1987,-45.4248 L 42.8054,-45.5999 L 42.457,-45.853 L 42.1689,-46.173 L 41.9537,-46.5458
 L 41.8206,-46.9553 L 41.7756,-47.3835 L 41.8206,-47.8117 L 41.9537,-48.2212 L 42.1689,-48.5941 L 42.457,-48.914
 L 42.8054,-49.1671 L 43.1987,-49.3422 L 43.6198,-49.4317 L 44.0504,-49.4317 L 44.4715,-49.3422 L 44.8648,-49.1671
 L 45.2132,-48.914 L 45.5013,-48.5941 L 45.7165,-48.2212 L 45.8496,-47.8117 L 45.8946,-47.3835 L 45.8496,-46.9553
 L 45.7165,-46.5458 L 45.5013,-46.173 L 45.2132,-45.853 L 44.8648,-45.5999 L 44.4715,-45.4248 L 44.0504,-45.3353
 z
" stroke="black" fill="lightgray" stroke-width="0.5"/>
</svg>
