<?xml version="1.0" standalone="no"?>
<!DOCTYPE svg PUBLIC "-//W3C//DTD SVG 1.1//EN" "http://www.w3.org/Graphics/SVG/1.1/DTD/svg11.dtd">
<svg width="45mm" height="45mm" viewBox="28 -141 45 45" xmlns="http://www.w3.org/2000/svg" version="1.1">
<title>OpenSCAD Model</title>
<path d="
M 52.6703,-96.593 L 54.9286,-96.9507 L 57.1371,-97.5425 L 59.2717,-98.3619 L 61.3089,-99.3999 L 63.2264,-100.645
 L 65.0033,-102.084 L 66.62,-103.701 L 68.0589,-105.478 L 69.3042,-107.395 L 70.3422,-109.432 L 71.1616,-111.567
 L 71.7534,-113.775 L 72.111,-116.034 L 72.2307,-118.317 L 72.111,-120.6 L 71.7534,-122.859 L 71.1616,-125.067
 L 70.3422,-127.202 L 69.3042,-129.239 L 68.0589,-131.156 L 66.62,-132.933 L 65.0033,-134.55 L 63.2264,-135.989
 L 61.3089,-137.234 L 59.2717,-138.272 L 57.1371,-139.092 L 54.9286,-139.683 L 52.6703,-140.041 L 50.3871,-140.161
 L 48.1038,-140.041 L 45.8455,-139.683 L 43.637,-139.092 L 41.5025,-138.272 L 39.4652,-137.234 L 37.5477,-135.989
 L 35.7708,-134.55 L 34.1541,-132.933 L 32.7152,-131.156 L 31.4699,-129.239 L 30.4319,-127.202 L 29.6125,-125.067
 L 29.0208,-122.859 L 28.6631,-120.6 L 28.5434,-118.317 L 28.6631,-116.034 L 29.0208,-113.775 L 29.6125,-111.567
 L 30.4319,-109.432 L 31.4699,-107.395 L 32.7152,-105.478 L 34.1541,-103.701 L 35.7708,-102.084 L 37.5477,-100.645
 L 39.4652,-99.3999 L 41.5025,-98.3619 L 43.637,-97.5425 L 45.8455,-96.9507 L 48.1038,-96.593 L 50.3871,-96.4734
 z
M 50.0081,-137.714 L 49.7738,-137.925 L 49.6456,-138.213 L 49.6456,-138.528 L 49.7738,-138.816 L 50.0081,-139.027
 L 50.3078,-139.124 L 50.6213,-139.091 L 50.8942,-138.934 L 51.0795,-138.679 L 51.145,-138.371 L 51.0795,-138.062
 L 50.8942,-137.807 L 50.6213,-137.65 L 50.3078,-137.617 z
M 47.9119,-137.604 L 47.6777,-137.815 L 47.5495,-138.103 L 47.5495,-138.418 L 47.6777,-138.706 L 47.9119,-138.917
 L 48.2117,-139.015 L 48.5251,-138.982 L 48.7981,-138.824 L 48.9834,-138.569 L 49.0489,-138.261 L 48.9834,-137.952
 L 48.7981,-137.697 L 48.5251,-137.54 L 48.2117,-137.507 z
M 52.1042,-137.604 L 51.87,-137.815 L 51.7418,-138.103 L 51.7418,-138.418 L 51.87,-138.706 L 52.1042,-138.917
 L 52.404,-139.015 L 52.7175,-138.982 L 52.9904,-138.824 L 53.1757,-138.569 L 53.2412,-138.261 L 53.1757,-137.952
 L 52.9904,-137.697 L 52.7175,-137.54 L 52.404,-137.507 z
M 45.8387,-137.276 L 45.6045,-137.487 L 45.4763,-137.775 L 45.4763,-138.09 L 45.6045,-138.378 L 45.8387,-138.589
 L 46.1385,-138.686 L 46.4519,-138.653 L 46.7249,-138.496 L 46.9102,-138.241 L 46.9757,-137.932 L 46.9102,-137.624
 L 46.7249,-137.369 L 46.4519,-137.211 L 46.1385,-137.178 z
M 54.1774,-137.276 L 53.9432,-137.487 L 53.815,-137.775 L 53.815,-138.09 L 53.9432,-138.378 L 54.1774,-138.589
 L 54.4772,-138.686 L 54.7906,-138.653 L 55.0636,-138.496 L 55.2489,-138.241 L 55.3144,-137.932 L 55.2489,-137.624
 L 55.0636,-137.369 L 54.7906,-137.211 L 54.4772,-137.178 z
M 43.8112,-136.733 L 43.577,-136.944 L 43.4488,-137.231 L 43.4488,-137.547 L 43.577,-137.835 L 43.8112,-138.045
 L 44.111,-138.143 L 44.4244,-138.11 L 44.6974,-137.952 L 44.8826,-137.697 L 44.9482,-137.389 L 44.8826,-137.081
 L 44.6974,-136.826 L 44.4244,-136.668 L 44.111,-136.635 z
M 56.2049,-136.733 L 55.9707,-136.944 L 55.8425,-137.231 L 55.8425,-137.547 L 55.9707,-137.835 L 56.2049,-138.045
 L 56.5047,-138.143 L 56.8182,-138.11 L 57.0911,-137.952 L 57.2764,-137.697 L 57.3419,-137.389 L 57.2764,-137.081
 L 57.0911,-136.826 L 56.8182,-136.668 L 56.5047,-136.635 z
M 41.8515,-135.98 L 41.6173,-136.191 L 41.4891,-136.479 L 41.4891,-136.794 L 41.6173,-137.082 L 41.8515,-137.293
 L 42.1513,-137.391 L 42.4648,-137.358 L 42.7377,-137.2 L 42.923,-136.945 L 42.9886,-136.637 L 42.923,-136.329
 L 42.7377,-136.074 L 42.4648,-135.916 L 42.1514,-135.883 z
M 58.1645,-135.98 L 57.9303,-136.191 L 57.8021,-136.479 L 57.8021,-136.794 L 57.9303,-137.082 L 58.1645,-137.293
 L 58.4643,-137.391 L 58.7778,-137.358 L 59.0507,-137.2 L 59.236,-136.945 L 59.3015,-136.637 L 59.236,-136.329
 L 59.0507,-136.074 L 58.7778,-135.916 L 58.4643,-135.883 z
M 48.8831,-130.893 L 47.9535,-131.73 L 47.4448,-132.872 L 47.4448,-134.123 L 47.9535,-135.266 L 48.8831,-136.103
 L 50.0726,-136.489 L 51.3166,-136.358 L 52.3998,-135.733 L 53.135,-134.721 L 53.395,-133.498 L 53.135,-132.274
 L 52.3998,-131.262 L 51.3166,-130.637 L 50.0726,-130.506 z
M 39.9813,-135.027 L 39.7471,-135.238 L 39.6189,-135.526 L 39.6189,-135.841 L 39.7471,-136.129 L 39.9813,-136.34
 L 40.2811,-136.438 L 40.5945,-136.405 L 40.8675,-136.247 L 41.0528,-135.992 L 41.1183,-135.684 L 41.0528,-135.376
 L 40.8675,-135.121 L 40.5945,-134.963 L 40.2811,-134.93 z
M 60.0348,-135.027 L 59.8006,-135.238 L 59.6724,-135.526 L 59.6724,-135.841 L 59.8006,-136.129 L 60.0348,-136.34
 L 60.3346,-136.438 L 60.648,-136.405 L 60.921,-136.247 L 61.1063,-135.992 L 61.1718,-135.684 L 61.1063,-135.376
 L 60.921,-135.121 L 60.648,-134.963 L 60.3346,-134.93 z
M 38.2209,-133.884 L 37.9867,-134.095 L 37.8585,-134.383 L 37.8585,-134.698 L 37.9867,-134.986 L 38.2209,-135.197
 L 38.5207,-135.294 L 38.8341,-135.262 L 39.1071,-135.104 L 39.2924,-134.849 L 39.3579,-134.541 L 39.2924,-134.232
 L 39.1071,-133.977 L 38.8341,-133.82 L 38.5207,-133.787 z
M 61.7952,-133.884 L 61.561,-134.095 L 61.4328,-134.383 L 61.4328,-134.698 L 61.561,-134.986 L 61.7952,-135.197
 L 62.095,-135.294 L 62.4084,-135.262 L 62.6814,-135.104 L 62.8667,-134.849 L 62.9322,-134.541 L 62.8667,-134.232
 L 62.6814,-133.977 L 62.4084,-133.82 L 62.095,-133.787 z
M 36.5896,-132.563 L 36.3554,-132.774 L 36.2272,-133.062 L 36.2272,-133.377 L 36.3554,-133.665 L 36.5896,-133.876
 L 36.8894,-133.974 L 37.2029,-133.941 L 37.4758,-133.783 L 37.6611,-133.528 L 37.7266,-133.22 L 37.6611,-132.911
 L 37.4758,-132.656 L 37.2029,-132.499 L 36.8894,-132.466 z
M 63.4265,-132.563 L 63.1922,-132.774 L 63.064,-133.062 L 63.064,-133.377 L 63.1922,-133.665 L 63.4265,-133.876
 L 63.7263,-133.974 L 64.0397,-133.941 L 64.3127,-133.783 L 64.4979,-133.528 L 64.5635,-133.22 L 64.4979,-132.911
 L 64.3127,-132.656 L 64.0397,-132.499 L 63.7263,-132.466 z
M 35.1054,-131.079 L 34.8712,-131.29 L 34.743,-131.578 L 34.743,-131.893 L 34.8712,-132.181 L 35.1054,-132.392
 L 35.4052,-132.489 L 35.7186,-132.456 L 35.9916,-132.299 L 36.1769,-132.044 L 36.2424,-131.735 L 36.1769,-131.427
 L 35.9916,-131.172 L 35.7186,-131.015 L 35.4052,-130.982 z
M 64.9107,-131.079 L 64.6765,-131.29 L 64.5483,-131.578 L 64.5483,-131.893 L 64.6765,-132.181 L 64.9107,-132.392
 L 65.2105,-132.489 L 65.524,-132.456 L 65.7969,-132.299 L 65.9822,-132.044 L 66.0477,-131.735 L 65.9822,-131.427
 L 65.7969,-131.172 L 65.524,-131.015 L 65.2105,-130.982 z
M 33.7844,-129.448 L 33.5502,-129.659 L 33.422,-129.947 L 33.422,-130.262 L 33.5502,-130.55 L 33.7844,-130.761
 L 34.0842,-130.858 L 34.3977,-130.825 L 34.6706,-130.667 L 34.8559,-130.412 L 34.9214,-130.104 L 34.8559,-129.796
 L 34.6706,-129.541 L 34.3977,-129.383 L 34.0842,-129.35 z
M 66.2317,-129.448 L 65.9975,-129.659 L 65.8693,-129.947 L 65.8693,-130.262 L 65.9975,-130.55 L 66.2317,-130.761
 L 66.5315,-130.858 L 66.8449,-130.825 L 67.1179,-130.667 L 67.3032,-130.412 L 67.3687,-130.104 L 67.3032,-129.796
 L 67.1179,-129.541 L 66.8449,-129.383 L 66.5315,-129.35 z
M 32.6412,-127.687 L 32.407,-127.898 L 32.2788,-128.186 L 32.2788,-128.501 L 32.407,-128.789 L 32.6412,-129
 L 32.941,-129.098 L 33.2544,-129.065 L 33.5274,-128.907 L 33.7127,-128.652 L 33.7782,-128.344 L 33.7127,-128.036
 L 33.5274,-127.78 L 33.2544,-127.623 L 32.941,-127.59 z
M 67.3749,-127.687 L 67.1407,-127.898 L 67.0125,-128.186 L 67.0125,-128.501 L 67.1407,-128.789 L 67.3749,-129
 L 67.6747,-129.098 L 67.9881,-129.065 L 68.2611,-128.907 L 68.4464,-128.652 L 68.5119,-128.344 L 68.4464,-128.036
 L 68.2611,-127.78 L 67.9881,-127.623 L 67.6747,-127.59 z
M 46.4771,-124.907 L 46.4771,-127.727 L 54.2971,-127.727 L 54.2971,-124.907 z
M 31.6882,-125.817 L 31.454,-126.028 L 31.3258,-126.316 L 31.3258,-126.631 L 31.454,-126.919 L 31.6883,-127.13
 L 31.988,-127.227 L 32.3015,-127.194 L 32.5744,-127.037 L 32.7597,-126.782 L 32.8252,-126.474 L 32.7597,-126.165
 L 32.5744,-125.91 L 32.3015,-125.753 L 31.9881,-125.72 z
M 68.3278,-125.817 L 68.0936,-126.028 L 67.9654,-126.316 L 67.9654,-126.631 L 68.0936,-126.919 L 68.3279,-127.13
 L 68.6276,-127.227 L 68.9411,-127.194 L 69.2141,-127.037 L 69.3993,-126.782 L 69.4648,-126.474 L 69.3993,-126.165
 L 69.214,-125.91 L 68.9411,-125.753 L 68.6276,-125.72 z
M 30.936,-123.857 L 30.7018,-124.068 L 30.5736,-124.356 L 30.5736,-124.671 L 30.7018,-124.959 L 30.936,-125.17
 L 31.2358,-125.268 L 31.5493,-125.235 L 31.8222,-125.077 L 32.0075,-124.822 L 32.073,-124.514 L 32.0075,-124.206
 L 31.8222,-123.951 L 31.5493,-123.793 L 31.2358,-123.76 z
M 69.0801,-123.857 L 68.8459,-124.068 L 68.7177,-124.356 L 68.7177,-124.671 L 68.8459,-124.959 L 69.0801,-125.17
 L 69.3799,-125.268 L 69.6933,-125.235 L 69.9663,-125.077 L 70.1516,-124.822 L 70.2171,-124.514 L 70.1516,-124.206
 L 69.9663,-123.951 L 69.6933,-123.793 L 69.3799,-123.76 z
M 30.3927,-121.83 L 30.1585,-122.041 L 30.0303,-122.329 L 30.0303,-122.644 L 30.1585,-122.932 L 30.3927,-123.143
 L 30.6926,-123.24 L 31.006,-123.207 L 31.2789,-123.05 L 31.4642,-122.795 L 31.5297,-122.486 L 31.4642,-122.178
 L 31.2789,-121.923 L 31.006,-121.766 L 30.6925,-121.733 z
M 69.6233,-121.83 L 69.3891,-122.041 L 69.2609,-122.329 L 69.2609,-122.644 L 69.3891,-122.932 L 69.6233,-123.143
 L 69.9231,-123.24 L 70.2366,-123.207 L 70.5095,-123.05 L 70.6948,-122.795 L 70.7603,-122.486 L 70.6948,-122.178
 L 70.5095,-121.923 L 70.2366,-121.766 L 69.9231,-121.733 z
M 56.9771,-114.407 L 56.9771,-122.227 L 59.7971,-122.227 L 59.7971,-114.407 z
M 40.9771,-114.407 L 40.9771,-122.227 L 43.7971,-122.227 L 43.7971,-114.407 z
M 30.0644,-119.757 L 29.8302,-119.968 L 29.702,-120.256 L 29.702,-120.571 L 29.8302,-120.859 L 30.0644,-121.07
 L 30.3642,-121.167 L 30.6776,-121.134 L 30.9506,-120.976 L 31.1359,-120.721 L 31.2014,-120.413 L 31.1359,-120.105
 L 30.9506,-119.85 L 30.6776,-119.692 L 30.3642,-119.659 z
M 69.9517,-119.757 L 69.7175,-119.968 L 69.5893,-120.256 L 69.5893,-120.571 L 69.7175,-120.859 L 69.9517,-121.07
 L 70.2515,-121.167 L 70.565,-121.134 L 70.8379,-120.976 L 71.0232,-120.721 L 71.0887,-120.413 L 71.0232,-120.105
 L 70.8379,-119.85 L 70.565,-119.692 L 70.2515,-119.659 z
M 50.095,-116.006 L 49.8077,-116.06 L 49.5293,-116.151 L 49.2646,-116.275 L 49.0177,-116.432 L 48.9771,-116.466
 L 48.9771,-117.99 L 45.4771,-117.99 L 45.4771,-118.644 L 48.9771,-118.644 L 48.9771,-120.168 L 49.0177,-120.202
 L 49.2646,-120.359 L 49.5293,-120.483 L 49.8077,-120.574 L 50.095,-120.628 L 50.3871,-120.647 L 50.6791,-120.628
 L 50.9664,-120.574 L 51.2448,-120.483 L 51.5095,-120.359 L 51.7564,-120.202 L 51.7971,-120.168 L 51.7971,-118.644
 L 55.2971,-118.644 L 55.2971,-117.99 L 51.7971,-117.99 L 51.7971,-116.466 L 51.7564,-116.432 L 51.5095,-116.275
 L 51.2448,-116.151 L 50.9664,-116.06 L 50.6791,-116.006 L 50.3871,-115.987 z
M 29.9545,-117.661 L 29.7203,-117.872 L 29.5921,-118.159 L 29.5921,-118.475 L 29.7203,-118.763 L 29.9545,-118.973
 L 30.2543,-119.071 L 30.5678,-119.038 L 30.8407,-118.88 L 31.026,-118.625 L 31.0915,-118.317 L 31.026,-118.009
 L 30.8407,-117.754 L 30.5678,-117.596 L 30.2543,-117.563 z
M 70.0616,-117.661 L 69.8273,-117.872 L 69.6991,-118.159 L 69.6991,-118.475 L 69.8273,-118.763 L 70.0616,-118.973
 L 70.3614,-119.071 L 70.6748,-119.038 L 70.9478,-118.88 L 71.133,-118.625 L 71.1986,-118.317 L 71.133,-118.009
 L 70.9478,-117.754 L 70.6748,-117.596 L 70.3614,-117.563 z
M 30.0644,-115.564 L 29.8302,-115.775 L 29.702,-116.063 L 29.702,-116.378 L 29.8302,-116.666 L 30.0644,-116.877
 L 30.3642,-116.975 L 30.6776,-116.942 L 30.9506,-116.784 L 31.1359,-116.529 L 31.2014,-116.221 L 31.1359,-115.913
 L 30.9506,-115.658 L 30.6776,-115.5 L 30.3642,-115.467 z
M 69.9517,-115.564 L 69.7175,-115.775 L 69.5893,-116.063 L 69.5893,-116.378 L 69.7175,-116.666 L 69.9517,-116.877
 L 70.2515,-116.975 L 70.565,-116.942 L 70.8379,-116.784 L 71.0232,-116.529 L 71.0887,-116.221 L 71.0232,-115.913
 L 70.8379,-115.658 L 70.565,-115.5 L 70.2515,-115.467 z
M 30.3927,-113.491 L 30.1585,-113.702 L 30.0303,-113.99 L 30.0303,-114.305 L 30.1585,-114.593 L 30.3927,-114.804
 L 30.6925,-114.902 L 31.006,-114.869 L 31.2789,-114.711 L 31.4642,-114.456 L 31.5297,-114.148 L 31.4642,-113.839
 L 31.2789,-113.584 L 31.006,-113.427 L 30.6926,-113.394 z
M 69.6233,-113.491 L 69.3891,-113.702 L 69.2609,-113.99 L 69.2609,-114.305 L 69.3891,-114.593 L 69.6233,-114.804
 L 69.9231,-114.902 L 70.2366,-114.869 L 70.5095,-114.711 L 70.6948,-114.456 L 70.7603,-114.148 L 70.6948,-113.839
 L 70.5095,-113.584 L 70.2366,-113.427 L 69.9231,-113.394 z
M 30.936,-111.464 L 30.7018,-111.675 L 30.5736,-111.963 L 30.5736,-112.278 L 30.7018,-112.566 L 30.936,-112.777
 L 31.2358,-112.874 L 31.5493,-112.841 L 31.8222,-112.683 L 32.0075,-112.428 L 32.073,-112.12 L 32.0075,-111.812
 L 31.8222,-111.557 L 31.5493,-111.399 L 31.2358,-111.366 z
M 69.0801,-111.464 L 68.8459,-111.675 L 68.7177,-111.963 L 68.7177,-112.278 L 68.8459,-112.566 L 69.0801,-112.777
 L 69.3799,-112.874 L 69.6933,-112.841 L 69.9663,-112.683 L 70.1516,-112.428 L 70.2171,-112.12 L 70.1516,-111.812
 L 69.9663,-111.557 L 69.6933,-111.399 L 69.3799,-111.366 z
M 46.4771,-108.907 L 46.4771,-111.727 L 54.2971,-111.727 L 54.2971,-108.907 z
M 31.6883,-109.504 L 31.454,-109.715 L 31.3258,-110.003 L 31.3258,-110.318 L 31.454,-110.606 L 31.6882,-110.817
 L 31.9881,-110.914 L 32.3015,-110.881 L 32.5744,-110.724 L 32.7597,-110.469 L 32.8252,-110.161 L 32.7597,-109.852
 L 32.5744,-109.597 L 32.3015,-109.44 L 31.988,-109.407 z
M 68.3279,-109.504 L 68.0936,-109.715 L 67.9654,-110.003 L 67.9654,-110.318 L 68.0936,-110.606 L 68.3278,-110.817
 L 68.6276,-110.914 L 68.9411,-110.881 L 69.214,-110.724 L 69.3993,-110.469 L 69.4648,-110.161 L 69.3993,-109.852
 L 69.2141,-109.597 L 68.9411,-109.44 L 68.6276,-109.407 z
M 32.6412,-107.634 L 32.407,-107.845 L 32.2788,-108.133 L 32.2788,-108.448 L 32.407,-108.736 L 32.6412,-108.947
 L 32.941,-109.044 L 33.2544,-109.011 L 33.5274,-108.854 L 33.7127,-108.599 L 33.7782,-108.29 L 33.7127,-107.982
 L 33.5274,-107.727 L 33.2544,-107.569 L 32.941,-107.536 z
M 67.3749,-107.634 L 67.1407,-107.845 L 67.0125,-108.133 L 67.0125,-108.448 L 67.1407,-108.736 L 67.3749,-108.947
 L 67.6747,-109.044 L 67.9881,-109.011 L 68.2611,-108.854 L 68.4464,-108.599 L 68.5119,-108.29 L 68.4464,-107.982
 L 68.2611,-107.727 L 67.9881,-107.569 L 67.6747,-107.536 z
M 33.7844,-105.873 L 33.5502,-106.084 L 33.422,-106.372 L 33.422,-106.687 L 33.5502,-106.975 L 33.7844,-107.186
 L 34.0842,-107.284 L 34.3977,-107.251 L 34.6706,-107.093 L 34.8559,-106.838 L 34.9214,-106.53 L 34.8559,-106.222
 L 34.6706,-105.967 L 34.3977,-105.809 L 34.0842,-105.776 z
M 66.2317,-105.873 L 65.9975,-106.084 L 65.8693,-106.372 L 65.8693,-106.687 L 65.9975,-106.975 L 66.2317,-107.186
 L 66.5315,-107.284 L 66.8449,-107.251 L 67.1179,-107.093 L 67.3032,-106.838 L 67.3687,-106.53 L 67.3032,-106.222
 L 67.1179,-105.967 L 66.8449,-105.809 L 66.5315,-105.776 z
M 35.1054,-104.242 L 34.8712,-104.453 L 34.743,-104.741 L 34.743,-105.056 L 34.8712,-105.344 L 35.1054,-105.555
 L 35.4052,-105.652 L 35.7186,-105.62 L 35.9916,-105.462 L 36.1769,-105.207 L 36.2424,-104.899 L 36.1769,-104.59
 L 35.9916,-104.335 L 35.7186,-104.178 L 35.4052,-104.145 z
M 64.9107,-104.242 L 64.6765,-104.453 L 64.5483,-104.741 L 64.5483,-105.056 L 64.6765,-105.344 L 64.9107,-105.555
 L 65.2105,-105.652 L 65.524,-105.62 L 65.7969,-105.462 L 65.9822,-105.207 L 66.0477,-104.899 L 65.9822,-104.59
 L 65.7969,-104.335 L 65.524,-104.178 L 65.2105,-104.145 z
M 36.5896,-102.758 L 36.3554,-102.969 L 36.2272,-103.257 L 36.2272,-103.572 L 36.3554,-103.86 L 36.5896,-104.071
 L 36.8894,-104.168 L 37.2029,-104.135 L 37.4758,-103.978 L 37.6611,-103.723 L 37.7266,-103.414 L 37.6611,-103.106
 L 37.4758,-102.851 L 37.2029,-102.693 L 36.8894,-102.661 z
M 63.4265,-102.758 L 63.1922,-102.969 L 63.064,-103.257 L 63.064,-103.572 L 63.1922,-103.86 L 63.4265,-104.071
 L 63.7263,-104.168 L 64.0397,-104.135 L 64.3127,-103.978 L 64.4979,-103.723 L 64.5635,-103.414 L 64.4979,-103.106
 L 64.3127,-102.851 L 64.0397,-102.693 L 63.7263,-102.661 z
M 38.2209,-101.437 L 37.9867,-101.648 L 37.8585,-101.936 L 37.8585,-102.251 L 37.9867,-102.539 L 38.2209,-102.75
 L 38.5207,-102.847 L 38.8341,-102.814 L 39.1071,-102.657 L 39.2924,-102.402 L 39.3579,-102.093 L 39.2924,-101.785
 L 39.1071,-101.53 L 38.8341,-101.373 L 38.5207,-101.34 z
M 61.7952,-101.437 L 61.561,-101.648 L 61.4328,-101.936 L 61.4328,-102.251 L 61.561,-102.539 L 61.7952,-102.75
 L 62.095,-102.847 L 62.4084,-102.814 L 62.6814,-102.657 L 62.8667,-102.402 L 62.9322,-102.093 L 62.8667,-101.785
 L 62.6814,-101.53 L 62.4084,-101.373 L 62.095,-101.34 z
M 39.9813,-100.294 L 39.7471,-100.505 L 39.6189,-100.793 L 39.6189,-101.108 L 39.7471,-101.396 L 39.9813,-101.607
 L 40.2811,-101.704 L 40.5945,-101.671 L 40.8675,-101.513 L 41.0528,-101.258 L 41.1183,-100.95 L 41.0528,-100.642
 L 40.8675,-100.387 L 40.5945,-100.229 L 40.2811,-100.196 z
M 60.0348,-100.294 L 59.8006,-100.505 L 59.6724,-100.793 L 59.6724,-101.108 L 59.8006,-101.396 L 60.0348,-101.607
 L 60.3346,-101.704 L 60.648,-101.671 L 60.921,-101.513 L 61.1063,-101.258 L 61.1718,-100.95 L 61.1063,-100.642
 L 60.921,-100.387 L 60.648,-100.229 L 60.3346,-100.196 z
M 41.8515,-99.3408 L 41.6173,-99.5517 L 41.4891,-99.8396 L 41.4891,-100.155 L 41.6173,-100.443 L 41.8515,-100.654
 L 42.1514,-100.751 L 42.4648,-100.718 L 42.7377,-100.561 L 42.923,-100.306 L 42.9886,-99.9972 L 42.923,-99.6889
 L 42.7377,-99.4339 L 42.4648,-99.2764 L 42.1513,-99.2434 z
M 58.1645,-99.3408 L 57.9303,-99.5517 L 57.8021,-99.8396 L 57.8021,-100.155 L 57.9303,-100.443 L 58.1645,-100.654
 L 58.4643,-100.751 L 58.7778,-100.718 L 59.0507,-100.561 L 59.236,-100.306 L 59.3015,-99.9972 L 59.236,-99.6889
 L 59.0507,-99.4339 L 58.7778,-99.2764 L 58.4643,-99.2434 z
M 43.8112,-98.5886 L 43.577,-98.7995 L 43.4488,-99.0874 L 43.4488,-99.4026 L 43.577,-99.6905 L 43.8112,-99.9014
 L 44.111,-99.9988 L 44.4244,-99.9659 L 44.6974,-99.8083 L 44.8826,-99.5533 L 44.9482,-99.245 L 44.8826,-98.9367
 L 44.6974,-98.6817 L 44.4244,-98.5241 L 44.111,-98.4912 z
M 56.2049,-98.5886 L 55.9707,-98.7995 L 55.8425,-99.0874 L 55.8425,-99.4026 L 55.9707,-99.6905 L 56.2049,-99.9014
 L 56.5047,-99.9988 L 56.8182,-99.9659 L 57.0911,-99.8083 L 57.2764,-99.5533 L 57.3419,-99.245 L 57.2764,-98.9367
 L 57.0911,-98.6817 L 56.8182,-98.5241 L 56.5047,-98.4912 z
M 45.8387,-98.0453 L 45.6045,-98.2562 L 45.4763,-98.5441 L 45.4763,-98.8593 L 45.6045,-99.1473 L 45.8387,-99.3582
 L 46.1385,-99.4556 L 46.4519,-99.4226 L 46.7249,-99.265 L 46.9102,-99.01 L 46.9757,-98.7017 L 46.9102,-98.3934
 L 46.7249,-98.1384 L 46.4519,-97.9809 L 46.1385,-97.9479 z
M 54.1774,-98.0453 L 53.9432,-98.2562 L 53.815,-98.5441 L 53.815,-98.8593 L 53.9432,-99.1473 L 54.1774,-99.3582
 L 54.4772,-99.4556 L 54.7906,-99.4226 L 55.0636,-99.265 L 55.2489,-99.01 L 55.3144,-98.7017 L 55.2489,-98.3934
 L 55.0636,-98.1384 L 54.7906,-97.9809 L 54.4772,-97.9479 z
M 47.9119,-97.7169 L 47.6777,-97.9278 L 47.5495,-98.2158 L 47.5495,-98.531 L 47.6777,-98.8189 L 47.9119,-99.0298
 L 48.2117,-99.1272 L 48.5251,-99.0943 L 48.7981,-98.9367 L 48.9834,-98.6817 L 49.0489,-98.3734 L 48.9834,-98.0651
 L 48.7981,-97.8101 L 48.5251,-97.6525 L 48.2117,-97.6195 z
M 52.1042,-97.7169 L 51.87,-97.9278 L 51.7418,-98.2158 L 51.7418,-98.531 L 51.87,-98.8189 L 52.1042,-99.0298
 L 52.404,-99.1272 L 52.7175,-99.0943 L 52.9904,-98.9367 L 53.1757,-98.6817 L 53.2412,-98.3734 L 53.1757,-98.0651
 L 52.9904,-97.8101 L 52.7175,-97.6525 L 52.404,-97.6195 z
M 50.0081,-97.6071 L 49.7738,-97.818 L 49.6456,-98.1059 L 49.6456,-98.4211 L 49.7738,-98.709 L 50.0081,-98.9199
 L 50.3078,-99.0173 L 50.6213,-98.9844 L 50.8942,-98.8268 L 51.0795,-98.5718 L 51.145,-98.2635 L 51.0795,-97.9552
 L 50.8942,-97.7002 L 50.6213,-97.5426 L 50.3078,-97.5097 z
" stroke="black" fill="lightgray" stroke-width="0.5"/>
</svg>

