<?xml version="1.0" standalone="no"?>
<!DOCTYPE svg PUBLIC "-//W3C//DTD SVG 1.1//EN" "http://www.w3.org/Graphics/SVG/1.1/DTD/svg11.dtd">
<svg width="29mm" height="84mm" viewBox="100 -167 29 84" xmlns="http://www.w3.org/2000/svg" version="1.1">
<title>OpenSCAD Model</title>
<path d="
M 108.985,-85.79 L 111.135,-85.79 L 111.135,-88.97 L 109.785,-88.97 L 109.785,-92.19 L 111.135,-92.19
 L 111.135,-95.79 L 115.455,-95.79 L 115.455,-92.19 L 116.805,-92.19 L 116.805,-88.97 L 115.455,-88.97
 L 115.455,-85.79 L 117.605,-85.79 L 117.605,-83.39 L 120.285,-83.39 L 120.285,-85.79 L 128.612,-85.79
 L 128.612,-110.77 L 125.612,-110.77 L 125.612,-120.92 L 122.432,-120.92 L 122.432,-119.57 L 119.212,-119.57
 L 119.212,-120.92 L 115.612,-120.92 L 115.612,-125.24 L 119.212,-125.24 L 119.212,-126.59 L 122.432,-126.59
 L 122.432,-125.24 L 125.612,-125.24 L 125.612,-135.39 L 128.612,-135.39 L 128.612,-160.37 L 125.612,-160.37
 L 125.612,-164.47 L 120.285,-164.47 L 120.285,-166.87 L 117.605,-166.87 L 117.605,-164.47 L 115.455,-164.47
 L 115.455,-161.29 L 116.805,-161.29 L 116.805,-158.07 L 115.455,-158.07 L 115.455,-154.47 L 111.135,-154.47
 L 111.135,-158.07 L 109.785,-158.07 L 109.785,-161.29 L 111.135,-161.29 L 111.135,-164.47 L 107.159,-164.47
 L 107.159,-166.87 L 101.979,-166.87 L 101.979,-164.47 L 100.979,-164.47 L 100.979,-85.79 L 103.805,-85.79
 L 103.805,-83.39 L 108.985,-83.39 z
M 106.52,-123.018 L 106.09,-123.157 L 105.699,-123.383 L 105.364,-123.685 L 105.098,-124.05 L 104.915,-124.463
 L 104.821,-124.904 L 104.821,-125.356 L 104.915,-125.797 L 105.098,-126.21 L 105.364,-126.575 L 105.699,-126.877
 L 106.09,-127.103 L 106.52,-127.242 L 106.969,-127.289 L 107.418,-127.242 L 107.847,-127.103 L 108.238,-126.877
 L 108.573,-126.575 L 108.839,-126.21 L 109.022,-125.797 L 109.116,-125.356 L 109.116,-124.904 L 109.022,-124.463
 L 108.839,-124.05 L 108.573,-123.685 L 108.238,-123.383 L 107.847,-123.157 L 107.418,-123.018 L 106.969,-122.97
 z
" stroke="black" fill="lightgray" stroke-width="0.5"/>
</svg>
