<?xml version="1.0" standalone="no"?>
<!DOCTYPE svg PUBLIC "-//W3C//DTD SVG 1.1//EN" "http://www.w3.org/Graphics/SVG/1.1/DTD/svg11.dtd">
<svg width="29mm" height="85mm" viewBox="100 -84 29 85" xmlns="http://www.w3.org/2000/svg" version="1.1">
<title>OpenSCAD Model</title>
<path d="
M 107.159,-2.31 L 111.135,-2.31 L 111.135,-5.48999 L 109.785,-5.48999 L 109.785,-8.70999 L 111.135,-8.70999
 L 111.135,-12.31 L 115.455,-12.31 L 115.455,-8.70999 L 116.805,-8.70999 L 116.805,-5.48999 L 115.455,-5.48999
 L 115.455,-2.31 L 117.605,-2.31 L 117.605,0.0899963 L 120.285,0.0899963 L 120.285,-2.31 L 125.612,-2.31
 L 125.612,-6.41 L 128.612,-6.41 L 128.612,-31.39 L 125.612,-31.39 L 125.612,-41.54 L 122.432,-41.54
 L 122.432,-40.19 L 119.212,-40.19 L 119.212,-41.54 L 115.612,-41.54 L 115.612,-45.86 L 119.212,-45.86
 L 119.212,-47.21 L 122.432,-47.21 L 122.432,-45.86 L 125.612,-45.86 L 125.612,-56.01 L 128.612,-56.01
 L 128.612,-80.99 L 120.285,-80.99 L 120.285,-83.39 L 117.605,-83.39 L 117.605,-80.99 L 115.455,-80.99
 L 115.455,-77.81 L 116.805,-77.81 L 116.805,-74.59 L 115.455,-74.59 L 115.455,-70.99 L 111.135,-70.99
 L 111.135,-74.59 L 109.785,-74.59 L 109.785,-77.81 L 111.135,-77.81 L 111.135,-80.99 L 108.985,-80.99
 L 108.985,-83.39 L 103.805,-83.39 L 103.805,-80.99 L 100.979,-80.99 L 100.979,-2.31 L 101.979,-2.31
 L 101.979,0.0899963 L 107.159,0.0899963 z
M 106.52,-39.5377 L 106.09,-39.6772 L 105.699,-39.9029 L 105.364,-40.205 L 105.098,-40.5703 L 104.915,-40.9827
 L 104.821,-41.4243 L 104.821,-41.8757 L 104.915,-42.3173 L 105.098,-42.7297 L 105.364,-43.095 L 105.699,-43.3971
 L 106.09,-43.6228 L 106.52,-43.7623 L 106.969,-43.8095 L 107.418,-43.7623 L 107.847,-43.6228 L 108.238,-43.3971
 L 108.573,-43.095 L 108.839,-42.7297 L 109.022,-42.3173 L 109.116,-41.8757 L 109.116,-41.4243 L 109.022,-40.9827
 L 108.839,-40.5703 L 108.573,-40.205 L 108.238,-39.9029 L 107.847,-39.6772 L 107.418,-39.5377 L 106.969,-39.4905
 z
" stroke="black" fill="lightgray" stroke-width="0.5"/>
</svg>
