<?xml version="1.0" standalone="no"?>
<!DOCTYPE svg PUBLIC "-//W3C//DTD SVG 1.1//EN" "http://www.w3.org/Graphics/SVG/1.1/DTD/svg11.dtd">
<svg width="9mm" height="39mm" viewBox="101 -75 9 39" xmlns="http://www.w3.org/2000/svg" version="1.1">
<title>OpenSCAD Model</title>
<path d="
M 103.445,-73.1404 L 103.229,-73.1659 L 103.438,-73.4359 L 103.472,-73.6116 L 103.429,-73.817 L 103.3,-73.9739
 L 103.092,-74.079 L 102.808,-74.1164 L 102.803,-74.1164 L 102.516,-74.0784 L 102.306,-73.9713 L 102.177,-73.814
 L 102.134,-73.614 L 102.165,-73.4522 L 102.372,-73.1684 L 102.109,-73.1684 L 101.948,-73.1942 L 101.813,-73.2809
 L 101.731,-73.4182 L 101.705,-73.5907 L 101.754,-73.8196 L 101.833,-73.9245 L 101.733,-73.9977 L 101.703,-73.9661
 L 101.639,-73.8497 L 101.596,-73.7116 L 101.582,-73.5701 L 101.599,-73.3892 L 101.648,-73.2378 L 101.726,-73.1181
 L 101.83,-73.0302 L 101.961,-72.9748 L 102.123,-72.9551 L 103.445,-72.9551 z
M 102.456,-73.1684 L 102.31,-73.3166 L 102.267,-73.5151 L 102.305,-73.6821 L 102.418,-73.8088 L 102.583,-73.8823
 L 102.785,-73.905 L 103.008,-73.8825 L 103.183,-73.8089 L 103.299,-73.6809 L 103.337,-73.5123 L 103.294,-73.3165
 L 103.148,-73.1684 z
M 105.295,-73.8706 L 105.918,-73.2796 L 106.1,-73.128 L 106.252,-73.0329 L 106.385,-72.9828 L 106.508,-72.9669
 L 106.712,-73.0032 L 106.855,-73.1059 L 106.947,-73.2761 L 106.98,-73.5198 L 106.961,-73.6863 L 106.906,-73.8325
 L 106.819,-73.9519 L 106.706,-74.0404 L 106.572,-74.0957 L 106.512,-74.1031 L 106.512,-73.8899 L 106.586,-73.8794
 L 106.723,-73.805 L 106.816,-73.682 L 106.846,-73.5265 L 106.821,-73.3813 L 106.741,-73.2672 L 106.619,-73.1991
 L 106.472,-73.1782 L 106.347,-73.198 L 106.224,-73.2537 L 106.098,-73.341 L 105.958,-73.4598 L 105.302,-74.0757
 L 105.159,-74.0757 L 105.159,-72.9022 L 105.295,-72.9022 z
M 109.473,-73.4326 L 109.433,-73.5792 L 109.146,-73.8451 L 109.445,-73.8638 L 109.445,-74.0595 L 108.159,-74.0595
 L 108.159,-73.8475 L 109.065,-73.8475 L 109.225,-73.6957 L 109.27,-73.4732 L 109.268,-73.4135 L 109.471,-73.4105
 z
M 109.115,-72.0363 L 109.312,-72.1474 L 109.431,-72.3192 L 109.473,-72.5555 L 109.452,-72.7194 L 109.392,-72.8635
 L 109.294,-72.982 L 109.16,-73.0714 L 108.995,-73.1282 L 108.801,-73.1481 L 108.775,-73.1481 L 108.504,-73.1019
 L 108.305,-72.9707 L 108.177,-72.7696 L 108.133,-72.5067 L 108.148,-72.3537 L 108.194,-72.2145 L 108.265,-72.0988
 L 108.308,-72.0593 L 108.398,-72.14 L 108.315,-72.2427 L 108.266,-72.4822 L 108.293,-72.6493 L 108.377,-72.7874
 L 108.505,-72.8843 L 108.766,-72.961 L 108.766,-71.9962 L 108.829,-71.9962 z
M 108.853,-72.2014 L 108.853,-72.9528 L 109.108,-72.8869 L 109.231,-72.8105 L 109.312,-72.696 L 109.338,-72.5556
 L 109.314,-72.4109 L 109.239,-72.2955 L 109.121,-72.2244 L 108.981,-72.2014 z
M 106.573,-71.4133 L 106.799,-71.5264 L 106.933,-71.7016 L 106.979,-71.9488 L 106.932,-72.1961 L 106.798,-72.3716
 L 106.566,-72.4843 L 106.223,-72.5248 L 105.871,-72.5248 L 105.54,-72.4817 L 105.314,-72.3686 L 105.179,-72.1933
 L 105.133,-71.9462 L 105.18,-71.6968 L 105.317,-71.5218 L 105.549,-71.4103 L 105.891,-71.3702 L 106.243,-71.3702
 z
M 105.811,-71.5822 L 105.594,-71.6015 L 105.422,-71.6602 L 105.304,-71.7769 L 105.265,-71.9465 L 105.305,-72.1176
 L 105.427,-72.236 L 105.605,-72.2953 L 105.83,-72.3129 L 106.318,-72.3129 L 106.531,-72.2918 L 106.697,-72.2302
 L 106.809,-72.113 L 106.845,-71.9487 L 106.807,-71.7806 L 106.691,-71.6613 L 106.515,-71.6002 L 106.288,-71.5822
 z
M 103.961,-72.2642 L 103.994,-72.2872 L 104.017,-72.3256 L 104.027,-72.3842 L 104.017,-72.4434 L 103.994,-72.4813
 L 103.961,-72.5039 L 103.916,-72.5123 L 103.87,-72.5037 L 103.836,-72.4804 L 103.812,-72.4417 L 103.803,-72.3841
 L 103.812,-72.3264 L 103.836,-72.2878 L 103.87,-72.2644 L 103.916,-72.2559 z
M 103.445,-72.4907 L 102.159,-72.4907 L 102.159,-72.2774 L 103.445,-72.2774 z
M 102.274,-71.2656 L 102.286,-71.3651 L 102.335,-71.4498 L 102.421,-71.4924 L 102.511,-71.5025 L 103.338,-71.5025
 L 103.338,-71.2516 L 103.445,-71.2516 L 103.445,-71.5025 L 103.806,-71.5025 L 103.806,-71.7145 L 103.445,-71.7145
 L 103.445,-71.9288 L 103.338,-71.9288 L 103.338,-71.7145 L 102.473,-71.7145 L 102.217,-71.625 L 102.133,-71.3727
 L 102.14,-71.277 L 102.149,-71.2367 L 102.275,-71.2367 z
M 109.445,-70.8457 L 108.209,-71.1869 L 109.445,-71.528 L 109.445,-71.7437 L 108.159,-71.3094 L 108.159,-71.0643
 L 109.445,-70.63 z
M 105.295,-70.7579 L 105.918,-70.1669 L 106.1,-70.0153 L 106.252,-69.9202 L 106.384,-69.8701 L 106.508,-69.8543
 L 106.712,-69.8905 L 106.855,-69.9932 L 106.947,-70.1634 L 106.98,-70.4071 L 106.961,-70.5736 L 106.906,-70.7197
 L 106.819,-70.8392 L 106.706,-70.9277 L 106.572,-70.983 L 106.512,-70.9904 L 106.512,-70.7772 L 106.586,-70.7667
 L 106.723,-70.6923 L 106.816,-70.5693 L 106.846,-70.4138 L 106.821,-70.2686 L 106.741,-70.1545 L 106.619,-70.0864
 L 106.472,-70.0655 L 106.347,-70.0853 L 106.224,-70.141 L 106.098,-70.2283 L 105.958,-70.3471 L 105.302,-70.963
 L 105.159,-70.963 L 105.159,-69.7895 L 105.295,-69.7895 z
M 103.357,-69.9046 L 103.47,-70.1981 L 103.433,-70.3671 L 103.189,-70.6728 L 104.062,-70.6728 L 104.062,-70.8847
 L 102.159,-70.8847 L 102.159,-70.6728 L 103.15,-70.6728 L 103.294,-70.5266 L 103.336,-70.337 L 103.316,-70.1936
 L 103.248,-70.0846 L 103.135,-70.0249 L 103.004,-70.0086 L 102.159,-70.0086 L 102.159,-69.7966 L 102.996,-69.7966
 z
M 108.31,-70.2233 L 108.346,-70.2486 L 108.37,-70.2891 L 108.38,-70.345 L 108.371,-70.3998 L 108.346,-70.4401
 L 108.31,-70.4655 L 108.261,-70.4746 L 108.213,-70.4657 L 108.178,-70.441 L 108.154,-70.401 L 108.144,-70.345
 L 108.154,-70.2879 L 108.178,-70.2477 L 108.213,-70.2231 L 108.261,-70.2142 z
M 105.748,-68.2808 L 105.852,-68.3298 L 105.935,-68.4121 L 106.076,-68.6877 L 106.228,-68.4397 L 106.311,-68.3609
 L 106.406,-68.3114 L 106.506,-68.2955 L 106.705,-68.3331 L 106.851,-68.4419 L 106.946,-68.6214 L 106.98,-68.8743
 L 106.965,-69.0268 L 106.919,-69.1647 L 106.849,-69.2783 L 106.759,-69.3609 L 106.652,-69.4117 L 106.622,-69.416
 L 106.622,-69.2007 L 106.661,-69.1924 L 106.763,-69.1107 L 106.826,-68.9957 L 106.846,-68.8633 L 106.824,-68.7213
 L 106.755,-68.604 L 106.642,-68.5284 L 106.503,-68.5049 L 106.359,-68.5281 L 106.239,-68.6028 L 106.162,-68.728
 L 106.14,-68.8827 L 106.14,-69.0079 L 106.013,-69.0079 L 106.013,-68.8771 L 105.922,-68.5773 L 105.636,-68.472
 L 105.482,-68.4997 L 105.364,-68.5816 L 105.29,-68.7082 L 105.267,-68.8637 L 105.289,-69.0059 L 105.359,-69.1289
 L 105.47,-69.2153 L 105.52,-69.2255 L 105.52,-69.434 L 105.417,-69.4132 L 105.268,-69.2968 L 105.167,-69.1126
 L 105.133,-68.8726 L 105.168,-68.6161 L 105.271,-68.4242 L 105.424,-68.305 L 105.625,-68.2642 z
M 103.445,-68.492 L 102.46,-68.492 L 102.311,-68.6437 L 102.266,-68.8629 L 102.347,-69.0857 L 102.575,-69.1548
 L 103.445,-69.1548 L 103.445,-69.3668 L 102.581,-69.3668 L 102.374,-69.337 L 102.24,-69.2621 L 102.161,-69.1441
 L 102.133,-68.9712 L 102.17,-68.7792 L 102.391,-68.4908 L 102.159,-68.4739 L 102.159,-68.2787 L 103.445,-68.2787
 z
M 109.445,-68.2365 L 108.308,-68.5747 L 109.445,-68.9146 L 109.445,-69.1425 L 108.063,-68.6595 L 107.906,-68.7195
 L 107.82,-68.7668 L 107.753,-68.8397 L 107.717,-68.9367 L 107.71,-69.0233 L 107.574,-69.0233 L 107.572,-69.0128
 L 107.567,-68.9486 L 107.627,-68.7318 L 107.81,-68.5837 L 107.873,-68.5572 L 109.445,-68.0098 z
M 103.103,-66.7328 L 103.309,-66.832 L 103.431,-66.9809 L 103.472,-67.181 L 103.44,-67.3426 L 103.224,-67.6274
 L 104.062,-67.6274 L 104.062,-67.8394 L 102.159,-67.8394 L 102.159,-67.6572 L 102.4,-67.6299 L 102.171,-67.3524
 L 102.134,-67.1777 L 102.175,-66.9778 L 102.296,-66.8301 L 102.501,-66.7323 L 102.794,-66.697 L 102.805,-66.697
 z
M 102.647,-66.9165 L 102.511,-66.9424 L 102.328,-67.0625 L 102.265,-67.2746 L 102.316,-67.4854 L 102.479,-67.6274
 L 103.125,-67.6274 L 103.287,-67.4869 L 103.337,-67.2812 L 103.303,-67.1158 L 103.196,-66.994 L 103.031,-66.9282
 L 102.82,-66.9088 z
M 105.982,-67.8354 L 105.846,-67.8354 L 105.846,-67.2518 L 105.982,-67.2518 z
M 109.445,-66.8059 L 108.46,-66.8059 L 108.311,-66.9576 L 108.266,-67.1768 L 108.347,-67.3996 L 108.575,-67.4687
 L 109.445,-67.4687 L 109.445,-67.6807 L 108.581,-67.6807 L 108.374,-67.6509 L 108.24,-67.5759 L 108.161,-67.458
 L 108.133,-67.2851 L 108.17,-67.0931 L 108.391,-66.8046 L 108.159,-66.7878 L 108.159,-66.5926 L 109.445,-66.5926
 z
M 106.573,-65.6926 L 106.799,-65.8056 L 106.933,-65.9809 L 106.979,-66.228 L 106.932,-66.4754 L 106.798,-66.6509
 L 106.566,-66.7636 L 106.223,-66.8041 L 105.871,-66.8041 L 105.54,-66.761 L 105.314,-66.6479 L 105.179,-66.4726
 L 105.133,-66.2255 L 105.18,-65.976 L 105.317,-65.8011 L 105.549,-65.6895 L 105.891,-65.6495 L 106.243,-65.6495
 z
M 105.811,-65.8615 L 105.594,-65.8808 L 105.422,-65.9394 L 105.304,-66.0562 L 105.265,-66.2257 L 105.305,-66.3969
 L 105.427,-66.5152 L 105.605,-66.5745 L 105.83,-66.5921 L 106.318,-66.5921 L 106.531,-66.571 L 106.697,-66.5095
 L 106.809,-66.3922 L 106.845,-66.2279 L 106.807,-66.0599 L 106.691,-65.9405 L 106.515,-65.8794 L 106.288,-65.8615
 z
M 102.31,-66.039 L 102.346,-66.0643 L 102.37,-66.1048 L 102.38,-66.1607 L 102.371,-66.2155 L 102.346,-66.2559
 L 102.31,-66.2812 L 102.261,-66.2903 L 102.213,-66.2814 L 102.178,-66.2567 L 102.154,-66.2167 L 102.144,-66.1607
 L 102.154,-66.1036 L 102.178,-66.0634 L 102.213,-66.0388 L 102.261,-66.0299 z
M 109.224,-64.2564 L 109.364,-64.3267 L 109.444,-64.4387 L 109.472,-64.6093 L 109.425,-64.8225 L 109.213,-65.0595
 L 109.427,-65.2508 L 109.472,-65.4432 L 109.432,-65.6414 L 109.198,-65.9407 L 109.445,-65.9592 L 109.445,-66.1533
 L 108.159,-66.1533 L 108.159,-65.9413 L 109.142,-65.9413 L 109.292,-65.8008 L 109.336,-65.6144 L 109.317,-65.4753
 L 109.251,-65.3699 L 109.14,-65.3138 L 109.009,-65.2988 L 108.159,-65.2988 L 108.159,-65.087 L 109.107,-65.0883
 L 109.281,-64.9569 L 109.337,-64.7605 L 109.317,-64.6174 L 109.25,-64.5122 L 109.139,-64.4576 L 109.01,-64.443
 L 108.159,-64.443 L 108.159,-64.2297 L 109.001,-64.2297 z
M 102.486,-64.6841 L 102.449,-64.6919 L 102.349,-64.7663 L 102.286,-64.8752 L 102.266,-65.0059 L 102.299,-65.1674
 L 102.403,-65.2894 L 102.567,-65.3543 L 102.778,-65.3731 L 102.827,-65.3731 L 103.037,-65.3541 L 103.2,-65.2887
 L 103.305,-65.1678 L 103.338,-65.0078 L 103.314,-64.8714 L 103.239,-64.7613 L 103.126,-64.6905 L 103.08,-64.6819
 L 103.08,-64.4976 L 103.189,-64.5179 L 103.34,-64.6215 L 103.438,-64.7832 L 103.472,-64.9987 L 103.428,-65.2451
 L 103.3,-65.4265 L 103.095,-65.5434 L 102.814,-65.5851 L 102.801,-65.5851 L 102.51,-65.543 L 102.304,-65.4253
 L 102.177,-65.2431 L 102.133,-64.9938 L 102.147,-64.856 L 102.191,-64.7302 L 102.261,-64.6256 L 102.352,-64.5471
 L 102.459,-64.4975 L 102.486,-64.4936 z
M 106.69,-65.1501 L 106.557,-65.1501 L 106.702,-64.6822 L 105.159,-64.6822 L 105.159,-64.4702 L 106.933,-64.4702
 z
M 102.877,-62.9628 L 103.131,-63.0203 L 103.316,-63.1464 L 103.432,-63.3306 L 103.473,-63.5696 L 103.452,-63.7407
 L 103.392,-63.8879 L 103.296,-64.0068 L 103.165,-64.0952 L 103.003,-64.151 L 102.812,-64.1705 L 102.805,-64.1705
 L 102.516,-64.1268 L 102.308,-64.0039 L 102.178,-63.815 L 102.133,-63.5648 L 102.178,-63.3148 L 102.309,-63.1262
 L 102.514,-63.0037 L 102.794,-62.9605 z
M 102.586,-63.194 L 102.412,-63.2677 L 102.302,-63.3967 L 102.266,-63.5647 L 102.302,-63.7357 L 102.414,-63.8642
 L 102.58,-63.9369 L 102.787,-63.959 L 103.014,-63.9372 L 103.188,-63.8651 L 103.301,-63.737 L 103.338,-63.5675
 L 103.301,-63.3967 L 103.188,-63.268 L 103.022,-63.1944 L 102.817,-63.1718 z
M 108.206,-62.7803 L 108.404,-62.7968 L 109.036,-62.7968 L 109.227,-62.8315 L 109.358,-62.927 L 109.443,-63.0822
 L 109.473,-63.2989 L 109.459,-63.4497 L 109.419,-63.5836 L 109.357,-63.6914 L 109.278,-63.7683 L 109.19,-63.8144
 L 109.186,-63.815 L 109.186,-63.6031 L 109.207,-63.5991 L 109.296,-63.5323 L 109.349,-63.4334 L 109.364,-63.3161
 L 109.344,-63.1857 L 109.275,-63.0839 L 109.17,-63.0264 L 109.056,-63.0101 L 108.876,-63.0101 L 108.876,-63.2754
 L 108.846,-63.545 L 108.766,-63.725 L 108.647,-63.8266 L 108.481,-63.8613 L 108.346,-63.8336 L 108.235,-63.7504
 L 108.159,-63.6205 L 108.133,-63.4555 L 108.166,-63.2842 L 108.354,-63.0255 L 108.159,-62.9825 L 108.159,-62.7648
 z
M 108.454,-63.0101 L 108.36,-63.0816 L 108.3,-63.1659 L 108.263,-63.2638 L 108.251,-63.3701 L 108.267,-63.479
 L 108.321,-63.5716 L 108.407,-63.633 L 108.504,-63.6517 L 108.559,-63.6484 L 108.765,-63.5304 L 108.827,-63.2566
 L 108.827,-63.0101 z
M 105.982,-63.671 L 105.846,-63.671 L 105.846,-63.0874 L 105.982,-63.0874 z
M 103.224,-60.6788 L 103.364,-60.7491 L 103.444,-60.8611 L 103.472,-61.0317 L 103.425,-61.2449 L 103.213,-61.4819
 L 103.427,-61.6732 L 103.472,-61.8656 L 103.432,-62.0638 L 103.198,-62.3631 L 103.445,-62.3816 L 103.445,-62.5756
 L 102.159,-62.5756 L 102.159,-62.3637 L 103.142,-62.3637 L 103.292,-62.2232 L 103.336,-62.0368 L 103.317,-61.8976
 L 103.251,-61.7923 L 103.14,-61.7361 L 103.009,-61.7212 L 102.159,-61.7212 L 102.159,-61.5093 L 103.107,-61.5106
 L 103.281,-61.3793 L 103.337,-61.1828 L 103.317,-61.0398 L 103.25,-60.9346 L 103.139,-60.8799 L 103.01,-60.8654
 L 102.159,-60.8654 L 102.159,-60.6521 L 103.001,-60.6521 z
M 106.69,-62.542 L 106.557,-62.542 L 106.702,-62.0741 L 105.159,-62.0741 L 105.159,-61.8622 L 106.933,-61.8622
 z
M 105.295,-60.8727 L 105.918,-60.2818 L 106.1,-60.1302 L 106.252,-60.0351 L 106.385,-59.985 L 106.508,-59.9691
 L 106.712,-60.0053 L 106.855,-60.108 L 106.947,-60.2782 L 106.98,-60.522 L 106.961,-60.6885 L 106.906,-60.8346
 L 106.819,-60.9541 L 106.706,-61.0426 L 106.572,-61.0979 L 106.512,-61.1053 L 106.512,-60.892 L 106.586,-60.8816
 L 106.723,-60.8071 L 106.816,-60.6842 L 106.846,-60.5286 L 106.821,-60.3835 L 106.741,-60.2693 L 106.619,-60.2013
 L 106.472,-60.1804 L 106.347,-60.2002 L 106.224,-60.2558 L 106.098,-60.3432 L 105.958,-60.462 L 105.302,-61.0779
 L 105.159,-61.0779 L 105.159,-59.9044 L 105.295,-59.9044 z
M 103.954,-59.6939 L 101.99,-60.3598 L 101.99,-60.2583 L 103.954,-59.5924 z
M 102.672,-58.2816 L 102.803,-58.4778 L 102.833,-58.5741 L 102.864,-58.7067 L 102.898,-58.8405 L 102.945,-58.9456
 L 103.02,-59.0208 L 103.123,-59.0479 L 103.228,-59.0253 L 103.311,-58.9594 L 103.36,-58.8627 L 103.375,-58.7474
 L 103.357,-58.6176 L 103.296,-58.5145 L 103.201,-58.4522 L 103.18,-58.4486 L 103.18,-58.244 L 103.24,-58.2572
 L 103.36,-58.3569 L 103.444,-58.522 L 103.473,-58.7461 L 103.444,-58.9555 L 103.361,-59.1125 L 103.245,-59.2089
 L 103.117,-59.2378 L 102.897,-59.1347 L 102.747,-58.78 L 102.712,-58.6443 L 102.665,-58.531 L 102.588,-58.4471
 L 102.476,-58.4164 L 102.37,-58.4409 L 102.288,-58.512 L 102.242,-58.6143 L 102.229,-58.7379 L 102.246,-58.8719
 L 102.303,-58.9871 L 102.402,-59.0676 L 102.445,-59.078 L 102.445,-59.2731 L 102.435,-59.2715 L 102.34,-59.2229
 L 102.256,-59.1432 L 102.19,-59.0349 L 102.147,-58.9011 L 102.132,-58.7465 L 102.16,-58.5231 L 102.24,-58.355
 L 102.352,-58.2534 L 102.487,-58.2215 z
M 102.486,-56.9792 L 102.449,-56.9871 L 102.349,-57.0614 L 102.286,-57.1703 L 102.266,-57.301 L 102.299,-57.4626
 L 102.403,-57.5845 L 102.567,-57.6495 L 102.778,-57.6683 L 102.827,-57.6683 L 103.037,-57.6492 L 103.2,-57.5838
 L 103.305,-57.4629 L 103.338,-57.3029 L 103.314,-57.1665 L 103.239,-57.0564 L 103.126,-56.9856 L 103.08,-56.9771
 L 103.08,-56.7927 L 103.189,-56.8131 L 103.34,-56.9166 L 103.438,-57.0783 L 103.472,-57.2938 L 103.428,-57.5402
 L 103.3,-57.7216 L 103.095,-57.8386 L 102.814,-57.8802 L 102.801,-57.8802 L 102.51,-57.8382 L 102.304,-57.7204
 L 102.177,-57.5382 L 102.133,-57.2889 L 102.147,-57.1511 L 102.191,-57.0253 L 102.261,-56.9207 L 102.352,-56.8423
 L 102.459,-56.7926 L 102.486,-56.7887 z
M 102.877,-55.2579 L 103.131,-55.3154 L 103.316,-55.4415 L 103.432,-55.6257 L 103.473,-55.8647 L 103.452,-56.0359
 L 103.392,-56.183 L 103.296,-56.3019 L 103.165,-56.3903 L 103.003,-56.4461 L 102.812,-56.4656 L 102.805,-56.4656
 L 102.516,-56.4219 L 102.308,-56.299 L 102.178,-56.1102 L 102.133,-55.8599 L 102.178,-55.6099 L 102.309,-55.4213
 L 102.514,-55.2989 L 102.794,-55.2556 z
M 102.587,-55.4891 L 102.412,-55.5628 L 102.302,-55.6918 L 102.266,-55.8598 L 102.302,-56.0308 L 102.414,-56.1593
 L 102.58,-56.232 L 102.787,-56.2541 L 103.014,-56.2323 L 103.188,-56.1602 L 103.301,-56.0322 L 103.338,-55.8626
 L 103.301,-55.6918 L 103.188,-55.5631 L 103.022,-55.4895 L 102.817,-55.4669 z
M 102.274,-54.3445 L 102.286,-54.444 L 102.335,-54.5287 L 102.421,-54.5714 L 102.511,-54.5815 L 103.338,-54.5815
 L 103.338,-54.3306 L 103.445,-54.3306 L 103.445,-54.5815 L 103.806,-54.5815 L 103.806,-54.7934 L 103.445,-54.7934
 L 103.445,-55.0077 L 103.338,-55.0077 L 103.338,-54.7934 L 102.473,-54.7934 L 102.217,-54.7039 L 102.133,-54.4516
 L 102.14,-54.3559 L 102.149,-54.3156 L 102.275,-54.3156 z
M 102.274,-53.428 L 102.286,-53.5274 L 102.335,-53.6122 L 102.421,-53.6548 L 102.511,-53.6649 L 103.338,-53.6649
 L 103.338,-53.414 L 103.445,-53.414 L 103.445,-53.6649 L 103.806,-53.6649 L 103.806,-53.8768 L 103.445,-53.8768
 L 103.445,-54.0911 L 103.338,-54.0911 L 103.338,-53.8768 L 102.473,-53.8768 L 102.217,-53.7873 L 102.133,-53.535
 L 102.14,-53.4393 L 102.149,-53.3991 L 102.275,-53.3991 z
M 103.103,-51.931 L 103.309,-52.0302 L 103.431,-52.1791 L 103.472,-52.3793 L 103.44,-52.5408 L 103.224,-52.8256
 L 104.062,-52.8256 L 104.062,-53.0376 L 102.159,-53.0376 L 102.159,-52.8554 L 102.4,-52.8281 L 102.171,-52.5506
 L 102.134,-52.3759 L 102.175,-52.176 L 102.296,-52.0284 L 102.501,-51.9305 L 102.794,-51.8952 L 102.805,-51.8952
 z
M 102.647,-52.1147 L 102.511,-52.1406 L 102.328,-52.2607 L 102.265,-52.4728 L 102.316,-52.6836 L 102.479,-52.8256
 L 103.125,-52.8256 L 103.287,-52.6851 L 103.337,-52.4794 L 103.303,-52.314 L 103.196,-52.1922 L 103.031,-52.1264
 L 102.82,-52.107 z
M 103.115,-50.4514 L 103.312,-50.5626 L 103.431,-50.7344 L 103.473,-50.9707 L 103.452,-51.1346 L 103.392,-51.2787
 L 103.294,-51.3971 L 103.16,-51.4865 L 102.995,-51.5434 L 102.801,-51.5633 L 102.775,-51.5633 L 102.504,-51.517
 L 102.305,-51.3859 L 102.177,-51.1847 L 102.133,-50.9219 L 102.148,-50.7688 L 102.194,-50.6297 L 102.265,-50.514
 L 102.308,-50.4745 L 102.398,-50.5552 L 102.315,-50.6579 L 102.266,-50.8974 L 102.293,-51.0645 L 102.377,-51.2026
 L 102.505,-51.2994 L 102.766,-51.3761 L 102.766,-50.4114 L 102.829,-50.4114 z
M 102.853,-50.6166 L 102.853,-51.368 L 103.108,-51.3021 L 103.231,-51.2257 L 103.312,-51.1111 L 103.338,-50.9708
 L 103.314,-50.8261 L 103.239,-50.7107 L 103.121,-50.6396 L 102.981,-50.6166 z
M 102.295,-49.8649 L 103.334,-49.0781 L 103.445,-49.0781 L 103.445,-50.0739 L 103.308,-50.0739 L 103.308,-49.3128
 L 102.277,-50.0943 L 102.159,-50.0943 L 102.159,-49.0564 L 102.295,-49.0564 z
M 103.69,-48.588 L 103.557,-48.588 L 103.702,-48.1201 L 102.159,-48.1201 L 102.159,-47.9081 L 103.933,-47.9081
 z
M 103.954,-46.5743 L 101.99,-47.2402 L 101.99,-47.1387 L 103.954,-46.4727 z
M 102.672,-45.162 L 102.803,-45.3581 L 102.833,-45.4545 L 102.864,-45.587 L 102.898,-45.7209 L 102.945,-45.826
 L 103.02,-45.9012 L 103.123,-45.9282 L 103.228,-45.9057 L 103.311,-45.8397 L 103.36,-45.7431 L 103.375,-45.6278
 L 103.357,-45.4979 L 103.296,-45.3948 L 103.201,-45.3326 L 103.18,-45.329 L 103.18,-45.1244 L 103.24,-45.1376
 L 103.36,-45.2373 L 103.444,-45.4023 L 103.473,-45.6265 L 103.444,-45.8358 L 103.361,-45.9929 L 103.245,-46.0892
 L 103.117,-46.1182 L 102.897,-46.0151 L 102.747,-45.6604 L 102.712,-45.5246 L 102.665,-45.4114 L 102.588,-45.3275
 L 102.476,-45.2967 L 102.37,-45.3213 L 102.288,-45.3924 L 102.242,-45.4947 L 102.229,-45.6183 L 102.246,-45.7523
 L 102.303,-45.8674 L 102.402,-45.948 L 102.445,-45.9583 L 102.445,-46.1535 L 102.435,-46.1519 L 102.34,-46.1033
 L 102.256,-46.0235 L 102.19,-45.9153 L 102.147,-45.7814 L 102.132,-45.6269 L 102.16,-45.4035 L 102.24,-45.2354
 L 102.352,-45.1337 L 102.487,-45.1018 z
M 103.099,-43.5938 L 103.306,-43.692 L 103.43,-43.8402 L 103.472,-44.0409 L 103.437,-44.2095 L 103.219,-44.4866
 L 103.445,-44.508 L 103.445,-44.6996 L 101.594,-44.6996 L 101.594,-44.4876 L 102.374,-44.4876 L 102.165,-44.2024
 L 102.134,-44.0393 L 102.176,-43.8444 L 102.302,-43.6952 L 102.51,-43.5945 L 102.795,-43.5585 L 102.804,-43.5585
 z
M 102.414,-43.8508 L 102.262,-44.1282 L 102.313,-44.345 L 102.468,-44.4876 L 103.139,-44.4876 L 103.291,-44.3467
 L 103.337,-44.1439 L 103.299,-43.9783 L 103.186,-43.8571 L 103.021,-43.7904 L 102.813,-43.7696 z
M 104.062,-43.152 L 102.159,-43.152 L 102.159,-42.9387 L 104.062,-42.9387 z
M 103.961,-42.2063 L 103.994,-42.2292 L 104.017,-42.2676 L 104.027,-42.3262 L 104.017,-42.3855 L 103.994,-42.4234
 L 103.961,-42.446 L 103.916,-42.4543 L 103.87,-42.4458 L 103.836,-42.4224 L 103.812,-42.3838 L 103.803,-42.3261
 L 103.812,-42.2685 L 103.836,-42.2298 L 103.87,-42.2064 L 103.916,-42.1979 z
M 103.445,-42.4328 L 102.159,-42.4328 L 102.159,-42.2194 L 103.445,-42.2194 z
M 102.274,-41.2077 L 102.286,-41.3071 L 102.335,-41.3919 L 102.421,-41.4345 L 102.511,-41.4446 L 103.338,-41.4446
 L 103.338,-41.1937 L 103.445,-41.1937 L 103.445,-41.4446 L 103.806,-41.4446 L 103.806,-41.6566 L 103.445,-41.6566
 L 103.445,-41.8708 L 103.338,-41.8708 L 103.338,-41.6566 L 102.473,-41.6566 L 102.217,-41.567 L 102.133,-41.3147
 L 102.14,-41.2191 L 102.149,-41.1788 L 102.275,-41.1788 z
M 104.08,-39.9322 L 104.09,-40.191 L 104.059,-40.4217 L 103.974,-40.5788 L 103.84,-40.6738 L 103.641,-40.7101
 L 103.445,-40.7101 L 103.445,-40.9285 L 103.338,-40.9285 L 103.338,-40.7101 L 102.159,-40.7101 L 102.159,-40.4968
 L 103.338,-40.4968 L 103.338,-40.2052 L 103.445,-40.2052 L 103.445,-40.4968 L 103.652,-40.4968 L 103.879,-40.408
 L 103.952,-40.1521 L 103.948,-40.0311 L 103.931,-39.834 L 102.159,-39.834 L 102.159,-39.6207 L 104.054,-39.6207
 z
M 102.206,-38.1305 L 102.404,-38.1469 L 103.036,-38.1469 L 103.227,-38.1816 L 103.358,-38.2771 L 103.443,-38.4323
 L 103.473,-38.6491 L 103.459,-38.7998 L 103.419,-38.9337 L 103.357,-39.0415 L 103.278,-39.1185 L 103.19,-39.1645
 L 103.186,-39.1652 L 103.186,-38.9532 L 103.207,-38.9492 L 103.296,-38.8824 L 103.349,-38.7835 L 103.364,-38.6662
 L 103.344,-38.5359 L 103.275,-38.434 L 103.17,-38.3765 L 103.056,-38.3602 L 102.876,-38.3602 L 102.876,-38.6255
 L 102.846,-38.8951 L 102.766,-39.0752 L 102.647,-39.1767 L 102.481,-39.2114 L 102.346,-39.1837 L 102.235,-39.1005
 L 102.159,-38.9706 L 102.133,-38.8057 L 102.166,-38.6344 L 102.354,-38.3756 L 102.159,-38.3326 L 102.159,-38.1149
 z
M 102.454,-38.3602 L 102.36,-38.4317 L 102.3,-38.516 L 102.263,-38.6139 L 102.251,-38.7202 L 102.267,-38.8292
 L 102.321,-38.9218 L 102.407,-38.9831 L 102.504,-39.0018 L 102.559,-38.9986 L 102.765,-38.8805 L 102.827,-38.6067
 L 102.827,-38.3602 z
M 103.099,-36.5949 L 103.306,-36.6931 L 103.43,-36.8413 L 103.472,-37.042 L 103.437,-37.2105 L 103.219,-37.4877
 L 103.445,-37.509 L 103.445,-37.7006 L 101.594,-37.7006 L 101.594,-37.4887 L 102.374,-37.4887 L 102.165,-37.2035
 L 102.134,-37.0404 L 102.176,-36.8455 L 102.302,-36.6962 L 102.51,-36.5956 L 102.795,-36.5596 L 102.804,-36.5596
 z
M 102.414,-36.8519 L 102.262,-37.1293 L 102.313,-37.3461 L 102.468,-37.4887 L 103.139,-37.4887 L 103.291,-37.3478
 L 103.337,-37.145 L 103.299,-36.9794 L 103.186,-36.8581 L 103.021,-36.7915 L 102.813,-36.7707 z
" stroke="black" fill="lightgray" stroke-width="0.5"/>
</svg>
