<?xml version="1.0" standalone="no"?>
<!DOCTYPE svg PUBLIC "-//W3C//DTD SVG 1.1//EN" "http://www.w3.org/Graphics/SVG/1.1/DTD/svg11.dtd">
<svg width="9mm" height="85mm" viewBox="89 -154 9 85" xmlns="http://www.w3.org/2000/svg" version="1.1">
<title>OpenSCAD Model</title>
<path d="
M 90.4706,-151.736 L 90.5519,-151.749 L 90.6312,-151.771 L 90.7078,-151.8 L 90.7811,-151.837 L 90.8499,-151.882
 L 90.9138,-151.934 L 90.9719,-151.992 L 91.0236,-152.056 L 91.0684,-152.125 L 91.1056,-152.198 L 91.1351,-152.275
 L 91.1563,-152.354 L 91.1692,-152.435 L 91.1735,-152.517 L 91.1692,-152.599 L 91.1563,-152.68 L 91.1351,-152.759
 L 91.1056,-152.836 L 91.0684,-152.909 L 91.0236,-152.978 L 90.9719,-153.042 L 90.9138,-153.1 L 90.8499,-153.152
 L 90.7811,-153.197 L 90.7078,-153.234 L 90.6311,-153.264 L 90.5519,-153.285 L 90.4706,-153.298 L 90.3886,-153.302
 L 90.3067,-153.298 L 90.2253,-153.285 L 90.1461,-153.264 L 90.0694,-153.234 L 89.9962,-153.197 L 89.9273,-153.152
 L 89.8635,-153.1 L 89.8053,-153.042 L 89.7536,-152.978 L 89.7089,-152.909 L 89.6716,-152.836 L 89.6421,-152.759
 L 89.6209,-152.68 L 89.608,-152.599 L 89.6037,-152.517 L 89.608,-152.435 L 89.6209,-152.354 L 89.6421,-152.275
 L 89.6716,-152.198 L 89.7089,-152.125 L 89.7536,-152.056 L 89.8053,-151.992 L 89.8635,-151.934 L 89.9273,-151.882
 L 89.9962,-151.837 L 90.0694,-151.8 L 90.146,-151.771 L 90.2254,-151.749 L 90.3067,-151.736 L 90.3886,-151.732
 z
M 91.0624,-80.017 L 89.6036,-80.7464 L 89.6036,-79.2877 z
M 97.748,-70.892 L 96.6286,-71.8249 L 96.6286,-71.3645 L 93.4786,-71.3645 L 93.4786,-70.4195 L 96.6286,-70.4195
 L 96.6286,-69.9592 z
" stroke="black" fill="lightgray" stroke-width="0.5"/>
</svg>
