<?xml version="1.0" standalone="no"?>
<!DOCTYPE svg PUBLIC "-//W3C//DTD SVG 1.1//EN" "http://www.w3.org/Graphics/SVG/1.1/DTD/svg11.dtd">
<svg width="102mm" height="102mm" viewBox="-1 -169 102 102" xmlns="http://www.w3.org/2000/svg" version="1.1">
<title>OpenSCAD Model</title>
<path d="
M 100.979,-168.957 L -0.0899963,-168.957 L -0.0899963,-67.677 L 100.979,-67.677 z
M 93.4286,-130.757 L 93.4286,-155.477 L 96.3486,-155.477 L 96.3486,-130.757 z
M 4.54001,-130.757 L 4.54001,-155.477 L 7.45999,-155.477 L 7.45999,-130.757 z
M 26.5435,-81.207 L 26.5435,-155.427 L 78.3635,-155.427 L 78.3635,-81.207 z
M 5.55106,-116.205 L 5.12163,-116.344 L 4.73068,-116.57 L 4.39519,-116.872 L 4.12981,-117.237 L 3.9462,-117.65
 L 3.85233,-118.091 L 3.85233,-118.543 L 3.9462,-118.984 L 4.12981,-119.397 L 4.39519,-119.762 L 4.73068,-120.064
 L 5.12163,-120.29 L 5.55106,-120.429 L 6,-120.477 L 6.44894,-120.429 L 6.87837,-120.29 L 7.26932,-120.064
 L 7.60481,-119.762 L 7.87019,-119.397 L 8.0538,-118.984 L 8.14767,-118.543 L 8.14767,-118.091 L 8.0538,-117.65
 L 7.87019,-117.237 L 7.60481,-116.872 L 7.26932,-116.57 L 6.87837,-116.344 L 6.44894,-116.205 L 6,-116.158
 z
M 94.4397,-116.205 L 94.0102,-116.344 L 93.6193,-116.57 L 93.2838,-116.872 L 93.0184,-117.237 L 92.8348,-117.65
 L 92.7409,-118.091 L 92.7409,-118.543 L 92.8348,-118.984 L 93.0184,-119.397 L 93.2838,-119.762 L 93.6193,-120.064
 L 94.0102,-120.29 L 94.4397,-120.429 L 94.8886,-120.477 L 95.3376,-120.429 L 95.767,-120.29 L 96.1579,-120.064
 L 96.4934,-119.762 L 96.7588,-119.397 L 96.9424,-118.984 L 97.0363,-118.543 L 97.0363,-118.091 L 96.9424,-117.65
 L 96.7588,-117.237 L 96.4934,-116.872 L 96.1579,-116.57 L 95.767,-116.344 L 95.3376,-116.205 L 94.8886,-116.158
 z
M 93.4286,-81.157 L 93.4286,-105.877 L 96.3486,-105.877 L 96.3486,-81.157 z
M 4.54001,-81.157 L 4.54001,-105.877 L 7.45999,-105.877 L 7.45999,-81.157 z
" stroke="black" fill="lightgray" stroke-width="0.5"/>
</svg>
