<?xml version="1.0" standalone="no"?>
<!DOCTYPE svg PUBLIC "-//W3C//DTD SVG 1.1//EN" "http://www.w3.org/Graphics/SVG/1.1/DTD/svg11.dtd">
<svg width="44mm" height="45mm" viewBox="74 -141 44 45" xmlns="http://www.w3.org/2000/svg" version="1.1">
<title>OpenSCAD Model</title>
<path d="
M 98.1774,-96.593 L 100.436,-96.9507 L 102.644,-97.5425 L 104.779,-98.3619 L 106.816,-99.3999 L 108.733,-100.645
 L 110.51,-102.084 L 112.127,-103.701 L 113.566,-105.478 L 114.811,-107.395 L 115.849,-109.432 L 116.669,-111.567
 L 117.26,-113.775 L 117.618,-116.034 L 117.738,-118.317 L 117.618,-120.6 L 117.26,-122.859 L 116.669,-125.067
 L 115.849,-127.202 L 114.811,-129.239 L 113.566,-131.156 L 112.127,-132.933 L 110.51,-134.55 L 108.733,-135.989
 L 106.816,-137.234 L 104.779,-138.272 L 102.644,-139.092 L 100.436,-139.683 L 98.1774,-140.041 L 95.8941,-140.161
 L 93.6108,-140.041 L 91.3526,-139.683 L 89.1441,-139.092 L 87.0095,-138.272 L 84.9723,-137.234 L 83.0547,-135.989
 L 81.2779,-134.55 L 79.6611,-132.933 L 78.2222,-131.156 L 76.977,-129.239 L 75.9389,-127.202 L 75.1196,-125.067
 L 74.5278,-122.859 L 74.1701,-120.6 L 74.0505,-118.317 L 74.1701,-116.034 L 74.5278,-113.775 L 75.1196,-111.567
 L 75.9389,-109.432 L 76.977,-107.395 L 78.2222,-105.478 L 79.6611,-103.701 L 81.2779,-102.084 L 83.0547,-100.645
 L 84.9723,-99.3999 L 87.0095,-98.3619 L 89.1441,-97.5425 L 91.3526,-96.9507 L 93.6108,-96.593 L 95.8941,-96.4734
 z
M 95.5151,-137.714 L 95.2809,-137.925 L 95.1527,-138.213 L 95.1527,-138.528 L 95.2809,-138.816 L 95.5151,-139.027
 L 95.8149,-139.124 L 96.1283,-139.091 L 96.4013,-138.934 L 96.5866,-138.679 L 96.6521,-138.371 L 96.5866,-138.062
 L 96.4013,-137.807 L 96.1283,-137.65 L 95.8149,-137.617 z
M 93.4189,-137.604 L 93.1847,-137.815 L 93.0565,-138.103 L 93.0565,-138.418 L 93.1847,-138.706 L 93.4189,-138.917
 L 93.7187,-139.015 L 94.0322,-138.982 L 94.3051,-138.824 L 94.4904,-138.569 L 94.5559,-138.261 L 94.4904,-137.952
 L 94.3051,-137.697 L 94.0322,-137.54 L 93.7187,-137.507 z
M 97.6113,-137.604 L 97.377,-137.815 L 97.2488,-138.103 L 97.2488,-138.418 L 97.377,-138.706 L 97.6113,-138.917
 L 97.9111,-139.015 L 98.2245,-138.982 L 98.4974,-138.824 L 98.6827,-138.569 L 98.7482,-138.261 L 98.6827,-137.952
 L 98.4975,-137.697 L 98.2245,-137.54 L 97.911,-137.507 z
M 91.3457,-137.276 L 91.1115,-137.487 L 90.9833,-137.775 L 90.9833,-138.09 L 91.1115,-138.378 L 91.3457,-138.589
 L 91.6455,-138.686 L 91.959,-138.653 L 92.2319,-138.496 L 92.4172,-138.241 L 92.4827,-137.932 L 92.4172,-137.624
 L 92.2319,-137.369 L 91.959,-137.211 L 91.6455,-137.178 z
M 99.6844,-137.276 L 99.4502,-137.487 L 99.322,-137.775 L 99.322,-138.09 L 99.4502,-138.378 L 99.6844,-138.589
 L 99.9842,-138.686 L 100.298,-138.653 L 100.571,-138.496 L 100.756,-138.241 L 100.821,-137.932 L 100.756,-137.624
 L 100.571,-137.369 L 100.298,-137.211 L 99.9843,-137.178 z
M 89.3182,-136.733 L 89.084,-136.944 L 88.9558,-137.231 L 88.9558,-137.547 L 89.084,-137.835 L 89.3182,-138.045
 L 89.618,-138.143 L 89.9315,-138.11 L 90.2044,-137.952 L 90.3897,-137.697 L 90.4552,-137.389 L 90.3897,-137.081
 L 90.2044,-136.826 L 89.9315,-136.668 L 89.618,-136.635 z
M 101.712,-136.733 L 101.478,-136.944 L 101.35,-137.231 L 101.35,-137.547 L 101.478,-137.835 L 101.712,-138.045
 L 102.012,-138.143 L 102.325,-138.11 L 102.598,-137.952 L 102.783,-137.697 L 102.849,-137.389 L 102.783,-137.081
 L 102.598,-136.826 L 102.325,-136.668 L 102.012,-136.635 z
M 87.3586,-135.98 L 87.1244,-136.191 L 86.9962,-136.479 L 86.9962,-136.794 L 87.1244,-137.082 L 87.3586,-137.293
 L 87.6584,-137.391 L 87.9718,-137.358 L 88.2448,-137.2 L 88.4301,-136.945 L 88.4956,-136.637 L 88.4301,-136.329
 L 88.2448,-136.074 L 87.9718,-135.916 L 87.6584,-135.883 z
M 103.672,-135.98 L 103.437,-136.191 L 103.309,-136.479 L 103.309,-136.794 L 103.437,-137.082 L 103.672,-137.293
 L 103.971,-137.391 L 104.285,-137.358 L 104.558,-137.2 L 104.743,-136.945 L 104.809,-136.637 L 104.743,-136.329
 L 104.558,-136.074 L 104.285,-135.916 L 103.971,-135.883 z
M 85.4883,-135.027 L 85.2541,-135.238 L 85.1259,-135.526 L 85.1259,-135.841 L 85.2541,-136.129 L 85.4884,-136.34
 L 85.7881,-136.438 L 86.1016,-136.405 L 86.3745,-136.247 L 86.5598,-135.992 L 86.6253,-135.684 L 86.5598,-135.376
 L 86.3745,-135.121 L 86.1016,-134.963 L 85.7881,-134.93 z
M 105.542,-135.027 L 105.308,-135.238 L 105.179,-135.526 L 105.179,-135.841 L 105.308,-136.129 L 105.542,-136.34
 L 105.842,-136.438 L 106.155,-136.405 L 106.428,-136.247 L 106.613,-135.992 L 106.679,-135.684 L 106.613,-135.376
 L 106.428,-135.121 L 106.155,-134.963 L 105.842,-134.93 z
M 83.7279,-133.884 L 83.4937,-134.095 L 83.3655,-134.383 L 83.3655,-134.698 L 83.4937,-134.986 L 83.7279,-135.197
 L 84.0277,-135.294 L 84.3412,-135.262 L 84.6141,-135.104 L 84.7994,-134.849 L 84.8649,-134.541 L 84.7994,-134.232
 L 84.6141,-133.977 L 84.3412,-133.82 L 84.0277,-133.787 z
M 107.302,-133.884 L 107.068,-134.095 L 106.94,-134.383 L 106.94,-134.698 L 107.068,-134.986 L 107.302,-135.197
 L 107.602,-135.294 L 107.915,-135.262 L 108.188,-135.104 L 108.374,-134.849 L 108.439,-134.541 L 108.374,-134.232
 L 108.188,-133.977 L 107.915,-133.82 L 107.602,-133.787 z
M 82.0967,-132.563 L 81.8625,-132.774 L 81.7343,-133.062 L 81.7343,-133.377 L 81.8625,-133.665 L 82.0967,-133.876
 L 82.3965,-133.974 L 82.7099,-133.941 L 82.9829,-133.783 L 83.1682,-133.528 L 83.2337,-133.22 L 83.1682,-132.911
 L 82.9829,-132.656 L 82.7099,-132.499 L 82.3965,-132.466 z
M 108.934,-132.563 L 108.699,-132.774 L 108.571,-133.062 L 108.571,-133.377 L 108.699,-133.665 L 108.934,-133.876
 L 109.233,-133.974 L 109.547,-133.941 L 109.82,-133.783 L 110.005,-133.528 L 110.071,-133.22 L 110.005,-132.911
 L 109.82,-132.656 L 109.547,-132.499 L 109.233,-132.466 z
M 80.6124,-131.079 L 80.3782,-131.29 L 80.25,-131.578 L 80.25,-131.893 L 80.3782,-132.181 L 80.6124,-132.392
 L 80.9122,-132.489 L 81.2257,-132.456 L 81.4986,-132.299 L 81.6839,-132.044 L 81.7494,-131.735 L 81.6839,-131.427
 L 81.4986,-131.172 L 81.2257,-131.015 L 80.9122,-130.982 z
M 110.418,-131.079 L 110.184,-131.29 L 110.055,-131.578 L 110.055,-131.893 L 110.184,-132.181 L 110.418,-132.392
 L 110.718,-132.489 L 111.031,-132.456 L 111.304,-132.299 L 111.489,-132.044 L 111.555,-131.735 L 111.489,-131.427
 L 111.304,-131.172 L 111.031,-131.015 L 110.718,-130.982 z
M 79.2915,-129.448 L 79.0572,-129.659 L 78.929,-129.947 L 78.929,-130.262 L 79.0572,-130.55 L 79.2915,-130.761
 L 79.5912,-130.858 L 79.9047,-130.825 L 80.1777,-130.667 L 80.3629,-130.412 L 80.4285,-130.104 L 80.3629,-129.796
 L 80.1777,-129.541 L 79.9047,-129.383 L 79.5913,-129.35 z
M 111.739,-129.448 L 111.505,-129.659 L 111.376,-129.947 L 111.376,-130.262 L 111.505,-130.55 L 111.739,-130.761
 L 112.039,-130.858 L 112.352,-130.825 L 112.625,-130.667 L 112.81,-130.412 L 112.876,-130.104 L 112.81,-129.796
 L 112.625,-129.541 L 112.352,-129.383 L 112.039,-129.35 z
M 78.1482,-127.687 L 77.914,-127.898 L 77.7858,-128.186 L 77.7858,-128.501 L 77.914,-128.789 L 78.1482,-129
 L 78.448,-129.098 L 78.7615,-129.065 L 79.0344,-128.907 L 79.2197,-128.652 L 79.2852,-128.344 L 79.2197,-128.036
 L 79.0344,-127.78 L 78.7615,-127.623 L 78.448,-127.59 z
M 112.882,-127.687 L 112.648,-127.898 L 112.52,-128.186 L 112.52,-128.501 L 112.648,-128.789 L 112.882,-129
 L 113.182,-129.098 L 113.495,-129.065 L 113.768,-128.907 L 113.953,-128.652 L 114.019,-128.344 L 113.953,-128.036
 L 113.768,-127.78 L 113.495,-127.623 L 113.182,-127.59 z
M 92.9841,-124.907 L 92.9841,-127.727 L 98.8041,-127.727 L 98.8041,-124.907 z
M 77.1953,-125.817 L 76.9611,-126.028 L 76.8329,-126.316 L 76.8329,-126.631 L 76.9611,-126.919 L 77.1953,-127.13
 L 77.4951,-127.227 L 77.8085,-127.194 L 78.0815,-127.037 L 78.2668,-126.782 L 78.3323,-126.474 L 78.2668,-126.165
 L 78.0815,-125.91 L 77.8085,-125.753 L 77.4951,-125.72 z
M 113.835,-125.817 L 113.601,-126.028 L 113.472,-126.316 L 113.472,-126.631 L 113.601,-126.919 L 113.835,-127.13
 L 114.135,-127.227 L 114.448,-127.194 L 114.721,-127.037 L 114.906,-126.782 L 114.972,-126.474 L 114.906,-126.165
 L 114.721,-125.91 L 114.448,-125.753 L 114.135,-125.72 z
M 76.4431,-123.857 L 76.2088,-124.068 L 76.0806,-124.356 L 76.0806,-124.671 L 76.2088,-124.959 L 76.4431,-125.17
 L 76.7429,-125.268 L 77.0563,-125.235 L 77.3293,-125.077 L 77.5145,-124.822 L 77.5801,-124.514 L 77.5145,-124.206
 L 77.3293,-123.951 L 77.0563,-123.793 L 76.7429,-123.76 z
M 114.587,-123.857 L 114.353,-124.068 L 114.225,-124.356 L 114.225,-124.671 L 114.353,-124.959 L 114.587,-125.17
 L 114.887,-125.268 L 115.2,-125.235 L 115.473,-125.077 L 115.659,-124.822 L 115.724,-124.514 L 115.659,-124.206
 L 115.473,-123.951 L 115.2,-123.793 L 114.887,-123.76 z
M 75.8998,-121.83 L 75.6656,-122.041 L 75.5374,-122.329 L 75.5374,-122.644 L 75.6656,-122.932 L 75.8998,-123.143
 L 76.1996,-123.24 L 76.513,-123.207 L 76.786,-123.05 L 76.9713,-122.795 L 77.0368,-122.486 L 76.9713,-122.178
 L 76.786,-121.923 L 76.513,-121.766 L 76.1996,-121.733 z
M 115.13,-121.83 L 114.896,-122.041 L 114.768,-122.329 L 114.768,-122.644 L 114.896,-122.932 L 115.13,-123.143
 L 115.43,-123.24 L 115.744,-123.207 L 116.017,-123.05 L 116.202,-122.795 L 116.267,-122.486 L 116.202,-122.178
 L 116.017,-121.923 L 115.744,-121.766 L 115.43,-121.733 z
M 93.8753,-114.82 L 91.8566,-118.317 L 93.8753,-121.814 L 97.9129,-121.814 L 99.9316,-118.317 L 97.9129,-114.82
 z
M 102.484,-115.407 L 102.484,-121.227 L 105.304,-121.227 L 105.304,-115.407 z
M 86.4841,-115.407 L 86.4841,-121.227 L 89.3041,-121.227 L 89.3041,-115.407 z
M 75.5714,-119.757 L 75.3372,-119.968 L 75.209,-120.256 L 75.209,-120.571 L 75.3372,-120.859 L 75.5714,-121.07
 L 75.8712,-121.167 L 76.1847,-121.134 L 76.4576,-120.976 L 76.6429,-120.721 L 76.7084,-120.413 L 76.6429,-120.105
 L 76.4576,-119.85 L 76.1847,-119.692 L 75.8712,-119.659 z
M 115.459,-119.757 L 115.225,-119.968 L 115.096,-120.256 L 115.096,-120.571 L 115.225,-120.859 L 115.459,-121.07
 L 115.759,-121.167 L 116.072,-121.134 L 116.345,-120.976 L 116.53,-120.721 L 116.596,-120.413 L 116.53,-120.105
 L 116.345,-119.85 L 116.072,-119.692 L 115.759,-119.659 z
M 75.4616,-117.661 L 75.2274,-117.872 L 75.0992,-118.159 L 75.0992,-118.475 L 75.2274,-118.763 L 75.4616,-118.973
 L 75.7614,-119.071 L 76.0748,-119.038 L 76.3478,-118.88 L 76.5331,-118.625 L 76.5986,-118.317 L 76.5331,-118.009
 L 76.3478,-117.754 L 76.0748,-117.596 L 75.7614,-117.563 z
M 115.569,-117.661 L 115.334,-117.872 L 115.206,-118.159 L 115.206,-118.475 L 115.334,-118.763 L 115.569,-118.973
 L 115.868,-119.071 L 116.182,-119.038 L 116.455,-118.88 L 116.64,-118.625 L 116.706,-118.317 L 116.64,-118.009
 L 116.455,-117.754 L 116.182,-117.596 L 115.868,-117.563 z
M 75.5714,-115.564 L 75.3372,-115.775 L 75.209,-116.063 L 75.209,-116.378 L 75.3372,-116.666 L 75.5714,-116.877
 L 75.8712,-116.975 L 76.1847,-116.942 L 76.4576,-116.784 L 76.6429,-116.529 L 76.7084,-116.221 L 76.6429,-115.913
 L 76.4576,-115.658 L 76.1847,-115.5 L 75.8712,-115.467 z
M 115.459,-115.564 L 115.225,-115.775 L 115.096,-116.063 L 115.096,-116.378 L 115.225,-116.666 L 115.459,-116.877
 L 115.759,-116.975 L 116.072,-116.942 L 116.345,-116.784 L 116.53,-116.529 L 116.596,-116.221 L 116.53,-115.913
 L 116.345,-115.658 L 116.072,-115.5 L 115.759,-115.467 z
M 75.8998,-113.491 L 75.6656,-113.702 L 75.5374,-113.99 L 75.5374,-114.305 L 75.6656,-114.593 L 75.8998,-114.804
 L 76.1996,-114.902 L 76.513,-114.869 L 76.786,-114.711 L 76.9713,-114.456 L 77.0368,-114.148 L 76.9713,-113.839
 L 76.786,-113.584 L 76.513,-113.427 L 76.1996,-113.394 z
M 115.13,-113.491 L 114.896,-113.702 L 114.768,-113.99 L 114.768,-114.305 L 114.896,-114.593 L 115.13,-114.804
 L 115.43,-114.902 L 115.744,-114.869 L 116.017,-114.711 L 116.202,-114.456 L 116.267,-114.148 L 116.202,-113.839
 L 116.017,-113.584 L 115.744,-113.427 L 115.43,-113.394 z
M 76.4431,-111.464 L 76.2088,-111.675 L 76.0806,-111.963 L 76.0806,-112.278 L 76.2088,-112.566 L 76.4431,-112.777
 L 76.7429,-112.874 L 77.0563,-112.841 L 77.3293,-112.683 L 77.5145,-112.428 L 77.5801,-112.12 L 77.5145,-111.812
 L 77.3293,-111.557 L 77.0563,-111.399 L 76.7429,-111.366 z
M 114.587,-111.464 L 114.353,-111.675 L 114.225,-111.963 L 114.225,-112.278 L 114.353,-112.566 L 114.587,-112.777
 L 114.887,-112.874 L 115.2,-112.841 L 115.473,-112.683 L 115.659,-112.428 L 115.724,-112.12 L 115.659,-111.812
 L 115.473,-111.557 L 115.2,-111.399 L 114.887,-111.366 z
M 92.9841,-108.907 L 92.9841,-111.727 L 98.8041,-111.727 L 98.8041,-108.907 z
M 77.1953,-109.504 L 76.9611,-109.715 L 76.8329,-110.003 L 76.8329,-110.318 L 76.9611,-110.606 L 77.1953,-110.817
 L 77.4951,-110.914 L 77.8085,-110.881 L 78.0815,-110.724 L 78.2668,-110.469 L 78.3323,-110.161 L 78.2668,-109.852
 L 78.0815,-109.597 L 77.8085,-109.44 L 77.4951,-109.407 z
M 113.835,-109.504 L 113.601,-109.715 L 113.472,-110.003 L 113.472,-110.318 L 113.601,-110.606 L 113.835,-110.817
 L 114.135,-110.914 L 114.448,-110.881 L 114.721,-110.724 L 114.906,-110.469 L 114.972,-110.161 L 114.906,-109.852
 L 114.721,-109.597 L 114.448,-109.44 L 114.135,-109.407 z
M 78.1482,-107.634 L 77.914,-107.845 L 77.7858,-108.133 L 77.7858,-108.448 L 77.914,-108.736 L 78.1482,-108.947
 L 78.448,-109.044 L 78.7615,-109.011 L 79.0344,-108.854 L 79.2197,-108.599 L 79.2852,-108.29 L 79.2197,-107.982
 L 79.0344,-107.727 L 78.7615,-107.569 L 78.448,-107.536 z
M 112.882,-107.634 L 112.648,-107.845 L 112.52,-108.133 L 112.52,-108.448 L 112.648,-108.736 L 112.882,-108.947
 L 113.182,-109.044 L 113.495,-109.011 L 113.768,-108.854 L 113.953,-108.599 L 114.019,-108.29 L 113.953,-107.982
 L 113.768,-107.727 L 113.495,-107.569 L 113.182,-107.536 z
M 79.2915,-105.873 L 79.0572,-106.084 L 78.929,-106.372 L 78.929,-106.687 L 79.0572,-106.975 L 79.2915,-107.186
 L 79.5913,-107.284 L 79.9047,-107.251 L 80.1777,-107.093 L 80.3629,-106.838 L 80.4285,-106.53 L 80.3629,-106.222
 L 80.1777,-105.967 L 79.9047,-105.809 L 79.5912,-105.776 z
M 111.739,-105.873 L 111.505,-106.084 L 111.376,-106.372 L 111.376,-106.687 L 111.505,-106.975 L 111.739,-107.186
 L 112.039,-107.284 L 112.352,-107.251 L 112.625,-107.093 L 112.81,-106.838 L 112.876,-106.53 L 112.81,-106.222
 L 112.625,-105.967 L 112.352,-105.809 L 112.039,-105.776 z
M 80.6124,-104.242 L 80.3782,-104.453 L 80.25,-104.741 L 80.25,-105.056 L 80.3782,-105.344 L 80.6124,-105.555
 L 80.9122,-105.652 L 81.2257,-105.62 L 81.4986,-105.462 L 81.6839,-105.207 L 81.7494,-104.899 L 81.6839,-104.59
 L 81.4986,-104.335 L 81.2257,-104.178 L 80.9122,-104.145 z
M 110.418,-104.242 L 110.184,-104.453 L 110.055,-104.741 L 110.055,-105.056 L 110.184,-105.344 L 110.418,-105.555
 L 110.718,-105.652 L 111.031,-105.62 L 111.304,-105.462 L 111.489,-105.207 L 111.555,-104.899 L 111.489,-104.59
 L 111.304,-104.335 L 111.031,-104.178 L 110.718,-104.145 z
M 82.0967,-102.758 L 81.8625,-102.969 L 81.7343,-103.257 L 81.7343,-103.572 L 81.8625,-103.86 L 82.0967,-104.071
 L 82.3965,-104.168 L 82.7099,-104.135 L 82.9829,-103.978 L 83.1682,-103.723 L 83.2337,-103.414 L 83.1682,-103.106
 L 82.9829,-102.851 L 82.7099,-102.693 L 82.3965,-102.661 z
M 108.934,-102.758 L 108.699,-102.969 L 108.571,-103.257 L 108.571,-103.572 L 108.699,-103.86 L 108.934,-104.071
 L 109.233,-104.168 L 109.547,-104.135 L 109.82,-103.978 L 110.005,-103.723 L 110.071,-103.414 L 110.005,-103.106
 L 109.82,-102.851 L 109.547,-102.693 L 109.233,-102.661 z
M 83.7279,-101.437 L 83.4937,-101.648 L 83.3655,-101.936 L 83.3655,-102.251 L 83.4937,-102.539 L 83.7279,-102.75
 L 84.0277,-102.847 L 84.3412,-102.814 L 84.6141,-102.657 L 84.7994,-102.402 L 84.8649,-102.093 L 84.7994,-101.785
 L 84.6141,-101.53 L 84.3412,-101.373 L 84.0277,-101.34 z
M 107.302,-101.437 L 107.068,-101.648 L 106.94,-101.936 L 106.94,-102.251 L 107.068,-102.539 L 107.302,-102.75
 L 107.602,-102.847 L 107.915,-102.814 L 108.188,-102.657 L 108.374,-102.402 L 108.439,-102.093 L 108.374,-101.785
 L 108.188,-101.53 L 107.915,-101.373 L 107.602,-101.34 z
M 85.4884,-100.294 L 85.2541,-100.505 L 85.1259,-100.793 L 85.1259,-101.108 L 85.2541,-101.396 L 85.4883,-101.607
 L 85.7881,-101.704 L 86.1016,-101.671 L 86.3745,-101.513 L 86.5598,-101.258 L 86.6253,-100.95 L 86.5598,-100.642
 L 86.3745,-100.387 L 86.1016,-100.229 L 85.7881,-100.196 z
M 105.542,-100.294 L 105.308,-100.505 L 105.179,-100.793 L 105.179,-101.108 L 105.308,-101.396 L 105.542,-101.607
 L 105.842,-101.704 L 106.155,-101.671 L 106.428,-101.513 L 106.613,-101.258 L 106.679,-100.95 L 106.613,-100.642
 L 106.428,-100.387 L 106.155,-100.229 L 105.842,-100.196 z
M 87.3586,-99.3408 L 87.1244,-99.5517 L 86.9962,-99.8396 L 86.9962,-100.155 L 87.1244,-100.443 L 87.3586,-100.654
 L 87.6584,-100.751 L 87.9718,-100.718 L 88.2448,-100.561 L 88.4301,-100.306 L 88.4956,-99.9972 L 88.4301,-99.6889
 L 88.2448,-99.4339 L 87.9718,-99.2764 L 87.6584,-99.2434 z
M 103.672,-99.3408 L 103.437,-99.5517 L 103.309,-99.8396 L 103.309,-100.155 L 103.437,-100.443 L 103.672,-100.654
 L 103.971,-100.751 L 104.285,-100.718 L 104.558,-100.561 L 104.743,-100.306 L 104.809,-99.9972 L 104.743,-99.6889
 L 104.558,-99.4339 L 104.285,-99.2764 L 103.971,-99.2434 z
M 89.3182,-98.5886 L 89.084,-98.7995 L 88.9558,-99.0874 L 88.9558,-99.4026 L 89.084,-99.6905 L 89.3182,-99.9014
 L 89.618,-99.9988 L 89.9315,-99.9659 L 90.2044,-99.8083 L 90.3897,-99.5533 L 90.4552,-99.245 L 90.3897,-98.9367
 L 90.2044,-98.6817 L 89.9315,-98.5241 L 89.618,-98.4912 z
M 101.712,-98.5886 L 101.478,-98.7995 L 101.35,-99.0874 L 101.35,-99.4026 L 101.478,-99.6905 L 101.712,-99.9014
 L 102.012,-99.9988 L 102.325,-99.9659 L 102.598,-99.8083 L 102.783,-99.5533 L 102.849,-99.245 L 102.783,-98.9367
 L 102.598,-98.6817 L 102.325,-98.5241 L 102.012,-98.4912 z
M 91.3457,-98.0453 L 91.1115,-98.2562 L 90.9833,-98.5441 L 90.9833,-98.8593 L 91.1115,-99.1473 L 91.3457,-99.3582
 L 91.6455,-99.4556 L 91.959,-99.4226 L 92.2319,-99.265 L 92.4172,-99.01 L 92.4827,-98.7017 L 92.4172,-98.3934
 L 92.2319,-98.1384 L 91.959,-97.9809 L 91.6455,-97.9479 z
M 99.6844,-98.0453 L 99.4502,-98.2562 L 99.322,-98.5441 L 99.322,-98.8593 L 99.4502,-99.1473 L 99.6844,-99.3582
 L 99.9843,-99.4556 L 100.298,-99.4226 L 100.571,-99.265 L 100.756,-99.01 L 100.821,-98.7017 L 100.756,-98.3934
 L 100.571,-98.1384 L 100.298,-97.9809 L 99.9842,-97.9479 z
M 93.4189,-97.7169 L 93.1847,-97.9278 L 93.0565,-98.2158 L 93.0565,-98.531 L 93.1847,-98.8189 L 93.4189,-99.0298
 L 93.7187,-99.1272 L 94.0322,-99.0943 L 94.3051,-98.9367 L 94.4904,-98.6817 L 94.5559,-98.3734 L 94.4904,-98.0651
 L 94.3051,-97.8101 L 94.0322,-97.6525 L 93.7187,-97.6195 z
M 97.6113,-97.7169 L 97.377,-97.9278 L 97.2488,-98.2158 L 97.2488,-98.531 L 97.377,-98.8189 L 97.6113,-99.0298
 L 97.911,-99.1272 L 98.2245,-99.0943 L 98.4975,-98.9367 L 98.6827,-98.6817 L 98.7482,-98.3734 L 98.6827,-98.0651
 L 98.4974,-97.8101 L 98.2245,-97.6525 L 97.9111,-97.6195 z
M 95.5151,-97.6071 L 95.2809,-97.818 L 95.1527,-98.1059 L 95.1527,-98.4211 L 95.2809,-98.709 L 95.5151,-98.9199
 L 95.8149,-99.0173 L 96.1283,-98.9844 L 96.4013,-98.8268 L 96.5866,-98.5718 L 96.6521,-98.2635 L 96.5866,-97.9552
 L 96.4013,-97.7002 L 96.1283,-97.5426 L 95.8149,-97.5097 z
" stroke="black" fill="lightgray" stroke-width="0.5"/>
</svg>
