solid OpenSCAD_Model
  facet normal -1 0 0
    outer loop
      vertex 32.46 -7.3 8
      vertex 32.46 7.3 26
      vertex 32.46 7.3 8
    endloop
  endfacet
  facet normal -1 -0 0
    outer loop
      vertex 32.46 7.3 26
      vertex 32.46 -7.3 8
      vertex 32.46 -7.3 26
    endloop
  endfacet
  facet normal 1 -0 0
    outer loop
      vertex 48.46 -7.3 26
      vertex 48.46 7.3 8
      vertex 48.46 7.3 26
    endloop
  endfacet
  facet normal 1 0 0
    outer loop
      vertex 48.46 7.3 8
      vertex 48.46 -7.3 26
      vertex 48.46 -7.3 8
    endloop
  endfacet
  facet normal -0 0 1
    outer loop
      vertex 32.46 7.3 26
      vertex 48.46 -7.3 26
      vertex 48.46 7.3 26
    endloop
  endfacet
  facet normal 0 0 1
    outer loop
      vertex 48.46 -7.3 26
      vertex 32.46 7.3 26
      vertex 32.46 -7.3 26
    endloop
  endfacet
  facet normal 0 1 -0
    outer loop
      vertex 48.46 7.3 8
      vertex 32.46 7.3 26
      vertex 48.46 7.3 26
    endloop
  endfacet
  facet normal 0 1 0
    outer loop
      vertex 32.46 7.3 26
      vertex 48.46 7.3 8
      vertex 32.46 7.3 8
    endloop
  endfacet
  facet normal 0 0 -1
    outer loop
      vertex 32.46 -7.3 8
      vertex 48.46 7.3 8
      vertex 48.46 -7.3 8
    endloop
  endfacet
  facet normal -0 0 -1
    outer loop
      vertex 48.46 7.3 8
      vertex 32.46 -7.3 8
      vertex 32.46 7.3 8
    endloop
  endfacet
  facet normal 0 -1 0
    outer loop
      vertex 32.46 -7.3 8
      vertex 48.46 -7.3 26
      vertex 32.46 -7.3 26
    endloop
  endfacet
  facet normal 0 -1 -0
    outer loop
      vertex 48.46 -7.3 26
      vertex 32.46 -7.3 8
      vertex 48.46 -7.3 8
    endloop
  endfacet
endsolid OpenSCAD_Model
