<?xml version="1.0" encoding="UTF-8" standalone="no"?>
<svg
   width="204.74539mm"
   height="184.23999mm"
   viewBox="-1 -213 204.74539 184.23999"
   version="1.1"
   id="svg1154"
   sodipodi:docname="combined.svg"
   inkscape:version="1.1.2 (b8e25be833, 2022-02-05)"
   xmlns:inkscape="http://www.inkscape.org/namespaces/inkscape"
   xmlns:sodipodi="http://sodipodi.sourceforge.net/DTD/sodipodi-0.dtd"
   xmlns="http://www.w3.org/2000/svg"
   xmlns:svg="http://www.w3.org/2000/svg">
  <defs
     id="defs1158" />
  <sodipodi:namedview
     id="namedview1156"
     pagecolor="#ffffff"
     bordercolor="#666666"
     borderopacity="1.0"
     inkscape:pageshadow="2"
     inkscape:pageopacity="0.0"
     inkscape:pagecheckerboard="0"
     inkscape:document-units="mm"
     showgrid="false"
     inkscape:zoom="1.0560893"
     inkscape:cx="-21.305016"
     inkscape:cy="385.38407"
     inkscape:window-width="2560"
     inkscape:window-height="1417"
     inkscape:window-x="-8"
     inkscape:window-y="-8"
     inkscape:window-maximized="1"
     inkscape:current-layer="svg1154" />
  <title
     id="title1112">OpenSCAD Model</title>
  <path
     d="m 108.783,-78.628 v 4 h -3.22 v -4 m -101.8130037,0 v 4 h -3.22002 v -4 m -1.4799763,0 v 31.318 h 3.5114163 l 0.52527,0.0413 0.5088,0.1222 0.4834,0.2002 0.44618,0.2735 0.39792,0.3398 0.33986,0.3979 0.27341,0.4462 0.20024,0.4834 0.12216,0.5088 0.04106,0.5217 -0.04106,0.5217 -0.12216,0.5088 -0.20024,0.4834 -0.27341,0.4462 -0.33986,0.3979 -0.39792,0.3398 -0.44618,0.2735 -0.4834,0.2002 -0.5088,0.1222 -0.52527,0.0413 h -2.17496 l -0.20613,0.0162 -0.204484,0.0491 -0.194305,0.0805 -0.179337,0.1099 -0.159927,0.1366 -0.136582,0.1599 -0.1098936,0.1793 -0.0804749,0.1943 -0.0491027,0.2045 L -0.95,-39.3035 v 10.493496 H 110.263 M 69.929096,-67.0377 l -0.4295,-0.1395 -0.3909,-0.2257 -0.3355,-0.3021 -0.2654,-0.3653 -0.1836,-0.4124 -0.0939,-0.4415 v -0.4515 l 0.0939,-0.4416 0.1836,-0.4124 0.2654,-0.3653 0.3355,-0.3021 0.3909,-0.2257 0.4295,-0.1395 0.4489,-0.0472 0.449,0.0472 0.4294,0.1395 0.3909,0.2257 0.3355,0.3021 0.2654,0.3653 0.1836,0.4124 0.0939,0.4416 v 0.4515 l -0.0939,0.4415 -0.1836,0.4124 -0.2654,0.3653 -0.3355,0.3021 -0.3909,0.2257 -0.4294,0.1395 -0.449,0.0472 -0.4489,-0.0472 M 102.713,-67.409 v -2.42 h 2.92 v 2.42 h -2.92 m -99.0329937,0 v -2.42 h 2.91998 v 2.42 h -2.91998 m 57.2015897,30.169 -0.7716,-0.06074 -0.7492,-0.17984 -0.7117,-0.29482 -0.6569,-0.40255 -0.5859,-0.50037 -0.5003,-0.58588 -0.4026,-0.6569 -0.2948,-0.7117 -0.1798,-0.7491 -0.0608,-0.7717 v -18.9928 l 0.0608,-0.7717 0.1798,-0.7491 0.2948,-0.7117 0.4026,-0.6569 0.5003,-0.5859 0.5859,-0.5003 0.6569,-0.4026 0.7117,-0.2948 0.7492,-0.1799 0.7716,-0.0607 h 24.9929 l 0.7716,0.0607 0.7491,0.1799 0.7117,0.2948 0.657,0.4026 0.5858,0.5003 0.5004,0.5859 0.4025,0.6569 0.2948,0.7117 0.1799,0.7491 0.0607,0.7717 v 18.9928 l -0.0607,0.7717 -0.1799,0.7491 -0.2948,0.7117 -0.4025,0.6569 -0.5004,0.58588 -0.5858,0.50037 -0.657,0.40255 -0.7117,0.29482 -0.7491,0.17984 -0.7716,0.06074 h -24.9929 m 43.065404,-23.5813 -0.441,-0.0939 -0.413,-0.1836 -0.365,-0.2654 -0.302,-0.3355 -0.226,-0.3909 -0.139,-0.4295 -0.047,-0.4489 0.047,-0.449 0.139,-0.4294 0.226,-0.3909 0.302,-0.3355 0.365,-0.2654 0.413,-0.1836 0.441,-0.0939 h 0.452 l 0.441,0.0939 0.413,0.1836 0.365,0.2654 0.302,0.3355 0.226,0.3909 0.139,0.4294 0.048,0.449 -0.048,0.4489 -0.139,0.4295 -0.226,0.3909 -0.302,0.3355 -0.365,0.2654 -0.413,0.1836 -0.441,0.0939 h -0.452 m -99.0327437,0 -0.44157,-0.0939 -0.4124,-0.1836 -0.36528,-0.2654 -0.30208,-0.3355 -0.22571,-0.3909 -0.13952,-0.4295 -0.0472,-0.4489 0.0472,-0.449 0.13952,-0.4294 0.22571,-0.3909 0.30208,-0.3355 0.36528,-0.2654 0.4124,-0.1836 0.44157,-0.0939 h 0.45148 l 0.44157,0.0939 0.4124,0.1836 0.36528,0.2654 0.30208,0.3355 0.22571,0.3909 0.13952,0.4294 0.0472,0.449 -0.0472,0.4489 -0.13952,0.4295 -0.22571,0.3909 -0.30208,0.3355 -0.36528,0.2654 -0.4124,0.1836 -0.44157,0.0939 h -0.45148 m 35.4719397,22.90362 -0.4294,-0.13953 -0.391,-0.22571 -0.3355,-0.30208 -0.2654,-0.3653 -0.1836,-0.4124 -0.0938,-0.4416 v -18.9014 l 0.0938,-0.4416 0.1836,-0.4124 0.2654,-0.3653 0.3355,-0.3021 0.391,-0.2257 0.4294,-0.1395 0.4489,-0.0472 0.449,0.0472 0.4294,0.1395 0.3909,0.2257 0.3355,0.3021 0.2654,0.3653 0.1836,0.4124 0.0939,0.4416 v 18.9014 l -0.0939,0.4416 -0.1836,0.4124 -0.2654,0.3653 -0.3355,0.30208 -0.3909,0.22571 -0.4294,0.13953 -0.449,0.04719 -0.4489,-0.04719 m -8.276,-3.22972 -0.1626,-0.0723 -0.1191,-0.1323 -0.0565,-0.1739 v -17.101 l 0.0201,-0.1913 0.089,-0.1542 0.144,-0.1046 0.174,-0.037 0.1741,0.037 0.144,0.1046 0.089,0.1542 0.0201,0.1913 v 17.101 l -0.0565,0.1739 -0.1191,0.1323 -0.1626,0.0723 h -0.1779 M 102.713,-48.44 v -4.92 h 2.92 v 4.92 h -2.92 m -99.0329937,0 v -4.92 h 2.91998 v 4.92 h -2.91998 m 21.6671897,14.44726 -0.0837,-0.01779 -0.0782,-0.03483 -0.0693,-0.05033 -0.0573,-0.06363 -0.0428,-0.07412 -0.0264,-0.08145 -0.0095,-0.08989 v -1.99044 l 0.0095,-0.08989 0.0264,-0.08145 0.0428,-0.07412 0.0573,-0.06363 0.0693,-0.05033 0.0782,-0.03483 0.0837,-0.01779 h 1.0856 l 0.0837,0.01779 0.0782,0.03483 0.0693,0.05033 0.0573,0.06363 0.0428,0.07412 0.0264,0.08145 0.0095,0.08989 v 1.99044 l -0.0095,0.08989 -0.0264,0.08145 -0.0428,0.07412 -0.0573,0.06363 -0.0693,0.05033 -0.0782,0.03483 -0.0837,0.01779 h -1.0856 m -8.5,0 -0.0837,-0.01779 -0.0782,-0.03483 -0.0693,-0.05033 -0.0573,-0.06363 -0.0428,-0.07412 -0.0264,-0.08145 -0.0095,-0.08989 v -1.99044 l 0.0095,-0.08989 0.0264,-0.08145 0.0428,-0.07412 0.0573,-0.06363 0.0693,-0.05033 0.0782,-0.03483 0.0837,-0.01779 h 1.0856 l 0.0837,0.01779 0.0782,0.03483 0.0693,0.05033 0.0573,0.06363 0.0428,0.07412 0.0264,0.08145 0.0095,0.08989 v 1.99044 l -0.0095,0.08989 -0.0264,0.08145 -0.0428,0.07412 -0.0573,0.06363 -0.0693,0.05033 -0.0782,0.03483 -0.0837,0.01779 h -1.0856 m 53.0819,1.95504 -0.4295,-0.13952 -0.3909,-0.22571 -0.3355,-0.30208 -0.2654,-0.36528 -0.1836,-0.4124 -0.0939,-0.44157 v -0.45149 l 0.0939,-0.44158 0.1836,-0.4124 0.2654,-0.36528 0.3355,-0.30208 0.3909,-0.2257 0.4295,-0.13953 0.4489,-0.04718 0.449,0.04718 0.4294,0.13953 0.3909,0.2257 0.3355,0.30208 0.2654,0.36528 0.1836,0.4124 0.0939,0.44158 v 0.45149 l -0.0939,0.44157 -0.1836,0.4124 -0.2654,0.36528 -0.3355,0.30208 -0.3909,0.22571 -0.4294,0.13952 -0.449,0.0472 -0.4489,-0.0472"
     stroke="#0000ff"
     fill="none"
     stroke-width="0.1"
     id="path1114" />
  <path
     d="m 100.347,-75.538 -1.458904,-0.7294 v 1.4588 L 100.347,-75.538"
     stroke="none"
     fill="#000000"
     stroke-width="0.5"
     id="path1116" />
  <path
     d="m 108.783,-109.946 v 4 h -3.22 v -4 m -101.8130037,0 v 4 h -3.22002 v -4 m -1.4799763,0 v 31.318 h 111.213 m -7.55,-20.099 v -2.42 h 2.92 v 2.42 h -2.92 m -99.0329937,0 v -2.42 h 2.91998 v 2.42 h -2.91998 m 88.1925897,17.6278 -0.6668,-0.6004 -0.365,-0.8197 v -14.8974 l 0.365,-0.8197 0.6668,-0.6005 0.8535,-0.2773 0.8924,0.0938 0.7771,0.4487 0.5275,0.726 0.1885,0.8871 v 13.9812 l -0.1885,0.8871 -0.5275,0.726 -0.7771,0.4486 -0.8924,0.0939 -0.8535,-0.2774 m 12.074404,-11.0401 -0.441,-0.0939 -0.413,-0.1836 -0.365,-0.2654 -0.302,-0.3355 -0.226,-0.391 -0.139,-0.4294 -0.047,-0.4489 0.047,-0.449 0.139,-0.4294 0.226,-0.391 0.302,-0.3355 0.365,-0.2653 0.413,-0.1837 0.441,-0.0938 h 0.452 l 0.441,0.0938 0.413,0.1837 0.365,0.2653 0.302,0.3355 0.226,0.391 0.139,0.4294 0.048,0.449 -0.048,0.4489 -0.139,0.4294 -0.226,0.391 -0.302,0.3355 -0.365,0.2654 -0.413,0.1836 -0.441,0.0939 h -0.452 m -99.0327437,0 -0.44157,-0.0939 -0.4124,-0.1836 -0.36528,-0.2654 -0.30208,-0.3355 -0.22571,-0.391 -0.13952,-0.4294 -0.0472,-0.4489 0.0472,-0.449 0.13952,-0.4294 0.22571,-0.391 0.30208,-0.3355 0.36528,-0.2653 0.4124,-0.1837 0.44157,-0.0938 h 0.45148 l 0.44157,0.0938 0.4124,0.1837 0.36528,0.2653 0.30208,0.3355 0.22571,0.391 0.13952,0.4294 0.0472,0.449 -0.0472,0.4489 -0.13952,0.4294 -0.22571,0.391 -0.30208,0.3355 -0.36528,0.2654 -0.4124,0.1836 -0.44157,0.0939 h -0.45148 M 102.713,-84.927 v -4.92 h 2.92 v 4.92 h -2.92 m -99.0329937,0 v -4.92 h 2.91998 v 4.92 h -2.91998 m 43.0397897,4.0072 -0.4212,-0.0895 -0.3932,-0.1751 -0.3484,-0.2531 -0.2881,-0.32 -0.2153,-0.3728 -0.133,-0.4095 -0.045,-0.4282 0.045,-0.4282 0.133,-0.4095 0.2153,-0.3729 0.2881,-0.3199 0.3484,-0.2531 0.3932,-0.1751 0.4212,-0.0895 h 0.4306 l 0.4211,0.0895 0.3933,0.1751 0.3483,0.2531 0.2881,0.3199 0.2153,0.3729 0.1331,0.4095 0.045,0.4282 -0.045,0.4282 -0.1331,0.4095 -0.2153,0.3728 -0.2881,0.32 -0.3483,0.2531 -0.3933,0.1751 -0.4211,0.0895 h -0.4306"
     stroke="#0000ff"
     fill="none"
     stroke-width="0.1"
     id="path1118" />
  <path
     d="m 9.7219963,-106.0755 0.0813,-0.0128 0.0793,-0.0213 0.0766,-0.0294 0.0733,-0.0374 0.0688,-0.0446 0.0638,-0.0518 0.0582,-0.0581 0.0517,-0.0638 0.0447,-0.0689 0.0373,-0.0731 0.0295,-0.077 0.0212,-0.079 0.0129,-0.0814 0.0043,-0.082 -0.0043,-0.0819 -0.0129,-0.0814 -0.0212,-0.0791 -0.0295,-0.0769 -0.0373,-0.0731 -0.0447,-0.0689 -0.0517,-0.0638 -0.0582,-0.0582 -0.0638,-0.0517 -0.0688,-0.0446 -0.0733,-0.0374 -0.0766,-0.0294 -0.0793,-0.0213 -0.0813,-0.0128 -0.082,-0.004 -0.082,0.004 -0.0813,0.0128 -0.0793,0.0213 -0.0766,0.0294 -0.0732,0.0373 -0.0689,0.0448 -0.06386,0.0516 -0.05814,0.0582 -0.05171,0.0638 -0.04474,0.0689 -0.03723,0.0731 -0.02953,0.0769 -0.02119,0.0791 -0.01288,0.0814 -0.0043,0.0819 0.0043,0.082 0.01288,0.0814 0.02119,0.079 0.02953,0.077 0.03723,0.0731 0.04474,0.0689 0.05171,0.0638 0.05814,0.0581 0.06386,0.0517 0.0689,0.0448 0.0732,0.0373 0.0766,0.0294 0.0793,0.0213 0.0813,0.0128 0.082,0.004 0.082,-0.004"
     stroke="none"
     fill="#000000"
     stroke-width="0.5"
     id="path1120" />
  <path
     d="M 110.263,-212.726 H -0.95 v 102.7799 h 111.213 m -7.55,-64.0799 v -25.22 h 2.92 v 25.22 h -2.92 m -99.0329937,0 v -25.22 h 2.91998 v 25.22 h -2.91998 m 11.1089897,50.55 v -75.72 h 69.899 v 75.72 h -69.899 m -10.0979397,-35.748 -0.42943,-0.139 -0.39095,-0.226 -0.33549,-0.302 -0.26538,-0.365 -0.18361,-0.413 -0.09387,-0.441 v -0.452 l 0.09387,-0.441 0.18361,-0.413 0.26538,-0.365 0.33549,-0.302 0.39095,-0.226 0.42943,-0.139 0.44894,-0.048 0.44894,0.048 0.42943,0.139 0.39095,0.226 0.33549,0.302 0.26538,0.365 0.18361,0.413 0.09387,0.441 v 0.452 l -0.09387,0.441 -0.18361,0.413 -0.26538,0.365 -0.33549,0.302 -0.39095,0.226 -0.42943,0.139 -0.44894,0.047 -0.44894,-0.047 m 99.0329437,0 -0.429,-0.139 -0.391,-0.226 -0.336,-0.302 -0.265,-0.365 -0.184,-0.413 -0.094,-0.441 v -0.452 l 0.094,-0.441 0.184,-0.413 0.265,-0.365 0.336,-0.302 0.391,-0.226 0.429,-0.139 0.449,-0.048 0.449,0.048 0.429,0.139 0.391,0.226 0.336,0.302 0.265,0.365 0.184,0.413 0.094,0.441 v 0.452 l -0.094,0.441 -0.184,0.413 -0.265,0.365 -0.336,0.302 -0.391,0.226 -0.429,0.139 -0.449,0.047 -0.449,-0.047 m -1.011,35.798 v -25.22 h 2.92 v 25.22 h -2.92 m -99.0329937,0 v -25.22 h 2.91998 v 25.22 h -2.91998"
     stroke="#0000ff"
     fill="none"
     stroke-width="0.1"
     id="path1122" />
  <path
     d="m 99.754996,-195.505 0.081,-0.013 0.08,-0.022 0.076,-0.029 0.074,-0.037 0.068,-0.045 0.064,-0.052 0.058,-0.058 0.052,-0.064 0.045,-0.069 0.037,-0.073 0.03,-0.077 0.021,-0.079 0.013,-0.081 0.004,-0.082 -0.004,-0.082 -0.013,-0.081 -0.021,-0.079 -0.03,-0.077 -0.037,-0.073 -0.045,-0.069 -0.052,-0.064 -0.058,-0.058 -0.064,-0.052 -0.068,-0.045 -0.074,-0.037 -0.076,-0.03 -0.08,-0.021 -0.081,-0.013 -0.082,-0.004 -0.082,0.004 -0.081,0.013 -0.079,0.021 -0.077,0.03 -0.073,0.037 -0.069,0.045 -0.064,0.052 -0.0582,0.058 -0.0517,0.064 -0.0447,0.069 -0.0373,0.073 -0.0295,0.077 -0.0212,0.079 -0.0129,0.081 -0.0043,0.082 0.0043,0.082 0.0129,0.081 0.0212,0.079 0.0295,0.077 0.0373,0.073 0.0447,0.069 0.0517,0.064 0.0582,0.058 0.064,0.052 0.069,0.045 0.073,0.037 0.077,0.029 0.079,0.022 0.081,0.013 0.082,0.004 0.082,-0.004 m 0.592004,73.2189 -1.458904,-0.7293 v 1.4587 l 1.458904,-0.7294 m 6.686,9.125 -1.12,-0.9328 v 0.4603 h -3.15 v 0.945 h 3.15 v 0.4604 l 1.12,-0.9329"
     stroke="none"
     fill="#000000"
     stroke-width="0.5"
     id="path1124" />
  <path
     d="m 121.612,-116.19 h 2.15 v -3.18 h -1.35 v -3.22 h 1.35 v -3.6 h 4.32 v 3.6 h 1.35 v 3.22 h -1.35 v 3.18 h 2.15 v 2.4 h 2.68 v -2.4 h 11.669 v -25.48 h -3 v -10.4 h -3.18 v 1.35 h -3.22 v -1.35 h -3.6 v -4.32 h 3.6 v -1.35 h 3.22 v 1.35 h 3.18 v -10.4 h 3 v -25.48 h -3 v -4.1 h -8.669 v -2.4 h -2.68 v 2.4 h -2.15 v 3.18 h 1.35 v 3.22 h -1.35 v 3.6 h -4.32 v -3.6 h -1.35 v -3.22 h 1.35 v -3.18 h -7.319 v -2.4 m -5.18,0 v 2.4 h -1 m 0,80.18 h 6.169 v 2.4 h 5.18 v -2.4 m -5.808,-37.978 -0.429,-0.139 -0.391,-0.226 -0.336,-0.302 -0.265,-0.365 -0.184,-0.413 -0.094,-0.441 v -0.452 l 0.094,-0.441 0.184,-0.413 0.265,-0.365 0.336,-0.302 0.391,-0.226 0.429,-0.139 0.449,-0.047 0.449,0.047 0.429,0.139 0.391,0.226 0.336,0.302 0.265,0.365 0.184,0.413 0.094,0.441 v 0.452 l -0.094,0.441 -0.184,0.413 -0.265,0.365 -0.336,0.302 -0.391,0.226 -0.429,0.139 -0.449,0.048 -0.449,-0.048"
     stroke="#0000ff"
     fill="none"
     stroke-width="0.1"
     id="path1126" />
  <path
     d="m 116.443,-31.21 h 7.319 v -3.17999 h -1.35 v -3.22 h 1.35 V -41.21 h 4.32 v 3.60001 h 1.35 v 3.22 h -1.35 V -31.21 h 2.15 v 2.399996 h 2.68 V -31.21 h 8.669 v -4.1 h 3 v -25.48 h -3 v -10.4 h -3.18 v 1.35 h -3.22 v -1.35 h -3.6 v -4.32 h 3.6 v -1.35 h 3.22 v 1.35 h 3.18 v -10.4 h 3 v -25.48 h -11.669 v -2.4 m -2.68,0 v 2.4 h -2.15 v 3.18 h 1.35 v 3.22 h -1.35 v 3.6 h -4.32 v -3.6 h -1.35 v -3.22 h 1.35 v -3.18 h -2.15 v -2.4 m -5.18,0 v 2.4 h -6.169 m 0,80.18 h 1 v 2.399996 h 5.18 V -31.21 m -0.639,-37.9777 -0.429,-0.1395 -0.391,-0.2257 -0.336,-0.3021 -0.265,-0.3653 -0.184,-0.4124 -0.094,-0.4416 v -0.4514 l 0.094,-0.4416 0.184,-0.4124 0.265,-0.3653 0.336,-0.3021 0.391,-0.2257 0.429,-0.1395 0.449,-0.0472 0.449,0.0472 0.429,0.1395 0.391,0.2257 0.336,0.3021 0.265,0.3653 0.184,0.4124 0.094,0.4416 v 0.4514 l -0.094,0.4416 -0.184,0.4124 -0.265,0.3653 -0.336,0.3021 -0.391,0.2257 -0.429,0.1395 -0.449,0.0472 -0.449,-0.0472"
     stroke="#0000ff"
     fill="none"
     stroke-width="0.1"
     id="path1128" />
  <path
     d="m 112.73,-103.5404 -0.217,-0.0255 0.209,-0.27 0.034,-0.1757 -0.043,-0.2054 -0.129,-0.1569 -0.208,-0.1051 -0.284,-0.0374 h -0.004 l -0.287,0.038 -0.21,0.1071 -0.13,0.1573 -0.043,0.2 0.031,0.1618 0.208,0.2838 h -0.263 l -0.162,-0.0258 -0.134,-0.0867 -0.083,-0.1373 -0.025,-0.1725 0.048,-0.2289 0.08,-0.1049 -0.101,-0.0732 -0.03,0.0316 -0.064,0.1164 -0.042,0.1381 -0.015,0.1415 0.017,0.1809 0.049,0.1514 0.078,0.1197 0.105,0.0879 0.131,0.0554 0.162,0.0197 h 1.322 v -0.1853 m -0.99,-0.028 -0.145,-0.1482 -0.044,-0.1985 0.038,-0.167 0.114,-0.1267 0.165,-0.0735 0.201,-0.0227 0.224,0.0225 0.174,0.0736 0.116,0.128 0.039,0.1686 -0.044,0.1958 -0.145,0.1481 h -0.693 m 2.839,-0.7022 0.623,0.591 0.183,0.1516 0.152,0.0951 0.132,0.0501 0.124,0.0159 0.203,-0.0363 0.143,-0.1027 0.092,-0.1702 0.033,-0.2437 -0.018,-0.1665 -0.056,-0.1462 -0.086,-0.1194 -0.113,-0.0885 -0.135,-0.0553 -0.059,-0.007 v 0.2132 l 0.073,0.0105 0.137,0.0744 0.094,0.123 0.029,0.1555 -0.025,0.1452 -0.079,0.1141 -0.122,0.0681 -0.148,0.0209 -0.124,-0.0198 -0.123,-0.0557 -0.127,-0.0873 -0.139,-0.1188 -0.657,-0.6159 h -0.143 v 1.1735 h 0.136 v -0.9684 m 4.178,0.438 -0.04,-0.1466 -0.286,-0.2659 0.299,-0.0187 v -0.1957 h -1.287 v 0.212 h 0.907 l 0.159,0.1518 0.046,0.2225 -0.003,0.0597 0.204,0.003 0.001,-0.0221 m -0.358,1.3963 0.197,-0.1111 0.119,-0.1718 0.042,-0.2363 -0.02,-0.1639 -0.061,-0.1441 -0.097,-0.1185 -0.134,-0.0894 -0.165,-0.0568 -0.195,-0.0199 h -0.025 l -0.271,0.0462 -0.199,0.1312 -0.129,0.2011 -0.044,0.2629 0.015,0.153 0.046,0.1392 0.072,0.1157 0.042,0.0395 0.091,-0.0807 -0.083,-0.1027 -0.049,-0.2395 0.027,-0.1671 0.083,-0.1381 0.128,-0.0969 0.261,-0.0767 v 0.9648 h 0.064 l 0.285,-0.0401 m -0.262,-0.1651 v -0.7514 l 0.256,0.0659 0.122,0.0764 0.081,0.1145 0.026,0.1404 -0.023,0.1447 -0.075,0.1154 -0.119,0.0711 -0.139,0.023 h -0.129 m -2.279,0.7881 0.226,-0.1131 0.133,-0.1752 0.046,-0.2472 -0.046,-0.2473 -0.135,-0.1755 -0.231,-0.1127 -0.344,-0.0405 h -0.352 l -0.33,0.0431 -0.227,0.1131 -0.134,0.1753 -0.046,0.2471 0.047,0.2494 0.136,0.175 0.233,0.1115 0.341,0.0401 h 0.352 l 0.331,-0.0431 m -0.763,-0.1689 -0.217,-0.0193 -0.172,-0.0587 -0.118,-0.1167 -0.038,-0.1696 0.04,-0.1711 0.122,-0.1184 0.178,-0.0593 0.225,-0.0176 h 0.488 l 0.212,0.0211 0.167,0.0616 0.111,0.1172 0.037,0.1643 -0.038,0.1681 -0.117,0.1193 -0.176,0.0611 -0.227,0.018 h -0.477 m -1.85,-0.682 0.033,-0.023 0.024,-0.0384 0.009,-0.0586 -0.009,-0.0592 -0.023,-0.0379 -0.034,-0.0226 -0.045,-0.008 -0.046,0.009 -0.033,0.0233 -0.024,0.0387 -0.009,0.0576 0.009,0.0577 0.024,0.0386 0.033,0.0234 0.046,0.008 0.045,-0.008 m -0.515,-0.2265 h -1.287 v 0.2133 h 1.287 v -0.2133 m -1.171,1.2251 0.012,-0.0995 0.049,-0.0847 0.085,-0.0426 0.091,-0.0101 h 0.826 v 0.2509 h 0.108 v -0.2509 h 0.361 v -0.212 h -0.361 v -0.2143 h -0.108 v 0.2143 h -0.864 l -0.256,0.0895 -0.085,0.2523 0.007,0.0957 0.009,0.0403 h 0.127 l -0.001,-0.0289 m 7.171,0.4199 -1.237,-0.3412 1.237,-0.3411 v -0.2157 l -1.287,0.4343 v 0.2451 l 1.287,0.4343 v -0.2157 m -4.151,0.0878 0.623,0.591 0.183,0.1516 0.152,0.0951 0.132,0.0501 0.124,0.0158 0.203,-0.0362 0.143,-0.1027 0.092,-0.1702 0.033,-0.2437 -0.018,-0.1665 -0.056,-0.1461 -0.086,-0.1195 -0.113,-0.0885 -0.135,-0.0553 -0.059,-0.007 v 0.2132 l 0.073,0.0105 0.137,0.0744 0.094,0.123 0.029,0.1555 -0.025,0.1452 -0.079,0.1141 -0.122,0.0681 -0.148,0.0209 -0.124,-0.0198 -0.123,-0.0557 -0.127,-0.0873 -0.139,-0.1188 -0.657,-0.6159 h -0.143 v 1.1735 h 0.136 v -0.9684 m -1.938,0.8533 0.113,-0.2935 -0.036,-0.169 -0.244,-0.3057 h 0.873 v -0.2119 h -1.904 v 0.2119 h 0.991 l 0.144,0.1462 0.043,0.1896 -0.02,0.1434 -0.069,0.109 -0.112,0.0597 -0.132,0.0163 h -0.845 v 0.212 h 0.837 l 0.361,-0.108 m 4.953,-0.3187 0.036,-0.0253 0.025,-0.0405 0.009,-0.0559 -0.009,-0.0548 -0.025,-0.0403 -0.036,-0.0254 -0.049,-0.009 -0.048,0.009 -0.035,0.0247 -0.024,0.04 -0.009,0.056 0.009,0.0571 0.025,0.0402 0.034,0.0246 0.048,0.009 0.049,-0.009 m -3.015,1.0217 0.623,0.591 0.183,0.1516 0.152,0.0952 0.132,0.05 0.124,0.0159 0.203,-0.0363 0.143,-0.1026 0.092,-0.1702 0.033,-0.2438 -0.018,-0.1665 -0.056,-0.1461 -0.086,-0.1195 -0.113,-0.0885 -0.135,-0.0553 -0.059,-0.0074 v 0.2133 l 0.073,0.0104 0.137,0.0745 0.094,0.1229 0.029,0.1556 -0.025,0.1452 -0.079,0.1141 -0.122,0.0681 -0.148,0.0208 -0.124,-0.0198 -0.123,-0.0556 -0.127,-0.0873 -0.139,-0.1189 -0.657,-0.6159 h -0.143 v 1.1735 h 0.136 v -0.9684 m -1.849,0.7096 h -0.986 l -0.149,-0.1517 -0.045,-0.2192 0.082,-0.2228 0.227,-0.0691 h 0.871 v -0.212 h -0.865 l -0.207,0.0298 -0.133,0.0749 -0.079,0.118 -0.028,0.1729 0.037,0.192 0.22,0.2884 -0.232,0.0169 v 0.1952 h 1.287 v -0.2133 m 6.032,0.5564 0.176,-0.057 0.141,-0.0882 0.102,-0.1148 0.062,-0.1384 0.021,-0.1598 -0.019,-0.1567 -0.058,-0.1384 -0.093,-0.1154 -0.124,-0.0874 -0.148,-0.0557 -0.164,-0.0186 -0.245,0.0353 -0.18,0.1003 -0.111,0.1513 -0.037,0.1985 0.03,0.1568 0.283,0.4168 -0.677,-0.309 -0.149,-0.4443 v -0.0121 h -0.146 l 0.078,0.3679 0.193,0.2649 0.303,0.1665 0.419,0.0582 h 0.134 l 0.209,-0.0207 m -0.331,-0.1913 -0.096,-0.0653 -0.069,-0.0777 -0.048,-0.0993 -0.017,-0.1183 0.034,-0.1575 0.106,-0.1207 0.148,-0.0695 0.172,-0.0216 0.174,0.0222 0.15,0.0703 0.109,0.1161 0.038,0.1515 -0.038,0.1589 -0.112,0.1201 -0.162,0.0699 -0.195,0.0209 h -0.194 m -6.043,1.3941 0.206,-0.0992 0.121,-0.1489 0.041,-0.2001 -0.032,-0.1616 -0.216,-0.2848 h 0.839 v -0.212 h -1.904 v 0.1822 l 0.241,0.0273 -0.229,0.2775 -0.037,0.1747 0.041,0.1999 0.121,0.1477 0.205,0.0978 0.294,0.0353 h 0.011 l 0.298,-0.0358 m -0.456,-0.1837 -0.137,-0.0259 -0.183,-0.1201 -0.063,-0.2121 0.051,-0.2108 0.163,-0.142 h 0.647 l 0.162,0.1405 0.05,0.2057 -0.035,0.1654 -0.107,0.1218 -0.164,0.0658 -0.212,0.0194 -0.172,-0.0077 m 3.335,-0.9189 h -0.136 v 0.5836 h 0.136 v -0.5836 m 2.981,1.4894 0.182,-0.0973 0.114,-0.1465 0.038,-0.1935 -0.033,-0.184 -0.252,-0.3728 0.473,0.1441 0.188,0.1519 0.118,0.2177 0.033,0.2169 h 0.146 l -0.029,-0.2335 -0.092,-0.222 -0.146,-0.1801 -0.197,-0.1337 -0.244,-0.0837 -0.288,-0.0289 h -0.13 l -0.303,0.0445 -0.222,0.1261 -0.139,0.1901 -0.048,0.2483 0.019,0.1569 0.056,0.14 0.088,0.1151 0.119,0.086 0.143,0.0543 0.161,0.0183 0.245,-0.0342 m -0.419,-0.1981 -0.145,-0.0739 -0.1,-0.1211 -0.034,-0.1549 0.037,-0.1663 0.112,-0.125 0.162,-0.0714 0.194,-0.0214 h 0.15 l 0.107,0.0681 0.075,0.087 0.047,0.1053 0.017,0.1189 -0.033,0.1557 -0.099,0.124 -0.146,0.0749 -0.173,0.0233 -0.171,-0.0232 m -1.855,-0.1623 h -0.133 l 0.145,0.4679 h -1.543 v 0.212 h 1.775 l -0.244,-0.6799 m -4.38,0.6674 0.036,-0.0253 0.025,-0.0405 0.009,-0.0559 -0.009,-0.0548 -0.025,-0.0404 -0.036,-0.0253 -0.049,-0.0091 -0.048,0.0089 -0.034,0.0247 -0.025,0.04 -0.009,0.056 0.009,0.0571 0.025,0.0402 0.034,0.0246 0.048,0.0089 0.049,-0.0091 m 6.177,0.9589 -0.037,-0.0079 -0.101,-0.0744 -0.062,-0.1089 -0.02,-0.1307 0.032,-0.1615 0.104,-0.122 0.164,-0.0649 0.212,-0.0188 h 0.049 l 0.21,0.019 0.163,0.0654 0.104,0.1209 0.033,0.16 -0.024,0.1364 -0.075,0.1101 -0.112,0.0708 -0.047,0.0086 v 0.1843 l 0.11,-0.0203 0.151,-0.1035 0.098,-0.1618 0.034,-0.2155 -0.044,-0.2463 -0.129,-0.1814 -0.204,-0.117 -0.282,-0.0417 h -0.012 l -0.292,0.0421 -0.205,0.1177 -0.128,0.1822 -0.044,0.2493 0.015,0.1378 0.044,0.1258 0.069,0.1046 0.092,0.0785 0.107,0.0496 0.027,0.004 v -0.1905 m -6,0.396 -0.037,-0.0078 -0.101,-0.0744 -0.062,-0.1089 -0.02,-0.1307 0.032,-0.1615 0.104,-0.122 0.164,-0.0649 0.212,-0.0188 h 0.049 l 0.21,0.019 0.163,0.0654 0.104,0.1209 0.033,0.16 -0.024,0.1364 -0.075,0.1101 -0.112,0.0708 -0.047,0.0086 v 0.1843 l 0.11,-0.0203 0.151,-0.1036 0.098,-0.1617 0.034,-0.2155 -0.044,-0.2464 -0.129,-0.1814 -0.204,-0.1169 -0.282,-0.0417 h -0.012 l -0.292,0.0421 -0.205,0.1177 -0.128,0.1822 -0.044,0.2493 0.015,0.1378 0.044,0.1258 0.069,0.1046 0.092,0.0785 0.107,0.0496 0.027,0.0039 v -0.1905 m 2.808,-0.353 0.623,0.5909 0.183,0.1516 0.152,0.0951 0.132,0.0501 0.124,0.0159 0.203,-0.0362 0.143,-0.1027 0.092,-0.1702 0.033,-0.2438 -0.018,-0.1665 -0.056,-0.1461 -0.086,-0.1195 -0.113,-0.0885 -0.135,-0.0553 -0.059,-0.0074 v 0.2133 l 0.073,0.0104 0.137,0.0745 0.094,0.1229 0.029,0.1556 -0.025,0.1451 -0.079,0.1142 -0.122,0.0681 -0.148,0.0208 -0.124,-0.0198 -0.123,-0.0556 -0.127,-0.0873 -0.139,-0.1189 -0.657,-0.6159 h -0.143 v 1.1735 h 0.136 v -0.9683 m 4.768,1.3996 h -0.84 l 0.217,-0.2864 0.032,-0.1573 -0.042,-0.1985 -0.126,-0.1504 -0.208,-0.1005 -0.282,-0.0353 -0.298,0.0361 -0.213,0.1026 -0.127,0.1505 -0.042,0.1925 0.037,0.1692 0.227,0.2774 -0.239,0.0291 v 0.1843 h 1.904 v -0.2133 m -1.584,0 -0.162,-0.1425 -0.05,-0.203 0.038,-0.1652 0.112,-0.1206 0.165,-0.0661 0.208,-0.0206 0.4,0.082 0.151,0.2802 -0.053,0.215 -0.162,0.1408 h -0.647 m -5.602,0.6747 0.254,-0.0575 0.185,-0.1261 0.117,-0.1842 0.04,-0.239 -0.02,-0.1711 -0.061,-0.1472 -0.096,-0.1189 -0.131,-0.0884 -0.161,-0.0558 -0.192,-0.0195 h -0.006 l -0.289,0.0437 -0.209,0.1229 -0.13,0.1889 -0.044,0.2502 0.044,0.25 0.131,0.1886 0.206,0.1225 0.279,0.0432 0.083,-0.0023 m -0.29,-0.2312 -0.174,-0.0737 -0.111,-0.129 -0.036,-0.168 0.037,-0.171 0.111,-0.1285 0.167,-0.0727 0.207,-0.0221 0.226,0.0218 0.174,0.0721 0.114,0.1281 0.037,0.1695 -0.037,0.1708 -0.113,0.1287 -0.167,0.0736 -0.205,0.0226 -0.23,-0.0222 m 3.396,-0.477 h -0.136 v 0.5836 h 0.136 v -0.5836 m 3.495,1.7913 0.176,-0.0571 0.141,-0.0881 0.102,-0.1149 0.062,-0.1384 0.021,-0.1598 -0.019,-0.1567 -0.058,-0.1383 -0.093,-0.1154 -0.124,-0.0875 -0.148,-0.0556 -0.164,-0.0187 -0.245,0.0353 -0.18,0.1004 -0.111,0.1512 -0.037,0.1986 0.03,0.1567 0.283,0.4168 -0.677,-0.3089 -0.149,-0.4443 v -0.0122 h -0.146 l 0.078,0.3679 0.193,0.2649 0.303,0.1665 0.419,0.0582 h 0.134 l 0.209,-0.0206 m -0.331,-0.1913 -0.096,-0.0654 -0.069,-0.0777 -0.048,-0.0993 -0.017,-0.1183 0.034,-0.1574 0.106,-0.1207 0.148,-0.0695 0.172,-0.0217 0.174,0.0222 0.15,0.0703 0.109,0.1162 0.038,0.1514 -0.038,0.159 -0.112,0.12 -0.162,0.0699 -0.195,0.021 h -0.194 m -3.852,-0.3581 0.623,0.591 0.183,0.1516 0.152,0.0951 0.132,0.05 0.124,0.0159 0.203,-0.0362 0.143,-0.1027 0.092,-0.1702 0.033,-0.2438 -0.018,-0.1664 -0.056,-0.1462 -0.086,-0.1194 -0.113,-0.0885 -0.135,-0.0553 -0.059,-0.0074 v 0.2132 l 0.073,0.0105 0.137,0.0744 0.094,0.1229 0.029,0.1556 -0.025,0.1452 -0.079,0.1141 -0.122,0.0681 -0.148,0.0209 -0.124,-0.0198 -0.123,-0.0557 -0.127,-0.0873 -0.139,-0.1188 -0.657,-0.616 h -0.143 v 1.1736 h 0.136 v -0.9684 m -2.07,1.7503 0.14,-0.0703 0.079,-0.112 0.028,-0.1706 -0.047,-0.2132 -0.212,-0.237 0.214,-0.1913 0.045,-0.1924 -0.04,-0.1982 -0.234,-0.2993 0.248,-0.0185 v -0.194 h -1.287 v 0.2119 h 0.984 l 0.149,0.1405 0.045,0.1864 -0.019,0.1392 -0.067,0.1053 -0.111,0.0562 -0.131,0.0149 h -0.85 v 0.2119 l 0.948,-0.0013 0.175,0.1313 0.055,0.1965 -0.02,0.143 -0.067,0.1052 -0.111,0.0547 -0.129,0.0145 h -0.851 v 0.2133 h 0.842 l 0.224,-0.0267 m 5.512,0.3727 0.108,-0.0512 0.089,-0.082 0.149,-0.2331 0.148,0.2144 0.081,0.0695 0.096,0.0432 0.108,0.0144 0.195,-0.036 0.143,-0.1031 0.093,-0.1666 0.033,-0.2284 -0.033,-0.2291 -0.095,-0.1665 -0.143,-0.1028 -0.193,-0.0358 -0.108,0.0142 -0.096,0.0428 -0.081,0.069 -0.148,0.2142 -0.148,-0.2321 -0.09,-0.0816 -0.107,-0.0513 -0.125,-0.0172 -0.2,0.0384 -0.148,0.111 -0.098,0.1806 -0.034,0.2475 0.034,0.2472 0.097,0.1794 0.148,0.11 0.2,0.0381 0.125,-0.0171 m -0.247,-0.217 -0.122,-0.0745 -0.077,-0.1192 -0.024,-0.147 0.025,-0.1496 0.079,-0.12 0.122,-0.0747 0.146,-0.0234 0.148,0.0238 0.122,0.0759 0.079,0.1194 0.025,0.146 -0.025,0.1471 -0.079,0.1197 -0.122,0.0758 -0.148,0.0238 -0.149,-0.0231 m 0.875,-0.0369 -0.116,-0.0626 -0.078,-0.1059 -0.025,-0.1352 0.025,-0.1352 0.078,-0.1064 0.115,-0.0632 0.136,-0.0194 0.136,0.0195 0.113,0.0642 0.074,0.1065 0.023,0.1328 -0.023,0.1342 -0.076,0.1064 -0.114,0.0639 -0.133,0.0195 -0.135,-0.0191 m -3.401,0.6289 0.182,-0.0974 0.114,-0.1464 0.038,-0.1935 -0.033,-0.184 -0.252,-0.3729 0.473,0.1442 0.188,0.1519 0.118,0.2176 0.033,0.217 h 0.146 l -0.029,-0.2335 -0.092,-0.222 -0.146,-0.1802 -0.197,-0.1336 -0.244,-0.0838 -0.288,-0.0289 h -0.13 l -0.303,0.0446 -0.222,0.1261 -0.139,0.1901 -0.048,0.2483 0.019,0.1569 0.056,0.14 0.088,0.1151 0.119,0.086 0.143,0.0543 0.161,0.0183 0.245,-0.0342 m -0.419,-0.1981 -0.145,-0.0739 -0.1,-0.1211 -0.034,-0.1549 0.037,-0.1663 0.112,-0.125 0.162,-0.0714 0.194,-0.0214 h 0.15 l 0.107,0.0681 0.075,0.087 0.047,0.1053 0.017,0.1189 -0.033,0.1557 -0.099,0.124 -0.146,0.0748 -0.173,0.0234 -0.171,-0.0232 m -1.591,0.4353 -1.964,-0.6659 v 0.1015 l 1.964,0.6659 v -0.1015 m 4.253,0.8541 0.198,-0.0164 h 0.631 l 0.191,-0.0347 0.131,-0.0955 0.085,-0.1552 0.031,-0.2168 -0.014,-0.1507 -0.041,-0.1339 -0.062,-0.1079 -0.078,-0.0769 -0.089,-0.046 -0.004,-7e-4 v 0.2119 l 0.022,0.0041 0.089,0.0668 0.052,0.0989 0.016,0.1173 -0.021,0.1303 -0.069,0.1019 -0.104,0.0575 -0.114,0.0163 h -0.181 v -0.2653 l -0.03,-0.2697 -0.08,-0.18 -0.119,-0.1015 -0.165,-0.0347 -0.136,0.0276 -0.11,0.0832 -0.076,0.13 -0.026,0.1649 0.032,0.1713 0.189,0.2587 -0.196,0.0431 v 0.2176 l 0.048,-0.0155 m 0.247,-0.2297 -0.093,-0.0716 -0.06,-0.0842 -0.037,-0.0979 -0.013,-0.1063 0.016,-0.109 0.054,-0.0926 0.086,-0.0613 0.097,-0.0188 0.056,0.0033 0.205,0.1181 0.062,0.2738 v 0.2465 h -0.373 m -5.781,0.7879 0.131,-0.1962 0.03,-0.0963 0.03,-0.1326 0.034,-0.1338 0.048,-0.1051 0.075,-0.0752 0.103,-0.0271 0.105,0.0226 0.082,0.0659 0.05,0.0967 0.015,0.1153 -0.018,0.1298 -0.061,0.1031 -0.096,0.0623 -0.02,0.0036 v 0.2046 l 0.06,-0.0132 0.12,-0.0997 0.083,-0.1651 0.029,-0.2241 -0.029,-0.2094 -0.082,-0.157 -0.117,-0.0964 -0.128,-0.0289 -0.219,0.1031 -0.15,0.3547 -0.035,0.1357 -0.048,0.1133 -0.077,0.0839 -0.111,0.0307 -0.107,-0.0245 -0.081,-0.0711 -0.046,-0.1023 -0.013,-0.1236 0.017,-0.134 0.057,-0.1152 0.099,-0.0805 0.043,-0.0104 v -0.1951 l -0.01,0.0016 -0.095,0.0486 -0.084,0.0797 -0.067,0.1083 -0.043,0.1338 -0.014,0.1546 0.028,0.2234 0.079,0.1681 0.113,0.1016 0.134,0.0319 0.186,-0.0601 m -0.186,1.3024 -0.037,-0.0079 -0.101,-0.0743 -0.062,-0.1089 -0.02,-0.1307 0.032,-0.1616 0.104,-0.1219 0.164,-0.065 0.212,-0.0188 h 0.049 l 0.21,0.0191 0.163,0.0654 0.104,0.1209 0.033,0.16 -0.024,0.1364 -0.075,0.1101 -0.112,0.0708 -0.047,0.0085 v 0.1844 l 0.11,-0.0204 0.151,-0.1035 0.098,-0.1617 0.034,-0.2155 -0.044,-0.2464 -0.129,-0.1814 -0.204,-0.117 -0.282,-0.0416 h -0.012 l -0.292,0.042 -0.205,0.1178 -0.128,0.1822 -0.044,0.2493 0.015,0.1378 0.044,0.1258 0.069,0.1046 0.092,0.0784 0.107,0.0497 0.027,0.0039 v -0.1905 m 0.39,1.7213 0.254,-0.0575 0.185,-0.1261 0.117,-0.1842 0.04,-0.239 -0.02,-0.1712 -0.061,-0.1471 -0.096,-0.1189 -0.131,-0.0884 -0.161,-0.0558 -0.192,-0.0195 h -0.006 l -0.289,0.0437 -0.209,0.1229 -0.13,0.1888 -0.044,0.2503 0.044,0.25 0.131,0.1886 0.206,0.1224 0.279,0.0433 0.083,-0.0023 m -0.29,-0.2312 -0.174,-0.0737 -0.111,-0.129 -0.036,-0.168 0.037,-0.171 0.111,-0.1285 0.167,-0.0727 0.207,-0.0221 0.226,0.0218 0.174,0.0721 0.114,0.128 0.037,0.1696 -0.037,0.1708 -0.113,0.1287 -0.167,0.0736 -0.205,0.0226 -0.23,-0.0222 m -0.312,1.1446 0.012,-0.0995 0.049,-0.0847 0.085,-0.0427 0.091,-0.0101 h 0.826 v 0.2509 h 0.108 v -0.2509 h 0.361 v -0.2119 h -0.361 v -0.2143 h -0.108 v 0.2143 h -0.864 l -0.256,0.0895 -0.085,0.2523 0.007,0.0957 0.009,0.0403 h 0.127 l -0.001,-0.0289 m 0,0.9165 0.012,-0.0994 0.049,-0.0848 0.085,-0.0426 0.091,-0.0101 h 0.826 v 0.2509 h 0.108 v -0.2509 h 0.361 v -0.2119 h -0.361 v -0.2143 h -0.108 v 0.2143 h -0.864 l -0.256,0.0895 -0.085,0.2523 0.007,0.0957 0.009,0.0402 h 0.127 l -0.001,-0.0289 m 0.829,1.497 0.206,-0.0992 0.121,-0.1489 0.041,-0.2002 -0.032,-0.1615 -0.216,-0.2848 h 0.839 v -0.212 h -1.904 v 0.1822 l 0.241,0.0273 -0.229,0.2775 -0.037,0.1747 0.041,0.1999 0.121,0.1476 0.205,0.0979 0.294,0.0353 h 0.011 l 0.298,-0.0358 m -0.456,-0.1837 -0.137,-0.0259 -0.183,-0.1201 -0.063,-0.2121 0.051,-0.2108 0.163,-0.142 h 0.647 l 0.162,0.1405 0.05,0.2057 -0.035,0.1654 -0.107,0.1218 -0.164,0.0658 -0.212,0.0194 -0.172,-0.0077 m 0.467,1.6633 0.197,-0.1112 0.119,-0.1718 0.042,-0.2363 -0.02,-0.1639 -0.061,-0.1441 -0.097,-0.1184 -0.134,-0.0894 -0.165,-0.0569 -0.195,-0.0199 h -0.025 l -0.271,0.0463 -0.199,0.1311 -0.129,0.2012 -0.044,0.2628 0.015,0.1531 0.046,0.1391 0.072,0.1157 0.042,0.0395 0.091,-0.0807 -0.083,-0.1027 -0.049,-0.2395 0.027,-0.1671 0.083,-0.1381 0.128,-0.0968 0.261,-0.0767 v 0.9647 h 0.064 l 0.285,-0.04 m -0.262,-0.1652 v -0.7514 l 0.256,0.0659 0.122,0.0764 0.081,0.1146 0.026,0.1403 -0.023,0.1447 -0.075,0.1154 -0.119,0.0711 -0.139,0.023 h -0.129 m -0.558,0.7517 1.039,0.7868 h 0.112 v -0.9958 h -0.137 v 0.7611 l -1.031,-0.7815 h -0.119 v 1.0379 h 0.136 v -0.8085 m 1.395,1.2769 h -0.133 l 0.145,0.4679 h -1.543 v 0.212 h 1.775 l -0.244,-0.6799 m 0.264,2.0137 -1.964,-0.6659 v 0.1015 l 1.964,0.666 v -0.1016 m -1.281,1.4123 0.131,-0.1961 0.03,-0.0964 0.03,-0.1325 0.034,-0.1339 0.048,-0.1051 0.075,-0.0752 0.103,-0.027 0.105,0.0225 0.082,0.066 0.05,0.0966 0.015,0.1153 -0.018,0.1299 -0.061,0.1031 -0.096,0.0622 -0.02,0.0036 v 0.2046 l 0.06,-0.0132 0.12,-0.0997 0.083,-0.165 0.029,-0.2242 -0.029,-0.2093 -0.082,-0.1571 -0.117,-0.0963 -0.128,-0.029 -0.219,0.1031 -0.15,0.3547 -0.035,0.1358 -0.048,0.1132 -0.077,0.0839 -0.111,0.0308 -0.107,-0.0246 -0.081,-0.0711 -0.046,-0.1023 -0.013,-0.1236 0.017,-0.134 0.057,-0.1151 0.099,-0.0806 0.043,-0.0103 v -0.1952 l -0.01,0.0016 -0.095,0.0486 -0.084,0.0798 -0.067,0.1082 -0.043,0.1339 -0.014,0.1545 0.028,0.2234 0.079,0.1681 0.113,0.1017 0.134,0.0319 0.186,-0.0602 m 0.426,1.5682 0.208,-0.0982 0.123,-0.1482 0.042,-0.2007 -0.035,-0.1686 -0.217,-0.2771 0.226,-0.0214 v -0.1916 h -1.851 v 0.212 h 0.779 l -0.209,0.2852 -0.031,0.1631 0.042,0.1949 0.127,0.1492 0.207,0.1007 0.285,0.036 h 0.01 l 0.294,-0.0353 m -0.685,-0.257 -0.151,-0.2774 0.05,-0.2168 0.155,-0.1426 h 0.672 l 0.152,0.1409 0.046,0.2028 -0.038,0.1656 -0.114,0.1212 -0.165,0.0667 -0.208,0.0208 -0.399,-0.0812 m 1.649,0.6988 h -1.904 v 0.2133 h 1.904 v -0.2133 m -0.102,0.9457 0.033,-0.0229 0.024,-0.0384 0.009,-0.0586 -0.009,-0.0593 -0.024,-0.0379 -0.033,-0.0226 -0.045,-0.0083 -0.046,0.0085 -0.034,0.0234 -0.023,0.0386 -0.009,0.0577 0.009,0.0576 0.024,0.0387 0.033,0.0234 0.046,0.0085 0.045,-0.0084 m -0.515,-0.2265 h -1.287 v 0.2134 h 1.287 v -0.2134 m -1.171,1.2251 0.012,-0.0994 0.049,-0.0848 0.085,-0.0426 0.091,-0.0101 h 0.826 v 0.2509 h 0.108 v -0.2509 h 0.361 v -0.212 h -0.361 v -0.2142 h -0.108 v 0.2142 h -0.864 l -0.256,0.0896 -0.085,0.2523 0.007,0.0956 0.009,0.0403 h 0.127 l -0.001,-0.0289 m 1.805,1.2755 0.011,-0.2588 -0.031,-0.2307 -0.086,-0.1571 -0.134,-0.095 -0.198,-0.0363 h -0.196 v -0.2184 h -0.108 v 0.2184 h -1.179 v 0.2133 h 1.179 v 0.2916 h 0.108 v -0.2916 h 0.206 l 0.228,0.0888 0.073,0.2559 -0.004,0.121 -0.018,0.1971 h -1.772 v 0.2133 h 1.896 l 0.025,-0.3115 m -1.873,1.8017 0.198,-0.0164 h 0.631 l 0.191,-0.0347 0.131,-0.0955 0.085,-0.1552 0.031,-0.2168 -0.014,-0.1507 -0.041,-0.1339 -0.062,-0.1078 -0.078,-0.077 -0.088,-0.046 -0.005,-7e-4 v 0.212 l 0.022,0.004 0.089,0.0668 0.052,0.0989 0.016,0.1173 -0.021,0.1303 -0.069,0.1019 -0.104,0.0575 -0.114,0.0163 h -0.181 v -0.2653 l -0.03,-0.2696 -0.08,-0.1801 -0.119,-0.1015 -0.165,-0.0347 -0.136,0.0277 -0.11,0.0832 -0.076,0.1299 -0.026,0.1649 0.032,0.1713 0.189,0.2588 -0.196,0.043 v 0.2177 l 0.048,-0.0156 m 0.247,-0.2297 -0.093,-0.0715 -0.06,-0.0843 -0.037,-0.0979 -0.013,-0.1063 0.016,-0.109 0.054,-0.0926 0.086,-0.0613 0.097,-0.0187 0.056,0.0032 0.205,0.1181 0.062,0.2738 v 0.2465 h -0.373 m 0.645,1.7653 0.208,-0.0982 0.123,-0.1482 0.042,-0.2007 -0.035,-0.1685 -0.217,-0.2772 0.226,-0.0213 v -0.1916 h -1.851 v 0.2119 h 0.779 l -0.209,0.2852 -0.031,0.1631 0.042,0.1949 0.127,0.1493 0.207,0.1006 0.285,0.036 h 0.01 l 0.294,-0.0353 m -0.685,-0.257 -0.151,-0.2774 0.05,-0.2168 0.155,-0.1426 h 0.672 l 0.152,0.1409 0.046,0.2028 -0.038,0.1656 -0.114,0.1213 -0.165,0.0666 -0.208,0.0208 -0.399,-0.0812"
     stroke="none"
     fill="#000000"
     stroke-width="0.5"
     id="path1130" />
  <path
     d="m 59.846596,-90.816 h 21.8834 v -2.4501 h 3 v -8.18 h -3 v -5.5 h -22.0133 v 3.0501 h -21.6534 v -3.0501 h -22.0133 v 5.5 h -3 v 1 h -3 v 6.18 h 3 v 1 h 3 v 2.4501 h 21.8833 v 3.0499 h 21.9133 v -3.0499"
     stroke="#0000ff"
     fill="none"
     stroke-width="0.1"
     id="path1132" />
  <path
     d="m 185.991,-111.6499 v 21.654003 h -3.05 v 22.013 h 5.5 v 3 h 1 v 3 h 6.18 v -3 h 1 v -3 h 2.45 v -21.883 h 3.05 V -111.7799 h -3.05 v -21.883 h -2.45 v -3 h -8.18 v 3 h -5.5 v 22.013 h 3.05"
     stroke="#0000ff"
     fill="none"
     stroke-width="0.1"
     id="path1138" />
  <path
     d="m 113.043,-208.97 h 3.22 v 6.869 h 16.38 v -6.869 h 3.22 v 10.2 h 2.78 v -14.18 h -28.38 m 0,184.139996 V -212.95 m 6.18,14.18 h -6.18 m 2.78,0 v -10.2"
     stroke="#0000ff"
     fill="none"
     stroke-width="0.1"
     id="path1140" />
  <path
     d="m 48.851296,-132.467 3.001,-0.475 2.9349,-0.787 2.8367,-1.089 2.7072,-1.379 2.5483,-1.655 2.3613,-1.912 2.1485,-2.148 1.9121,-2.362 1.6549,-2.548 1.3794,-2.707 1.0889,-2.837 0.7864,-2.935 0.4753,-3.001 0.159,-3.034 -0.159,-3.034 -0.4753,-3.001 -0.7864,-2.935 -1.0889,-2.837 -1.3794,-2.707 -1.6549,-2.548 -1.9121,-2.362 -2.1485,-2.148 -2.3613,-1.912 -2.5483,-1.655 -2.7072,-1.38 -2.8367,-1.088 -2.9349,-0.787 -3.001,-0.475 -3.0342,-0.159 -3.0343,0.159 -3.001,0.475 -2.9349,0.787 -2.8366,1.088 -2.7073,1.38 -2.5483,1.655 -2.3613,1.912 -2.1485,2.148 -1.9121,2.362 -1.6549,2.548 -1.3794,2.707 -1.0888,2.837 -0.7865,2.935 -0.4753,3.001 -0.159,3.034 0.159,3.034 0.4753,3.001 0.7865,2.935 1.0888,2.837 1.3794,2.707 1.6549,2.548 1.9121,2.362 2.1485,2.148 2.3613,1.912 2.5483,1.655 2.7073,1.379 2.8366,1.089 2.9349,0.787 3.001,0.475 3.0343,0.159 3.0342,-0.159 m -3.5382,-54.734 -0.3115,-0.281 -0.1705,-0.383 v -0.419 l 0.1705,-0.383 0.3115,-0.28 0.3986,-0.13 0.4168,0.044 0.363,0.21 0.2464,0.339 0.0871,0.41 -0.0871,0.41 -0.2464,0.339 -0.363,0.21 -0.4168,0.043 -0.3986,-0.129 m -2.7949,0.146 -0.3115,-0.28 -0.1705,-0.383 v -0.419 l 0.1705,-0.383 0.3115,-0.281 0.3986,-0.129 0.4169,0.044 0.3629,0.209 0.2464,0.339 0.0872,0.41 -0.0872,0.41 -0.2464,0.339 -0.3629,0.21 -0.4169,0.044 -0.3986,-0.13 m 5.5897,0 -0.3115,-0.28 -0.1704,-0.383 v -0.419 l 0.1704,-0.383 0.3115,-0.281 0.3987,-0.129 0.4168,0.044 0.363,0.209 0.2464,0.339 0.0871,0.41 -0.0871,0.41 -0.2464,0.339 -0.363,0.21 -0.4168,0.044 -0.3987,-0.13 m -8.354,0.438 -0.3115,-0.28 -0.1704,-0.383 v -0.419 l 0.1704,-0.383 0.3115,-0.281 0.3987,-0.129 0.4168,0.044 0.363,0.209 0.2464,0.339 0.0871,0.41 -0.0871,0.41 -0.2464,0.339 -0.363,0.21 -0.4168,0.044 -0.3987,-0.13 m 11.1183,0 -0.3115,-0.28 -0.1705,-0.383 v -0.419 l 0.1705,-0.383 0.3115,-0.281 0.3986,-0.129 0.4169,0.044 0.363,0.209 0.2464,0.339 0.0871,0.41 -0.0871,0.41 -0.2464,0.339 -0.363,0.21 -0.4169,0.044 -0.3986,-0.13 m -13.8216,0.725 -0.3115,-0.281 -0.1705,-0.383 v -0.419 l 0.1705,-0.383 0.3115,-0.28 0.3986,-0.13 0.4169,0.044 0.3629,0.209 0.2464,0.34 0.0872,0.41 -0.0872,0.41 -0.2464,0.339 -0.3629,0.209 -0.4169,0.044 -0.3986,-0.129 m 16.5249,0 -0.3114,-0.281 -0.1705,-0.383 v -0.419 l 0.1705,-0.383 0.3114,-0.28 0.3987,-0.13 0.4169,0.044 0.3629,0.209 0.2464,0.34 0.0872,0.41 -0.0872,0.41 -0.2464,0.339 -0.3629,0.209 -0.4169,0.044 -0.3987,-0.129 m -19.1378,1.002 -0.3114,-0.28 -0.1705,-0.383 v -0.419 l 0.1705,-0.383 0.3114,-0.28 0.3987,-0.13 0.4168,0.044 0.363,0.209 0.2464,0.34 0.0871,0.41 -0.0871,0.41 -0.2464,0.339 -0.363,0.209 -0.4168,0.044 -0.3987,-0.13 m 21.7507,0 -0.3115,-0.28 -0.1705,-0.383 v -0.419 l 0.1705,-0.383 0.3115,-0.28 0.3987,-0.13 0.4168,0.044 0.363,0.209 0.2464,0.34 0.0871,0.41 -0.0871,0.41 -0.2464,0.339 -0.363,0.209 -0.4168,0.044 -0.3987,-0.13 m -24.2444,1.271 -0.3114,-0.28 -0.1705,-0.383 v -0.419 l 0.1705,-0.383 0.3114,-0.281 0.3987,-0.129 0.4169,0.043 0.3629,0.21 0.2464,0.339 0.0871,0.41 -0.0871,0.41 -0.2464,0.339 -0.3629,0.21 -0.4169,0.044 -0.3987,-0.13 m 26.7381,0 -0.3115,-0.28 -0.1705,-0.383 v -0.419 l 0.1705,-0.383 0.3115,-0.281 0.3986,-0.129 0.4169,0.043 0.3629,0.21 0.2464,0.339 0.0872,0.41 -0.0872,0.41 -0.2463,0.339 -0.363,0.21 -0.4169,0.044 -0.3986,-0.13 m -29.0853,1.524 -0.3114,-0.28 -0.1705,-0.383 v -0.419 l 0.1705,-0.383 0.3114,-0.28 0.3987,-0.13 0.4168,0.044 0.363,0.209 0.2464,0.339 0.0871,0.41 -0.0871,0.41 -0.2464,0.34 -0.363,0.209 -0.4168,0.044 -0.3987,-0.13 m 31.4325,0 -0.3115,-0.28 -0.1705,-0.383 v -0.419 l 0.1705,-0.383 0.3115,-0.28 0.3986,-0.13 0.4169,0.044 0.3629,0.209 0.2464,0.339 0.0872,0.41 -0.0872,0.41 -0.2464,0.34 -0.3629,0.209 -0.4169,0.044 -0.3986,-0.13 m -16.6537,4.733 -0.8909,-0.802 -0.4876,-1.096 v -1.198 l 0.4876,-1.096 0.8909,-0.802 1.1401,-0.37 1.1922,0.125 1.0382,0.6 0.7047,0.969 0.2492,1.173 -0.2492,1.173 -0.7047,0.97 -1.0382,0.599 -1.1922,0.125 -1.1401,-0.37 m -16.9538,-2.971 -0.3114,-0.281 -0.1705,-0.383 v -0.419 l 0.1705,-0.383 0.3114,-0.28 0.3987,-0.13 0.4168,0.044 0.363,0.21 0.2464,0.339 0.0871,0.41 -0.0871,0.41 -0.2464,0.339 -0.363,0.209 -0.4168,0.044 -0.3987,-0.129 m 35.7825,0 -0.3115,-0.281 -0.1705,-0.383 v -0.419 l 0.1705,-0.383 0.3115,-0.28 0.3986,-0.13 0.4169,0.044 0.363,0.21 0.2464,0.339 0.0871,0.41 -0.0871,0.41 -0.2464,0.339 -0.363,0.209 -0.4169,0.044 -0.3986,-0.129 m -37.7615,1.979 -0.3115,-0.281 -0.1704,-0.383 v -0.419 l 0.1704,-0.383 0.3115,-0.28 0.3987,-0.13 0.4168,0.044 0.363,0.21 0.2464,0.339 0.0871,0.41 -0.0871,0.41 -0.2464,0.339 -0.363,0.209 -0.4168,0.044 -0.3987,-0.129 m 39.7405,0 -0.3115,-0.281 -0.1705,-0.383 v -0.419 l 0.1705,-0.383 0.3115,-0.28 0.3986,-0.13 0.4169,0.044 0.3629,0.21 0.2464,0.339 0.0872,0.41 -0.0872,0.41 -0.2464,0.339 -0.3629,0.209 -0.4169,0.044 -0.3986,-0.129 m -41.5018,2.175 -0.3114,-0.281 -0.1705,-0.383 v -0.419 l 0.1705,-0.383 0.3114,-0.28 0.3987,-0.13 0.4168,0.044 0.363,0.21 0.2464,0.339 0.0871,0.41 -0.0871,0.41 -0.2464,0.339 -0.363,0.209 -0.4168,0.044 -0.3987,-0.129 m 43.2631,0 -0.3115,-0.281 -0.1705,-0.383 v -0.419 l 0.1705,-0.383 0.3115,-0.28 0.3986,-0.13 0.4169,0.044 0.3629,0.21 0.2464,0.339 0.0872,0.41 -0.0872,0.41 -0.2464,0.339 -0.3629,0.209 -0.4169,0.044 -0.3986,-0.129 m -44.7874,2.347 -0.3114,-0.281 -0.1705,-0.382 v -0.42 l 0.1705,-0.383 0.3114,-0.28 0.3987,-0.13 0.4168,0.044 0.363,0.21 0.2464,0.339 0.0872,0.41 -0.0872,0.41 -0.2464,0.339 -0.363,0.21 -0.4168,0.043 -0.3987,-0.129 m 46.3117,0 -0.3115,-0.281 -0.1705,-0.382 v -0.42 l 0.1705,-0.383 0.3115,-0.28 0.3986,-0.13 0.4169,0.044 0.3629,0.21 0.2464,0.339 0.0872,0.41 -0.0872,0.41 -0.2464,0.339 -0.3629,0.21 -0.4169,0.043 -0.3986,-0.129 m -47.5822,2.494 -0.3115,-0.281 -0.1705,-0.383 v -0.419 l 0.1705,-0.383 0.3115,-0.28 0.3986,-0.13 0.4168,0.044 0.363,0.21 0.2464,0.339 0.0872,0.41 -0.0872,0.41 -0.2464,0.339 -0.363,0.209 -0.4168,0.044 -0.3986,-0.129 m 48.8528,0 -0.3115,-0.281 -0.1705,-0.383 v -0.419 l 0.1705,-0.383 0.3115,-0.28 0.3986,-0.13 0.4168,0.044 0.363,0.21 0.2464,0.339 0.0872,0.41 -0.0872,0.41 -0.2464,0.339 -0.363,0.209 -0.4168,0.044 -0.3986,-0.129 m -27.8324,3.412 v -2.82 h 7.82 v 2.82 h -7.82 m -22.0234,-0.8 -0.3115,-0.28 -0.1705,-0.383 v -0.419 l 0.1705,-0.383 0.3115,-0.28 0.3986,-0.13 0.4169,0.044 0.363,0.209 0.2463,0.339 0.0872,0.41 -0.0872,0.41 -0.2464,0.34 -0.3629,0.209 -0.4169,0.044 -0.3986,-0.13 m 50.8587,0 -0.3114,-0.28 -0.1705,-0.383 v -0.419 l 0.1705,-0.383 0.3114,-0.28 0.3987,-0.13 0.4168,0.044 0.363,0.209 0.2464,0.339 0.0871,0.41 -0.0871,0.41 -0.2464,0.34 -0.363,0.209 -0.4168,0.044 -0.3987,-0.13 m -51.5831,2.704 -0.3115,-0.281 -0.1704,-0.383 v -0.419 l 0.1704,-0.383 0.3115,-0.28 0.3987,-0.13 0.4168,0.044 0.363,0.21 0.2464,0.339 0.0871,0.41 -0.0871,0.41 -0.2464,0.339 -0.363,0.209 -0.4168,0.044 -0.3987,-0.129 m 52.3075,0 -0.3115,-0.281 -0.1705,-0.383 v -0.419 l 0.1705,-0.383 0.3115,-0.28 0.3986,-0.13 0.4169,0.044 0.3629,0.21 0.2464,0.339 0.0872,0.41 -0.0872,0.41 -0.2463,0.339 -0.363,0.209 -0.4169,0.044 -0.3986,-0.129 m -19.0597,8.596 v -7.82 h 2.82 v 7.82 h -2.82 m -16,0 v -7.82 h 2.82 v 7.82 h -2.82 m -17.6856,-5.832 -0.3115,-0.28 -0.1705,-0.383 v -0.419 l 0.1705,-0.383 0.3115,-0.281 0.3987,-0.129 0.4168,0.043 0.363,0.21 0.2464,0.339 0.0871,0.41 -0.0871,0.41 -0.2464,0.339 -0.363,0.21 -0.4168,0.044 -0.3987,-0.13 m 53.1831,0 -0.3115,-0.28 -0.1705,-0.383 v -0.419 l 0.1705,-0.383 0.3115,-0.281 0.3987,-0.129 0.4168,0.043 0.363,0.21 0.2464,0.339 0.0871,0.41 -0.0871,0.41 -0.2464,0.339 -0.363,0.21 -0.4168,0.044 -0.3987,-0.13 m -26.3796,4.233 -0.2873,-0.054 -0.2784,-0.091 -0.2647,-0.124 -0.2469,-0.157 -0.0406,-0.034 v -1.524 h -3.5 v -0.654 h 3.5 v -1.524 l 0.0406,-0.034 0.2469,-0.157 0.2647,-0.124 0.2784,-0.091 0.2873,-0.054 0.2921,-0.019 0.292,0.019 0.2873,0.054 0.2784,0.091 0.2647,0.124 0.2469,0.157 0.0407,0.034 v 1.524 h 3.5 v 0.654 h -3.5 v 1.524 l -0.0407,0.034 -0.2469,0.157 -0.2647,0.124 -0.2784,0.091 -0.2873,0.054 -0.292,0.019 -0.2921,-0.019 m -26.95,-1.438 -0.3114,-0.281 -0.1705,-0.382 v -0.42 l 0.1705,-0.383 0.3114,-0.28 0.3987,-0.13 0.4168,0.044 0.363,0.21 0.2464,0.339 0.0871,0.41 -0.0871,0.41 -0.2464,0.339 -0.363,0.21 -0.4168,0.043 -0.3987,-0.129 m 53.4761,0 -0.3115,-0.281 -0.1705,-0.382 v -0.42 l 0.1705,-0.383 0.3115,-0.28 0.3987,-0.13 0.4168,0.044 0.3629,0.21 0.2464,0.339 0.0872,0.41 -0.0872,0.41 -0.2464,0.339 -0.3629,0.21 -0.4168,0.043 -0.3987,-0.129 m -53.3296,2.795 -0.3115,-0.281 -0.1705,-0.383 v -0.419 l 0.1705,-0.383 0.3115,-0.28 0.3987,-0.13 0.4168,0.044 0.363,0.21 0.2464,0.339 0.0871,0.41 -0.0871,0.41 -0.2464,0.339 -0.363,0.209 -0.4168,0.044 -0.3987,-0.129 m 53.1831,0 -0.3115,-0.281 -0.1705,-0.383 v -0.419 l 0.1705,-0.383 0.3115,-0.28 0.3987,-0.13 0.4168,0.044 0.363,0.21 0.2464,0.339 0.0871,0.41 -0.0871,0.41 -0.2464,0.339 -0.363,0.209 -0.4168,0.044 -0.3987,-0.129 m -52.7453,2.764 -0.3115,-0.28 -0.1704,-0.383 v -0.419 l 0.1704,-0.383 0.3115,-0.281 0.3987,-0.129 0.4168,0.043 0.363,0.21 0.2464,0.339 0.0871,0.41 -0.0871,0.41 -0.2464,0.339 -0.363,0.21 -0.4168,0.044 -0.3987,-0.13 m 52.3075,0 -0.3115,-0.28 -0.1705,-0.383 v -0.419 l 0.1705,-0.383 0.3115,-0.281 0.3986,-0.129 0.4169,0.043 0.363,0.21 0.2463,0.339 0.0872,0.41 -0.0872,0.41 -0.2464,0.339 -0.3629,0.21 -0.4169,0.044 -0.3986,-0.13 m -29.5597,2.978 v -2.82 h 7.82 v 2.82 h -7.82 m -22.0234,-0.275 -0.3115,-0.28 -0.1705,-0.383 v -0.419 l 0.1705,-0.383 0.3115,-0.28 0.3986,-0.13 0.4169,0.044 0.3629,0.209 0.2464,0.339 0.0872,0.41 -0.0872,0.41 -0.2463,0.34 -0.363,0.209 -0.4169,0.044 -0.3986,-0.13 m 50.8587,0 -0.3114,-0.28 -0.1705,-0.383 v -0.419 l 0.1705,-0.383 0.3114,-0.28 0.3987,-0.13 0.4168,0.044 0.363,0.209 0.2464,0.339 0.0871,0.41 -0.0871,0.41 -0.2464,0.34 -0.363,0.209 -0.4168,0.044 -0.3987,-0.13 m -49.8557,2.613 -0.3115,-0.28 -0.1705,-0.383 v -0.419 l 0.1705,-0.383 0.3115,-0.281 0.3986,-0.129 0.4168,0.044 0.363,0.209 0.2464,0.339 0.0872,0.41 -0.0872,0.41 -0.2464,0.339 -0.363,0.21 -0.4168,0.044 -0.3986,-0.13 m 48.8528,0 -0.3115,-0.28 -0.1705,-0.383 v -0.419 l 0.1705,-0.383 0.3115,-0.281 0.3986,-0.129 0.4168,0.044 0.363,0.209 0.2464,0.339 0.0872,0.41 -0.0872,0.41 -0.2464,0.339 -0.363,0.21 -0.4168,0.044 -0.3986,-0.13 m -47.5823,2.494 -0.3114,-0.281 -0.1705,-0.382 v -0.42 l 0.1705,-0.383 0.3114,-0.28 0.3987,-0.13 0.4168,0.044 0.363,0.21 0.2464,0.339 0.0872,0.41 -0.0872,0.41 -0.2464,0.339 -0.363,0.21 -0.4168,0.043 -0.3987,-0.129 m 46.3117,0 -0.3115,-0.281 -0.1705,-0.382 v -0.42 l 0.1705,-0.383 0.3115,-0.28 0.3986,-0.13 0.4169,0.044 0.3629,0.21 0.2464,0.339 0.0872,0.41 -0.0872,0.41 -0.2464,0.339 -0.3629,0.21 -0.4169,0.043 -0.3986,-0.129 m -44.7874,2.347 -0.3114,-0.28 -0.1705,-0.383 v -0.419 l 0.1705,-0.383 0.3114,-0.281 0.3987,-0.129 0.4168,0.044 0.363,0.209 0.2464,0.339 0.0871,0.41 -0.0871,0.41 -0.2464,0.339 -0.363,0.21 -0.4168,0.044 -0.3987,-0.13 m 43.2631,0 -0.3115,-0.28 -0.1705,-0.383 v -0.419 l 0.1705,-0.383 0.3115,-0.281 0.3986,-0.129 0.4169,0.044 0.3629,0.209 0.2464,0.339 0.0872,0.41 -0.0872,0.41 -0.2464,0.339 -0.3629,0.21 -0.4169,0.044 -0.3986,-0.13 m -41.5018,2.175 -0.3115,-0.28 -0.1704,-0.383 v -0.419 l 0.1704,-0.383 0.3115,-0.281 0.3987,-0.129 0.4168,0.044 0.363,0.209 0.2464,0.339 0.0871,0.41 -0.0871,0.41 -0.2464,0.339 -0.363,0.21 -0.4168,0.044 -0.3987,-0.13 m 39.7405,0 -0.3115,-0.28 -0.1705,-0.383 v -0.419 l 0.1705,-0.383 0.3115,-0.281 0.3986,-0.129 0.4169,0.044 0.3629,0.209 0.2464,0.339 0.0872,0.41 -0.0872,0.41 -0.2464,0.339 -0.3629,0.21 -0.4169,0.044 -0.3986,-0.13 m -37.7615,1.979 -0.3114,-0.28 -0.1705,-0.383 v -0.419 l 0.1705,-0.383 0.3114,-0.281 0.3987,-0.129 0.4168,0.044 0.363,0.209 0.2464,0.339 0.0871,0.41 -0.0871,0.41 -0.2464,0.339 -0.363,0.21 -0.4168,0.044 -0.3987,-0.13 m 35.7825,0 -0.3115,-0.28 -0.1705,-0.383 v -0.419 l 0.1705,-0.383 0.3115,-0.281 0.3986,-0.129 0.4169,0.044 0.363,0.209 0.2464,0.339 0.0871,0.41 -0.0871,0.41 -0.2464,0.339 -0.363,0.21 -0.4169,0.044 -0.3986,-0.13 m -33.6075,1.761 -0.3114,-0.28 -0.1705,-0.383 v -0.419 l 0.1705,-0.383 0.3114,-0.28 0.3987,-0.13 0.4168,0.044 0.363,0.209 0.2464,0.339 0.0871,0.41 -0.0871,0.41 -0.2464,0.34 -0.363,0.209 -0.4168,0.044 -0.3987,-0.13 m 31.4325,0 -0.3115,-0.28 -0.1705,-0.383 v -0.419 l 0.1705,-0.383 0.3115,-0.28 0.3986,-0.13 0.4169,0.044 0.3629,0.209 0.2464,0.339 0.0872,0.41 -0.0872,0.41 -0.2464,0.34 -0.3629,0.209 -0.4169,0.044 -0.3986,-0.13 m -29.0853,1.525 -0.3114,-0.281 -0.1705,-0.383 v -0.419 l 0.1705,-0.383 0.3114,-0.28 0.3987,-0.13 0.4169,0.044 0.3629,0.21 0.2464,0.339 0.0871,0.41 -0.0871,0.41 -0.2464,0.339 -0.3629,0.209 -0.4169,0.044 -0.3987,-0.129 m 26.7381,0 -0.3115,-0.281 -0.1705,-0.383 v -0.419 l 0.1705,-0.383 0.3115,-0.28 0.3986,-0.13 0.4169,0.044 0.363,0.21 0.2463,0.339 0.0872,0.41 -0.0872,0.41 -0.2464,0.339 -0.3629,0.209 -0.4169,0.044 -0.3986,-0.129 m -24.2444,1.27 -0.3114,-0.28 -0.1705,-0.383 v -0.419 l 0.1705,-0.383 0.3114,-0.281 0.3987,-0.129 0.4168,0.044 0.363,0.209 0.2464,0.339 0.0871,0.41 -0.0871,0.41 -0.2464,0.339 -0.363,0.21 -0.4168,0.044 -0.3987,-0.13 m 21.7507,0 -0.3115,-0.28 -0.1705,-0.383 v -0.419 l 0.1705,-0.383 0.3115,-0.281 0.3987,-0.129 0.4168,0.044 0.363,0.209 0.2464,0.339 0.0871,0.41 -0.0871,0.41 -0.2464,0.339 -0.363,0.21 -0.4168,0.044 -0.3987,-0.13 m -19.1378,1.003 -0.3115,-0.28 -0.1705,-0.383 v -0.419 l 0.1705,-0.383 0.3115,-0.281 0.3986,-0.129 0.4169,0.044 0.3629,0.209 0.2464,0.339 0.0872,0.41 -0.0872,0.41 -0.2464,0.339 -0.3629,0.21 -0.4169,0.044 -0.3986,-0.13 m 16.5249,0 -0.3114,-0.28 -0.1705,-0.383 v -0.419 l 0.1705,-0.383 0.3114,-0.281 0.3987,-0.129 0.4169,0.044 0.3629,0.209 0.2464,0.339 0.0872,0.41 -0.0872,0.41 -0.2464,0.339 -0.3629,0.21 -0.4169,0.044 -0.3987,-0.13 m -13.8216,0.725 -0.3115,-0.281 -0.1704,-0.383 v -0.419 l 0.1704,-0.383 0.3115,-0.28 0.3987,-0.13 0.4168,0.044 0.363,0.21 0.2464,0.339 0.0871,0.41 -0.0871,0.41 -0.2464,0.339 -0.363,0.209 -0.4168,0.044 -0.3987,-0.129 m 11.1183,0 -0.3115,-0.281 -0.1705,-0.383 v -0.419 l 0.1705,-0.383 0.3115,-0.28 0.3986,-0.13 0.4169,0.044 0.363,0.21 0.2464,0.339 0.0871,0.41 -0.0871,0.41 -0.2464,0.339 -0.363,0.209 -0.4169,0.044 -0.3986,-0.129 m -8.354,0.437 -0.3115,-0.28 -0.1705,-0.383 v -0.419 l 0.1705,-0.383 0.3115,-0.28 0.3986,-0.13 0.4169,0.044 0.3629,0.209 0.2464,0.34 0.0872,0.41 -0.0872,0.409 -0.2464,0.34 -0.3629,0.209 -0.4169,0.044 -0.3986,-0.13 m 5.5897,0 -0.3115,-0.28 -0.1704,-0.383 v -0.419 l 0.1704,-0.383 0.3115,-0.28 0.3987,-0.13 0.4168,0.044 0.363,0.209 0.2464,0.34 0.0871,0.41 -0.0871,0.409 -0.2464,0.34 -0.363,0.209 -0.4168,0.044 -0.3987,-0.13 m -2.7948,0.147 -0.3115,-0.281 -0.1705,-0.382 v -0.42 l 0.1705,-0.382 0.3115,-0.281 0.3986,-0.13 0.4168,0.044 0.363,0.21 0.2464,0.339 0.0871,0.41 -0.0871,0.41 -0.2464,0.339 -0.363,0.21 -0.4168,0.043 -0.3986,-0.129"
     stroke="#0000ff"
     fill="none"
     stroke-width="0.1"
     id="path1144" />
  <path
     d="m 69.397096,-160.899 0.0877,-0.039 0.0778,-0.057 0.0642,-0.071 0.0481,-0.083 0.0297,-0.092 0.01,-0.095 -0.01,-0.096 -0.0297,-0.091 -0.0481,-0.083 -0.0642,-0.072 -0.0778,-0.056 -0.0877,-0.039 -0.094,-0.02 h -1.471 l -0.094,0.02 -0.0877,0.039 -0.0778,0.056 -0.0643,0.072 -0.048,0.083 -0.0297,0.091 -0.01,0.096 0.01,0.096 0.0297,0.091 0.048,0.083 0.0643,0.071 0.0778,0.057 0.0877,0.039 0.094,0.02 h 1.471 l 0.094,-0.02"
     stroke="none"
     fill="#000000"
     stroke-width="0.5"
     id="path1148"
     sodipodi:nodetypes="ccccccccccccccccccccccccccccccc" />
  <g
     id="g2970"
     transform="translate(68.11433,-36.470667)">
    <path
       d="m 109.587,-103.567 3.001,-0.475 2.935,-0.787 2.837,-1.089 2.707,-1.379 2.548,-1.655 2.362,-1.912 2.148,-2.148 1.912,-2.362 1.655,-2.548 1.38,-2.707 1.089,-2.837 0.786,-2.935 0.475,-3.001 0.159,-3.034 -0.159,-3.034 -0.475,-3.001 -0.786,-2.935 -1.089,-2.837 -1.38,-2.707 -1.655,-2.548 -1.912,-2.362 -2.148,-2.148 -2.362,-1.912 -2.548,-1.655 -2.707,-1.38 -2.837,-1.088 -2.935,-0.787 -3.001,-0.475 -3.034,-0.159 -3.034,0.159 -3.001,0.475 -2.9351,0.787 -2.8366,1.088 -2.7072,1.38 -2.5483,1.655 -2.3613,1.912 -2.1485,2.148 -1.9121,2.362 -1.6549,2.548 -1.3794,2.707 -1.0889,2.837 -0.7864,2.935 -0.4753,3.001 -0.159,3.034 0.159,3.034 0.4753,3.001 0.7864,2.935 1.0889,2.837 1.3794,2.707 1.6549,2.548 1.9121,2.362 2.1485,2.148 2.3613,1.912 2.5483,1.655 2.7072,1.379 2.8366,1.089 2.9351,0.787 3.001,0.475 3.034,0.159 3.034,-0.159 m -3.538,-54.734 -0.311,-0.281 -0.171,-0.383 v -0.419 l 0.171,-0.383 0.311,-0.28 0.399,-0.13 0.417,0.044 0.363,0.21 0.246,0.339 0.087,0.41 -0.087,0.41 -0.246,0.339 -0.363,0.21 -0.417,0.043 -0.399,-0.129 m -2.795,0.146 -0.311,-0.28 -0.171,-0.383 v -0.419 l 0.171,-0.383 0.311,-0.281 0.399,-0.129 0.417,0.044 0.363,0.209 0.246,0.339 0.087,0.41 -0.087,0.41 -0.246,0.339 -0.363,0.21 -0.417,0.044 -0.399,-0.13 m 5.59,0 -0.311,-0.28 -0.171,-0.383 v -0.419 l 0.171,-0.383 0.311,-0.281 0.399,-0.129 0.417,0.044 0.362,0.209 0.247,0.339 0.087,0.41 -0.087,0.41 -0.247,0.339 -0.362,0.21 -0.417,0.044 -0.399,-0.13 m -8.354,0.438 -0.312,-0.28 -0.17,-0.383 v -0.419 l 0.17,-0.383 0.312,-0.281 0.399,-0.129 0.416,0.044 0.363,0.209 0.247,0.339 0.087,0.41 -0.087,0.41 -0.247,0.339 -0.363,0.21 -0.416,0.044 -0.399,-0.13 m 11.118,0 -0.311,-0.28 -0.171,-0.383 v -0.419 l 0.171,-0.383 0.311,-0.281 0.399,-0.129 0.417,0.044 0.363,0.209 0.246,0.339 0.087,0.41 -0.087,0.41 -0.246,0.339 -0.363,0.21 -0.417,0.044 -0.399,-0.13 m -13.8214,0.725 -0.3115,-0.281 -0.1704,-0.383 v -0.419 l 0.1704,-0.383 0.3115,-0.28 0.3987,-0.13 0.4168,0.044 0.363,0.209 0.2464,0.34 0.0871,0.41 -0.0871,0.41 -0.2464,0.339 -0.363,0.209 -0.4168,0.044 -0.3987,-0.129 m 16.5254,0 -0.312,-0.281 -0.17,-0.383 v -0.419 l 0.17,-0.383 0.312,-0.28 0.398,-0.13 0.417,0.044 0.363,0.209 0.246,0.34 0.088,0.41 -0.088,0.41 -0.246,0.339 -0.363,0.209 -0.417,0.044 -0.398,-0.129 m -19.1382,1.002 -0.3115,-0.28 -0.1705,-0.383 v -0.419 l 0.1705,-0.383 0.3115,-0.28 0.3987,-0.13 0.4168,0.044 0.363,0.209 0.2464,0.34 0.0871,0.41 -0.0871,0.41 -0.2464,0.339 -0.363,0.209 -0.4168,0.044 -0.3987,-0.13 m 21.7502,0 -0.311,-0.28 -0.171,-0.383 v -0.419 l 0.171,-0.383 0.311,-0.28 0.399,-0.13 0.417,0.044 0.363,0.209 0.246,0.34 0.087,0.41 -0.087,0.41 -0.246,0.339 -0.363,0.209 -0.417,0.044 -0.399,-0.13 m -24.2439,1.271 -0.3115,-0.28 -0.1704,-0.383 v -0.419 l 0.1704,-0.383 0.3115,-0.281 0.3987,-0.129 0.4168,0.043 0.363,0.21 0.2464,0.339 0.0871,0.41 -0.0871,0.41 -0.2464,0.339 -0.363,0.21 -0.4168,0.044 -0.3987,-0.13 m 26.7379,0 -0.311,-0.28 -0.171,-0.383 v -0.419 l 0.171,-0.383 0.311,-0.281 0.399,-0.129 0.417,0.043 0.363,0.21 0.246,0.339 0.087,0.41 -0.087,0.41 -0.246,0.339 -0.363,0.21 -0.417,0.044 -0.399,-0.13 m -29.0851,1.524 -0.3115,-0.28 -0.1704,-0.383 v -0.419 l 0.1704,-0.383 0.3115,-0.28 0.3987,-0.13 0.4168,0.044 0.363,0.209 0.2464,0.339 0.0871,0.41 -0.0871,0.41 -0.2464,0.34 -0.363,0.209 -0.4168,0.044 -0.3987,-0.13 m 31.4321,0 -0.311,-0.28 -0.171,-0.383 v -0.419 l 0.171,-0.383 0.311,-0.28 0.399,-0.13 0.417,0.044 0.363,0.209 0.246,0.339 0.087,0.41 -0.087,0.41 -0.246,0.34 -0.363,0.209 -0.417,0.044 -0.399,-0.13 m -33.6071,1.762 -0.3115,-0.281 -0.1705,-0.383 v -0.419 l 0.1705,-0.383 0.3115,-0.28 0.3986,-0.13 0.4169,0.044 0.363,0.21 0.2464,0.339 0.0871,0.41 -0.0871,0.41 -0.2464,0.339 -0.363,0.209 -0.4169,0.044 -0.3986,-0.129 m 35.7821,0 -0.311,-0.281 -0.171,-0.383 v -0.419 l 0.171,-0.383 0.311,-0.28 0.399,-0.13 0.417,0.044 0.363,0.21 0.246,0.339 0.087,0.41 -0.087,0.41 -0.246,0.339 -0.363,0.209 -0.417,0.044 -0.399,-0.129 m -37.7611,1.979 -0.3115,-0.281 -0.1705,-0.383 v -0.419 l 0.1705,-0.383 0.3115,-0.28 0.3987,-0.13 0.4168,0.044 0.363,0.21 0.2464,0.339 0.0871,0.41 -0.0871,0.41 -0.2464,0.339 -0.363,0.209 -0.4168,0.044 -0.3987,-0.129 m 39.7401,0 -0.311,-0.281 -0.171,-0.383 v -0.419 l 0.171,-0.383 0.311,-0.28 0.399,-0.13 0.417,0.044 0.363,0.21 0.246,0.339 0.087,0.41 -0.087,0.41 -0.246,0.339 -0.363,0.209 -0.417,0.044 -0.399,-0.129 m -41.5014,2.175 -0.3115,-0.281 -0.1704,-0.383 v -0.419 l 0.1704,-0.383 0.3115,-0.28 0.3987,-0.13 0.4168,0.044 0.363,0.21 0.2464,0.339 0.0871,0.41 -0.0871,0.41 -0.2464,0.339 -0.363,0.209 -0.4168,0.044 -0.3987,-0.129 m 43.2634,0 -0.312,-0.281 -0.17,-0.383 v -0.419 l 0.17,-0.383 0.312,-0.28 0.398,-0.13 0.417,0.044 0.363,0.21 0.246,0.339 0.088,0.41 -0.088,0.41 -0.246,0.339 -0.363,0.209 -0.417,0.044 -0.398,-0.129 m -44.7877,2.347 -0.3115,-0.281 -0.1704,-0.382 v -0.42 l 0.1704,-0.383 0.3115,-0.28 0.3987,-0.13 0.4168,0.044 0.363,0.21 0.2464,0.339 0.0871,0.41 -0.0871,0.41 -0.2464,0.339 -0.363,0.21 -0.4168,0.043 -0.3987,-0.129 m 46.3117,0 -0.312,-0.281 -0.17,-0.382 v -0.42 l 0.17,-0.383 0.312,-0.28 0.399,-0.13 0.416,0.044 0.363,0.21 0.247,0.339 0.087,0.41 -0.087,0.41 -0.247,0.339 -0.363,0.21 -0.416,0.043 -0.399,-0.129 m -47.5823,2.494 -0.3115,-0.281 -0.1704,-0.383 v -0.419 l 0.1704,-0.383 0.3115,-0.28 0.3987,-0.13 0.4168,0.044 0.363,0.21 0.2464,0.339 0.0871,0.41 -0.0871,0.41 -0.2464,0.339 -0.363,0.209 -0.4168,0.044 -0.3987,-0.129 m 48.8533,0 -0.312,-0.281 -0.17,-0.383 v -0.419 l 0.17,-0.383 0.312,-0.28 0.398,-0.13 0.417,0.044 0.363,0.21 0.246,0.339 0.088,0.41 -0.088,0.41 -0.246,0.339 -0.363,0.209 -0.417,0.044 -0.398,-0.129 m -26.833,3.412 v -2.82 h 5.82 v 2.82 h -5.82 m -23.0232,-0.8 -0.3115,-0.28 -0.1705,-0.383 v -0.419 l 0.1705,-0.383 0.3115,-0.28 0.3986,-0.13 0.4169,0.044 0.3629,0.209 0.2464,0.339 0.0871,0.41 -0.0871,0.41 -0.2464,0.34 -0.3629,0.209 -0.4169,0.044 -0.3986,-0.13 m 50.8582,0 -0.311,-0.28 -0.17,-0.383 v -0.419 l 0.17,-0.383 0.311,-0.28 0.399,-0.13 0.417,0.044 0.363,0.209 0.246,0.339 0.087,0.41 -0.087,0.41 -0.246,0.34 -0.363,0.209 -0.417,0.044 -0.399,-0.13 m -51.5826,2.704 -0.3115,-0.281 -0.1705,-0.383 v -0.419 l 0.1705,-0.383 0.3115,-0.28 0.3987,-0.13 0.4168,0.044 0.363,0.21 0.2464,0.339 0.0871,0.41 -0.0871,0.41 -0.2464,0.339 -0.363,0.209 -0.4168,0.044 -0.3987,-0.129 m 52.3076,0 -0.312,-0.281 -0.17,-0.383 v -0.419 l 0.17,-0.383 0.312,-0.28 0.399,-0.13 0.416,0.044 0.363,0.21 0.247,0.339 0.087,0.41 -0.087,0.41 -0.247,0.339 -0.363,0.209 -0.416,0.044 -0.399,-0.129 m -52.7454,2.764 -0.3115,-0.28 -0.1705,-0.383 v -0.419 l 0.1705,-0.383 0.3115,-0.281 0.3986,-0.129 0.4169,0.043 0.363,0.21 0.2463,0.339 0.0872,0.41 -0.0872,0.41 -0.2464,0.339 -0.3629,0.21 -0.4169,0.044 -0.3986,-0.13 m 53.1834,0 -0.312,-0.28 -0.17,-0.383 v -0.419 l 0.17,-0.383 0.312,-0.281 0.398,-0.129 0.417,0.043 0.363,0.21 0.247,0.339 0.087,0.41 -0.087,0.41 -0.247,0.339 -0.363,0.21 -0.417,0.044 -0.398,-0.13 m -28.107,5.419 -2.018,-3.497 2.018,-3.497 h 4.038 l 2.019,3.497 -2.019,3.497 h -4.038 m 8.609,-0.587 v -5.82 h 2.82 v 5.82 h -2.82 m -15.9999,0 v -5.82 h 2.82 v 5.82 h -2.82 m -17.832,-2.037 -0.3115,-0.281 -0.1705,-0.382 v -0.42 l 0.1705,-0.383 0.3115,-0.28 0.3987,-0.13 0.4168,0.044 0.363,0.21 0.2464,0.339 0.0871,0.41 -0.0871,0.41 -0.2464,0.339 -0.363,0.21 -0.4168,0.043 -0.3987,-0.129 m 53.4759,0 -0.311,-0.281 -0.171,-0.382 v -0.42 l 0.171,-0.383 0.311,-0.28 0.399,-0.13 0.417,0.044 0.363,0.21 0.246,0.339 0.087,0.41 -0.087,0.41 -0.246,0.339 -0.363,0.21 -0.417,0.043 -0.399,-0.129 m -53.3294,2.795 -0.3115,-0.281 -0.1705,-0.383 v -0.419 l 0.1705,-0.383 0.3115,-0.28 0.3986,-0.13 0.4169,0.044 0.3629,0.21 0.2464,0.339 0.0872,0.41 -0.0872,0.41 -0.2463,0.339 -0.363,0.209 -0.4169,0.044 -0.3986,-0.129 m 53.1834,0 -0.312,-0.281 -0.17,-0.383 v -0.419 l 0.17,-0.383 0.312,-0.28 0.398,-0.13 0.417,0.044 0.363,0.21 0.247,0.339 0.087,0.41 -0.087,0.41 -0.247,0.339 -0.363,0.209 -0.417,0.044 -0.398,-0.129 m -52.7456,2.764 -0.3115,-0.28 -0.1705,-0.383 v -0.419 l 0.1705,-0.383 0.3115,-0.281 0.3987,-0.129 0.4168,0.043 0.363,0.21 0.2464,0.339 0.0871,0.41 -0.0871,0.41 -0.2464,0.339 -0.363,0.21 -0.4168,0.044 -0.3987,-0.13 m 52.3076,0 -0.312,-0.28 -0.17,-0.383 v -0.419 l 0.17,-0.383 0.312,-0.281 0.399,-0.129 0.416,0.043 0.363,0.21 0.247,0.339 0.087,0.41 -0.087,0.41 -0.247,0.339 -0.363,0.21 -0.416,0.044 -0.399,-0.13 m -28.56,2.978 v -2.82 h 5.82 v 2.82 h -5.82 m -23.0232,-0.275 -0.3115,-0.28 -0.1705,-0.383 v -0.419 l 0.1705,-0.383 0.3115,-0.28 0.3986,-0.13 0.4169,0.044 0.3629,0.209 0.2464,0.339 0.0871,0.41 -0.0871,0.41 -0.2464,0.34 -0.3629,0.209 -0.4169,0.044 -0.3986,-0.13 m 50.8582,0 -0.311,-0.28 -0.17,-0.383 v -0.419 l 0.17,-0.383 0.311,-0.28 0.399,-0.13 0.417,0.044 0.363,0.209 0.246,0.339 0.087,0.41 -0.087,0.41 -0.246,0.34 -0.363,0.209 -0.417,0.044 -0.399,-0.13 m -49.8553,2.613 -0.3115,-0.28 -0.1704,-0.383 v -0.419 l 0.1704,-0.383 0.3115,-0.281 0.3987,-0.129 0.4168,0.044 0.363,0.209 0.2464,0.339 0.0871,0.41 -0.0871,0.41 -0.2464,0.339 -0.363,0.21 -0.4168,0.044 -0.3987,-0.13 m 48.8533,0 -0.312,-0.28 -0.17,-0.383 v -0.419 l 0.17,-0.383 0.312,-0.281 0.398,-0.129 0.417,0.044 0.363,0.209 0.246,0.339 0.088,0.41 -0.088,0.41 -0.246,0.339 -0.363,0.21 -0.417,0.044 -0.398,-0.13 m -47.5827,2.494 -0.3115,-0.281 -0.1704,-0.382 v -0.42 l 0.1704,-0.383 0.3115,-0.28 0.3987,-0.13 0.4168,0.044 0.363,0.21 0.2464,0.339 0.0871,0.41 -0.0871,0.41 -0.2464,0.339 -0.363,0.21 -0.4168,0.043 -0.3987,-0.129 m 46.3117,0 -0.312,-0.281 -0.17,-0.382 v -0.42 l 0.17,-0.383 0.312,-0.28 0.399,-0.13 0.416,0.044 0.363,0.21 0.247,0.339 0.087,0.41 -0.087,0.41 -0.247,0.339 -0.363,0.21 -0.416,0.043 -0.399,-0.129 m -44.7874,2.347 -0.3115,-0.28 -0.1704,-0.383 v -0.419 l 0.1704,-0.383 0.3115,-0.281 0.3987,-0.129 0.4168,0.044 0.363,0.209 0.2464,0.339 0.0871,0.41 -0.0871,0.41 -0.2464,0.339 -0.363,0.21 -0.4168,0.044 -0.3987,-0.13 m 43.2634,0 -0.312,-0.28 -0.17,-0.383 v -0.419 l 0.17,-0.383 0.312,-0.281 0.398,-0.129 0.417,0.044 0.363,0.209 0.246,0.339 0.088,0.41 -0.088,0.41 -0.246,0.339 -0.363,0.21 -0.417,0.044 -0.398,-0.13 m -41.5021,2.175 -0.3115,-0.28 -0.1705,-0.383 v -0.419 l 0.1705,-0.383 0.3115,-0.281 0.3987,-0.129 0.4168,0.044 0.363,0.209 0.2464,0.339 0.0871,0.41 -0.0871,0.41 -0.2464,0.339 -0.363,0.21 -0.4168,0.044 -0.3987,-0.13 m 39.7401,0 -0.311,-0.28 -0.171,-0.383 v -0.419 l 0.171,-0.383 0.311,-0.281 0.399,-0.129 0.417,0.044 0.363,0.209 0.246,0.339 0.087,0.41 -0.087,0.41 -0.246,0.339 -0.363,0.21 -0.417,0.044 -0.399,-0.13 m -37.7611,1.979 -0.3115,-0.28 -0.1705,-0.383 v -0.419 l 0.1705,-0.383 0.3115,-0.281 0.3986,-0.129 0.4169,0.044 0.363,0.209 0.2464,0.339 0.0871,0.41 -0.0871,0.41 -0.2464,0.339 -0.363,0.21 -0.4169,0.044 -0.3986,-0.13 m 35.7821,0 -0.311,-0.28 -0.171,-0.383 v -0.419 l 0.171,-0.383 0.311,-0.281 0.399,-0.129 0.417,0.044 0.363,0.209 0.246,0.339 0.087,0.41 -0.087,0.41 -0.246,0.339 -0.363,0.21 -0.417,0.044 -0.399,-0.13 m -33.6071,1.761 -0.3115,-0.28 -0.1704,-0.383 v -0.419 l 0.1704,-0.383 0.3115,-0.28 0.3987,-0.13 0.4168,0.044 0.363,0.209 0.2464,0.339 0.0871,0.41 -0.0871,0.41 -0.2464,0.34 -0.363,0.209 -0.4168,0.044 -0.3987,-0.13 m 31.4321,0 -0.311,-0.28 -0.171,-0.383 v -0.419 l 0.171,-0.383 0.311,-0.28 0.399,-0.13 0.417,0.044 0.363,0.209 0.246,0.339 0.087,0.41 -0.087,0.41 -0.246,0.34 -0.363,0.209 -0.417,0.044 -0.399,-0.13 m -29.0849,1.525 -0.3115,-0.281 -0.1704,-0.383 v -0.419 l 0.1704,-0.383 0.3115,-0.28 0.3987,-0.13 0.4168,0.044 0.363,0.21 0.2464,0.339 0.0871,0.41 -0.0871,0.41 -0.2464,0.339 -0.363,0.209 -0.4168,0.044 -0.3987,-0.129 m 26.7379,0 -0.311,-0.281 -0.171,-0.383 v -0.419 l 0.171,-0.383 0.311,-0.28 0.399,-0.13 0.417,0.044 0.363,0.21 0.246,0.339 0.087,0.41 -0.087,0.41 -0.246,0.339 -0.363,0.209 -0.417,0.044 -0.399,-0.129 m -24.2442,1.27 -0.3115,-0.28 -0.1705,-0.383 v -0.419 l 0.1705,-0.383 0.3115,-0.281 0.3987,-0.129 0.4168,0.044 0.363,0.209 0.2464,0.339 0.0871,0.41 -0.0871,0.41 -0.2464,0.339 -0.363,0.21 -0.4168,0.044 -0.3987,-0.13 m 21.7502,0 -0.311,-0.28 -0.171,-0.383 v -0.419 l 0.171,-0.383 0.311,-0.281 0.399,-0.129 0.417,0.044 0.363,0.209 0.246,0.339 0.087,0.41 -0.087,0.41 -0.246,0.339 -0.363,0.21 -0.417,0.044 -0.399,-0.13 m -19.1374,1.003 -0.3115,-0.28 -0.1704,-0.383 v -0.419 l 0.1704,-0.383 0.3115,-0.281 0.3987,-0.129 0.4168,0.044 0.363,0.209 0.2464,0.339 0.0871,0.41 -0.0871,0.41 -0.2464,0.339 -0.363,0.21 -0.4168,0.044 -0.3987,-0.13 m 16.5254,0 -0.312,-0.28 -0.17,-0.383 v -0.419 l 0.17,-0.383 0.312,-0.281 0.398,-0.129 0.417,0.044 0.363,0.209 0.246,0.339 0.088,0.41 -0.088,0.41 -0.246,0.339 -0.363,0.21 -0.417,0.044 -0.398,-0.13 m -13.822,0.725 -0.312,-0.281 -0.17,-0.383 v -0.419 l 0.17,-0.383 0.312,-0.28 0.399,-0.13 0.416,0.044 0.363,0.21 0.247,0.339 0.087,0.41 -0.087,0.41 -0.247,0.339 -0.363,0.209 -0.416,0.044 -0.399,-0.129 m 11.118,0 -0.311,-0.281 -0.171,-0.383 v -0.419 l 0.171,-0.383 0.311,-0.28 0.399,-0.13 0.417,0.044 0.363,0.21 0.246,0.339 0.087,0.41 -0.087,0.41 -0.246,0.339 -0.363,0.209 -0.417,0.044 -0.399,-0.129 m -8.354,0.437 -0.311,-0.28 -0.171,-0.383 v -0.419 l 0.171,-0.383 0.311,-0.28 0.399,-0.13 0.417,0.044 0.363,0.209 0.246,0.34 0.087,0.41 -0.087,0.409 -0.246,0.34 -0.363,0.209 -0.417,0.044 -0.399,-0.13 m 5.59,0 -0.311,-0.28 -0.171,-0.383 v -0.419 l 0.171,-0.383 0.311,-0.28 0.399,-0.13 0.417,0.044 0.362,0.209 0.247,0.34 0.087,0.41 -0.087,0.409 -0.247,0.34 -0.362,0.209 -0.417,0.044 -0.399,-0.13 m -2.795,0.147 -0.311,-0.281 -0.171,-0.382 v -0.42 l 0.171,-0.382 0.311,-0.281 0.399,-0.13 0.417,0.044 0.363,0.21 0.246,0.339 0.087,0.41 -0.087,0.41 -0.246,0.339 -0.363,0.21 -0.417,0.043 -0.399,-0.129"
       stroke="#0000ff"
       fill="none"
       stroke-width="0.1"
       id="path1146" />
    <path
       d="m 130.50781,-132.026 0.088,-0.039 0.078,-0.057 0.064,-0.071 0.048,-0.083 0.03,-0.092 0.01,-0.095 -0.01,-0.096 -0.03,-0.091 -0.048,-0.083 -0.064,-0.072 -0.078,-0.056 -0.088,-0.039 -0.094,-0.02 h -1.471 l -0.094,0.02 -0.088,0.039 -0.077,0.056 -0.065,0.072 -0.048,0.083 -0.029,0.091 -0.01,0.096 0.01,0.095 0.029,0.092 0.048,0.083 0.065,0.071 0.077,0.057 0.088,0.039 0.094,0.02 h 1.471 l 0.094,-0.02"
       style="fill:#000000;stroke:none;stroke-width:0.132292"
       id="path2751" />
  </g>
  <path
     d="m 69.417996,-40.29 h 7.92 v 3.05 m 5.63,0 v -5.63 h -3.05 v -7.92 h 3.05 v -5.63 h -5.63 v 3.05 h -7.92 v -3.05 h -5.63 v 5.63 h 3.05 v 7.92 h -3.05 v 5.63 m 5.63,0 v -3.05 m 3.7343,-4.3923 -0.4416,-0.0939 -0.4124,-0.1836 -0.3653,-0.2654 -0.302,-0.3355 -0.2258,-0.3909 -0.1395,-0.4294 -0.0472,-0.449 0.0472,-0.4489 0.1395,-0.4295 0.2258,-0.3909 0.302,-0.3355 0.3653,-0.2654 0.4124,-0.1836 0.4416,-0.0939 h 0.4515 l 0.4415,0.0939 0.4124,0.1836 0.3653,0.2654 0.3021,0.3355 0.2257,0.3909 0.1395,0.4295 0.0472,0.4489 -0.0472,0.449 -0.1395,0.4294 -0.2257,0.3909 -0.3021,0.3355 -0.3653,0.2654 -0.4124,0.1836 -0.4415,0.0939 h -0.4515"
     stroke="#0000ff"
     fill="none"
     stroke-width="0.1"
     id="path1150" />
  <path
     d="m 65.089996,-60.38 h 16.576 v 1.6 h 2.18 v -5.1971 l -0.1012,-0.6391 -0.297,-0.5829 -0.4626,-0.4626 -0.583,-0.2971 -0.6391,-0.1012 m -16.7702,0 -0.6391,0.1012 -0.5829,0.2971 -0.4626,0.4626 -0.297,0.5829 -0.1013,0.6391 v 5.1971 h 2.18 v -1.6"
     stroke="#0000ff"
     fill="none"
     stroke-width="0.1"
     id="path1152" />
  <path
     id="path3035"
     style="fill:none;stroke:#0000ff;stroke-width:0.1;stroke-linecap:butt;stroke-linejoin:miter;stroke-miterlimit:4;stroke-dasharray:none;stroke-opacity:1"
     d="m 138.643,-212.95 h 28.38 v 14.18 h -2.78 m -25.6,-14.18 v 14.18 h 2.78 v -10.2 h 3.22 v 6.869 h 16.38 v -6.869 h 3.22 v 10.2 h 2.78 m 0,-14.18 h -28.38" />
  <path
     id="path3426"
     style="fill:none;stroke:#0000ff;stroke-width:0.1;stroke-linecap:butt;stroke-linejoin:miter;stroke-miterlimit:4;stroke-dasharray:none;stroke-opacity:1"
     d="m 150.081,-133.4033 h -5.5 v 22.0133 h 3.05 v 21.653399 h -3.05 v 22.013299 h 5.5 v 3.000001 h 1 v 3 h 6.18 v -3 M 147.631,-111.39 v 21.653401 h -3.05 m 0,22.0133 h 5.5 v 3 h 1 v 3 m 6.18,0 v -3 h 1 v -3 h 2.45 v -21.8833 h 3.05 V -111.5199 h -3.05 v -21.8834 h -2.45 v -3 h -8.18 v 3 h -5.5 m 0,22.0133 h 3.05" />
  <path
     id="path3692"
     style="fill:none;stroke:#0000ff;stroke-width:0.1;stroke-linecap:butt;stroke-linejoin:miter;stroke-miterlimit:4;stroke-dasharray:none;stroke-opacity:1"
     d="m 169.261,-133.5332 h -5.5 v 22.0133 h 3.05 v 21.653702 h -3.05 v 22.013 h 5.5 v 2.999999 h 1 v 2.999999 h 6.18 v -2.999999 m -9.63,-46.666701 v 21.653703 h -3.05 v 22.013 h 5.5 v 3 h 1 v 3 m 6.18,0 v -3 h 1 v -3 h 2.45 v -21.883 h 3.05 V -111.6499 h -3.05 v -21.8833 h -2.45 v -3 h -8.18 v 3 h -5.5 m 0,22.0133 h 3.05" />
</svg>
