<?xml version="1.0" standalone="no"?>
<!DOCTYPE svg PUBLIC "-//W3C//DTD SVG 1.1//EN" "http://www.w3.org/Graphics/SVG/1.1/DTD/svg11.dtd">
<svg width="35mm" height="86mm" viewBox="111 -170 35 86" xmlns="http://www.w3.org/2000/svg" version="1.1">
<title>OpenSCAD Model</title>
<path d="
M 122.472,-87.29 L 124.622,-87.29 L 124.622,-90.47 L 123.272,-90.47 L 123.272,-93.69 L 124.622,-93.69
 L 124.622,-97.29 L 128.942,-97.29 L 128.942,-93.69 L 130.292,-93.69 L 130.292,-90.47 L 128.942,-90.47
 L 128.942,-87.29 L 131.092,-87.29 L 131.092,-84.89 L 133.772,-84.89 L 133.772,-87.29 L 145.441,-87.29
 L 145.441,-112.77 L 142.441,-112.77 L 142.441,-123.17 L 139.261,-123.17 L 139.261,-121.82 L 136.041,-121.82
 L 136.041,-123.17 L 132.441,-123.17 L 132.441,-127.49 L 136.041,-127.49 L 136.041,-128.84 L 139.261,-128.84
 L 139.261,-127.49 L 142.441,-127.49 L 142.441,-137.89 L 145.441,-137.89 L 145.441,-163.37 L 142.441,-163.37
 L 142.441,-167.47 L 133.772,-167.47 L 133.772,-169.87 L 131.092,-169.87 L 131.092,-167.47 L 128.942,-167.47
 L 128.942,-164.29 L 130.292,-164.29 L 130.292,-161.07 L 128.942,-161.07 L 128.942,-157.47 L 124.622,-157.47
 L 124.622,-161.07 L 123.272,-161.07 L 123.272,-164.29 L 124.622,-164.29 L 124.622,-167.47 L 117.303,-167.47
 L 117.303,-169.87 L 112.123,-169.87 L 112.123,-167.47 L 111.123,-167.47 L 111.123,-87.29 L 117.292,-87.29
 L 117.292,-84.89 L 122.472,-84.89 z
M 116.664,-125.268 L 116.235,-125.407 L 115.844,-125.633 L 115.508,-125.935 L 115.243,-126.3 L 115.059,-126.713
 L 114.965,-127.154 L 114.965,-127.606 L 115.059,-128.047 L 115.243,-128.46 L 115.508,-128.825 L 115.844,-129.127
 L 116.235,-129.353 L 116.664,-129.492 L 117.113,-129.539 L 117.562,-129.492 L 117.991,-129.353 L 118.382,-129.127
 L 118.718,-128.825 L 118.983,-128.46 L 119.167,-128.047 L 119.261,-127.606 L 119.261,-127.154 L 119.167,-126.713
 L 118.983,-126.3 L 118.718,-125.935 L 118.382,-125.633 L 117.991,-125.407 L 117.562,-125.268 L 117.113,-125.22
 z
" stroke="black" fill="lightgray" stroke-width="0.5"/>
</svg>
