<?xml version="1.0" standalone="no"?>
<!DOCTYPE svg PUBLIC "-//W3C//DTD SVG 1.1//EN" "http://www.w3.org/Graphics/SVG/1.1/DTD/svg11.dtd">
<svg width="59mm" height="59mm" viewBox="17 -162 59 59" xmlns="http://www.w3.org/2000/svg" version="1.1">
<title>OpenSCAD Model</title>
<path d="
M 49.7113,-103.567 L 52.7123,-104.042 L 55.6472,-104.829 L 58.4839,-105.918 L 61.1911,-107.297 L 63.7394,-108.952
 L 66.1007,-110.864 L 68.2492,-113.012 L 70.1613,-115.374 L 71.8162,-117.922 L 73.1956,-120.629 L 74.2845,-123.466
 L 75.0709,-126.401 L 75.5462,-129.402 L 75.7052,-132.436 L 75.5462,-135.47 L 75.0709,-138.471 L 74.2845,-141.406
 L 73.1956,-144.243 L 71.8162,-146.95 L 70.1613,-149.498 L 68.2492,-151.86 L 66.1007,-154.008 L 63.7394,-155.92
 L 61.1911,-157.575 L 58.4839,-158.955 L 55.6472,-160.043 L 52.7123,-160.83 L 49.7113,-161.305 L 46.6771,-161.464
 L 43.6428,-161.305 L 40.6418,-160.83 L 37.7069,-160.043 L 34.8703,-158.955 L 32.163,-157.575 L 29.6147,-155.92
 L 27.2534,-154.008 L 25.1049,-151.86 L 23.1928,-149.498 L 21.5379,-146.95 L 20.1585,-144.243 L 19.0697,-141.406
 L 18.2832,-138.471 L 17.8079,-135.47 L 17.6489,-132.436 L 17.8079,-129.402 L 18.2832,-126.401 L 19.0697,-123.466
 L 20.1585,-120.629 L 21.5379,-117.922 L 23.1928,-115.374 L 25.1049,-113.012 L 27.2534,-110.864 L 29.6147,-108.952
 L 32.163,-107.297 L 34.8703,-105.918 L 37.7069,-104.829 L 40.6418,-104.042 L 43.6428,-103.567 L 46.6771,-103.408
 z
M 46.1731,-158.301 L 45.8616,-158.582 L 45.6911,-158.965 L 45.6911,-159.384 L 45.8616,-159.767 L 46.1731,-160.047
 L 46.5717,-160.177 L 46.9885,-160.133 L 47.3515,-159.923 L 47.5979,-159.584 L 47.685,-159.174 L 47.5979,-158.764
 L 47.3515,-158.425 L 46.9885,-158.215 L 46.5717,-158.172 z
M 43.3782,-158.155 L 43.0667,-158.435 L 42.8962,-158.818 L 42.8962,-159.237 L 43.0667,-159.62 L 43.3782,-159.901
 L 43.7768,-160.03 L 44.1937,-159.986 L 44.5566,-159.777 L 44.803,-159.438 L 44.8902,-159.028 L 44.803,-158.618
 L 44.5566,-158.279 L 44.1937,-158.069 L 43.7768,-158.025 z
M 48.9679,-158.155 L 48.6564,-158.435 L 48.486,-158.818 L 48.486,-159.237 L 48.6564,-159.62 L 48.9679,-159.901
 L 49.3666,-160.03 L 49.7834,-159.986 L 50.1464,-159.777 L 50.3928,-159.438 L 50.4799,-159.028 L 50.3928,-158.618
 L 50.1464,-158.279 L 49.7834,-158.069 L 49.3666,-158.025 z
M 40.6139,-157.717 L 40.3024,-157.997 L 40.132,-158.38 L 40.132,-158.799 L 40.3024,-159.182 L 40.6139,-159.463
 L 41.0126,-159.592 L 41.4294,-159.548 L 41.7924,-159.339 L 42.0388,-159 L 42.1259,-158.59 L 42.0388,-158.18
 L 41.7924,-157.841 L 41.4294,-157.631 L 41.0126,-157.587 z
M 51.7322,-157.717 L 51.4207,-157.997 L 51.2502,-158.38 L 51.2502,-158.799 L 51.4207,-159.182 L 51.7322,-159.463
 L 52.1308,-159.592 L 52.5477,-159.548 L 52.9107,-159.339 L 53.1571,-159 L 53.2442,-158.59 L 53.1571,-158.18
 L 52.9107,-157.841 L 52.5477,-157.631 L 52.1308,-157.587 z
M 37.9106,-156.992 L 37.5991,-157.273 L 37.4286,-157.656 L 37.4286,-158.075 L 37.5991,-158.458 L 37.9106,-158.738
 L 38.3092,-158.868 L 38.7261,-158.824 L 39.089,-158.615 L 39.3354,-158.275 L 39.4226,-157.865 L 39.3354,-157.455
 L 39.089,-157.116 L 38.7261,-156.907 L 38.3092,-156.863 z
M 54.4355,-156.992 L 54.1241,-157.273 L 53.9536,-157.656 L 53.9536,-158.075 L 54.1241,-158.458 L 54.4355,-158.738
 L 54.8342,-158.868 L 55.2511,-158.824 L 55.614,-158.615 L 55.8604,-158.275 L 55.9476,-157.865 L 55.8604,-157.455
 L 55.614,-157.116 L 55.2511,-156.907 L 54.8342,-156.863 z
M 35.2977,-155.99 L 34.9863,-156.27 L 34.8158,-156.653 L 34.8158,-157.072 L 34.9863,-157.455 L 35.2977,-157.735
 L 35.6964,-157.865 L 36.1132,-157.821 L 36.4762,-157.612 L 36.7226,-157.272 L 36.8097,-156.862 L 36.7226,-156.452
 L 36.4762,-156.113 L 36.1132,-155.904 L 35.6964,-155.86 z
M 57.0484,-155.99 L 56.7369,-156.27 L 56.5664,-156.653 L 56.5664,-157.072 L 56.7369,-157.455 L 57.0484,-157.735
 L 57.4471,-157.865 L 57.8639,-157.821 L 58.2269,-157.612 L 58.4733,-157.272 L 58.5604,-156.862 L 58.4733,-156.452
 L 58.2269,-156.113 L 57.8639,-155.904 L 57.4471,-155.86 z
M 32.804,-154.719 L 32.4926,-154.999 L 32.3221,-155.382 L 32.3221,-155.801 L 32.4926,-156.184 L 32.804,-156.465
 L 33.2027,-156.594 L 33.6196,-156.551 L 33.9825,-156.341 L 34.2289,-156.002 L 34.316,-155.592 L 34.2289,-155.182
 L 33.9825,-154.843 L 33.6196,-154.633 L 33.2027,-154.589 z
M 59.5421,-154.719 L 59.2306,-154.999 L 59.0601,-155.382 L 59.0601,-155.801 L 59.2306,-156.184 L 59.5421,-156.465
 L 59.9407,-156.594 L 60.3576,-156.551 L 60.7205,-156.341 L 60.9669,-156.002 L 61.0541,-155.592 L 60.9669,-155.182
 L 60.7206,-154.843 L 60.3576,-154.633 L 59.9407,-154.589 z
M 30.4568,-153.195 L 30.1454,-153.475 L 29.9749,-153.858 L 29.9749,-154.277 L 30.1454,-154.66 L 30.4568,-154.94
 L 30.8555,-155.07 L 31.2723,-155.026 L 31.6353,-154.817 L 31.8817,-154.478 L 31.9688,-154.068 L 31.8817,-153.658
 L 31.6353,-153.318 L 31.2723,-153.109 L 30.8555,-153.065 z
M 61.8893,-153.195 L 61.5778,-153.475 L 61.4073,-153.858 L 61.4073,-154.277 L 61.5778,-154.66 L 61.8893,-154.94
 L 62.2879,-155.07 L 62.7048,-155.026 L 63.0677,-154.817 L 63.3141,-154.478 L 63.4013,-154.068 L 63.3141,-153.658
 L 63.0677,-153.318 L 62.7048,-153.109 L 62.2879,-153.065 z
M 45.2356,-148.462 L 44.3447,-149.264 L 43.8571,-150.36 L 43.8571,-151.558 L 44.3447,-152.654 L 45.2356,-153.456
 L 46.3757,-153.826 L 47.5679,-153.701 L 48.6061,-153.101 L 49.3108,-152.132 L 49.56,-150.959 L 49.3108,-149.786
 L 48.6061,-148.816 L 47.5679,-148.217 L 46.3757,-148.092 z
M 28.2818,-151.433 L 27.9704,-151.714 L 27.7999,-152.097 L 27.7999,-152.516 L 27.9704,-152.899 L 28.2818,-153.179
 L 28.6805,-153.309 L 29.0973,-153.265 L 29.4603,-153.055 L 29.7067,-152.716 L 29.7938,-152.306 L 29.7067,-151.896
 L 29.4603,-151.557 L 29.0973,-151.348 L 28.6805,-151.304 z
M 64.0643,-151.433 L 63.7528,-151.714 L 63.5823,-152.097 L 63.5823,-152.516 L 63.7528,-152.899 L 64.0643,-153.179
 L 64.4629,-153.309 L 64.8798,-153.265 L 65.2428,-153.055 L 65.4892,-152.716 L 65.5763,-152.306 L 65.4892,-151.896
 L 65.2428,-151.557 L 64.8798,-151.348 L 64.4629,-151.304 z
M 26.3028,-149.454 L 25.9913,-149.735 L 25.8209,-150.118 L 25.8209,-150.537 L 25.9913,-150.92 L 26.3028,-151.2
 L 26.7015,-151.33 L 27.1183,-151.286 L 27.4813,-151.076 L 27.7277,-150.737 L 27.8148,-150.327 L 27.7277,-149.917
 L 27.4813,-149.578 L 27.1183,-149.369 L 26.7015,-149.325 z
M 66.0433,-149.454 L 65.7318,-149.735 L 65.5613,-150.118 L 65.5613,-150.537 L 65.7318,-150.92 L 66.0433,-151.2
 L 66.4419,-151.33 L 66.8588,-151.286 L 67.2217,-151.076 L 67.4681,-150.737 L 67.5553,-150.327 L 67.4681,-149.917
 L 67.2217,-149.578 L 66.8588,-149.369 L 66.4419,-149.325 z
M 24.5415,-147.279 L 24.2301,-147.56 L 24.0596,-147.943 L 24.0596,-148.362 L 24.2301,-148.745 L 24.5415,-149.025
 L 24.9402,-149.155 L 25.357,-149.111 L 25.72,-148.901 L 25.9664,-148.562 L 26.0535,-148.152 L 25.9664,-147.742
 L 25.72,-147.403 L 25.357,-147.194 L 24.9402,-147.15 z
M 67.8046,-147.279 L 67.4931,-147.56 L 67.3226,-147.943 L 67.3226,-148.362 L 67.4931,-148.745 L 67.8046,-149.025
 L 68.2032,-149.155 L 68.6201,-149.111 L 68.983,-148.901 L 69.2294,-148.562 L 69.3166,-148.152 L 69.2294,-147.742
 L 68.983,-147.403 L 68.6201,-147.194 L 68.2032,-147.15 z
M 23.0172,-144.932 L 22.7058,-145.213 L 22.5353,-145.595 L 22.5353,-146.015 L 22.7058,-146.398 L 23.0172,-146.678
 L 23.4159,-146.808 L 23.8327,-146.764 L 24.1957,-146.554 L 24.4421,-146.215 L 24.5293,-145.805 L 24.4421,-145.395
 L 24.1957,-145.056 L 23.8327,-144.846 L 23.4159,-144.803 z
M 69.3289,-144.932 L 69.0174,-145.213 L 68.8469,-145.595 L 68.8469,-146.015 L 69.0174,-146.398 L 69.3289,-146.678
 L 69.7275,-146.808 L 70.1444,-146.764 L 70.5073,-146.554 L 70.7537,-146.215 L 70.8409,-145.805 L 70.7537,-145.395
 L 70.5073,-145.056 L 70.1444,-144.846 L 69.7275,-144.803 z
M 21.7467,-142.438 L 21.4352,-142.719 L 21.2647,-143.102 L 21.2647,-143.521 L 21.4352,-143.904 L 21.7467,-144.184
 L 22.1453,-144.314 L 22.5621,-144.27 L 22.9251,-144.06 L 23.1715,-143.721 L 23.2587,-143.311 L 23.1715,-142.901
 L 22.9251,-142.562 L 22.5621,-142.353 L 22.1453,-142.309 z
M 70.5995,-142.438 L 70.288,-142.719 L 70.1175,-143.102 L 70.1175,-143.521 L 70.288,-143.904 L 70.5995,-144.184
 L 70.9981,-144.314 L 71.4149,-144.27 L 71.7779,-144.06 L 72.0243,-143.721 L 72.1115,-143.311 L 72.0243,-142.901
 L 71.7779,-142.562 L 71.4149,-142.353 L 70.9981,-142.309 z
M 42.7671,-139.026 L 42.7671,-141.846 L 50.5871,-141.846 L 50.5871,-139.026 z
M 20.7437,-139.826 L 20.4322,-140.106 L 20.2617,-140.489 L 20.2617,-140.908 L 20.4322,-141.291 L 20.7437,-141.571
 L 21.1423,-141.701 L 21.5592,-141.657 L 21.9222,-141.448 L 22.1685,-141.109 L 22.2557,-140.699 L 22.1685,-140.289
 L 21.9221,-139.949 L 21.5592,-139.74 L 21.1423,-139.696 z
M 71.6024,-139.826 L 71.291,-140.106 L 71.1205,-140.489 L 71.1205,-140.908 L 71.291,-141.291 L 71.6024,-141.571
 L 72.0011,-141.701 L 72.4179,-141.657 L 72.7809,-141.448 L 73.0273,-141.109 L 73.1144,-140.699 L 73.0273,-140.289
 L 72.7809,-139.949 L 72.4179,-139.74 L 72.0011,-139.696 z
M 20.0193,-137.122 L 19.7078,-137.403 L 19.5374,-137.786 L 19.5374,-138.205 L 19.7078,-138.588 L 20.0193,-138.868
 L 20.418,-138.998 L 20.8348,-138.954 L 21.1978,-138.744 L 21.4442,-138.405 L 21.5313,-137.995 L 21.4442,-137.585
 L 21.1978,-137.246 L 20.8348,-137.037 L 20.418,-136.993 z
M 72.3268,-137.122 L 72.0153,-137.403 L 71.8448,-137.786 L 71.8448,-138.205 L 72.0153,-138.588 L 72.3268,-138.868
 L 72.7254,-138.998 L 73.1423,-138.954 L 73.5052,-138.744 L 73.7516,-138.405 L 73.8388,-137.995 L 73.7516,-137.585
 L 73.5053,-137.246 L 73.1423,-137.037 L 72.7254,-136.993 z
M 53.2671,-128.526 L 53.2671,-136.346 L 56.0871,-136.346 L 56.0871,-128.526 z
M 37.2671,-128.526 L 37.2671,-136.346 L 40.0871,-136.346 L 40.0871,-128.526 z
M 19.5815,-134.358 L 19.27,-134.638 L 19.0995,-135.021 L 19.0995,-135.44 L 19.27,-135.823 L 19.5815,-136.104
 L 19.9802,-136.233 L 20.397,-136.19 L 20.76,-135.98 L 21.0064,-135.641 L 21.0935,-135.231 L 21.0064,-134.821
 L 20.76,-134.482 L 20.397,-134.272 L 19.9802,-134.228 z
M 72.7646,-134.358 L 72.4531,-134.638 L 72.2826,-135.021 L 72.2826,-135.44 L 72.4531,-135.823 L 72.7646,-136.104
 L 73.1633,-136.233 L 73.5801,-136.19 L 73.9431,-135.98 L 74.1895,-135.641 L 74.2766,-135.231 L 74.1895,-134.821
 L 73.9431,-134.482 L 73.5801,-134.272 L 73.1633,-134.228 z
M 46.385,-130.125 L 46.0977,-130.179 L 45.8193,-130.27 L 45.5546,-130.394 L 45.3077,-130.551 L 45.2671,-130.585
 L 45.2671,-132.109 L 41.7671,-132.109 L 41.7671,-132.763 L 45.2671,-132.763 L 45.2671,-134.287 L 45.3077,-134.321
 L 45.5546,-134.478 L 45.8193,-134.602 L 46.0977,-134.693 L 46.385,-134.747 L 46.6771,-134.766 L 46.9691,-134.747
 L 47.2564,-134.693 L 47.5348,-134.602 L 47.7995,-134.478 L 48.0464,-134.321 L 48.0871,-134.287 L 48.0871,-132.763
 L 51.5871,-132.763 L 51.5871,-132.109 L 48.0871,-132.109 L 48.0871,-130.585 L 48.0464,-130.551 L 47.7995,-130.394
 L 47.5348,-130.27 L 47.2564,-130.179 L 46.9691,-130.125 L 46.6771,-130.106 z
M 19.435,-131.563 L 19.1236,-131.844 L 18.9531,-132.226 L 18.9531,-132.646 L 19.1236,-133.029 L 19.435,-133.309
 L 19.8337,-133.439 L 20.2505,-133.395 L 20.6135,-133.185 L 20.8599,-132.846 L 20.947,-132.436 L 20.8599,-132.026
 L 20.6135,-131.687 L 20.2505,-131.477 L 19.8337,-131.434 z
M 72.9111,-131.563 L 72.5996,-131.844 L 72.4291,-132.226 L 72.4291,-132.646 L 72.5996,-133.029 L 72.9111,-133.309
 L 73.3098,-133.439 L 73.7266,-133.395 L 74.0895,-133.185 L 74.3359,-132.846 L 74.4231,-132.436 L 74.3359,-132.026
 L 74.0895,-131.687 L 73.7266,-131.477 L 73.3098,-131.434 z
M 19.5815,-128.768 L 19.27,-129.049 L 19.0995,-129.432 L 19.0995,-129.851 L 19.27,-130.234 L 19.5815,-130.514
 L 19.9802,-130.644 L 20.397,-130.6 L 20.76,-130.39 L 21.0064,-130.051 L 21.0935,-129.641 L 21.0064,-129.231
 L 20.76,-128.892 L 20.397,-128.683 L 19.9802,-128.639 z
M 72.7646,-128.768 L 72.4531,-129.049 L 72.2826,-129.432 L 72.2826,-129.851 L 72.4531,-130.234 L 72.7646,-130.514
 L 73.1633,-130.644 L 73.5801,-130.6 L 73.9431,-130.39 L 74.1895,-130.051 L 74.2766,-129.641 L 74.1895,-129.231
 L 73.9431,-128.892 L 73.5801,-128.683 L 73.1633,-128.639 z
M 20.0193,-126.004 L 19.7078,-126.284 L 19.5374,-126.667 L 19.5374,-127.086 L 19.7078,-127.469 L 20.0193,-127.75
 L 20.418,-127.879 L 20.8348,-127.836 L 21.1978,-127.626 L 21.4442,-127.287 L 21.5313,-126.877 L 21.4442,-126.467
 L 21.1978,-126.128 L 20.8348,-125.918 L 20.418,-125.874 z
M 72.3268,-126.004 L 72.0153,-126.284 L 71.8448,-126.667 L 71.8448,-127.086 L 72.0153,-127.469 L 72.3268,-127.75
 L 72.7254,-127.879 L 73.1423,-127.836 L 73.5053,-127.626 L 73.7516,-127.287 L 73.8388,-126.877 L 73.7516,-126.467
 L 73.5052,-126.128 L 73.1423,-125.918 L 72.7254,-125.874 z
M 42.7671,-123.026 L 42.7671,-125.846 L 50.5871,-125.846 L 50.5871,-123.026 z
M 20.7437,-123.301 L 20.4322,-123.581 L 20.2617,-123.964 L 20.2617,-124.383 L 20.4322,-124.766 L 20.7437,-125.046
 L 21.1423,-125.176 L 21.5592,-125.132 L 21.9221,-124.923 L 22.1685,-124.584 L 22.2557,-124.174 L 22.1685,-123.764
 L 21.9222,-123.424 L 21.5592,-123.215 L 21.1423,-123.171 z
M 71.6024,-123.301 L 71.291,-123.581 L 71.1205,-123.964 L 71.1205,-124.383 L 71.291,-124.766 L 71.6024,-125.046
 L 72.0011,-125.176 L 72.4179,-125.132 L 72.7809,-124.923 L 73.0273,-124.584 L 73.1144,-124.174 L 73.0273,-123.764
 L 72.7809,-123.424 L 72.4179,-123.215 L 72.0011,-123.171 z
M 21.7467,-120.688 L 21.4352,-120.968 L 21.2647,-121.351 L 21.2647,-121.77 L 21.4352,-122.153 L 21.7467,-122.434
 L 22.1453,-122.563 L 22.5621,-122.519 L 22.9251,-122.31 L 23.1715,-121.971 L 23.2587,-121.561 L 23.1715,-121.151
 L 22.9251,-120.812 L 22.5621,-120.602 L 22.1453,-120.558 z
M 70.5995,-120.688 L 70.288,-120.968 L 70.1175,-121.351 L 70.1175,-121.77 L 70.288,-122.153 L 70.5995,-122.434
 L 70.9981,-122.563 L 71.4149,-122.519 L 71.7779,-122.31 L 72.0243,-121.971 L 72.1115,-121.561 L 72.0243,-121.151
 L 71.7779,-120.812 L 71.4149,-120.602 L 70.9981,-120.558 z
M 23.0172,-118.194 L 22.7058,-118.475 L 22.5353,-118.857 L 22.5353,-119.277 L 22.7058,-119.66 L 23.0172,-119.94
 L 23.4159,-120.07 L 23.8327,-120.026 L 24.1957,-119.816 L 24.4421,-119.477 L 24.5293,-119.067 L 24.4421,-118.657
 L 24.1957,-118.318 L 23.8327,-118.108 L 23.4159,-118.065 z
M 69.3289,-118.194 L 69.0174,-118.475 L 68.8469,-118.857 L 68.8469,-119.277 L 69.0174,-119.66 L 69.3289,-119.94
 L 69.7275,-120.07 L 70.1444,-120.026 L 70.5073,-119.816 L 70.7537,-119.477 L 70.8409,-119.067 L 70.7537,-118.657
 L 70.5073,-118.318 L 70.1444,-118.108 L 69.7275,-118.065 z
M 24.5415,-115.847 L 24.2301,-116.127 L 24.0596,-116.51 L 24.0596,-116.929 L 24.2301,-117.312 L 24.5415,-117.593
 L 24.9402,-117.722 L 25.357,-117.678 L 25.72,-117.469 L 25.9664,-117.13 L 26.0535,-116.72 L 25.9664,-116.31
 L 25.72,-115.971 L 25.357,-115.761 L 24.9402,-115.717 z
M 67.8046,-115.847 L 67.4931,-116.127 L 67.3226,-116.51 L 67.3226,-116.929 L 67.4931,-117.312 L 67.8046,-117.593
 L 68.2032,-117.722 L 68.6201,-117.678 L 68.983,-117.469 L 69.2294,-117.13 L 69.3166,-116.72 L 69.2294,-116.31
 L 68.983,-115.971 L 68.6201,-115.761 L 68.2032,-115.717 z
M 26.3028,-113.672 L 25.9913,-113.952 L 25.8209,-114.335 L 25.8209,-114.754 L 25.9913,-115.137 L 26.3028,-115.418
 L 26.7015,-115.547 L 27.1183,-115.503 L 27.4813,-115.294 L 27.7277,-114.955 L 27.8148,-114.545 L 27.7277,-114.135
 L 27.4813,-113.796 L 27.1183,-113.586 L 26.7015,-113.542 z
M 66.0433,-113.672 L 65.7318,-113.952 L 65.5613,-114.335 L 65.5613,-114.754 L 65.7318,-115.137 L 66.0433,-115.418
 L 66.4419,-115.547 L 66.8588,-115.503 L 67.2217,-115.294 L 67.4681,-114.955 L 67.5553,-114.545 L 67.4681,-114.135
 L 67.2217,-113.796 L 66.8588,-113.586 L 66.4419,-113.542 z
M 28.2818,-111.693 L 27.9704,-111.973 L 27.7999,-112.356 L 27.7999,-112.775 L 27.9704,-113.158 L 28.2818,-113.439
 L 28.6805,-113.568 L 29.0973,-113.524 L 29.4603,-113.315 L 29.7067,-112.976 L 29.7938,-112.566 L 29.7067,-112.156
 L 29.4603,-111.817 L 29.0973,-111.607 L 28.6805,-111.563 z
M 64.0643,-111.693 L 63.7528,-111.973 L 63.5823,-112.356 L 63.5823,-112.775 L 63.7528,-113.158 L 64.0643,-113.439
 L 64.4629,-113.568 L 64.8798,-113.524 L 65.2428,-113.315 L 65.4892,-112.976 L 65.5763,-112.566 L 65.4892,-112.156
 L 65.2428,-111.817 L 64.8798,-111.607 L 64.4629,-111.563 z
M 30.4568,-109.932 L 30.1454,-110.212 L 29.9749,-110.595 L 29.9749,-111.014 L 30.1454,-111.397 L 30.4568,-111.677
 L 30.8555,-111.807 L 31.2723,-111.763 L 31.6353,-111.554 L 31.8817,-111.215 L 31.9688,-110.805 L 31.8817,-110.395
 L 31.6353,-110.055 L 31.2723,-109.846 L 30.8555,-109.802 z
M 61.8893,-109.932 L 61.5778,-110.212 L 61.4073,-110.595 L 61.4073,-111.014 L 61.5778,-111.397 L 61.8893,-111.677
 L 62.2879,-111.807 L 62.7048,-111.763 L 63.0677,-111.554 L 63.3141,-111.215 L 63.4013,-110.805 L 63.3141,-110.395
 L 63.0677,-110.055 L 62.7048,-109.846 L 62.2879,-109.802 z
M 32.804,-108.407 L 32.4926,-108.688 L 32.3221,-109.071 L 32.3221,-109.49 L 32.4926,-109.873 L 32.804,-110.153
 L 33.2027,-110.283 L 33.6196,-110.239 L 33.9825,-110.029 L 34.2289,-109.69 L 34.316,-109.28 L 34.2289,-108.87
 L 33.9825,-108.531 L 33.6196,-108.322 L 33.2027,-108.278 z
M 59.5421,-108.407 L 59.2306,-108.688 L 59.0601,-109.071 L 59.0601,-109.49 L 59.2306,-109.873 L 59.5421,-110.153
 L 59.9407,-110.283 L 60.3576,-110.239 L 60.7206,-110.029 L 60.9669,-109.69 L 61.0541,-109.28 L 60.9669,-108.87
 L 60.7205,-108.531 L 60.3576,-108.322 L 59.9407,-108.278 z
M 35.2977,-107.137 L 34.9863,-107.417 L 34.8158,-107.8 L 34.8158,-108.219 L 34.9863,-108.602 L 35.2977,-108.883
 L 35.6964,-109.012 L 36.1132,-108.968 L 36.4762,-108.759 L 36.7226,-108.42 L 36.8097,-108.01 L 36.7226,-107.6
 L 36.4762,-107.261 L 36.1132,-107.051 L 35.6964,-107.007 z
M 57.0484,-107.137 L 56.7369,-107.417 L 56.5664,-107.8 L 56.5664,-108.219 L 56.7369,-108.602 L 57.0484,-108.883
 L 57.4471,-109.012 L 57.8639,-108.968 L 58.2269,-108.759 L 58.4733,-108.42 L 58.5604,-108.01 L 58.4733,-107.6
 L 58.2269,-107.261 L 57.8639,-107.051 L 57.4471,-107.007 z
M 37.9106,-106.134 L 37.5991,-106.414 L 37.4286,-106.797 L 37.4286,-107.216 L 37.5991,-107.599 L 37.9106,-107.88
 L 38.3092,-108.009 L 38.7261,-107.965 L 39.089,-107.756 L 39.3354,-107.417 L 39.4226,-107.007 L 39.3354,-106.597
 L 39.089,-106.258 L 38.7261,-106.048 L 38.3092,-106.004 z
M 54.4355,-106.134 L 54.1241,-106.414 L 53.9536,-106.797 L 53.9536,-107.216 L 54.1241,-107.599 L 54.4355,-107.88
 L 54.8342,-108.009 L 55.2511,-107.965 L 55.614,-107.756 L 55.8604,-107.417 L 55.9476,-107.007 L 55.8604,-106.597
 L 55.614,-106.258 L 55.2511,-106.048 L 54.8342,-106.004 z
M 40.6139,-105.409 L 40.3024,-105.69 L 40.132,-106.073 L 40.132,-106.492 L 40.3024,-106.875 L 40.6139,-107.155
 L 41.0126,-107.285 L 41.4294,-107.241 L 41.7924,-107.031 L 42.0388,-106.692 L 42.1259,-106.282 L 42.0388,-105.872
 L 41.7924,-105.533 L 41.4294,-105.324 L 41.0126,-105.28 z
M 51.7322,-105.409 L 51.4207,-105.69 L 51.2502,-106.073 L 51.2502,-106.492 L 51.4207,-106.875 L 51.7322,-107.155
 L 52.1308,-107.285 L 52.5477,-107.241 L 52.9107,-107.031 L 53.1571,-106.692 L 53.2442,-106.282 L 53.1571,-105.872
 L 52.9107,-105.533 L 52.5477,-105.324 L 52.1308,-105.28 z
M 43.3782,-104.972 L 43.0667,-105.252 L 42.8962,-105.635 L 42.8962,-106.054 L 43.0667,-106.437 L 43.3782,-106.717
 L 43.7768,-106.847 L 44.1937,-106.803 L 44.5566,-106.594 L 44.803,-106.254 L 44.8902,-105.844 L 44.803,-105.435
 L 44.5566,-105.095 L 44.1937,-104.886 L 43.7768,-104.842 z
M 48.9679,-104.972 L 48.6564,-105.252 L 48.486,-105.635 L 48.486,-106.054 L 48.6564,-106.437 L 48.9679,-106.717
 L 49.3666,-106.847 L 49.7834,-106.803 L 50.1464,-106.594 L 50.3928,-106.254 L 50.4799,-105.844 L 50.3928,-105.435
 L 50.1464,-105.095 L 49.7834,-104.886 L 49.3666,-104.842 z
M 46.1731,-104.825 L 45.8616,-105.106 L 45.6911,-105.488 L 45.6911,-105.908 L 45.8616,-106.29 L 46.1731,-106.571
 L 46.5717,-106.701 L 46.9885,-106.657 L 47.3515,-106.447 L 47.5979,-106.108 L 47.685,-105.698 L 47.5979,-105.288
 L 47.3515,-104.949 L 46.9885,-104.739 L 46.5717,-104.696 z
" stroke="black" fill="lightgray" stroke-width="0.5"/>
</svg>
