<?xml version="1.0" standalone="no"?>
<!DOCTYPE svg PUBLIC "-//W3C//DTD SVG 1.1//EN" "http://www.w3.org/Graphics/SVG/1.1/DTD/svg11.dtd">
<svg width="9mm" height="86mm" viewBox="99 -169 9 86" xmlns="http://www.w3.org/2000/svg" version="1.1">
<title>OpenSCAD Model</title>
<path d="
M 100.615,-166.605 L 100.696,-166.618 L 100.776,-166.64 L 100.852,-166.669 L 100.926,-166.706 L 100.994,-166.751
 L 101.058,-166.803 L 101.116,-166.861 L 101.168,-166.925 L 101.213,-166.994 L 101.25,-167.067 L 101.28,-167.144
 L 101.301,-167.223 L 101.314,-167.304 L 101.318,-167.386 L 101.314,-167.468 L 101.301,-167.549 L 101.28,-167.628
 L 101.25,-167.705 L 101.213,-167.778 L 101.168,-167.847 L 101.116,-167.911 L 101.058,-167.969 L 100.994,-168.021
 L 100.926,-168.066 L 100.852,-168.103 L 100.776,-168.133 L 100.696,-168.154 L 100.615,-168.167 L 100.533,-168.171
 L 100.451,-168.167 L 100.37,-168.154 L 100.291,-168.133 L 100.214,-168.103 L 100.141,-168.066 L 100.072,-168.021
 L 100.008,-167.969 L 99.9498,-167.911 L 99.8981,-167.847 L 99.8534,-167.778 L 99.8161,-167.705 L 99.7866,-167.628
 L 99.7654,-167.549 L 99.7525,-167.468 L 99.7482,-167.386 L 99.7525,-167.304 L 99.7654,-167.223 L 99.7866,-167.144
 L 99.8161,-167.067 L 99.8534,-166.994 L 99.8981,-166.925 L 99.9498,-166.861 L 100.008,-166.803 L 100.072,-166.751
 L 100.141,-166.706 L 100.214,-166.669 L 100.291,-166.64 L 100.37,-166.618 L 100.451,-166.605 L 100.533,-166.601
 z
M 101.207,-93.3861 L 99.7481,-94.1154 L 99.7481,-92.6567 z
M 107.893,-84.2611 L 106.773,-85.1939 L 106.773,-84.7336 L 103.623,-84.7336 L 103.623,-83.7886 L 106.773,-83.7886
 L 106.773,-83.3282 z
" stroke="black" fill="lightgray" stroke-width="0.5"/>
</svg>
