<?xml version="1.0" standalone="no"?>
<!DOCTYPE svg PUBLIC "-//W3C//DTD SVG 1.1//EN" "http://www.w3.org/Graphics/SVG/1.1/DTD/svg11.dtd">
<svg width="113mm" height="33mm" viewBox="-1 -82 113 33" xmlns="http://www.w3.org/2000/svg" version="1.1">
<title>OpenSCAD Model</title>
<path d="
M 111.123,-81.046 L 109.643,-81.046 L 109.643,-77.046 L 106.423,-77.046 L 106.423,-81.046 L 4.61,-81.046
 L 4.61,-77.046 L 1.38998,-77.046 L 1.38998,-81.046 L -0.0899963,-81.046 L -0.0899963,-49.728 L 111.123,-49.728
 z
M 103.573,-69.827 L 103.573,-72.247 L 106.493,-72.247 L 106.493,-69.827 z
M 4.54001,-69.827 L 4.54001,-72.247 L 7.45999,-72.247 L 7.45999,-69.827 z
M 92.7326,-52.1992 L 92.0658,-52.7996 L 91.7008,-53.6193 L 91.7008,-68.5167 L 92.0658,-69.3364 L 92.7326,-69.9369
 L 93.5861,-70.2142 L 94.4785,-70.1204 L 95.2556,-69.6717 L 95.7831,-68.9457 L 95.9716,-68.0586 L 95.9716,-54.0774
 L 95.7831,-53.1903 L 95.2556,-52.4643 L 94.4785,-52.0157 L 93.5861,-51.9218 z
M 104.807,-63.2393 L 104.366,-63.3332 L 103.953,-63.5168 L 103.588,-63.7822 L 103.286,-64.1177 L 103.06,-64.5087
 L 102.921,-64.9381 L 102.874,-65.387 L 102.921,-65.836 L 103.06,-66.2654 L 103.286,-66.6564 L 103.588,-66.9919
 L 103.953,-67.2572 L 104.366,-67.4409 L 104.807,-67.5347 L 105.259,-67.5347 L 105.7,-67.4409 L 106.113,-67.2572
 L 106.478,-66.9919 L 106.78,-66.6564 L 107.006,-66.2654 L 107.145,-65.836 L 107.193,-65.387 L 107.145,-64.9381
 L 107.006,-64.5087 L 106.78,-64.1177 L 106.478,-63.7822 L 106.113,-63.5168 L 105.7,-63.3332 L 105.259,-63.2393
 z
M 5.77426,-63.2393 L 5.33269,-63.3332 L 4.92029,-63.5168 L 4.55501,-63.7822 L 4.25293,-64.1177 L 4.02722,-64.5087
 L 3.8877,-64.9381 L 3.8405,-65.387 L 3.8877,-65.836 L 4.02722,-66.2654 L 4.25293,-66.6564 L 4.55501,-66.9919
 L 4.92029,-67.2572 L 5.33269,-67.4409 L 5.77426,-67.5347 L 6.22574,-67.5347 L 6.66731,-67.4409 L 7.07971,-67.2572
 L 7.44499,-66.9919 L 7.74707,-66.6564 L 7.97278,-66.2654 L 8.1123,-65.836 L 8.1595,-65.387 L 8.1123,-64.9381
 L 7.97278,-64.5087 L 7.74707,-64.1177 L 7.44499,-63.7822 L 7.07971,-63.5168 L 6.66731,-63.3332 L 6.22574,-63.2393
 z
M 103.573,-56.027 L 103.573,-60.947 L 106.493,-60.947 L 106.493,-56.027 z
M 4.54001,-56.027 L 4.54001,-60.947 L 7.45999,-60.947 L 7.45999,-56.027 z
M 47.5798,-52.0198 L 47.1586,-52.1093 L 46.7654,-52.2844 L 46.417,-52.5375 L 46.1289,-52.8575 L 45.9136,-53.2303
 L 45.7806,-53.6398 L 45.7356,-54.068 L 45.7806,-54.4962 L 45.9136,-54.9057 L 46.1289,-55.2786 L 46.417,-55.5985
 L 46.7654,-55.8516 L 47.1586,-56.0267 L 47.5798,-56.1162 L 48.0104,-56.1162 L 48.4315,-56.0267 L 48.8248,-55.8516
 L 49.1731,-55.5985 L 49.4612,-55.2786 L 49.6765,-54.9057 L 49.8096,-54.4962 L 49.8546,-54.068 L 49.8096,-53.6398
 L 49.6765,-53.2303 L 49.4612,-52.8575 L 49.1731,-52.5375 L 48.8248,-52.2844 L 48.4315,-52.1093 L 48.0104,-52.0198
 z
" stroke="black" fill="lightgray" stroke-width="0.5"/>
</svg>
