<?xml version="1.0" standalone="no"?>
<!DOCTYPE svg PUBLIC "-//W3C//DTD SVG 1.1//EN" "http://www.w3.org/Graphics/SVG/1.1/DTD/svg11.dtd">
<svg width="35mm" height="86mm" viewBox="111 -85 35 86" xmlns="http://www.w3.org/2000/svg" version="1.1">
<title>OpenSCAD Model</title>
<path d="
M 117.303,-2.31 L 124.622,-2.31 L 124.622,-5.48999 L 123.272,-5.48999 L 123.272,-8.70999 L 124.622,-8.70999
 L 124.622,-12.31 L 128.942,-12.31 L 128.942,-8.70999 L 130.292,-8.70999 L 130.292,-5.48999 L 128.942,-5.48999
 L 128.942,-2.31 L 131.092,-2.31 L 131.092,0.0899963 L 133.772,0.0899963 L 133.772,-2.31 L 142.441,-2.31
 L 142.441,-6.41 L 145.441,-6.41 L 145.441,-31.89 L 142.441,-31.89 L 142.441,-42.29 L 139.261,-42.29
 L 139.261,-40.94 L 136.041,-40.94 L 136.041,-42.29 L 132.441,-42.29 L 132.441,-46.61 L 136.041,-46.61
 L 136.041,-47.96 L 139.261,-47.96 L 139.261,-46.61 L 142.441,-46.61 L 142.441,-57.01 L 145.441,-57.01
 L 145.441,-82.49 L 133.772,-82.49 L 133.772,-84.89 L 131.092,-84.89 L 131.092,-82.49 L 128.942,-82.49
 L 128.942,-79.31 L 130.292,-79.31 L 130.292,-76.09 L 128.942,-76.09 L 128.942,-72.49 L 124.622,-72.49
 L 124.622,-76.09 L 123.272,-76.09 L 123.272,-79.31 L 124.622,-79.31 L 124.622,-82.49 L 122.472,-82.49
 L 122.472,-84.89 L 117.292,-84.89 L 117.292,-82.49 L 111.123,-82.49 L 111.123,-2.31 L 112.123,-2.31
 L 112.123,0.0899963 L 117.303,0.0899963 z
M 116.664,-40.2877 L 116.235,-40.4272 L 115.844,-40.6529 L 115.508,-40.955 L 115.243,-41.3203 L 115.059,-41.7327
 L 114.965,-42.1743 L 114.965,-42.6257 L 115.059,-43.0673 L 115.243,-43.4797 L 115.508,-43.845 L 115.844,-44.1471
 L 116.235,-44.3728 L 116.664,-44.5123 L 117.113,-44.5595 L 117.562,-44.5123 L 117.991,-44.3728 L 118.382,-44.1471
 L 118.718,-43.845 L 118.983,-43.4797 L 119.167,-43.0673 L 119.261,-42.6257 L 119.261,-42.1743 L 119.167,-41.7327
 L 118.983,-41.3203 L 118.718,-40.955 L 118.382,-40.6529 L 117.991,-40.4272 L 117.562,-40.2877 L 117.113,-40.2405
 z
" stroke="black" fill="lightgray" stroke-width="0.5"/>
</svg>
