<?xml version="1.0" standalone="no"?>
<!DOCTYPE svg PUBLIC "-//W3C//DTD SVG 1.1//EN" "http://www.w3.org/Graphics/SVG/1.1/DTD/svg11.dtd">
<svg width="3mm" height="2mm" viewBox="9 -79 3 2" xmlns="http://www.w3.org/2000/svg" version="1.1">
<title>OpenSCAD Model</title>
<path d="
M 10.582,-77.1755 L 10.6633,-77.1883 L 10.7426,-77.2096 L 10.8192,-77.239 L 10.8925,-77.2764 L 10.9613,-77.321
 L 11.0251,-77.3728 L 11.0833,-77.4309 L 11.135,-77.4947 L 11.1797,-77.5636 L 11.217,-77.6367 L 11.2465,-77.7137
 L 11.2677,-77.7927 L 11.2806,-77.8741 L 11.2849,-77.9561 L 11.2806,-78.038 L 11.2677,-78.1194 L 11.2465,-78.1985
 L 11.217,-78.2754 L 11.1797,-78.3485 L 11.135,-78.4174 L 11.0833,-78.4812 L 11.0251,-78.5394 L 10.9613,-78.5911
 L 10.8925,-78.6357 L 10.8192,-78.6731 L 10.7426,-78.7025 L 10.6633,-78.7238 L 10.582,-78.7366 L 10.5,-78.7409
 L 10.418,-78.7366 L 10.3367,-78.7238 L 10.2574,-78.7025 L 10.1808,-78.6731 L 10.1076,-78.6358 L 10.0387,-78.591
 L 9.97484,-78.5394 L 9.9167,-78.4812 L 9.86499,-78.4174 L 9.82025,-78.3485 L 9.78302,-78.2754 L 9.75349,-78.1985
 L 9.7323,-78.1194 L 9.71942,-78.038 L 9.71512,-77.9561 L 9.71942,-77.8741 L 9.7323,-77.7927 L 9.75349,-77.7137
 L 9.78302,-77.6367 L 9.82025,-77.5636 L 9.86499,-77.4947 L 9.9167,-77.4309 L 9.97484,-77.3728 L 10.0387,-77.3211
 L 10.1076,-77.2763 L 10.1808,-77.239 L 10.2574,-77.2096 L 10.3367,-77.1883 L 10.418,-77.1755 L 10.5,-77.1712
 z
" stroke="black" fill="lightgray" stroke-width="0.5"/>
</svg>
