<?xml version="1.0" standalone="no"?>
<!DOCTYPE svg PUBLIC "-//W3C//DTD SVG 1.1//EN" "http://www.w3.org/Graphics/SVG/1.1/DTD/svg11.dtd">
<svg width="113mm" height="103mm" viewBox="-1 -184 113 103" xmlns="http://www.w3.org/2000/svg" version="1.1">
<title>OpenSCAD Model</title>
<path d="
M 111.123,-183.826 L -0.0899963,-183.826 L -0.0899963,-81.0461 L 111.123,-81.0461 z
M 103.573,-145.126 L 103.573,-170.346 L 106.493,-170.346 L 106.493,-145.126 z
M 4.54001,-145.126 L 4.54001,-170.346 L 7.45999,-170.346 L 7.45999,-145.126 z
M 15.649,-94.576 L 15.649,-170.296 L 85.548,-170.296 L 85.548,-94.576 z
M 5.55106,-130.324 L 5.12163,-130.463 L 4.73068,-130.689 L 4.39519,-130.991 L 4.12981,-131.356 L 3.9462,-131.769
 L 3.85233,-132.21 L 3.85233,-132.662 L 3.9462,-133.103 L 4.12981,-133.516 L 4.39519,-133.881 L 4.73068,-134.183
 L 5.12163,-134.409 L 5.55106,-134.548 L 6,-134.596 L 6.44894,-134.548 L 6.87837,-134.409 L 7.26932,-134.183
 L 7.60481,-133.881 L 7.87019,-133.516 L 8.0538,-133.103 L 8.14767,-132.662 L 8.14767,-132.21 L 8.0538,-131.769
 L 7.87019,-131.356 L 7.60481,-130.991 L 7.26932,-130.689 L 6.87837,-130.463 L 6.44894,-130.324 L 6,-130.277
 z
M 104.584,-130.324 L 104.155,-130.463 L 103.764,-130.689 L 103.428,-130.991 L 103.163,-131.356 L 102.979,-131.769
 L 102.885,-132.21 L 102.885,-132.662 L 102.979,-133.103 L 103.163,-133.516 L 103.428,-133.881 L 103.764,-134.183
 L 104.155,-134.409 L 104.584,-134.548 L 105.033,-134.596 L 105.482,-134.548 L 105.911,-134.409 L 106.302,-134.183
 L 106.638,-133.881 L 106.903,-133.516 L 107.087,-133.103 L 107.181,-132.662 L 107.181,-132.21 L 107.087,-131.769
 L 106.903,-131.356 L 106.638,-130.991 L 106.302,-130.689 L 105.911,-130.463 L 105.482,-130.324 L 105.033,-130.277
 z
M 103.573,-94.526 L 103.573,-119.746 L 106.493,-119.746 L 106.493,-94.526 z
M 4.54001,-94.526 L 4.54001,-119.746 L 7.45999,-119.746 L 7.45999,-94.526 z
" stroke="black" fill="lightgray" stroke-width="0.5"/>
</svg>
