<?xml version="1.0" standalone="no"?>
<!DOCTYPE svg PUBLIC "-//W3C//DTD SVG 1.1//EN" "http://www.w3.org/Graphics/SVG/1.1/DTD/svg11.dtd">
<svg width="59mm" height="59mm" viewBox="77 -162 59 59" xmlns="http://www.w3.org/2000/svg" version="1.1">
<title>OpenSCAD Model</title>
<path d="
M 109.587,-103.567 L 112.588,-104.042 L 115.523,-104.829 L 118.36,-105.918 L 121.067,-107.297 L 123.615,-108.952
 L 125.977,-110.864 L 128.125,-113.012 L 130.037,-115.374 L 131.692,-117.922 L 133.072,-120.629 L 134.161,-123.466
 L 134.947,-126.401 L 135.422,-129.402 L 135.581,-132.436 L 135.422,-135.47 L 134.947,-138.471 L 134.161,-141.406
 L 133.072,-144.243 L 131.692,-146.95 L 130.037,-149.498 L 128.125,-151.86 L 125.977,-154.008 L 123.615,-155.92
 L 121.067,-157.575 L 118.36,-158.955 L 115.523,-160.043 L 112.588,-160.83 L 109.587,-161.305 L 106.553,-161.464
 L 103.519,-161.305 L 100.518,-160.83 L 97.5829,-160.043 L 94.7463,-158.955 L 92.0391,-157.575 L 89.4908,-155.92
 L 87.1295,-154.008 L 84.981,-151.86 L 83.0689,-149.498 L 81.414,-146.95 L 80.0346,-144.243 L 78.9457,-141.406
 L 78.1593,-138.471 L 77.684,-135.47 L 77.525,-132.436 L 77.684,-129.402 L 78.1593,-126.401 L 78.9457,-123.466
 L 80.0346,-120.629 L 81.414,-117.922 L 83.0689,-115.374 L 84.981,-113.012 L 87.1295,-110.864 L 89.4908,-108.952
 L 92.0391,-107.297 L 94.7463,-105.918 L 97.5829,-104.829 L 100.518,-104.042 L 103.519,-103.567 L 106.553,-103.408
 z
M 106.049,-158.301 L 105.738,-158.582 L 105.567,-158.965 L 105.567,-159.384 L 105.738,-159.767 L 106.049,-160.047
 L 106.448,-160.177 L 106.865,-160.133 L 107.228,-159.923 L 107.474,-159.584 L 107.561,-159.174 L 107.474,-158.764
 L 107.228,-158.425 L 106.865,-158.215 L 106.448,-158.172 z
M 103.254,-158.155 L 102.943,-158.435 L 102.772,-158.818 L 102.772,-159.237 L 102.943,-159.62 L 103.254,-159.901
 L 103.653,-160.03 L 104.07,-159.986 L 104.433,-159.777 L 104.679,-159.438 L 104.766,-159.028 L 104.679,-158.618
 L 104.433,-158.279 L 104.07,-158.069 L 103.653,-158.025 z
M 108.844,-158.155 L 108.533,-158.435 L 108.362,-158.818 L 108.362,-159.237 L 108.533,-159.62 L 108.844,-159.901
 L 109.243,-160.03 L 109.66,-159.986 L 110.022,-159.777 L 110.269,-159.438 L 110.356,-159.028 L 110.269,-158.618
 L 110.022,-158.279 L 109.66,-158.069 L 109.243,-158.025 z
M 100.49,-157.717 L 100.178,-157.997 L 100.008,-158.38 L 100.008,-158.799 L 100.178,-159.182 L 100.49,-159.463
 L 100.889,-159.592 L 101.305,-159.548 L 101.668,-159.339 L 101.915,-159 L 102.002,-158.59 L 101.915,-158.18
 L 101.668,-157.841 L 101.305,-157.631 L 100.889,-157.587 z
M 111.608,-157.717 L 111.297,-157.997 L 111.126,-158.38 L 111.126,-158.799 L 111.297,-159.182 L 111.608,-159.463
 L 112.007,-159.592 L 112.424,-159.548 L 112.787,-159.339 L 113.033,-159 L 113.12,-158.59 L 113.033,-158.18
 L 112.787,-157.841 L 112.424,-157.631 L 112.007,-157.587 z
M 97.7866,-156.992 L 97.4751,-157.273 L 97.3047,-157.656 L 97.3047,-158.075 L 97.4751,-158.458 L 97.7866,-158.738
 L 98.1853,-158.868 L 98.6021,-158.824 L 98.9651,-158.615 L 99.2115,-158.275 L 99.2986,-157.865 L 99.2115,-157.455
 L 98.9651,-157.116 L 98.6021,-156.907 L 98.1853,-156.863 z
M 114.312,-156.992 L 114,-157.273 L 113.83,-157.656 L 113.83,-158.075 L 114,-158.458 L 114.312,-158.738
 L 114.71,-158.868 L 115.127,-158.824 L 115.49,-158.615 L 115.736,-158.275 L 115.824,-157.865 L 115.736,-157.455
 L 115.49,-157.116 L 115.127,-156.907 L 114.71,-156.863 z
M 95.1738,-155.99 L 94.8623,-156.27 L 94.6918,-156.653 L 94.6918,-157.072 L 94.8623,-157.455 L 95.1738,-157.735
 L 95.5725,-157.865 L 95.9893,-157.821 L 96.3523,-157.612 L 96.5987,-157.272 L 96.6858,-156.862 L 96.5987,-156.452
 L 96.3523,-156.113 L 95.9893,-155.904 L 95.5725,-155.86 z
M 116.924,-155.99 L 116.613,-156.27 L 116.442,-156.653 L 116.442,-157.072 L 116.613,-157.455 L 116.924,-157.735
 L 117.323,-157.865 L 117.74,-157.821 L 118.103,-157.612 L 118.349,-157.272 L 118.436,-156.862 L 118.349,-156.452
 L 118.103,-156.113 L 117.74,-155.904 L 117.323,-155.86 z
M 92.6801,-154.719 L 92.3686,-154.999 L 92.1982,-155.382 L 92.1982,-155.801 L 92.3686,-156.184 L 92.6801,-156.465
 L 93.0788,-156.594 L 93.4956,-156.551 L 93.8586,-156.341 L 94.105,-156.002 L 94.1921,-155.592 L 94.105,-155.182
 L 93.8586,-154.843 L 93.4956,-154.633 L 93.0788,-154.589 z
M 119.418,-154.719 L 119.107,-154.999 L 118.936,-155.382 L 118.936,-155.801 L 119.107,-156.184 L 119.418,-156.465
 L 119.817,-156.594 L 120.234,-156.551 L 120.597,-156.341 L 120.843,-156.002 L 120.93,-155.592 L 120.843,-155.182
 L 120.597,-154.843 L 120.234,-154.633 L 119.817,-154.589 z
M 90.3329,-153.195 L 90.0214,-153.475 L 89.851,-153.858 L 89.851,-154.277 L 90.0214,-154.66 L 90.3329,-154.94
 L 90.7316,-155.07 L 91.1484,-155.026 L 91.5114,-154.817 L 91.7578,-154.478 L 91.8449,-154.068 L 91.7578,-153.658
 L 91.5114,-153.318 L 91.1484,-153.109 L 90.7316,-153.065 z
M 121.765,-153.195 L 121.454,-153.475 L 121.283,-153.858 L 121.283,-154.277 L 121.454,-154.66 L 121.765,-154.94
 L 122.164,-155.07 L 122.581,-155.026 L 122.944,-154.817 L 123.19,-154.478 L 123.277,-154.068 L 123.19,-153.658
 L 122.944,-153.318 L 122.581,-153.109 L 122.164,-153.065 z
M 88.1579,-151.433 L 87.8464,-151.714 L 87.6759,-152.097 L 87.6759,-152.516 L 87.8464,-152.899 L 88.1579,-153.179
 L 88.5565,-153.309 L 88.9734,-153.265 L 89.3364,-153.055 L 89.5828,-152.716 L 89.6699,-152.306 L 89.5828,-151.896
 L 89.3364,-151.557 L 88.9734,-151.348 L 88.5565,-151.304 z
M 123.94,-151.433 L 123.629,-151.714 L 123.458,-152.097 L 123.458,-152.516 L 123.629,-152.899 L 123.94,-153.179
 L 124.339,-153.309 L 124.756,-153.265 L 125.119,-153.055 L 125.365,-152.716 L 125.452,-152.306 L 125.365,-151.896
 L 125.119,-151.557 L 124.756,-151.348 L 124.339,-151.304 z
M 86.1789,-149.454 L 85.8674,-149.735 L 85.6969,-150.118 L 85.6969,-150.537 L 85.8674,-150.92 L 86.1789,-151.2
 L 86.5776,-151.33 L 86.9944,-151.286 L 87.3574,-151.076 L 87.6038,-150.737 L 87.6909,-150.327 L 87.6038,-149.917
 L 87.3574,-149.578 L 86.9944,-149.369 L 86.5776,-149.325 z
M 125.919,-149.454 L 125.608,-149.735 L 125.437,-150.118 L 125.437,-150.537 L 125.608,-150.92 L 125.919,-151.2
 L 126.318,-151.33 L 126.735,-151.286 L 127.098,-151.076 L 127.344,-150.737 L 127.431,-150.327 L 127.344,-149.917
 L 127.098,-149.578 L 126.735,-149.369 L 126.318,-149.325 z
M 84.4176,-147.279 L 84.1061,-147.56 L 83.9357,-147.943 L 83.9357,-148.362 L 84.1061,-148.745 L 84.4176,-149.025
 L 84.8163,-149.155 L 85.2331,-149.111 L 85.5961,-148.901 L 85.8425,-148.562 L 85.9296,-148.152 L 85.8425,-147.742
 L 85.5961,-147.403 L 85.2331,-147.194 L 84.8163,-147.15 z
M 127.681,-147.279 L 127.369,-147.56 L 127.199,-147.943 L 127.199,-148.362 L 127.369,-148.745 L 127.681,-149.025
 L 128.079,-149.155 L 128.496,-149.111 L 128.859,-148.901 L 129.105,-148.562 L 129.193,-148.152 L 129.105,-147.742
 L 128.859,-147.403 L 128.496,-147.194 L 128.079,-147.15 z
M 82.8933,-144.932 L 82.5818,-145.213 L 82.4114,-145.595 L 82.4114,-146.015 L 82.5818,-146.398 L 82.8933,-146.678
 L 83.292,-146.808 L 83.7088,-146.764 L 84.0718,-146.554 L 84.3182,-146.215 L 84.4053,-145.805 L 84.3182,-145.395
 L 84.0718,-145.056 L 83.7088,-144.846 L 83.292,-144.803 z
M 129.205,-144.932 L 128.893,-145.213 L 128.723,-145.595 L 128.723,-146.015 L 128.893,-146.398 L 129.205,-146.678
 L 129.604,-146.808 L 130.02,-146.764 L 130.383,-146.554 L 130.63,-146.215 L 130.717,-145.805 L 130.63,-145.395
 L 130.383,-145.056 L 130.02,-144.846 L 129.604,-144.803 z
M 81.6227,-142.438 L 81.3112,-142.719 L 81.1408,-143.102 L 81.1408,-143.521 L 81.3112,-143.904 L 81.6227,-144.184
 L 82.0214,-144.314 L 82.4382,-144.27 L 82.8012,-144.06 L 83.0476,-143.721 L 83.1347,-143.311 L 83.0476,-142.901
 L 82.8012,-142.562 L 82.4382,-142.353 L 82.0214,-142.309 z
M 130.476,-142.438 L 130.164,-142.719 L 129.994,-143.102 L 129.994,-143.521 L 130.164,-143.904 L 130.476,-144.184
 L 130.874,-144.314 L 131.291,-144.27 L 131.654,-144.06 L 131.9,-143.721 L 131.988,-143.311 L 131.9,-142.901
 L 131.654,-142.562 L 131.291,-142.353 L 130.874,-142.309 z
M 103.643,-139.026 L 103.643,-141.846 L 109.463,-141.846 L 109.463,-139.026 z
M 80.6198,-139.826 L 80.3083,-140.106 L 80.1378,-140.489 L 80.1378,-140.908 L 80.3083,-141.291 L 80.6198,-141.571
 L 81.0184,-141.701 L 81.4353,-141.657 L 81.7982,-141.448 L 82.0446,-141.109 L 82.1317,-140.699 L 82.0446,-140.289
 L 81.7982,-139.949 L 81.4353,-139.74 L 81.0184,-139.696 z
M 131.478,-139.826 L 131.167,-140.106 L 130.997,-140.489 L 130.997,-140.908 L 131.167,-141.291 L 131.478,-141.571
 L 131.877,-141.701 L 132.294,-141.657 L 132.657,-141.448 L 132.903,-141.109 L 132.99,-140.699 L 132.903,-140.289
 L 132.657,-139.949 L 132.294,-139.74 L 131.877,-139.696 z
M 79.8954,-137.122 L 79.5839,-137.403 L 79.4134,-137.786 L 79.4134,-138.205 L 79.5839,-138.588 L 79.8954,-138.868
 L 80.2941,-138.998 L 80.7109,-138.954 L 81.0739,-138.744 L 81.3203,-138.405 L 81.4074,-137.995 L 81.3203,-137.585
 L 81.0739,-137.246 L 80.7109,-137.037 L 80.2941,-136.993 z
M 132.203,-137.122 L 131.891,-137.403 L 131.721,-137.786 L 131.721,-138.205 L 131.891,-138.588 L 132.203,-138.868
 L 132.602,-138.998 L 133.018,-138.954 L 133.381,-138.744 L 133.628,-138.405 L 133.715,-137.995 L 133.628,-137.585
 L 133.381,-137.246 L 133.018,-137.037 L 132.602,-136.993 z
M 79.4576,-134.358 L 79.1461,-134.638 L 78.9756,-135.021 L 78.9756,-135.44 L 79.1461,-135.823 L 79.4576,-136.104
 L 79.8562,-136.233 L 80.2731,-136.19 L 80.6361,-135.98 L 80.8824,-135.641 L 80.9696,-135.231 L 80.8824,-134.821
 L 80.636,-134.482 L 80.2731,-134.272 L 79.8562,-134.228 z
M 132.641,-134.358 L 132.329,-134.638 L 132.159,-135.021 L 132.159,-135.44 L 132.329,-135.823 L 132.641,-136.104
 L 133.039,-136.233 L 133.456,-136.19 L 133.819,-135.98 L 134.066,-135.641 L 134.153,-135.231 L 134.066,-134.821
 L 133.819,-134.482 L 133.456,-134.272 L 133.039,-134.228 z
M 104.534,-128.939 L 102.516,-132.436 L 104.534,-135.933 L 108.572,-135.933 L 110.591,-132.436 L 108.572,-128.939
 z
M 113.143,-129.526 L 113.143,-135.346 L 115.963,-135.346 L 115.963,-129.526 z
M 97.1431,-129.526 L 97.1431,-135.346 L 99.9631,-135.346 L 99.9631,-129.526 z
M 79.3111,-131.563 L 78.9996,-131.844 L 78.8291,-132.226 L 78.8291,-132.646 L 78.9996,-133.029 L 79.3111,-133.309
 L 79.7098,-133.439 L 80.1266,-133.395 L 80.4896,-133.185 L 80.736,-132.846 L 80.8231,-132.436 L 80.736,-132.026
 L 80.4896,-131.687 L 80.1266,-131.477 L 79.7098,-131.434 z
M 132.787,-131.563 L 132.476,-131.844 L 132.305,-132.226 L 132.305,-132.646 L 132.476,-133.029 L 132.787,-133.309
 L 133.186,-133.439 L 133.603,-133.395 L 133.966,-133.185 L 134.212,-132.846 L 134.299,-132.436 L 134.212,-132.026
 L 133.966,-131.687 L 133.603,-131.477 L 133.186,-131.434 z
M 79.4576,-128.768 L 79.1461,-129.049 L 78.9756,-129.432 L 78.9756,-129.851 L 79.1461,-130.234 L 79.4576,-130.514
 L 79.8562,-130.644 L 80.2731,-130.6 L 80.636,-130.39 L 80.8824,-130.051 L 80.9696,-129.641 L 80.8824,-129.231
 L 80.6361,-128.892 L 80.2731,-128.683 L 79.8562,-128.639 z
M 132.641,-128.768 L 132.329,-129.049 L 132.159,-129.432 L 132.159,-129.851 L 132.329,-130.234 L 132.641,-130.514
 L 133.039,-130.644 L 133.456,-130.6 L 133.819,-130.39 L 134.066,-130.051 L 134.153,-129.641 L 134.066,-129.231
 L 133.819,-128.892 L 133.456,-128.683 L 133.039,-128.639 z
M 79.8954,-126.004 L 79.5839,-126.284 L 79.4134,-126.667 L 79.4134,-127.086 L 79.5839,-127.469 L 79.8954,-127.75
 L 80.2941,-127.879 L 80.7109,-127.836 L 81.0739,-127.626 L 81.3203,-127.287 L 81.4074,-126.877 L 81.3203,-126.467
 L 81.0739,-126.128 L 80.7109,-125.918 L 80.2941,-125.874 z
M 132.203,-126.004 L 131.891,-126.284 L 131.721,-126.667 L 131.721,-127.086 L 131.891,-127.469 L 132.203,-127.75
 L 132.602,-127.879 L 133.018,-127.836 L 133.381,-127.626 L 133.628,-127.287 L 133.715,-126.877 L 133.628,-126.467
 L 133.381,-126.128 L 133.018,-125.918 L 132.602,-125.874 z
M 103.643,-123.026 L 103.643,-125.846 L 109.463,-125.846 L 109.463,-123.026 z
M 80.6198,-123.301 L 80.3083,-123.581 L 80.1378,-123.964 L 80.1378,-124.383 L 80.3083,-124.766 L 80.6198,-125.046
 L 81.0184,-125.176 L 81.4353,-125.132 L 81.7982,-124.923 L 82.0446,-124.584 L 82.1317,-124.174 L 82.0446,-123.764
 L 81.7982,-123.424 L 81.4353,-123.215 L 81.0184,-123.171 z
M 131.478,-123.301 L 131.167,-123.581 L 130.997,-123.964 L 130.997,-124.383 L 131.167,-124.766 L 131.478,-125.046
 L 131.877,-125.176 L 132.294,-125.132 L 132.657,-124.923 L 132.903,-124.584 L 132.99,-124.174 L 132.903,-123.764
 L 132.657,-123.424 L 132.294,-123.215 L 131.877,-123.171 z
M 81.6227,-120.688 L 81.3112,-120.968 L 81.1408,-121.351 L 81.1408,-121.77 L 81.3112,-122.153 L 81.6227,-122.434
 L 82.0214,-122.563 L 82.4382,-122.519 L 82.8012,-122.31 L 83.0476,-121.971 L 83.1347,-121.561 L 83.0476,-121.151
 L 82.8012,-120.812 L 82.4382,-120.602 L 82.0214,-120.558 z
M 130.476,-120.688 L 130.164,-120.968 L 129.994,-121.351 L 129.994,-121.77 L 130.164,-122.153 L 130.476,-122.434
 L 130.874,-122.563 L 131.291,-122.519 L 131.654,-122.31 L 131.9,-121.971 L 131.988,-121.561 L 131.9,-121.151
 L 131.654,-120.812 L 131.291,-120.602 L 130.874,-120.558 z
M 82.8933,-118.194 L 82.5818,-118.475 L 82.4114,-118.857 L 82.4114,-119.277 L 82.5818,-119.66 L 82.8933,-119.94
 L 83.292,-120.07 L 83.7088,-120.026 L 84.0718,-119.816 L 84.3182,-119.477 L 84.4053,-119.067 L 84.3182,-118.657
 L 84.0718,-118.318 L 83.7088,-118.108 L 83.292,-118.065 z
M 129.205,-118.194 L 128.893,-118.475 L 128.723,-118.857 L 128.723,-119.277 L 128.893,-119.66 L 129.205,-119.94
 L 129.604,-120.07 L 130.02,-120.026 L 130.383,-119.816 L 130.63,-119.477 L 130.717,-119.067 L 130.63,-118.657
 L 130.383,-118.318 L 130.02,-118.108 L 129.604,-118.065 z
M 84.4176,-115.847 L 84.1061,-116.127 L 83.9357,-116.51 L 83.9357,-116.929 L 84.1061,-117.312 L 84.4176,-117.593
 L 84.8163,-117.722 L 85.2331,-117.678 L 85.5961,-117.469 L 85.8425,-117.13 L 85.9296,-116.72 L 85.8425,-116.31
 L 85.5961,-115.971 L 85.2331,-115.761 L 84.8163,-115.717 z
M 127.681,-115.847 L 127.369,-116.127 L 127.199,-116.51 L 127.199,-116.929 L 127.369,-117.312 L 127.681,-117.593
 L 128.079,-117.722 L 128.496,-117.678 L 128.859,-117.469 L 129.105,-117.13 L 129.193,-116.72 L 129.105,-116.31
 L 128.859,-115.971 L 128.496,-115.761 L 128.079,-115.717 z
M 86.1789,-113.672 L 85.8674,-113.952 L 85.6969,-114.335 L 85.6969,-114.754 L 85.8674,-115.137 L 86.1789,-115.418
 L 86.5776,-115.547 L 86.9944,-115.503 L 87.3574,-115.294 L 87.6038,-114.955 L 87.6909,-114.545 L 87.6038,-114.135
 L 87.3574,-113.796 L 86.9944,-113.586 L 86.5776,-113.542 z
M 125.919,-113.672 L 125.608,-113.952 L 125.437,-114.335 L 125.437,-114.754 L 125.608,-115.137 L 125.919,-115.418
 L 126.318,-115.547 L 126.735,-115.503 L 127.098,-115.294 L 127.344,-114.955 L 127.431,-114.545 L 127.344,-114.135
 L 127.098,-113.796 L 126.735,-113.586 L 126.318,-113.542 z
M 88.1579,-111.693 L 87.8464,-111.973 L 87.6759,-112.356 L 87.6759,-112.775 L 87.8464,-113.158 L 88.1579,-113.439
 L 88.5565,-113.568 L 88.9734,-113.524 L 89.3364,-113.315 L 89.5828,-112.976 L 89.6699,-112.566 L 89.5828,-112.156
 L 89.3364,-111.817 L 88.9734,-111.607 L 88.5565,-111.563 z
M 123.94,-111.693 L 123.629,-111.973 L 123.458,-112.356 L 123.458,-112.775 L 123.629,-113.158 L 123.94,-113.439
 L 124.339,-113.568 L 124.756,-113.524 L 125.119,-113.315 L 125.365,-112.976 L 125.452,-112.566 L 125.365,-112.156
 L 125.119,-111.817 L 124.756,-111.607 L 124.339,-111.563 z
M 90.3329,-109.932 L 90.0214,-110.212 L 89.851,-110.595 L 89.851,-111.014 L 90.0214,-111.397 L 90.3329,-111.677
 L 90.7316,-111.807 L 91.1484,-111.763 L 91.5114,-111.554 L 91.7578,-111.215 L 91.8449,-110.805 L 91.7578,-110.395
 L 91.5114,-110.055 L 91.1484,-109.846 L 90.7316,-109.802 z
M 121.765,-109.932 L 121.454,-110.212 L 121.283,-110.595 L 121.283,-111.014 L 121.454,-111.397 L 121.765,-111.677
 L 122.164,-111.807 L 122.581,-111.763 L 122.944,-111.554 L 123.19,-111.215 L 123.277,-110.805 L 123.19,-110.395
 L 122.944,-110.055 L 122.581,-109.846 L 122.164,-109.802 z
M 92.6801,-108.407 L 92.3686,-108.688 L 92.1982,-109.071 L 92.1982,-109.49 L 92.3686,-109.873 L 92.6801,-110.153
 L 93.0788,-110.283 L 93.4956,-110.239 L 93.8586,-110.029 L 94.105,-109.69 L 94.1921,-109.28 L 94.105,-108.87
 L 93.8586,-108.531 L 93.4956,-108.322 L 93.0788,-108.278 z
M 119.418,-108.407 L 119.107,-108.688 L 118.936,-109.071 L 118.936,-109.49 L 119.107,-109.873 L 119.418,-110.153
 L 119.817,-110.283 L 120.234,-110.239 L 120.597,-110.029 L 120.843,-109.69 L 120.93,-109.28 L 120.843,-108.87
 L 120.597,-108.531 L 120.234,-108.322 L 119.817,-108.278 z
M 95.1738,-107.137 L 94.8623,-107.417 L 94.6918,-107.8 L 94.6918,-108.219 L 94.8623,-108.602 L 95.1738,-108.883
 L 95.5725,-109.012 L 95.9893,-108.968 L 96.3523,-108.759 L 96.5987,-108.42 L 96.6858,-108.01 L 96.5987,-107.6
 L 96.3523,-107.261 L 95.9893,-107.051 L 95.5725,-107.007 z
M 116.924,-107.137 L 116.613,-107.417 L 116.442,-107.8 L 116.442,-108.219 L 116.613,-108.602 L 116.924,-108.883
 L 117.323,-109.012 L 117.74,-108.968 L 118.103,-108.759 L 118.349,-108.42 L 118.436,-108.01 L 118.349,-107.6
 L 118.103,-107.261 L 117.74,-107.051 L 117.323,-107.007 z
M 97.7866,-106.134 L 97.4751,-106.414 L 97.3047,-106.797 L 97.3047,-107.216 L 97.4751,-107.599 L 97.7866,-107.88
 L 98.1853,-108.009 L 98.6021,-107.965 L 98.9651,-107.756 L 99.2115,-107.417 L 99.2986,-107.007 L 99.2115,-106.597
 L 98.9651,-106.258 L 98.6021,-106.048 L 98.1853,-106.004 z
M 114.312,-106.134 L 114,-106.414 L 113.83,-106.797 L 113.83,-107.216 L 114,-107.599 L 114.312,-107.88
 L 114.71,-108.009 L 115.127,-107.965 L 115.49,-107.756 L 115.736,-107.417 L 115.824,-107.007 L 115.736,-106.597
 L 115.49,-106.258 L 115.127,-106.048 L 114.71,-106.004 z
M 100.49,-105.409 L 100.178,-105.69 L 100.008,-106.073 L 100.008,-106.492 L 100.178,-106.875 L 100.49,-107.155
 L 100.889,-107.285 L 101.305,-107.241 L 101.668,-107.031 L 101.915,-106.692 L 102.002,-106.282 L 101.915,-105.872
 L 101.668,-105.533 L 101.305,-105.324 L 100.889,-105.28 z
M 111.608,-105.409 L 111.297,-105.69 L 111.126,-106.073 L 111.126,-106.492 L 111.297,-106.875 L 111.608,-107.155
 L 112.007,-107.285 L 112.424,-107.241 L 112.787,-107.031 L 113.033,-106.692 L 113.12,-106.282 L 113.033,-105.872
 L 112.787,-105.533 L 112.424,-105.324 L 112.007,-105.28 z
M 103.254,-104.972 L 102.943,-105.252 L 102.772,-105.635 L 102.772,-106.054 L 102.943,-106.437 L 103.254,-106.717
 L 103.653,-106.847 L 104.07,-106.803 L 104.433,-106.594 L 104.679,-106.254 L 104.766,-105.844 L 104.679,-105.435
 L 104.433,-105.095 L 104.07,-104.886 L 103.653,-104.842 z
M 108.844,-104.972 L 108.533,-105.252 L 108.362,-105.635 L 108.362,-106.054 L 108.533,-106.437 L 108.844,-106.717
 L 109.243,-106.847 L 109.66,-106.803 L 110.022,-106.594 L 110.269,-106.254 L 110.356,-105.844 L 110.269,-105.435
 L 110.022,-105.095 L 109.66,-104.886 L 109.243,-104.842 z
M 106.049,-104.825 L 105.738,-105.106 L 105.567,-105.488 L 105.567,-105.908 L 105.738,-106.29 L 106.049,-106.571
 L 106.448,-106.701 L 106.865,-106.657 L 107.228,-106.447 L 107.474,-106.108 L 107.561,-105.698 L 107.474,-105.288
 L 107.228,-104.949 L 106.865,-104.739 L 106.448,-104.696 z
" stroke="black" fill="lightgray" stroke-width="0.5"/>
</svg>
