<?xml version="1.0" standalone="no"?>
<!DOCTYPE svg PUBLIC "-//W3C//DTD SVG 1.1//EN" "http://www.w3.org/Graphics/SVG/1.1/DTD/svg11.dtd">
<svg width="20mm" height="20mm" viewBox="64 -28 20 20" xmlns="http://www.w3.org/2000/svg" version="1.1">
<title>OpenSCAD Model</title>
<path d="
M 70.278,-11.39 L 78.198,-11.39 L 78.198,-8.34 L 83.828,-8.34 L 83.828,-13.97 L 80.778,-13.97
 L 80.778,-21.89 L 83.828,-21.89 L 83.828,-27.52 L 78.198,-27.52 L 78.198,-24.47 L 70.278,-24.47
 L 70.278,-27.52 L 64.648,-27.52 L 64.648,-21.89 L 67.698,-21.89 L 67.698,-13.97 L 64.648,-13.97
 L 64.648,-8.34 L 70.278,-8.34 z
M 74.0123,-15.7823 L 73.5707,-15.8762 L 73.1583,-16.0598 L 72.793,-16.3252 L 72.491,-16.6607 L 72.2652,-17.0516
 L 72.1257,-17.481 L 72.0785,-17.93 L 72.1257,-18.3789 L 72.2652,-18.8084 L 72.491,-19.1993 L 72.793,-19.5348
 L 73.1583,-19.8002 L 73.5707,-19.9838 L 74.0123,-20.0777 L 74.4638,-20.0777 L 74.9053,-19.9838 L 75.3177,-19.8002
 L 75.683,-19.5348 L 75.9851,-19.1993 L 76.2108,-18.8084 L 76.3503,-18.3789 L 76.3975,-17.93 L 76.3503,-17.481
 L 76.2108,-17.0516 L 75.9851,-16.6607 L 75.683,-16.3252 L 75.3177,-16.0598 L 74.9053,-15.8762 L 74.4638,-15.7823
 z
" stroke="black" fill="lightgray" stroke-width="0.5"/>
</svg>
idth="0.5"/>
</svg>
