<?xml version="1.0" standalone="no"?>
<!DOCTYPE svg PUBLIC "-//W3C//DTD SVG 1.1//EN" "http://www.w3.org/Graphics/SVG/1.1/DTD/svg11.dtd">
<svg width="113mm" height="51mm" viewBox="-1 -50 113 51" xmlns="http://www.w3.org/2000/svg" version="1.1">
<title>OpenSCAD Model</title>
<path d="
M 111.123,-49.728 L 109.643,-49.728 L 109.643,-45.728 L 106.423,-45.728 L 106.423,-49.728 L 4.61,-49.728
 L 4.61,-45.728 L 1.38998,-45.728 L 1.38998,-49.728 L -0.0899963,-49.728 L -0.0899963,-18.41 L 3.42142,-18.41
 L 3.94669,-18.3687 L 4.45549,-18.2465 L 4.93889,-18.0463 L 5.38507,-17.7728 L 5.78299,-17.433 L 6.12285,-17.0351
 L 6.39626,-16.5889 L 6.5965,-16.1055 L 6.71866,-15.5967 L 6.75972,-15.075 L 6.71866,-14.5533 L 6.5965,-14.0445
 L 6.39626,-13.5611 L 6.12285,-13.1149 L 5.78299,-12.717 L 5.38507,-12.3772 L 4.93889,-12.1037 L 4.45549,-11.9035
 L 3.94669,-11.7813 L 3.42142,-11.74 L 1.24646,-11.74 L 1.04033,-11.7238 L 0.835846,-11.6747 L 0.641541,-11.5942
 L 0.462204,-11.4843 L 0.302277,-11.3477 L 0.165695,-11.1878 L 0.0558014,-11.0085 L -0.0246735,-10.8142 L -0.0737762,-10.6097
 L -0.0899963,-10.4035 L -0.0899963,0.0899963 L 111.123,0.0899963 z
M 70.7891,-38.1377 L 70.3596,-38.2772 L 69.9687,-38.5029 L 69.6332,-38.805 L 69.3678,-39.1703 L 69.1842,-39.5827
 L 69.0903,-40.0242 L 69.0903,-40.4757 L 69.1842,-40.9173 L 69.3678,-41.3297 L 69.6332,-41.695 L 69.9687,-41.9971
 L 70.3596,-42.2228 L 70.7891,-42.3623 L 71.238,-42.4095 L 71.687,-42.3623 L 72.1164,-42.2228 L 72.5073,-41.9971
 L 72.8428,-41.695 L 73.1082,-41.3297 L 73.2918,-40.9173 L 73.3857,-40.4757 L 73.3857,-40.0242 L 73.2918,-39.5827
 L 73.1082,-39.1703 L 72.8428,-38.805 L 72.5073,-38.5029 L 72.1164,-38.2772 L 71.687,-38.1377 L 71.238,-38.0905
 z
M 103.573,-38.509 L 103.573,-40.929 L 106.493,-40.929 L 106.493,-38.509 z
M 4.54001,-38.509 L 4.54001,-40.929 L 7.45999,-40.929 L 7.45999,-38.509 z
M 61.7416,-8.34 L 60.97,-8.40074 L 60.2208,-8.58058 L 59.5091,-8.8754 L 58.8522,-9.27795 L 58.2663,-9.77832
 L 57.766,-10.3642 L 57.3634,-11.0211 L 57.0686,-11.7328 L 56.8888,-12.4819 L 56.828,-13.2536 L 56.828,-32.2464
 L 56.8888,-33.0181 L 57.0686,-33.7672 L 57.3634,-34.4789 L 57.766,-35.1358 L 58.2663,-35.7217 L 58.8522,-36.222
 L 59.5091,-36.6246 L 60.2208,-36.9194 L 60.97,-37.0993 L 61.7416,-37.16 L 86.7345,-37.16 L 87.5061,-37.0993
 L 88.2552,-36.9194 L 88.9669,-36.6246 L 89.6239,-36.222 L 90.2097,-35.7217 L 90.7101,-35.1358 L 91.1126,-34.4789
 L 91.4074,-33.7672 L 91.5873,-33.0181 L 91.648,-32.2464 L 91.648,-13.2536 L 91.5873,-12.4819 L 91.4074,-11.7328
 L 91.1126,-11.0211 L 90.7101,-10.3642 L 90.2097,-9.77832 L 89.6239,-9.27795 L 88.9669,-8.8754 L 88.2552,-8.58058
 L 87.5061,-8.40074 L 86.7345,-8.34 z
M 104.807,-31.9213 L 104.366,-32.0152 L 103.953,-32.1988 L 103.588,-32.4642 L 103.286,-32.7997 L 103.06,-33.1906
 L 102.921,-33.6201 L 102.874,-34.069 L 102.921,-34.518 L 103.06,-34.9474 L 103.286,-35.3383 L 103.588,-35.6738
 L 103.953,-35.9392 L 104.366,-36.1228 L 104.807,-36.2167 L 105.259,-36.2167 L 105.7,-36.1228 L 106.113,-35.9392
 L 106.478,-35.6738 L 106.78,-35.3383 L 107.006,-34.9474 L 107.145,-34.518 L 107.193,-34.069 L 107.145,-33.6201
 L 107.006,-33.1906 L 106.78,-32.7997 L 106.478,-32.4642 L 106.113,-32.1988 L 105.7,-32.0152 L 105.259,-31.9213
 z
M 5.77426,-31.9213 L 5.33269,-32.0152 L 4.92029,-32.1988 L 4.55501,-32.4642 L 4.25293,-32.7997 L 4.02722,-33.1906
 L 3.8877,-33.6201 L 3.8405,-34.069 L 3.8877,-34.518 L 4.02722,-34.9474 L 4.25293,-35.3383 L 4.55501,-35.6738
 L 4.92029,-35.9392 L 5.33269,-36.1228 L 5.77426,-36.2167 L 6.22574,-36.2167 L 6.66731,-36.1228 L 7.07971,-35.9392
 L 7.44499,-35.6738 L 7.74707,-35.3383 L 7.97278,-34.9474 L 8.1123,-34.518 L 8.1595,-34.069 L 8.1123,-33.6201
 L 7.97278,-33.1906 L 7.74707,-32.7997 L 7.44499,-32.4642 L 7.07971,-32.1988 L 6.66731,-32.0152 L 6.22574,-31.9213
 z
M 41.2462,-9.01768 L 40.8168,-9.15721 L 40.4258,-9.38292 L 40.0903,-9.685 L 39.8249,-10.0503 L 39.6413,-10.4627
 L 39.5475,-10.9043 L 39.5475,-29.8057 L 39.6413,-30.2473 L 39.8249,-30.6597 L 40.0903,-31.025 L 40.4258,-31.3271
 L 40.8168,-31.5528 L 41.2462,-31.6923 L 41.6951,-31.7395 L 42.1441,-31.6923 L 42.5735,-31.5528 L 42.9644,-31.3271
 L 43.2999,-31.025 L 43.5653,-30.6597 L 43.7489,-30.2473 L 43.8428,-29.8057 L 43.8428,-10.9043 L 43.7489,-10.4627
 L 43.5653,-10.0503 L 43.2999,-9.685 L 42.9644,-9.38292 L 42.5735,-9.15721 L 42.1441,-9.01768 L 41.6951,-8.97049
 z
M 32.9702,-12.2474 L 32.8076,-12.3197 L 32.6885,-12.452 L 32.632,-12.6259 L 32.632,-29.7269 L 32.6521,-29.9182
 L 32.7411,-30.0724 L 32.8851,-30.177 L 33.0591,-30.214 L 33.2332,-30.177 L 33.3772,-30.0724 L 33.4662,-29.9182
 L 33.4863,-29.7269 L 33.4863,-12.6259 L 33.4298,-12.452 L 33.3107,-12.3197 L 33.1481,-12.2474 z
M 103.573,-19.54 L 103.573,-24.46 L 106.493,-24.46 L 106.493,-19.54 z
M 4.54001,-19.54 L 4.54001,-24.46 L 7.45999,-24.46 L 7.45999,-19.54 z
M 26.2072,-5.09274 L 26.1235,-5.11053 L 26.0453,-5.14536 L 25.976,-5.19569 L 25.9187,-5.25932 L 25.8759,-5.33344
 L 25.8495,-5.41489 L 25.84,-5.50478 L 25.84,-7.49522 L 25.8495,-7.58511 L 25.8759,-7.66656 L 25.9187,-7.74068
 L 25.976,-7.80431 L 26.0453,-7.85464 L 26.1235,-7.88947 L 26.2072,-7.90726 L 27.2928,-7.90726 L 27.3765,-7.88947
 L 27.4547,-7.85464 L 27.524,-7.80431 L 27.5813,-7.74068 L 27.6241,-7.66656 L 27.6505,-7.58511 L 27.66,-7.49522
 L 27.66,-5.50478 L 27.6505,-5.41489 L 27.6241,-5.33344 L 27.5813,-5.25932 L 27.524,-5.19569 L 27.4547,-5.14536
 L 27.3765,-5.11053 L 27.2928,-5.09274 z
M 17.7072,-5.09274 L 17.6235,-5.11053 L 17.5453,-5.14536 L 17.476,-5.19569 L 17.4187,-5.25932 L 17.3759,-5.33344
 L 17.3495,-5.41489 L 17.34,-5.50478 L 17.34,-7.49522 L 17.3495,-7.58511 L 17.3759,-7.66656 L 17.4187,-7.74068
 L 17.476,-7.80431 L 17.5453,-7.85464 L 17.6235,-7.88947 L 17.7072,-7.90726 L 18.7928,-7.90726 L 18.8765,-7.88947
 L 18.9547,-7.85464 L 19.024,-7.80431 L 19.0813,-7.74068 L 19.1241,-7.66656 L 19.1505,-7.58511 L 19.16,-7.49522
 L 19.16,-5.50478 L 19.1505,-5.41489 L 19.1241,-5.33344 L 19.0813,-5.25932 L 19.024,-5.19569 L 18.9547,-5.14536
 L 18.8765,-5.11053 L 18.7928,-5.09274 z
M 70.7891,-3.1377 L 70.3596,-3.27722 L 69.9687,-3.50293 L 69.6332,-3.80501 L 69.3678,-4.17029 L 69.1842,-4.58269
 L 69.0903,-5.02426 L 69.0903,-5.47575 L 69.1842,-5.91733 L 69.3678,-6.32973 L 69.6332,-6.69501 L 69.9687,-6.99709
 L 70.3596,-7.22279 L 70.7891,-7.36232 L 71.238,-7.4095 L 71.687,-7.36232 L 72.1164,-7.22279 L 72.5073,-6.99709
 L 72.8428,-6.69501 L 73.1082,-6.32973 L 73.2918,-5.91733 L 73.3857,-5.47575 L 73.3857,-5.02426 L 73.2918,-4.58269
 L 73.1082,-4.17029 L 72.8428,-3.80501 L 72.5073,-3.50293 L 72.1164,-3.27722 L 71.687,-3.1377 L 71.238,-3.0905
 z
" stroke="black" fill="lightgray" stroke-width="0.5"/>
</svg>
23 L 74.561,-7.22278 L 74.952,-6.99707
 L 75.2875,-6.69499 L 75.5528,-6.32971 L 75.7365,-5.91731 L 75.8303,-5.47574 L 75.8303,-5.02425 L 75.7365,-4.58267
 L 75.5528,-4.17027 L 75.2875,-3.80499 L 74.952,-3.50291 L 74.561,-3.27721 L 74.1316,-3.13768 L 73.6826,-3.09048
 z
" stroke="black" fill="lightgray" stroke-width="0.5"/>
</svg>
