<?xml version="1.0" standalone="no"?>
<!DOCTYPE svg PUBLIC "-//W3C//DTD SVG 1.1//EN" "http://www.w3.org/Graphics/SVG/1.1/DTD/svg11.dtd">
<svg width="10mm" height="38mm" viewBox="111 -76 10 38" xmlns="http://www.w3.org/2000/svg" version="1.1">
<title>OpenSCAD Model</title>
<path d="
M 113.59,-74.6404 L 113.373,-74.6659 L 113.582,-74.9359 L 113.616,-75.1116 L 113.573,-75.317 L 113.444,-75.4739
 L 113.236,-75.579 L 112.952,-75.6164 L 112.948,-75.6164 L 112.661,-75.5784 L 112.451,-75.4713 L 112.321,-75.314
 L 112.278,-75.114 L 112.309,-74.9522 L 112.517,-74.6684 L 112.254,-74.6684 L 112.092,-74.6942 L 111.958,-74.7809
 L 111.875,-74.9182 L 111.85,-75.0907 L 111.898,-75.3196 L 111.978,-75.4245 L 111.877,-75.4977 L 111.847,-75.4661
 L 111.783,-75.3497 L 111.741,-75.2116 L 111.726,-75.0701 L 111.743,-74.8892 L 111.792,-74.7378 L 111.87,-74.6181
 L 111.975,-74.5302 L 112.106,-74.4748 L 112.268,-74.4551 L 113.59,-74.4551 z
M 112.6,-74.6684 L 112.455,-74.8166 L 112.411,-75.0151 L 112.449,-75.1821 L 112.563,-75.3088 L 112.728,-75.3823
 L 112.929,-75.405 L 113.153,-75.3825 L 113.327,-75.3089 L 113.443,-75.1809 L 113.482,-75.0123 L 113.438,-74.8165
 L 113.293,-74.6684 z
M 115.439,-75.3706 L 116.062,-74.7796 L 116.245,-74.628 L 116.397,-74.5329 L 116.529,-74.4828 L 116.653,-74.4669
 L 116.856,-74.5032 L 116.999,-74.6059 L 117.091,-74.7761 L 117.124,-75.0198 L 117.106,-75.1863 L 117.05,-75.3325
 L 116.964,-75.4519 L 116.851,-75.5404 L 116.716,-75.5957 L 116.657,-75.6031 L 116.657,-75.3899 L 116.73,-75.3794
 L 116.867,-75.305 L 116.961,-75.182 L 116.99,-75.0265 L 116.965,-74.8813 L 116.886,-74.7672 L 116.764,-74.6991
 L 116.616,-74.6782 L 116.492,-74.698 L 116.369,-74.7537 L 116.242,-74.841 L 116.103,-74.9598 L 115.446,-75.5757
 L 115.303,-75.5757 L 115.303,-74.4022 L 115.439,-74.4022 z
M 119.617,-74.9326 L 119.577,-75.0792 L 119.291,-75.3451 L 119.59,-75.3638 L 119.59,-75.5595 L 118.303,-75.5595
 L 118.303,-75.3475 L 119.21,-75.3475 L 119.369,-75.1957 L 119.415,-74.9732 L 119.412,-74.9135 L 119.616,-74.9105
 z
M 119.259,-73.5363 L 119.456,-73.6474 L 119.575,-73.8192 L 119.617,-74.0555 L 119.597,-74.2194 L 119.536,-74.3635
 L 119.439,-74.482 L 119.305,-74.5714 L 119.14,-74.6282 L 118.945,-74.6481 L 118.92,-74.6481 L 118.649,-74.6019
 L 118.45,-74.4707 L 118.321,-74.2696 L 118.277,-74.0067 L 118.292,-73.8537 L 118.338,-73.7145 L 118.41,-73.5988
 L 118.452,-73.5593 L 118.543,-73.64 L 118.46,-73.7427 L 118.411,-73.9822 L 118.438,-74.1493 L 118.521,-74.2874
 L 118.649,-74.3843 L 118.91,-74.461 L 118.91,-73.4962 L 118.974,-73.4962 z
M 118.997,-73.7014 L 118.997,-74.4528 L 119.253,-74.3869 L 119.375,-74.3105 L 119.456,-74.196 L 119.482,-74.0556
 L 119.459,-73.9109 L 119.384,-73.7955 L 119.265,-73.7244 L 119.126,-73.7014 z
M 116.718,-72.9133 L 116.944,-73.0264 L 117.077,-73.2016 L 117.123,-73.4488 L 117.077,-73.6961 L 116.942,-73.8716
 L 116.711,-73.9843 L 116.367,-74.0248 L 116.015,-74.0248 L 115.685,-73.9817 L 115.458,-73.8686 L 115.324,-73.6933
 L 115.278,-73.4462 L 115.325,-73.1968 L 115.461,-73.0218 L 115.694,-72.9103 L 116.035,-72.8702 L 116.387,-72.8702
 z
M 115.955,-73.0822 L 115.738,-73.1015 L 115.566,-73.1602 L 115.448,-73.2769 L 115.41,-73.4465 L 115.45,-73.6176
 L 115.572,-73.736 L 115.75,-73.7953 L 115.975,-73.8129 L 116.463,-73.8129 L 116.675,-73.7918 L 116.842,-73.7302
 L 116.953,-73.613 L 116.99,-73.4487 L 116.952,-73.2806 L 116.835,-73.1613 L 116.659,-73.1002 L 116.432,-73.0822
 z
M 114.105,-73.7642 L 114.138,-73.7872 L 114.162,-73.8256 L 114.171,-73.8842 L 114.162,-73.9434 L 114.139,-73.9813
 L 114.105,-74.0039 L 114.06,-74.0123 L 114.014,-74.0037 L 113.981,-73.9804 L 113.957,-73.9417 L 113.948,-73.8841
 L 113.957,-73.8264 L 113.981,-73.7878 L 114.014,-73.7644 L 114.06,-73.7559 z
M 113.59,-73.9907 L 112.303,-73.9907 L 112.303,-73.7774 L 113.59,-73.7774 z
M 112.419,-72.7656 L 112.431,-72.8651 L 112.48,-72.9498 L 112.565,-72.9924 L 112.656,-73.0025 L 113.482,-73.0025
 L 113.482,-72.7516 L 113.59,-72.7516 L 113.59,-73.0025 L 113.951,-73.0025 L 113.951,-73.2145 L 113.59,-73.2145
 L 113.59,-73.4288 L 113.482,-73.4288 L 113.482,-73.2145 L 112.618,-73.2145 L 112.362,-73.125 L 112.277,-72.8727
 L 112.284,-72.777 L 112.293,-72.7367 L 112.42,-72.7367 z
M 119.59,-72.3457 L 118.353,-72.6869 L 119.59,-73.028 L 119.59,-73.2437 L 118.303,-72.8094 L 118.303,-72.5643
 L 119.59,-72.13 z
M 115.439,-72.2579 L 116.062,-71.6669 L 116.245,-71.5153 L 116.397,-71.4202 L 116.529,-71.3701 L 116.653,-71.3543
 L 116.856,-71.3905 L 116.999,-71.4932 L 117.091,-71.6634 L 117.124,-71.9071 L 117.106,-72.0736 L 117.05,-72.2197
 L 116.964,-72.3392 L 116.851,-72.4277 L 116.716,-72.483 L 116.657,-72.4904 L 116.657,-72.2772 L 116.73,-72.2667
 L 116.867,-72.1923 L 116.961,-72.0693 L 116.99,-71.9138 L 116.965,-71.7686 L 116.886,-71.6545 L 116.764,-71.5864
 L 116.616,-71.5655 L 116.492,-71.5853 L 116.369,-71.641 L 116.242,-71.7283 L 116.103,-71.8471 L 115.446,-72.463
 L 115.303,-72.463 L 115.303,-71.2895 L 115.439,-71.2895 z
M 113.501,-71.4046 L 113.614,-71.6981 L 113.578,-71.8671 L 113.334,-72.1728 L 114.207,-72.1728 L 114.207,-72.3847
 L 112.303,-72.3847 L 112.303,-72.1728 L 113.294,-72.1728 L 113.438,-72.0266 L 113.481,-71.837 L 113.461,-71.6936
 L 113.392,-71.5846 L 113.28,-71.5249 L 113.148,-71.5086 L 112.303,-71.5086 L 112.303,-71.2966 L 113.14,-71.2966
 z
M 118.454,-71.7233 L 118.49,-71.7486 L 118.515,-71.7891 L 118.524,-71.845 L 118.515,-71.8998 L 118.49,-71.9401
 L 118.454,-71.9655 L 118.405,-71.9746 L 118.357,-71.9657 L 118.322,-71.941 L 118.298,-71.901 L 118.289,-71.845
 L 118.298,-71.7879 L 118.323,-71.7477 L 118.357,-71.7231 L 118.405,-71.7142 z
M 115.439,-70.7016 L 116.062,-70.1106 L 116.245,-69.959 L 116.397,-69.8638 L 116.529,-69.8138 L 116.653,-69.7979
 L 116.856,-69.8342 L 116.999,-69.9368 L 117.091,-70.107 L 117.124,-70.3508 L 117.106,-70.5173 L 117.05,-70.6634
 L 116.964,-70.7829 L 116.851,-70.8714 L 116.716,-70.9267 L 116.657,-70.9341 L 116.657,-70.7208 L 116.73,-70.7104
 L 116.867,-70.6359 L 116.961,-70.513 L 116.99,-70.3574 L 116.965,-70.2122 L 116.886,-70.0981 L 116.764,-70.03
 L 116.616,-70.0092 L 116.492,-70.029 L 116.369,-70.0846 L 116.242,-70.1719 L 116.103,-70.2908 L 115.446,-70.9067
 L 115.303,-70.9067 L 115.303,-69.7332 L 115.439,-69.7332 z
M 113.59,-69.992 L 112.604,-69.992 L 112.455,-70.1437 L 112.41,-70.3629 L 112.492,-70.5857 L 112.719,-70.6548
 L 113.59,-70.6548 L 113.59,-70.8668 L 112.725,-70.8668 L 112.518,-70.837 L 112.385,-70.7621 L 112.306,-70.6441
 L 112.278,-70.4712 L 112.315,-70.2792 L 112.535,-69.9908 L 112.303,-69.9739 L 112.303,-69.7787 L 113.59,-69.7787
 z
M 119.622,-69.4356 L 119.798,-69.4926 L 119.939,-69.5808 L 120.041,-69.6956 L 120.103,-69.834 L 120.124,-69.9938
 L 120.105,-70.1505 L 120.047,-70.2889 L 119.954,-70.4043 L 119.83,-70.4917 L 119.682,-70.5474 L 119.518,-70.566
 L 119.273,-70.5307 L 119.093,-70.4304 L 118.982,-70.2791 L 118.945,-70.0806 L 118.975,-69.9238 L 119.258,-69.507
 L 118.581,-69.816 L 118.432,-70.2603 L 118.432,-70.2724 L 118.286,-70.2724 L 118.364,-69.9045 L 118.557,-69.6396
 L 118.86,-69.4731 L 119.279,-69.4149 L 119.413,-69.4149 z
M 119.291,-69.6269 L 119.195,-69.6922 L 119.126,-69.7699 L 119.078,-69.8692 L 119.061,-69.9875 L 119.095,-70.145
 L 119.201,-70.2657 L 119.349,-70.3352 L 119.521,-70.3568 L 119.695,-70.3346 L 119.845,-70.2643 L 119.954,-70.1482
 L 119.992,-69.9967 L 119.954,-69.8378 L 119.842,-69.7177 L 119.68,-69.6478 L 119.485,-69.6269 z
M 113.248,-68.2328 L 113.454,-68.332 L 113.575,-68.4809 L 113.616,-68.681 L 113.584,-68.8426 L 113.368,-69.1274
 L 114.207,-69.1274 L 114.207,-69.3394 L 112.303,-69.3394 L 112.303,-69.1572 L 112.544,-69.1299 L 112.315,-68.8524
 L 112.278,-68.6777 L 112.319,-68.4778 L 112.44,-68.3301 L 112.645,-68.2323 L 112.939,-68.197 L 112.95,-68.197
 z
M 112.792,-68.4165 L 112.655,-68.4424 L 112.472,-68.5625 L 112.409,-68.7746 L 112.46,-68.9854 L 112.623,-69.1274
 L 113.27,-69.1274 L 113.432,-68.9869 L 113.482,-68.7812 L 113.447,-68.6158 L 113.34,-68.494 L 113.176,-68.4282
 L 112.964,-68.4088 z
M 116.127,-69.3354 L 115.991,-69.3354 L 115.991,-68.7518 L 116.127,-68.7518 z
M 119.108,-67.846 L 119.29,-67.9433 L 119.404,-68.0898 L 119.442,-68.2833 L 119.409,-68.4673 L 119.157,-68.8401
 L 119.63,-68.696 L 119.818,-68.5441 L 119.936,-68.3264 L 119.969,-68.1095 L 120.115,-68.1095 L 120.086,-68.343
 L 119.994,-68.565 L 119.848,-68.7451 L 119.651,-68.8788 L 119.407,-68.9625 L 119.119,-68.9914 L 118.989,-68.9914
 L 118.686,-68.9469 L 118.464,-68.8208 L 118.325,-68.6307 L 118.277,-68.3824 L 118.296,-68.2255 L 118.352,-68.0855
 L 118.44,-67.9704 L 118.559,-67.8844 L 118.702,-67.8301 L 118.863,-67.8118 z
M 118.689,-68.0441 L 118.544,-68.118 L 118.444,-68.2391 L 118.41,-68.394 L 118.447,-68.5603 L 118.559,-68.6853
 L 118.721,-68.7567 L 118.915,-68.7781 L 119.065,-68.7781 L 119.172,-68.71 L 119.247,-68.623 L 119.294,-68.5177
 L 119.311,-68.3988 L 119.278,-68.2431 L 119.179,-68.1191 L 119.033,-68.0442 L 118.86,-68.0209 z
M 116.834,-68.2064 L 116.701,-68.2064 L 116.846,-67.7385 L 115.303,-67.7385 L 115.303,-67.5265 L 117.078,-67.5265
 z
M 112.454,-67.539 L 112.49,-67.5643 L 112.515,-67.6048 L 112.524,-67.6607 L 112.515,-67.7155 L 112.49,-67.7559
 L 112.454,-67.7812 L 112.405,-67.7903 L 112.357,-67.7814 L 112.323,-67.7567 L 112.298,-67.7167 L 112.289,-67.6607
 L 112.298,-67.6036 L 112.323,-67.5634 L 112.357,-67.5388 L 112.405,-67.5299 z
M 118.631,-66.5801 L 118.594,-66.588 L 118.493,-66.6624 L 118.431,-66.7713 L 118.411,-66.902 L 118.443,-67.0635
 L 118.547,-67.1855 L 118.711,-67.2504 L 118.923,-67.2692 L 118.972,-67.2692 L 119.182,-67.2502 L 119.345,-67.1848
 L 119.449,-67.0639 L 119.482,-66.9039 L 119.458,-66.7675 L 119.383,-66.6574 L 119.271,-66.5866 L 119.224,-66.578
 L 119.224,-66.3937 L 119.334,-66.414 L 119.485,-66.5175 L 119.583,-66.6793 L 119.617,-66.8948 L 119.573,-67.1411
 L 119.444,-67.3225 L 119.24,-67.4395 L 118.958,-67.4812 L 118.946,-67.4812 L 118.654,-67.4391 L 118.449,-67.3214
 L 118.321,-67.1392 L 118.277,-66.8899 L 118.292,-66.7521 L 118.336,-66.6263 L 118.405,-66.5217 L 118.497,-66.4432
 L 118.604,-66.3936 L 118.631,-66.3896 z
M 112.631,-66.1841 L 112.594,-66.1919 L 112.493,-66.2663 L 112.431,-66.3752 L 112.411,-66.5059 L 112.443,-66.6674
 L 112.547,-66.7894 L 112.711,-66.8543 L 112.923,-66.8731 L 112.972,-66.8731 L 113.182,-66.8541 L 113.345,-66.7887
 L 113.449,-66.6678 L 113.482,-66.5078 L 113.458,-66.3714 L 113.383,-66.2613 L 113.271,-66.1905 L 113.224,-66.1819
 L 113.224,-65.9976 L 113.334,-66.0179 L 113.485,-66.1215 L 113.583,-66.2832 L 113.617,-66.4987 L 113.573,-66.7451
 L 113.444,-66.9265 L 113.24,-67.0434 L 112.958,-67.0851 L 112.946,-67.0851 L 112.654,-67.043 L 112.449,-66.9253
 L 112.321,-66.7431 L 112.277,-66.4938 L 112.292,-66.356 L 112.336,-66.2302 L 112.405,-66.1256 L 112.497,-66.0471
 L 112.604,-65.9975 L 112.631,-65.9936 z
M 115.439,-66.5371 L 116.062,-65.9462 L 116.245,-65.7946 L 116.397,-65.6995 L 116.529,-65.6494 L 116.653,-65.6335
 L 116.856,-65.6697 L 116.999,-65.7724 L 117.091,-65.9426 L 117.124,-66.1864 L 117.106,-66.3529 L 117.05,-66.499
 L 116.964,-66.6185 L 116.851,-66.707 L 116.716,-66.7623 L 116.657,-66.7697 L 116.657,-66.5564 L 116.73,-66.546
 L 116.867,-66.4715 L 116.961,-66.3486 L 116.99,-66.193 L 116.965,-66.0479 L 116.886,-65.9337 L 116.764,-65.8656
 L 116.616,-65.8448 L 116.492,-65.8646 L 116.369,-65.9202 L 116.242,-66.0075 L 116.103,-66.1264 L 115.446,-66.7423
 L 115.303,-66.7423 L 115.303,-65.5688 L 115.439,-65.5688 z
M 120.207,-65.1375 L 119.367,-65.1375 L 119.584,-65.4239 L 119.616,-65.5812 L 119.574,-65.7797 L 119.448,-65.9301
 L 119.24,-66.0306 L 118.958,-66.0659 L 118.66,-66.0298 L 118.447,-65.9272 L 118.32,-65.7767 L 118.278,-65.5842
 L 118.315,-65.415 L 118.542,-65.1376 L 118.303,-65.1085 L 118.303,-64.9242 L 120.207,-64.9242 z
M 118.623,-65.1375 L 118.461,-65.28 L 118.411,-65.483 L 118.449,-65.6482 L 118.561,-65.7688 L 118.726,-65.8349
 L 118.934,-65.8555 L 119.334,-65.7735 L 119.485,-65.4933 L 119.432,-65.2783 L 119.27,-65.1375 z
M 113.021,-64.4628 L 113.275,-64.5203 L 113.46,-64.6464 L 113.577,-64.8306 L 113.617,-65.0696 L 113.597,-65.2407
 L 113.536,-65.3879 L 113.44,-65.5068 L 113.309,-65.5952 L 113.148,-65.651 L 112.956,-65.6705 L 112.95,-65.6705
 L 112.661,-65.6268 L 112.452,-65.5039 L 112.322,-65.315 L 112.278,-65.0648 L 112.322,-64.8148 L 112.453,-64.6262
 L 112.659,-64.5037 L 112.938,-64.4605 z
M 112.731,-64.694 L 112.557,-64.7677 L 112.446,-64.8967 L 112.41,-65.0647 L 112.447,-65.2357 L 112.558,-65.3642
 L 112.725,-65.4369 L 112.932,-65.459 L 113.158,-65.4372 L 113.332,-65.3651 L 113.446,-65.237 L 113.483,-65.0675
 L 113.446,-64.8967 L 113.333,-64.768 L 113.166,-64.6944 L 112.961,-64.6718 z
M 116.127,-65.171 L 115.991,-65.171 L 115.991,-64.5874 L 116.127,-64.5874 z
M 119.622,-63.3797 L 119.798,-63.4368 L 119.939,-63.5249 L 120.041,-63.6398 L 120.103,-63.7782 L 120.124,-63.938
 L 120.105,-64.0947 L 120.047,-64.233 L 119.954,-64.3484 L 119.83,-64.4359 L 119.682,-64.4915 L 119.518,-64.5102
 L 119.273,-64.4749 L 119.093,-64.3745 L 118.982,-64.2233 L 118.945,-64.0247 L 118.975,-63.868 L 119.258,-63.4512
 L 118.581,-63.7601 L 118.432,-64.2044 L 118.432,-64.2166 L 118.286,-64.2166 L 118.364,-63.8487 L 118.557,-63.5838
 L 118.86,-63.4173 L 119.279,-63.3591 L 119.413,-63.3591 z
M 119.291,-63.571 L 119.195,-63.6364 L 119.126,-63.7141 L 119.078,-63.8134 L 119.061,-63.9317 L 119.095,-64.0891
 L 119.201,-64.2098 L 119.349,-64.2793 L 119.521,-64.301 L 119.695,-64.2788 L 119.845,-64.2085 L 119.954,-64.0923
 L 119.992,-63.9409 L 119.954,-63.7819 L 119.842,-63.6619 L 119.68,-63.592 L 119.485,-63.571 z
M 115.439,-63.9291 L 116.062,-63.3381 L 116.245,-63.1865 L 116.397,-63.0914 L 116.529,-63.0414 L 116.653,-63.0255
 L 116.856,-63.0617 L 116.999,-63.1644 L 117.091,-63.3346 L 117.124,-63.5784 L 117.106,-63.7448 L 117.05,-63.891
 L 116.964,-64.0104 L 116.851,-64.0989 L 116.716,-64.1542 L 116.657,-64.1616 L 116.657,-63.9484 L 116.73,-63.9379
 L 116.867,-63.8635 L 116.961,-63.7406 L 116.99,-63.585 L 116.965,-63.4398 L 116.886,-63.3257 L 116.764,-63.2576
 L 116.616,-63.2367 L 116.492,-63.2565 L 116.369,-63.3122 L 116.242,-63.3995 L 116.103,-63.5183 L 115.446,-64.1343
 L 115.303,-64.1343 L 115.303,-62.9607 L 115.439,-62.9607 z
M 113.369,-62.1788 L 113.509,-62.2491 L 113.588,-62.3611 L 113.616,-62.5317 L 113.569,-62.7449 L 113.357,-62.9819
 L 113.571,-63.1732 L 113.616,-63.3656 L 113.576,-63.5638 L 113.342,-63.8631 L 113.59,-63.8816 L 113.59,-64.0756
 L 112.303,-64.0756 L 112.303,-63.8637 L 113.287,-63.8637 L 113.436,-63.7232 L 113.481,-63.5368 L 113.462,-63.3976
 L 113.395,-63.2923 L 113.284,-63.2361 L 113.153,-63.2212 L 112.303,-63.2212 L 112.303,-63.0093 L 113.251,-63.0106
 L 113.426,-62.8793 L 113.481,-62.6828 L 113.461,-62.5398 L 113.394,-62.4346 L 113.283,-62.3799 L 113.154,-62.3654
 L 112.303,-62.3654 L 112.303,-62.1521 L 113.145,-62.1521 z
M 118.881,-61.8061 L 118.989,-61.8573 L 119.078,-61.9393 L 119.227,-62.1724 L 119.375,-61.958 L 119.456,-61.8885
 L 119.552,-61.8453 L 119.66,-61.8309 L 119.855,-61.8669 L 119.998,-61.97 L 120.091,-62.1366 L 120.124,-62.365
 L 120.091,-62.5941 L 119.996,-62.7606 L 119.853,-62.8634 L 119.66,-62.8992 L 119.552,-62.885 L 119.456,-62.8422
 L 119.375,-62.7732 L 119.227,-62.559 L 119.079,-62.7911 L 118.989,-62.8727 L 118.882,-62.924 L 118.757,-62.9412
 L 118.557,-62.9028 L 118.409,-62.7918 L 118.311,-62.6112 L 118.277,-62.3637 L 118.311,-62.1165 L 118.408,-61.9371
 L 118.556,-61.8271 L 118.756,-61.789 z
M 118.634,-62.0231 L 118.512,-62.0976 L 118.435,-62.2168 L 118.411,-62.3638 L 118.436,-62.5134 L 118.515,-62.6334
 L 118.637,-62.7081 L 118.783,-62.7315 L 118.931,-62.7077 L 119.053,-62.6318 L 119.132,-62.5124 L 119.157,-62.3664
 L 119.132,-62.2193 L 119.053,-62.0996 L 118.931,-62.0238 L 118.783,-62 z
M 119.509,-62.06 L 119.393,-62.1226 L 119.315,-62.2285 L 119.29,-62.3637 L 119.315,-62.4989 L 119.393,-62.6053
 L 119.508,-62.6685 L 119.644,-62.6879 L 119.78,-62.6684 L 119.893,-62.6042 L 119.967,-62.4977 L 119.99,-62.3649
 L 119.967,-62.2307 L 119.891,-62.1243 L 119.777,-62.0604 L 119.644,-62.0409 z
M 116.108,-61.4311 L 116.29,-61.5285 L 116.404,-61.6749 L 116.442,-61.8684 L 116.409,-62.0524 L 116.157,-62.4253
 L 116.63,-62.2811 L 116.818,-62.1292 L 116.936,-61.9116 L 116.969,-61.6946 L 117.115,-61.6946 L 117.086,-61.9281
 L 116.994,-62.1501 L 116.848,-62.3303 L 116.651,-62.4639 L 116.407,-62.5477 L 116.119,-62.5766 L 115.989,-62.5766
 L 115.686,-62.532 L 115.464,-62.4059 L 115.325,-62.2158 L 115.277,-61.9675 L 115.296,-61.8106 L 115.352,-61.6706
 L 115.44,-61.5555 L 115.559,-61.4695 L 115.702,-61.4152 L 115.863,-61.3969 z
M 115.689,-61.6292 L 115.544,-61.7031 L 115.444,-61.8242 L 115.41,-61.9791 L 115.447,-62.1454 L 115.559,-62.2704
 L 115.721,-62.3418 L 115.915,-62.3632 L 116.065,-62.3632 L 116.172,-62.2951 L 116.247,-62.2081 L 116.294,-62.1028
 L 116.311,-61.9839 L 116.278,-61.8282 L 116.179,-61.7042 L 116.033,-61.6294 L 115.86,-61.606 z
M 114.098,-61.1939 L 112.134,-61.8598 L 112.134,-61.7583 L 114.098,-61.0924 z
M 118.351,-60.3398 L 118.549,-60.3562 L 119.18,-60.3562 L 119.371,-60.3909 L 119.502,-60.4864 L 119.587,-60.6416
 L 119.618,-60.8584 L 119.604,-61.0091 L 119.563,-61.143 L 119.501,-61.2509 L 119.423,-61.3278 L 119.334,-61.3738
 L 119.33,-61.3745 L 119.33,-61.1626 L 119.352,-61.1585 L 119.441,-61.0917 L 119.493,-60.9928 L 119.509,-60.8755
 L 119.488,-60.7452 L 119.419,-60.6433 L 119.315,-60.5858 L 119.201,-60.5695 L 119.02,-60.5695 L 119.02,-60.8348
 L 118.99,-61.1045 L 118.91,-61.2845 L 118.791,-61.386 L 118.626,-61.4207 L 118.49,-61.3931 L 118.38,-61.3099
 L 118.304,-61.1799 L 118.278,-61.015 L 118.31,-60.8437 L 118.499,-60.585 L 118.303,-60.5419 L 118.303,-60.3243
 z
M 118.598,-60.5695 L 118.505,-60.6411 L 118.445,-60.7253 L 118.408,-60.8232 L 118.395,-60.9295 L 118.411,-61.0385
 L 118.465,-61.1311 L 118.551,-61.1924 L 118.648,-61.2112 L 118.704,-61.2079 L 118.909,-61.0898 L 118.971,-60.816
 L 118.971,-60.5695 z
M 112.817,-59.7816 L 112.948,-59.9778 L 112.978,-60.0741 L 113.008,-60.2067 L 113.042,-60.3405 L 113.09,-60.4456
 L 113.165,-60.5208 L 113.268,-60.5479 L 113.373,-60.5253 L 113.455,-60.4594 L 113.505,-60.3627 L 113.52,-60.2474
 L 113.502,-60.1176 L 113.441,-60.0145 L 113.345,-59.9522 L 113.325,-59.9486 L 113.325,-59.744 L 113.385,-59.7572
 L 113.505,-59.8569 L 113.588,-60.022 L 113.617,-60.2461 L 113.588,-60.4555 L 113.506,-60.6125 L 113.389,-60.7089
 L 113.261,-60.7378 L 113.042,-60.6347 L 112.892,-60.28 L 112.857,-60.1443 L 112.809,-60.031 L 112.732,-59.9471
 L 112.621,-59.9164 L 112.514,-59.9409 L 112.433,-60.012 L 112.387,-60.1143 L 112.374,-60.2379 L 112.391,-60.3719
 L 112.448,-60.4871 L 112.547,-60.5676 L 112.59,-60.578 L 112.59,-60.7731 L 112.58,-60.7715 L 112.485,-60.7229
 L 112.401,-60.6432 L 112.334,-60.5349 L 112.291,-60.4011 L 112.277,-60.2465 L 112.305,-60.0231 L 112.384,-59.855
 L 112.497,-59.7534 L 112.631,-59.7215 z
M 112.631,-58.4792 L 112.594,-58.4871 L 112.493,-58.5614 L 112.431,-58.6703 L 112.411,-58.801 L 112.443,-58.9626
 L 112.547,-59.0845 L 112.711,-59.1495 L 112.923,-59.1683 L 112.972,-59.1683 L 113.182,-59.1492 L 113.345,-59.0838
 L 113.449,-58.9629 L 113.482,-58.8029 L 113.458,-58.6665 L 113.383,-58.5564 L 113.271,-58.4856 L 113.224,-58.4771
 L 113.224,-58.2927 L 113.334,-58.3131 L 113.485,-58.4166 L 113.583,-58.5783 L 113.617,-58.7938 L 113.573,-59.0402
 L 113.444,-59.2216 L 113.24,-59.3386 L 112.958,-59.3802 L 112.946,-59.3802 L 112.654,-59.3382 L 112.449,-59.2204
 L 112.321,-59.0382 L 112.277,-58.7889 L 112.292,-58.6511 L 112.336,-58.5253 L 112.405,-58.4207 L 112.497,-58.3423
 L 112.604,-58.2926 L 112.631,-58.2887 z
M 113.021,-56.7579 L 113.275,-56.8154 L 113.46,-56.9415 L 113.577,-57.1257 L 113.617,-57.3647 L 113.597,-57.5359
 L 113.536,-57.683 L 113.44,-57.8019 L 113.309,-57.8903 L 113.148,-57.9461 L 112.956,-57.9656 L 112.95,-57.9656
 L 112.661,-57.9219 L 112.452,-57.799 L 112.322,-57.6102 L 112.278,-57.3599 L 112.322,-57.1099 L 112.453,-56.9213
 L 112.659,-56.7989 L 112.938,-56.7556 z
M 112.731,-56.9891 L 112.557,-57.0628 L 112.446,-57.1918 L 112.41,-57.3598 L 112.447,-57.5308 L 112.558,-57.6593
 L 112.725,-57.732 L 112.932,-57.7541 L 113.158,-57.7323 L 113.332,-57.6602 L 113.446,-57.5322 L 113.483,-57.3626
 L 113.446,-57.1918 L 113.333,-57.0631 L 113.166,-56.9895 L 112.961,-56.9669 z
M 112.419,-55.8445 L 112.431,-55.944 L 112.48,-56.0287 L 112.565,-56.0714 L 112.656,-56.0815 L 113.482,-56.0815
 L 113.482,-55.8306 L 113.59,-55.8306 L 113.59,-56.0815 L 113.951,-56.0815 L 113.951,-56.2934 L 113.59,-56.2934
 L 113.59,-56.5077 L 113.482,-56.5077 L 113.482,-56.2934 L 112.618,-56.2934 L 112.362,-56.2039 L 112.277,-55.9516
 L 112.284,-55.8559 L 112.293,-55.8156 L 112.42,-55.8156 z
M 112.419,-54.928 L 112.431,-55.0274 L 112.48,-55.1122 L 112.565,-55.1548 L 112.656,-55.1649 L 113.482,-55.1649
 L 113.482,-54.914 L 113.59,-54.914 L 113.59,-55.1649 L 113.951,-55.1649 L 113.951,-55.3768 L 113.59,-55.3768
 L 113.59,-55.5911 L 113.482,-55.5911 L 113.482,-55.3768 L 112.618,-55.3768 L 112.362,-55.2873 L 112.277,-55.035
 L 112.284,-54.9393 L 112.293,-54.8991 L 112.42,-54.8991 z
M 113.248,-53.431 L 113.454,-53.5302 L 113.575,-53.6791 L 113.616,-53.8793 L 113.584,-54.0408 L 113.368,-54.3256
 L 114.207,-54.3256 L 114.207,-54.5376 L 112.303,-54.5376 L 112.303,-54.3554 L 112.544,-54.3281 L 112.315,-54.0506
 L 112.278,-53.8759 L 112.319,-53.676 L 112.44,-53.5284 L 112.645,-53.4305 L 112.939,-53.3952 L 112.95,-53.3952
 z
M 112.792,-53.6147 L 112.655,-53.6406 L 112.472,-53.7607 L 112.409,-53.9728 L 112.46,-54.1836 L 112.623,-54.3256
 L 113.27,-54.3256 L 113.432,-54.1851 L 113.482,-53.9794 L 113.447,-53.814 L 113.34,-53.6922 L 113.176,-53.6264
 L 112.964,-53.607 z
M 113.259,-51.9514 L 113.456,-52.0626 L 113.575,-52.2344 L 113.617,-52.4707 L 113.597,-52.6346 L 113.536,-52.7787
 L 113.439,-52.8971 L 113.305,-52.9865 L 113.14,-53.0434 L 112.945,-53.0633 L 112.92,-53.0633 L 112.649,-53.017
 L 112.45,-52.8859 L 112.321,-52.6847 L 112.277,-52.4219 L 112.292,-52.2688 L 112.338,-52.1297 L 112.41,-52.014
 L 112.452,-51.9745 L 112.543,-52.0552 L 112.46,-52.1579 L 112.411,-52.3974 L 112.438,-52.5645 L 112.521,-52.7026
 L 112.649,-52.7994 L 112.91,-52.8761 L 112.91,-51.9114 L 112.974,-51.9114 z
M 112.997,-52.1166 L 112.997,-52.868 L 113.253,-52.8021 L 113.375,-52.7257 L 113.456,-52.6111 L 113.482,-52.4708
 L 113.459,-52.3261 L 113.384,-52.2107 L 113.265,-52.1396 L 113.126,-52.1166 z
M 112.439,-51.3649 L 113.478,-50.5781 L 113.59,-50.5781 L 113.59,-51.5739 L 113.453,-51.5739 L 113.453,-50.8128
 L 112.422,-51.5943 L 112.303,-51.5943 L 112.303,-50.5564 L 112.439,-50.5564 z
M 113.834,-50.088 L 113.701,-50.088 L 113.846,-49.6201 L 112.303,-49.6201 L 112.303,-49.4081 L 114.078,-49.4081
 z
M 114.098,-48.0743 L 112.134,-48.7402 L 112.134,-48.6387 L 114.098,-47.9727 z
M 112.817,-46.662 L 112.948,-46.8581 L 112.978,-46.9545 L 113.008,-47.087 L 113.042,-47.2209 L 113.09,-47.326
 L 113.165,-47.4012 L 113.268,-47.4282 L 113.373,-47.4057 L 113.455,-47.3397 L 113.505,-47.2431 L 113.52,-47.1278
 L 113.502,-46.9979 L 113.441,-46.8948 L 113.345,-46.8326 L 113.325,-46.829 L 113.325,-46.6244 L 113.385,-46.6376
 L 113.505,-46.7373 L 113.588,-46.9023 L 113.617,-47.1265 L 113.588,-47.3358 L 113.506,-47.4929 L 113.389,-47.5892
 L 113.261,-47.6182 L 113.042,-47.5151 L 112.892,-47.1604 L 112.857,-47.0246 L 112.809,-46.9114 L 112.732,-46.8275
 L 112.621,-46.7967 L 112.514,-46.8213 L 112.433,-46.8924 L 112.387,-46.9947 L 112.374,-47.1183 L 112.391,-47.2523
 L 112.448,-47.3674 L 112.547,-47.448 L 112.59,-47.4583 L 112.59,-47.6535 L 112.58,-47.6519 L 112.485,-47.6033
 L 112.401,-47.5235 L 112.334,-47.4153 L 112.291,-47.2814 L 112.277,-47.1269 L 112.305,-46.9035 L 112.384,-46.7354
 L 112.497,-46.6337 L 112.631,-46.6018 z
M 113.243,-45.0938 L 113.451,-45.192 L 113.574,-45.3402 L 113.616,-45.5409 L 113.581,-45.7095 L 113.364,-45.9866
 L 113.59,-46.008 L 113.59,-46.1996 L 111.739,-46.1996 L 111.739,-45.9876 L 112.518,-45.9876 L 112.309,-45.7024
 L 112.278,-45.5393 L 112.32,-45.3444 L 112.447,-45.1952 L 112.654,-45.0945 L 112.939,-45.0585 L 112.949,-45.0585
 z
M 112.558,-45.3508 L 112.407,-45.6282 L 112.457,-45.845 L 112.612,-45.9876 L 113.284,-45.9876 L 113.436,-45.8467
 L 113.482,-45.6439 L 113.444,-45.4783 L 113.33,-45.3571 L 113.165,-45.2904 L 112.957,-45.2696 z
M 114.207,-44.652 L 112.303,-44.652 L 112.303,-44.4387 L 114.207,-44.4387 z
M 114.105,-43.7063 L 114.138,-43.7292 L 114.162,-43.7676 L 114.171,-43.8262 L 114.162,-43.8855 L 114.138,-43.9234
 L 114.105,-43.946 L 114.06,-43.9543 L 114.014,-43.9458 L 113.98,-43.9224 L 113.957,-43.8838 L 113.948,-43.8261
 L 113.957,-43.7685 L 113.981,-43.7298 L 114.014,-43.7064 L 114.06,-43.6979 z
M 113.59,-43.9328 L 112.303,-43.9328 L 112.303,-43.7194 L 113.59,-43.7194 z
M 112.419,-42.7077 L 112.431,-42.8071 L 112.48,-42.8919 L 112.565,-42.9345 L 112.656,-42.9446 L 113.482,-42.9446
 L 113.482,-42.6937 L 113.59,-42.6937 L 113.59,-42.9446 L 113.951,-42.9446 L 113.951,-43.1566 L 113.59,-43.1566
 L 113.59,-43.3708 L 113.482,-43.3708 L 113.482,-43.1566 L 112.618,-43.1566 L 112.362,-43.067 L 112.277,-42.8147
 L 112.284,-42.7191 L 112.293,-42.6788 L 112.42,-42.6788 z
M 114.224,-41.4322 L 114.235,-41.691 L 114.204,-41.9217 L 114.118,-42.0788 L 113.984,-42.1738 L 113.786,-42.2101
 L 113.59,-42.2101 L 113.59,-42.4285 L 113.482,-42.4285 L 113.482,-42.2101 L 112.303,-42.2101 L 112.303,-41.9968
 L 113.482,-41.9968 L 113.482,-41.7052 L 113.59,-41.7052 L 113.59,-41.9968 L 113.796,-41.9968 L 114.024,-41.908
 L 114.097,-41.6521 L 114.093,-41.5311 L 114.075,-41.334 L 112.303,-41.334 L 112.303,-41.1207 L 114.199,-41.1207
 z
M 112.351,-39.6305 L 112.549,-39.6469 L 113.18,-39.6469 L 113.371,-39.6816 L 113.502,-39.7771 L 113.587,-39.9323
 L 113.618,-40.1491 L 113.604,-40.2998 L 113.563,-40.4337 L 113.501,-40.5415 L 113.423,-40.6185 L 113.335,-40.6645
 L 113.33,-40.6652 L 113.33,-40.4532 L 113.352,-40.4492 L 113.441,-40.3824 L 113.493,-40.2835 L 113.509,-40.1662
 L 113.488,-40.0359 L 113.419,-39.934 L 113.315,-39.8765 L 113.201,-39.8602 L 113.02,-39.8602 L 113.02,-40.1255
 L 112.99,-40.3951 L 112.91,-40.5752 L 112.791,-40.6767 L 112.626,-40.7114 L 112.49,-40.6837 L 112.38,-40.6005
 L 112.304,-40.4706 L 112.278,-40.3057 L 112.31,-40.1344 L 112.499,-39.8756 L 112.303,-39.8326 L 112.303,-39.6149
 z
M 112.598,-39.8602 L 112.505,-39.9317 L 112.445,-40.016 L 112.408,-40.1139 L 112.395,-40.2202 L 112.411,-40.3292
 L 112.465,-40.4218 L 112.551,-40.4831 L 112.648,-40.5018 L 112.704,-40.4986 L 112.909,-40.3805 L 112.971,-40.1067
 L 112.971,-39.8602 z
M 113.243,-38.0949 L 113.451,-38.1931 L 113.574,-38.3413 L 113.616,-38.542 L 113.581,-38.7105 L 113.364,-38.9877
 L 113.59,-39.009 L 113.59,-39.2006 L 111.739,-39.2006 L 111.739,-38.9887 L 112.518,-38.9887 L 112.309,-38.7035
 L 112.278,-38.5404 L 112.32,-38.3455 L 112.447,-38.1962 L 112.654,-38.0956 L 112.939,-38.0596 L 112.949,-38.0596
 z
M 112.558,-38.3519 L 112.407,-38.6293 L 112.457,-38.8461 L 112.612,-38.9887 L 113.284,-38.9887 L 113.436,-38.8478
 L 113.482,-38.645 L 113.444,-38.4794 L 113.33,-38.3581 L 113.165,-38.2915 L 112.957,-38.2707 z
" stroke="black" fill="lightgray" stroke-width="0.5"/>
</svg>
tgray" stroke-width="0.5"/>
</svg>
