<?xml version="1.0" standalone="no"?>
<!DOCTYPE svg PUBLIC "-//W3C//DTD SVG 1.1//EN" "http://www.w3.org/Graphics/SVG/1.1/DTD/svg11.dtd">
<svg width="63mm" height="2mm" viewBox="68 -133 63 2" xmlns="http://www.w3.org/2000/svg" version="1.1">
<title>OpenSCAD Model</title>
<path d="
M 130.133,-131.999 L 130.221,-132.038 L 130.299,-132.095 L 130.363,-132.166 L 130.411,-132.249 L 130.441,-132.341
 L 130.451,-132.436 L 130.441,-132.532 L 130.411,-132.623 L 130.363,-132.706 L 130.299,-132.778 L 130.221,-132.834
 L 130.133,-132.873 L 130.039,-132.893 L 128.568,-132.893 L 128.474,-132.873 L 128.386,-132.834 L 128.309,-132.778
 L 128.244,-132.706 L 128.196,-132.623 L 128.167,-132.532 L 128.157,-132.436 L 128.167,-132.341 L 128.196,-132.249
 L 128.244,-132.166 L 128.309,-132.095 L 128.386,-132.038 L 128.474,-131.999 L 128.568,-131.979 L 130.039,-131.979
 z
M 70.2571,-131.999 L 70.3448,-132.038 L 70.4226,-132.095 L 70.4868,-132.166 L 70.5349,-132.249 L 70.5646,-132.341
 L 70.5746,-132.436 L 70.5646,-132.532 L 70.5349,-132.623 L 70.4868,-132.706 L 70.4226,-132.778 L 70.3448,-132.834
 L 70.2571,-132.873 L 70.1631,-132.893 L 68.6921,-132.893 L 68.5981,-132.873 L 68.5104,-132.834 L 68.4326,-132.778
 L 68.3683,-132.706 L 68.3203,-132.623 L 68.2906,-132.532 L 68.2806,-132.436 L 68.2906,-132.34 L 68.3203,-132.249
 L 68.3683,-132.166 L 68.4326,-132.095 L 68.5104,-132.038 L 68.5981,-131.999 L 68.6921,-131.979 L 70.1631,-131.979
 z
" stroke="black" fill="lightgray" stroke-width="0.5"/>
</svg>
