<?xml version="1.0" standalone="no"?>
<!DOCTYPE svg PUBLIC "-//W3C//DTD SVG 1.1//EN" "http://www.w3.org/Graphics/SVG/1.1/DTD/svg11.dtd">
<svg width="59mm" height="59mm" viewBox="17 -162 59 59" xmlns="http://www.w3.org/2000/svg" version="1.1">
<title>OpenSCAD Model</title>
<path d="
M 49.7113,-103.567 L 52.7123,-104.042 L 55.6472,-104.829 L 58.4839,-105.918 L 61.1911,-107.297 L 63.7394,-108.952
 L 66.1007,-110.864 L 68.2492,-113.012 L 70.1613,-115.374 L 71.8162,-117.922 L 73.1956,-120.629 L 74.2845,-123.466
 L 75.0709,-126.401 L 75.5462,-129.402 L 75.7052,-132.436 L 75.5462,-135.47 L 75.0709,-138.471 L 74.2845,-141.406
 L 73.1956,-144.243 L 71.8162,-146.95 L 70.1613,-149.498 L 68.2492,-151.86 L 66.1007,-154.008 L 63.7394,-155.92
 L 61.1911,-157.575 L 58.4839,-158.955 L 55.6472,-160.043 L 52.7123,-160.83 L 49.7113,-161.305 L 46.6771,-161.464
 L 43.6428,-161.305 L 40.6418,-160.83 L 37.7069,-160.043 L 34.8703,-158.955 L 32.163,-157.575 L 29.6147,-155.92
 L 27.2534,-154.008 L 25.1049,-151.86 L 23.1928,-149.498 L 21.5379,-146.95 L 20.1585,-144.243 L 19.0697,-141.406
 L 18.2832,-138.471 L 17.8079,-135.47 L 17.6489,-132.436 L 17.8079,-129.402 L 18.2832,-126.401 L 19.0697,-123.466
 L 20.1585,-120.629 L 21.5379,-117.922 L 23.1928,-115.374 L 25.1049,-113.012 L 27.2534,-110.864 L 29.6147,-108.952
 L 32.163,-107.297 L 34.8703,-105.918 L 37.7069,-104.829 L 40.6418,-104.042 L 43.6428,-103.567 L 46.6771,-103.408
 z
M 46.1731,-158.301 L 45.8616,-158.582 L 45.6911,-158.965 L 45.6911,-159.384 L 45.8616,-159.767 L 46.1731,-160.047
 L 46.5717,-160.177 L 46.9885,-160.133 L 47.3515,-159.923 L 47.5979,-159.584 L 47.685,-159.174 L 47.5979,-158.764
 L 47.3515,-158.425 L 46.9885,-158.215 L 46.5717,-158.172 z
M 42.683,-158.072 L 42.3716,-158.353 L 42.2011,-158.736 L 42.2011,-159.155 L 42.3716,-159.538 L 42.683,-159.818
 L 43.0817,-159.948 L 43.4986,-159.904 L 43.8615,-159.694 L 44.1079,-159.355 L 44.1951,-158.945 L 44.1079,-158.535
 L 43.8615,-158.196 L 43.4986,-157.987 L 43.0817,-157.943 z
M 49.6631,-158.072 L 49.3516,-158.353 L 49.1811,-158.736 L 49.1811,-159.155 L 49.3516,-159.538 L 49.6631,-159.818
 L 50.0617,-159.948 L 50.4786,-159.904 L 50.8415,-159.694 L 51.0879,-159.355 L 51.1751,-158.945 L 51.0879,-158.535
 L 50.8415,-158.196 L 50.4786,-157.987 L 50.0617,-157.943 z
M 39.2527,-157.39 L 38.9413,-157.671 L 38.7708,-158.053 L 38.7708,-158.473 L 38.9413,-158.855 L 39.2527,-159.136
 L 39.6514,-159.265 L 40.0683,-159.222 L 40.4312,-159.012 L 40.6776,-158.673 L 40.7648,-158.263 L 40.6776,-157.853
 L 40.4312,-157.514 L 40.0683,-157.304 L 39.6514,-157.261 z
M 53.0934,-157.39 L 52.7819,-157.671 L 52.6114,-158.053 L 52.6114,-158.473 L 52.7819,-158.855 L 53.0934,-159.136
 L 53.492,-159.265 L 53.9089,-159.222 L 54.2718,-159.012 L 54.5182,-158.673 L 54.6054,-158.263 L 54.5182,-157.853
 L 54.2718,-157.514 L 53.9089,-157.304 L 53.492,-157.261 z
M 35.9409,-156.266 L 35.6294,-156.546 L 35.4589,-156.929 L 35.4589,-157.348 L 35.6294,-157.731 L 35.9409,-158.012
 L 36.3395,-158.141 L 36.7564,-158.097 L 37.1193,-157.888 L 37.3657,-157.549 L 37.4529,-157.139 L 37.3657,-156.729
 L 37.1193,-156.39 L 36.7564,-156.18 L 36.3395,-156.136 z
M 56.4052,-156.266 L 56.0938,-156.546 L 55.9233,-156.929 L 55.9233,-157.348 L 56.0938,-157.731 L 56.4052,-158.012
 L 56.8039,-158.141 L 57.2207,-158.097 L 57.5837,-157.888 L 57.8301,-157.549 L 57.9173,-157.139 L 57.8301,-156.729
 L 57.5837,-156.39 L 57.2207,-156.18 L 56.8039,-156.136 z
M 32.804,-154.719 L 32.4926,-154.999 L 32.3221,-155.382 L 32.3221,-155.801 L 32.4926,-156.184 L 32.804,-156.465
 L 33.2027,-156.594 L 33.6196,-156.551 L 33.9825,-156.341 L 34.2289,-156.002 L 34.316,-155.592 L 34.2289,-155.182
 L 33.9825,-154.843 L 33.6196,-154.633 L 33.2027,-154.589 z
M 59.5421,-154.719 L 59.2306,-154.999 L 59.0601,-155.382 L 59.0601,-155.801 L 59.2306,-156.184 L 59.5421,-156.465
 L 59.9407,-156.594 L 60.3576,-156.551 L 60.7205,-156.341 L 60.9669,-156.002 L 61.0541,-155.592 L 60.9669,-155.182
 L 60.7206,-154.843 L 60.3576,-154.633 L 59.9407,-154.589 z
M 29.896,-152.776 L 29.5845,-153.056 L 29.414,-153.439 L 29.414,-153.858 L 29.5845,-154.241 L 29.896,-154.522
 L 30.2946,-154.651 L 30.7115,-154.607 L 31.0744,-154.398 L 31.3208,-154.059 L 31.408,-153.649 L 31.3208,-153.239
 L 31.0744,-152.9 L 30.7115,-152.69 L 30.2946,-152.646 z
M 62.4501,-152.776 L 62.1387,-153.056 L 61.9682,-153.439 L 61.9682,-153.858 L 62.1387,-154.241 L 62.4501,-154.522
 L 62.8488,-154.651 L 63.2656,-154.607 L 63.6286,-154.398 L 63.875,-154.059 L 63.9621,-153.649 L 63.875,-153.239
 L 63.6286,-152.9 L 63.2656,-152.69 L 62.8488,-152.646 z
M 45.2356,-148.462 L 44.3447,-149.264 L 43.8571,-150.36 L 43.8571,-151.558 L 44.3447,-152.654 L 45.2356,-153.456
 L 46.3757,-153.826 L 47.5679,-153.701 L 48.6061,-153.101 L 49.3108,-152.132 L 49.56,-150.959 L 49.3108,-149.786
 L 48.6061,-148.816 L 47.5679,-148.217 L 46.3757,-148.092 z
M 27.2664,-150.47 L 26.9549,-150.75 L 26.7845,-151.133 L 26.7845,-151.552 L 26.9549,-151.935 L 27.2664,-152.216
 L 27.6651,-152.345 L 28.0819,-152.301 L 28.4449,-152.092 L 28.6913,-151.753 L 28.7784,-151.343 L 28.6913,-150.933
 L 28.4449,-150.594 L 28.0819,-150.384 L 27.6651,-150.34 z
M 65.0797,-150.47 L 64.7682,-150.75 L 64.5977,-151.133 L 64.5977,-151.552 L 64.7682,-151.935 L 65.0797,-152.216
 L 65.4784,-152.345 L 65.8952,-152.301 L 66.2582,-152.092 L 66.5045,-151.753 L 66.5917,-151.343 L 66.5045,-150.933
 L 66.2582,-150.594 L 65.8952,-150.384 L 65.4784,-150.34 z
M 24.9604,-147.84 L 24.6489,-148.121 L 24.4784,-148.504 L 24.4784,-148.923 L 24.6489,-149.306 L 24.9604,-149.586
 L 25.359,-149.716 L 25.7759,-149.672 L 26.1388,-149.462 L 26.3852,-149.123 L 26.4724,-148.713 L 26.3852,-148.303
 L 26.1388,-147.964 L 25.7759,-147.754 L 25.359,-147.711 z
M 67.3858,-147.84 L 67.0743,-148.121 L 66.9038,-148.504 L 66.9038,-148.923 L 67.0743,-149.306 L 67.3858,-149.586
 L 67.7844,-149.716 L 68.2012,-149.672 L 68.5642,-149.462 L 68.8106,-149.123 L 68.8978,-148.713 L 68.8106,-148.303
 L 68.5642,-147.964 L 68.2012,-147.754 L 67.7844,-147.711 z
M 23.0172,-144.932 L 22.7058,-145.213 L 22.5353,-145.595 L 22.5353,-146.015 L 22.7058,-146.398 L 23.0172,-146.678
 L 23.4159,-146.808 L 23.8327,-146.764 L 24.1957,-146.554 L 24.4421,-146.215 L 24.5293,-145.805 L 24.4421,-145.395
 L 24.1957,-145.056 L 23.8327,-144.846 L 23.4159,-144.803 z
M 69.3289,-144.932 L 69.0174,-145.213 L 68.8469,-145.595 L 68.8469,-146.015 L 69.0174,-146.398 L 69.3289,-146.678
 L 69.7275,-146.808 L 70.1444,-146.764 L 70.5073,-146.554 L 70.7537,-146.215 L 70.8409,-145.805 L 70.7537,-145.395
 L 70.5073,-145.056 L 70.1444,-144.846 L 69.7275,-144.803 z
M 21.4703,-141.795 L 21.1589,-142.076 L 20.9884,-142.459 L 20.9884,-142.878 L 21.1589,-143.261 L 21.4703,-143.541
 L 21.869,-143.671 L 22.2858,-143.627 L 22.6488,-143.417 L 22.8952,-143.078 L 22.9823,-142.668 L 22.8952,-142.258
 L 22.6488,-141.919 L 22.2858,-141.71 L 21.869,-141.666 z
M 70.8758,-141.795 L 70.5643,-142.076 L 70.3938,-142.459 L 70.3938,-142.878 L 70.5643,-143.261 L 70.8758,-143.541
 L 71.2744,-143.671 L 71.6913,-143.627 L 72.0542,-143.417 L 72.3006,-143.078 L 72.3878,-142.668 L 72.3006,-142.258
 L 72.0542,-141.919 L 71.6913,-141.71 L 71.2744,-141.666 z
M 42.7671,-139.026 L 42.7671,-141.846 L 50.5871,-141.846 L 50.5871,-139.026 z
M 20.3461,-138.483 L 20.0346,-138.764 L 19.8642,-139.147 L 19.8642,-139.566 L 20.0346,-139.949 L 20.3461,-140.229
 L 20.7448,-140.359 L 21.1616,-140.315 L 21.5246,-140.105 L 21.771,-139.766 L 21.8581,-139.356 L 21.771,-138.946
 L 21.5246,-138.607 L 21.1616,-138.398 L 20.7448,-138.354 z
M 72,-138.483 L 71.6885,-138.764 L 71.518,-139.147 L 71.518,-139.566 L 71.6885,-139.949 L 72,-140.229
 L 72.3987,-140.359 L 72.8155,-140.315 L 73.1785,-140.105 L 73.4249,-139.766 L 73.512,-139.356 L 73.4249,-138.946
 L 73.1785,-138.607 L 72.8155,-138.398 L 72.3987,-138.354 z
M 19.6638,-135.053 L 19.3523,-135.334 L 19.1818,-135.716 L 19.1818,-136.136 L 19.3523,-136.519 L 19.6638,-136.799
 L 20.0624,-136.929 L 20.4793,-136.885 L 20.8422,-136.675 L 21.0886,-136.336 L 21.1758,-135.926 L 21.0886,-135.516
 L 20.8422,-135.177 L 20.4793,-134.967 L 20.0624,-134.924 z
M 72.6823,-135.053 L 72.3708,-135.334 L 72.2004,-135.716 L 72.2004,-136.136 L 72.3708,-136.519 L 72.6823,-136.799
 L 73.081,-136.929 L 73.4978,-136.885 L 73.8608,-136.675 L 74.1072,-136.336 L 74.1943,-135.926 L 74.1072,-135.516
 L 73.8608,-135.177 L 73.4978,-134.967 L 73.081,-134.924 z
M 53.2671,-128.526 L 53.2671,-136.346 L 56.0871,-136.346 L 56.0871,-128.526 z
M 37.2671,-128.526 L 37.2671,-136.346 L 40.0871,-136.346 L 40.0871,-128.526 z
M 46.385,-130.125 L 46.0977,-130.179 L 45.8193,-130.27 L 45.5546,-130.394 L 45.3077,-130.551 L 45.2671,-130.585
 L 45.2671,-132.109 L 41.7671,-132.109 L 41.7671,-132.763 L 45.2671,-132.763 L 45.2671,-134.287 L 45.3077,-134.321
 L 45.5546,-134.478 L 45.8193,-134.602 L 46.0977,-134.693 L 46.385,-134.747 L 46.6771,-134.766 L 46.9691,-134.747
 L 47.2564,-134.693 L 47.5348,-134.602 L 47.7995,-134.478 L 48.0464,-134.321 L 48.0871,-134.287 L 48.0871,-132.763
 L 51.5871,-132.763 L 51.5871,-132.109 L 48.0871,-132.109 L 48.0871,-130.585 L 48.0464,-130.551 L 47.7995,-130.394
 L 47.5348,-130.27 L 47.2564,-130.179 L 46.9691,-130.125 L 46.6771,-130.106 z
M 19.435,-131.563 L 19.1236,-131.844 L 18.9531,-132.226 L 18.9531,-132.646 L 19.1236,-133.029 L 19.435,-133.309
 L 19.8337,-133.439 L 20.2505,-133.395 L 20.6135,-133.185 L 20.8599,-132.846 L 20.947,-132.436 L 20.8599,-132.026
 L 20.6135,-131.687 L 20.2505,-131.477 L 19.8337,-131.434 z
M 72.9111,-131.563 L 72.5996,-131.844 L 72.4291,-132.226 L 72.4291,-132.646 L 72.5996,-133.029 L 72.9111,-133.309
 L 73.3098,-133.439 L 73.7266,-133.395 L 74.0895,-133.185 L 74.3359,-132.846 L 74.4231,-132.436 L 74.3359,-132.026
 L 74.0895,-131.687 L 73.7266,-131.477 L 73.3098,-131.434 z
M 19.6638,-128.073 L 19.3523,-128.354 L 19.1818,-128.736 L 19.1818,-129.156 L 19.3523,-129.539 L 19.6638,-129.819
 L 20.0624,-129.949 L 20.4793,-129.905 L 20.8422,-129.695 L 21.0886,-129.356 L 21.1758,-128.946 L 21.0886,-128.536
 L 20.8422,-128.197 L 20.4793,-127.987 L 20.0624,-127.944 z
M 72.6823,-128.073 L 72.3708,-128.354 L 72.2004,-128.736 L 72.2004,-129.156 L 72.3708,-129.539 L 72.6823,-129.819
 L 73.081,-129.949 L 73.4978,-129.905 L 73.8608,-129.695 L 74.1072,-129.356 L 74.1943,-128.946 L 74.1072,-128.536
 L 73.8608,-128.197 L 73.4978,-127.987 L 73.081,-127.944 z
M 20.3461,-124.643 L 20.0346,-124.923 L 19.8642,-125.306 L 19.8642,-125.725 L 20.0346,-126.108 L 20.3461,-126.389
 L 20.7448,-126.518 L 21.1616,-126.474 L 21.5246,-126.265 L 21.771,-125.926 L 21.8581,-125.516 L 21.771,-125.106
 L 21.5246,-124.767 L 21.1616,-124.557 L 20.7448,-124.513 z
M 72,-124.643 L 71.6885,-124.923 L 71.518,-125.306 L 71.518,-125.725 L 71.6885,-126.108 L 72,-126.389
 L 72.3987,-126.518 L 72.8155,-126.474 L 73.1785,-126.265 L 73.4249,-125.926 L 73.512,-125.516 L 73.4249,-125.106
 L 73.1785,-124.767 L 72.8155,-124.557 L 72.3987,-124.513 z
M 42.7671,-123.026 L 42.7671,-125.846 L 50.5871,-125.846 L 50.5871,-123.026 z
M 21.4703,-121.331 L 21.1589,-121.611 L 20.9884,-121.994 L 20.9884,-122.413 L 21.1589,-122.796 L 21.4703,-123.077
 L 21.869,-123.206 L 22.2858,-123.163 L 22.6488,-122.953 L 22.8952,-122.614 L 22.9823,-122.204 L 22.8952,-121.794
 L 22.6488,-121.455 L 22.2858,-121.245 L 21.869,-121.201 z
M 70.8758,-121.331 L 70.5643,-121.611 L 70.3938,-121.994 L 70.3938,-122.413 L 70.5643,-122.796 L 70.8758,-123.077
 L 71.2744,-123.206 L 71.6913,-123.163 L 72.0542,-122.953 L 72.3006,-122.614 L 72.3878,-122.204 L 72.3006,-121.794
 L 72.0542,-121.455 L 71.6913,-121.245 L 71.2744,-121.201 z
M 23.0172,-118.194 L 22.7058,-118.475 L 22.5353,-118.857 L 22.5353,-119.277 L 22.7058,-119.66 L 23.0172,-119.94
 L 23.4159,-120.07 L 23.8327,-120.026 L 24.1957,-119.816 L 24.4421,-119.477 L 24.5293,-119.067 L 24.4421,-118.657
 L 24.1957,-118.318 L 23.8327,-118.108 L 23.4159,-118.065 z
M 69.3289,-118.194 L 69.0174,-118.475 L 68.8469,-118.857 L 68.8469,-119.277 L 69.0174,-119.66 L 69.3289,-119.94
 L 69.7275,-120.07 L 70.1444,-120.026 L 70.5073,-119.816 L 70.7537,-119.477 L 70.8409,-119.067 L 70.7537,-118.657
 L 70.5073,-118.318 L 70.1444,-118.108 L 69.7275,-118.065 z
M 24.9604,-115.286 L 24.6489,-115.566 L 24.4784,-115.949 L 24.4784,-116.369 L 24.6489,-116.751 L 24.9604,-117.032
 L 25.359,-117.161 L 25.7759,-117.118 L 26.1388,-116.908 L 26.3852,-116.569 L 26.4724,-116.159 L 26.3852,-115.749
 L 26.1388,-115.41 L 25.7759,-115.2 L 25.359,-115.157 z
M 67.3858,-115.286 L 67.0743,-115.566 L 66.9038,-115.949 L 66.9038,-116.369 L 67.0743,-116.751 L 67.3858,-117.032
 L 67.7844,-117.161 L 68.2012,-117.118 L 68.5642,-116.908 L 68.8106,-116.569 L 68.8978,-116.159 L 68.8106,-115.749
 L 68.5642,-115.41 L 68.2012,-115.2 L 67.7844,-115.157 z
M 27.2664,-112.656 L 26.9549,-112.937 L 26.7845,-113.32 L 26.7845,-113.739 L 26.9549,-114.122 L 27.2664,-114.402
 L 27.6651,-114.532 L 28.0819,-114.488 L 28.4449,-114.279 L 28.6913,-113.939 L 28.7784,-113.529 L 28.6913,-113.119
 L 28.4449,-112.78 L 28.0819,-112.571 L 27.6651,-112.527 z
M 65.0797,-112.656 L 64.7682,-112.937 L 64.5977,-113.32 L 64.5977,-113.739 L 64.7682,-114.122 L 65.0797,-114.402
 L 65.4784,-114.532 L 65.8952,-114.488 L 66.2582,-114.279 L 66.5045,-113.939 L 66.5917,-113.529 L 66.5045,-113.119
 L 66.2582,-112.78 L 65.8952,-112.571 L 65.4784,-112.527 z
M 29.896,-110.35 L 29.5845,-110.631 L 29.414,-111.014 L 29.414,-111.433 L 29.5845,-111.816 L 29.896,-112.096
 L 30.2946,-112.226 L 30.7115,-112.182 L 31.0744,-111.972 L 31.3208,-111.633 L 31.408,-111.223 L 31.3208,-110.813
 L 31.0744,-110.474 L 30.7115,-110.265 L 30.2946,-110.221 z
M 62.4501,-110.35 L 62.1387,-110.631 L 61.9682,-111.014 L 61.9682,-111.433 L 62.1387,-111.816 L 62.4501,-112.096
 L 62.8488,-112.226 L 63.2656,-112.182 L 63.6286,-111.972 L 63.875,-111.633 L 63.9621,-111.223 L 63.875,-110.813
 L 63.6286,-110.474 L 63.2656,-110.265 L 62.8488,-110.221 z
M 32.804,-108.407 L 32.4926,-108.688 L 32.3221,-109.071 L 32.3221,-109.49 L 32.4926,-109.873 L 32.804,-110.153
 L 33.2027,-110.283 L 33.6196,-110.239 L 33.9825,-110.029 L 34.2289,-109.69 L 34.316,-109.28 L 34.2289,-108.87
 L 33.9825,-108.531 L 33.6196,-108.322 L 33.2027,-108.278 z
M 59.5421,-108.407 L 59.2306,-108.688 L 59.0601,-109.071 L 59.0601,-109.49 L 59.2306,-109.873 L 59.5421,-110.153
 L 59.9407,-110.283 L 60.3576,-110.239 L 60.7206,-110.029 L 60.9669,-109.69 L 61.0541,-109.28 L 60.9669,-108.87
 L 60.7205,-108.531 L 60.3576,-108.322 L 59.9407,-108.278 z
M 35.9409,-106.86 L 35.6294,-107.141 L 35.4589,-107.524 L 35.4589,-107.943 L 35.6294,-108.326 L 35.9409,-108.606
 L 36.3395,-108.736 L 36.7564,-108.692 L 37.1193,-108.482 L 37.3657,-108.143 L 37.4529,-107.733 L 37.3657,-107.323
 L 37.1193,-106.984 L 36.7564,-106.775 L 36.3395,-106.731 z
M 56.4052,-106.86 L 56.0938,-107.141 L 55.9233,-107.524 L 55.9233,-107.943 L 56.0938,-108.326 L 56.4052,-108.606
 L 56.8039,-108.736 L 57.2207,-108.692 L 57.5837,-108.482 L 57.8301,-108.143 L 57.9173,-107.733 L 57.8301,-107.323
 L 57.5837,-106.984 L 57.2207,-106.775 L 56.8039,-106.731 z
M 39.2527,-105.736 L 38.9413,-106.017 L 38.7708,-106.4 L 38.7708,-106.819 L 38.9413,-107.202 L 39.2527,-107.482
 L 39.6514,-107.612 L 40.0683,-107.568 L 40.4312,-107.358 L 40.6776,-107.019 L 40.7648,-106.609 L 40.6776,-106.199
 L 40.4312,-105.86 L 40.0683,-105.65 L 39.6514,-105.607 z
M 53.0934,-105.736 L 52.7819,-106.017 L 52.6114,-106.4 L 52.6114,-106.819 L 52.7819,-107.202 L 53.0934,-107.482
 L 53.492,-107.612 L 53.9089,-107.568 L 54.2718,-107.358 L 54.5182,-107.019 L 54.6054,-106.609 L 54.5182,-106.199
 L 54.2718,-105.86 L 53.9089,-105.65 L 53.492,-105.607 z
M 42.683,-105.054 L 42.3716,-105.334 L 42.2011,-105.717 L 42.2011,-106.136 L 42.3716,-106.519 L 42.683,-106.8
 L 43.0817,-106.929 L 43.4986,-106.885 L 43.8615,-106.676 L 44.1079,-106.337 L 44.1951,-105.927 L 44.1079,-105.517
 L 43.8615,-105.178 L 43.4986,-104.968 L 43.0817,-104.924 z
M 49.6631,-105.054 L 49.3516,-105.334 L 49.1811,-105.717 L 49.1811,-106.136 L 49.3516,-106.519 L 49.6631,-106.8
 L 50.0617,-106.929 L 50.4786,-106.885 L 50.8415,-106.676 L 51.0879,-106.337 L 51.1751,-105.927 L 51.0879,-105.517
 L 50.8415,-105.178 L 50.4786,-104.968 L 50.0617,-104.924 z
M 46.1731,-104.825 L 45.8616,-105.106 L 45.6911,-105.488 L 45.6911,-105.908 L 45.8616,-106.29 L 46.1731,-106.571
 L 46.5717,-106.701 L 46.9885,-106.657 L 47.3515,-106.447 L 47.5979,-106.108 L 47.685,-105.698 L 47.5979,-105.288
 L 47.3515,-104.949 L 46.9885,-104.739 L 46.5717,-104.696 z
" stroke="black" fill="lightgray" stroke-width="0.5"/>
</svg>
