<?xml version="1.0" standalone="no"?>
<!DOCTYPE svg PUBLIC "-//W3C//DTD SVG 1.1//EN" "http://www.w3.org/Graphics/SVG/1.1/DTD/svg11.dtd">
<svg width="59mm" height="59mm" viewBox="77 -162 59 59" xmlns="http://www.w3.org/2000/svg" version="1.1">
<title>OpenSCAD Model</title>
<path d="
M 109.587,-103.567 L 112.588,-104.042 L 115.523,-104.829 L 118.36,-105.918 L 121.067,-107.297 L 123.615,-108.952
 L 125.977,-110.864 L 128.125,-113.012 L 130.037,-115.374 L 131.692,-117.922 L 133.072,-120.629 L 134.161,-123.466
 L 134.947,-126.401 L 135.422,-129.402 L 135.581,-132.436 L 135.422,-135.47 L 134.947,-138.471 L 134.161,-141.406
 L 133.072,-144.243 L 131.692,-146.95 L 130.037,-149.498 L 128.125,-151.86 L 125.977,-154.008 L 123.615,-155.92
 L 121.067,-157.575 L 118.36,-158.955 L 115.523,-160.043 L 112.588,-160.83 L 109.587,-161.305 L 106.553,-161.464
 L 103.519,-161.305 L 100.518,-160.83 L 97.5829,-160.043 L 94.7463,-158.955 L 92.0391,-157.575 L 89.4908,-155.92
 L 87.1295,-154.008 L 84.981,-151.86 L 83.0689,-149.498 L 81.414,-146.95 L 80.0346,-144.243 L 78.9457,-141.406
 L 78.1593,-138.471 L 77.684,-135.47 L 77.525,-132.436 L 77.684,-129.402 L 78.1593,-126.401 L 78.9457,-123.466
 L 80.0346,-120.629 L 81.414,-117.922 L 83.0689,-115.374 L 84.981,-113.012 L 87.1295,-110.864 L 89.4908,-108.952
 L 92.0391,-107.297 L 94.7463,-105.918 L 97.5829,-104.829 L 100.518,-104.042 L 103.519,-103.567 L 106.553,-103.408
 z
M 106.049,-158.301 L 105.738,-158.582 L 105.567,-158.965 L 105.567,-159.384 L 105.738,-159.767 L 106.049,-160.047
 L 106.448,-160.177 L 106.865,-160.133 L 107.228,-159.923 L 107.474,-159.584 L 107.561,-159.174 L 107.474,-158.764
 L 107.228,-158.425 L 106.865,-158.215 L 106.448,-158.172 z
M 102.559,-158.072 L 102.248,-158.353 L 102.077,-158.736 L 102.077,-159.155 L 102.248,-159.538 L 102.559,-159.818
 L 102.958,-159.948 L 103.375,-159.904 L 103.738,-159.694 L 103.984,-159.355 L 104.071,-158.945 L 103.984,-158.535
 L 103.738,-158.196 L 103.375,-157.987 L 102.958,-157.943 z
M 109.539,-158.072 L 109.228,-158.353 L 109.057,-158.736 L 109.057,-159.155 L 109.228,-159.538 L 109.539,-159.818
 L 109.938,-159.948 L 110.355,-159.904 L 110.718,-159.694 L 110.964,-159.355 L 111.051,-158.945 L 110.964,-158.535
 L 110.718,-158.196 L 110.355,-157.987 L 109.938,-157.943 z
M 99.1288,-157.39 L 98.8173,-157.671 L 98.6469,-158.053 L 98.6469,-158.473 L 98.8173,-158.855 L 99.1288,-159.136
 L 99.5275,-159.265 L 99.9443,-159.222 L 100.307,-159.012 L 100.554,-158.673 L 100.641,-158.263 L 100.554,-157.853
 L 100.307,-157.514 L 99.9443,-157.304 L 99.5275,-157.261 z
M 112.969,-157.39 L 112.658,-157.671 L 112.487,-158.053 L 112.487,-158.473 L 112.658,-158.855 L 112.969,-159.136
 L 113.368,-159.265 L 113.785,-159.222 L 114.148,-159.012 L 114.394,-158.673 L 114.481,-158.263 L 114.394,-157.853
 L 114.148,-157.514 L 113.785,-157.304 L 113.368,-157.261 z
M 95.8169,-156.266 L 95.5054,-156.546 L 95.335,-156.929 L 95.335,-157.348 L 95.5054,-157.731 L 95.8169,-158.012
 L 96.2156,-158.141 L 96.6324,-158.097 L 96.9954,-157.888 L 97.2418,-157.549 L 97.3289,-157.139 L 97.2418,-156.729
 L 96.9954,-156.39 L 96.6324,-156.18 L 96.2156,-156.136 z
M 116.281,-156.266 L 115.97,-156.546 L 115.799,-156.929 L 115.799,-157.348 L 115.97,-157.731 L 116.281,-158.012
 L 116.68,-158.141 L 117.097,-158.097 L 117.46,-157.888 L 117.706,-157.549 L 117.793,-157.139 L 117.706,-156.729
 L 117.46,-156.39 L 117.097,-156.18 L 116.68,-156.136 z
M 92.6801,-154.719 L 92.3686,-154.999 L 92.1982,-155.382 L 92.1982,-155.801 L 92.3686,-156.184 L 92.6801,-156.465
 L 93.0788,-156.594 L 93.4956,-156.551 L 93.8586,-156.341 L 94.105,-156.002 L 94.1921,-155.592 L 94.105,-155.182
 L 93.8586,-154.843 L 93.4956,-154.633 L 93.0788,-154.589 z
M 119.418,-154.719 L 119.107,-154.999 L 118.936,-155.382 L 118.936,-155.801 L 119.107,-156.184 L 119.418,-156.465
 L 119.817,-156.594 L 120.234,-156.551 L 120.597,-156.341 L 120.843,-156.002 L 120.93,-155.592 L 120.843,-155.182
 L 120.597,-154.843 L 120.234,-154.633 L 119.817,-154.589 z
M 89.772,-152.776 L 89.4606,-153.056 L 89.2901,-153.439 L 89.2901,-153.858 L 89.4606,-154.241 L 89.772,-154.522
 L 90.1707,-154.651 L 90.5876,-154.607 L 90.9505,-154.398 L 91.1969,-154.059 L 91.284,-153.649 L 91.1969,-153.239
 L 90.9505,-152.9 L 90.5876,-152.69 L 90.1707,-152.646 z
M 122.326,-152.776 L 122.015,-153.056 L 121.844,-153.439 L 121.844,-153.858 L 122.015,-154.241 L 122.326,-154.522
 L 122.725,-154.651 L 123.142,-154.607 L 123.505,-154.398 L 123.751,-154.059 L 123.838,-153.649 L 123.751,-153.239
 L 123.505,-152.9 L 123.142,-152.69 L 122.725,-152.646 z
M 87.1425,-150.47 L 86.831,-150.75 L 86.6605,-151.133 L 86.6605,-151.552 L 86.831,-151.935 L 87.1425,-152.216
 L 87.5412,-152.345 L 87.958,-152.301 L 88.321,-152.092 L 88.5674,-151.753 L 88.6545,-151.343 L 88.5674,-150.933
 L 88.321,-150.594 L 87.958,-150.384 L 87.5412,-150.34 z
M 124.956,-150.47 L 124.644,-150.75 L 124.474,-151.133 L 124.474,-151.552 L 124.644,-151.935 L 124.956,-152.216
 L 125.354,-152.345 L 125.771,-152.301 L 126.134,-152.092 L 126.381,-151.753 L 126.468,-151.343 L 126.381,-150.933
 L 126.134,-150.594 L 125.771,-150.384 L 125.354,-150.34 z
M 84.8364,-147.84 L 84.5249,-148.121 L 84.3545,-148.504 L 84.3545,-148.923 L 84.5249,-149.306 L 84.8364,-149.586
 L 85.2351,-149.716 L 85.6519,-149.672 L 86.0149,-149.462 L 86.2613,-149.123 L 86.3484,-148.713 L 86.2613,-148.303
 L 86.0149,-147.964 L 85.6519,-147.754 L 85.2351,-147.711 z
M 127.262,-147.84 L 126.95,-148.121 L 126.78,-148.504 L 126.78,-148.923 L 126.95,-149.306 L 127.262,-149.586
 L 127.66,-149.716 L 128.077,-149.672 L 128.44,-149.462 L 128.687,-149.123 L 128.774,-148.713 L 128.687,-148.303
 L 128.44,-147.964 L 128.077,-147.754 L 127.66,-147.711 z
M 82.8933,-144.932 L 82.5818,-145.213 L 82.4114,-145.595 L 82.4114,-146.015 L 82.5818,-146.398 L 82.8933,-146.678
 L 83.292,-146.808 L 83.7088,-146.764 L 84.0718,-146.554 L 84.3182,-146.215 L 84.4053,-145.805 L 84.3182,-145.395
 L 84.0718,-145.056 L 83.7088,-144.846 L 83.292,-144.803 z
M 129.205,-144.932 L 128.893,-145.213 L 128.723,-145.595 L 128.723,-146.015 L 128.893,-146.398 L 129.205,-146.678
 L 129.604,-146.808 L 130.02,-146.764 L 130.383,-146.554 L 130.63,-146.215 L 130.717,-145.805 L 130.63,-145.395
 L 130.383,-145.056 L 130.02,-144.846 L 129.604,-144.803 z
M 81.3464,-141.795 L 81.0349,-142.076 L 80.8645,-142.459 L 80.8645,-142.878 L 81.0349,-143.261 L 81.3464,-143.541
 L 81.7451,-143.671 L 82.1619,-143.627 L 82.5249,-143.417 L 82.7713,-143.078 L 82.8584,-142.668 L 82.7713,-142.258
 L 82.5249,-141.919 L 82.1619,-141.71 L 81.7451,-141.666 z
M 130.752,-141.795 L 130.44,-142.076 L 130.27,-142.459 L 130.27,-142.878 L 130.44,-143.261 L 130.752,-143.541
 L 131.15,-143.671 L 131.567,-143.627 L 131.93,-143.417 L 132.177,-143.078 L 132.264,-142.668 L 132.177,-142.258
 L 131.93,-141.919 L 131.567,-141.71 L 131.15,-141.666 z
M 103.643,-139.026 L 103.643,-141.846 L 109.463,-141.846 L 109.463,-139.026 z
M 80.2222,-138.483 L 79.9107,-138.764 L 79.7402,-139.147 L 79.7402,-139.566 L 79.9107,-139.949 L 80.2222,-140.229
 L 80.6208,-140.359 L 81.0377,-140.315 L 81.4007,-140.105 L 81.647,-139.766 L 81.7342,-139.356 L 81.647,-138.946
 L 81.4007,-138.607 L 81.0377,-138.398 L 80.6208,-138.354 z
M 131.876,-138.483 L 131.565,-138.764 L 131.394,-139.147 L 131.394,-139.566 L 131.565,-139.949 L 131.876,-140.229
 L 132.275,-140.359 L 132.692,-140.315 L 133.055,-140.105 L 133.301,-139.766 L 133.388,-139.356 L 133.301,-138.946
 L 133.055,-138.607 L 132.692,-138.398 L 132.275,-138.354 z
M 79.5398,-135.053 L 79.2284,-135.334 L 79.0579,-135.716 L 79.0579,-136.136 L 79.2284,-136.519 L 79.5398,-136.799
 L 79.9385,-136.929 L 80.3553,-136.885 L 80.7183,-136.675 L 80.9647,-136.336 L 81.0518,-135.926 L 80.9647,-135.516
 L 80.7183,-135.177 L 80.3553,-134.967 L 79.9385,-134.924 z
M 132.558,-135.053 L 132.247,-135.334 L 132.076,-135.716 L 132.076,-136.136 L 132.247,-136.519 L 132.558,-136.799
 L 132.957,-136.929 L 133.374,-136.885 L 133.737,-136.675 L 133.983,-136.336 L 134.07,-135.926 L 133.983,-135.516
 L 133.737,-135.177 L 133.374,-134.967 L 132.957,-134.924 z
M 104.534,-128.939 L 102.516,-132.436 L 104.534,-135.933 L 108.572,-135.933 L 110.591,-132.436 L 108.572,-128.939
 z
M 113.143,-129.526 L 113.143,-135.346 L 115.963,-135.346 L 115.963,-129.526 z
M 97.1431,-129.526 L 97.1431,-135.346 L 99.9631,-135.346 L 99.9631,-129.526 z
M 79.3111,-131.563 L 78.9996,-131.844 L 78.8291,-132.226 L 78.8291,-132.646 L 78.9996,-133.029 L 79.3111,-133.309
 L 79.7098,-133.439 L 80.1266,-133.395 L 80.4896,-133.185 L 80.736,-132.846 L 80.8231,-132.436 L 80.736,-132.026
 L 80.4896,-131.687 L 80.1266,-131.477 L 79.7098,-131.434 z
M 132.787,-131.563 L 132.476,-131.844 L 132.305,-132.226 L 132.305,-132.646 L 132.476,-133.029 L 132.787,-133.309
 L 133.186,-133.439 L 133.603,-133.395 L 133.966,-133.185 L 134.212,-132.846 L 134.299,-132.436 L 134.212,-132.026
 L 133.966,-131.687 L 133.603,-131.477 L 133.186,-131.434 z
M 79.5398,-128.073 L 79.2284,-128.354 L 79.0579,-128.736 L 79.0579,-129.156 L 79.2284,-129.539 L 79.5398,-129.819
 L 79.9385,-129.949 L 80.3553,-129.905 L 80.7183,-129.695 L 80.9647,-129.356 L 81.0518,-128.946 L 80.9647,-128.536
 L 80.7183,-128.197 L 80.3553,-127.987 L 79.9385,-127.944 z
M 132.558,-128.073 L 132.247,-128.354 L 132.076,-128.736 L 132.076,-129.156 L 132.247,-129.539 L 132.558,-129.819
 L 132.957,-129.949 L 133.374,-129.905 L 133.737,-129.695 L 133.983,-129.356 L 134.07,-128.946 L 133.983,-128.536
 L 133.737,-128.197 L 133.374,-127.987 L 132.957,-127.944 z
M 80.2222,-124.643 L 79.9107,-124.923 L 79.7402,-125.306 L 79.7402,-125.725 L 79.9107,-126.108 L 80.2222,-126.389
 L 80.6208,-126.518 L 81.0377,-126.474 L 81.4007,-126.265 L 81.647,-125.926 L 81.7342,-125.516 L 81.647,-125.106
 L 81.4007,-124.767 L 81.0377,-124.557 L 80.6208,-124.513 z
M 131.876,-124.643 L 131.565,-124.923 L 131.394,-125.306 L 131.394,-125.725 L 131.565,-126.108 L 131.876,-126.389
 L 132.275,-126.518 L 132.692,-126.474 L 133.055,-126.265 L 133.301,-125.926 L 133.388,-125.516 L 133.301,-125.106
 L 133.055,-124.767 L 132.692,-124.557 L 132.275,-124.513 z
M 103.643,-123.026 L 103.643,-125.846 L 109.463,-125.846 L 109.463,-123.026 z
M 81.3464,-121.331 L 81.0349,-121.611 L 80.8645,-121.994 L 80.8645,-122.413 L 81.0349,-122.796 L 81.3464,-123.077
 L 81.7451,-123.206 L 82.1619,-123.163 L 82.5249,-122.953 L 82.7713,-122.614 L 82.8584,-122.204 L 82.7713,-121.794
 L 82.5249,-121.455 L 82.1619,-121.245 L 81.7451,-121.201 z
M 130.752,-121.331 L 130.44,-121.611 L 130.27,-121.994 L 130.27,-122.413 L 130.44,-122.796 L 130.752,-123.077
 L 131.15,-123.206 L 131.567,-123.163 L 131.93,-122.953 L 132.177,-122.614 L 132.264,-122.204 L 132.177,-121.794
 L 131.93,-121.455 L 131.567,-121.245 L 131.15,-121.201 z
M 82.8933,-118.194 L 82.5818,-118.475 L 82.4114,-118.857 L 82.4114,-119.277 L 82.5818,-119.66 L 82.8933,-119.94
 L 83.292,-120.07 L 83.7088,-120.026 L 84.0718,-119.816 L 84.3182,-119.477 L 84.4053,-119.067 L 84.3182,-118.657
 L 84.0718,-118.318 L 83.7088,-118.108 L 83.292,-118.065 z
M 129.205,-118.194 L 128.893,-118.475 L 128.723,-118.857 L 128.723,-119.277 L 128.893,-119.66 L 129.205,-119.94
 L 129.604,-120.07 L 130.02,-120.026 L 130.383,-119.816 L 130.63,-119.477 L 130.717,-119.067 L 130.63,-118.657
 L 130.383,-118.318 L 130.02,-118.108 L 129.604,-118.065 z
M 84.8364,-115.286 L 84.5249,-115.566 L 84.3545,-115.949 L 84.3545,-116.369 L 84.5249,-116.751 L 84.8364,-117.032
 L 85.2351,-117.161 L 85.6519,-117.118 L 86.0149,-116.908 L 86.2613,-116.569 L 86.3484,-116.159 L 86.2613,-115.749
 L 86.0149,-115.41 L 85.6519,-115.2 L 85.2351,-115.157 z
M 127.262,-115.286 L 126.95,-115.566 L 126.78,-115.949 L 126.78,-116.369 L 126.95,-116.751 L 127.262,-117.032
 L 127.66,-117.161 L 128.077,-117.118 L 128.44,-116.908 L 128.687,-116.569 L 128.774,-116.159 L 128.687,-115.749
 L 128.44,-115.41 L 128.077,-115.2 L 127.66,-115.157 z
M 87.1425,-112.656 L 86.831,-112.937 L 86.6605,-113.32 L 86.6605,-113.739 L 86.831,-114.122 L 87.1425,-114.402
 L 87.5412,-114.532 L 87.958,-114.488 L 88.321,-114.279 L 88.5674,-113.939 L 88.6545,-113.529 L 88.5674,-113.119
 L 88.321,-112.78 L 87.958,-112.571 L 87.5412,-112.527 z
M 124.956,-112.656 L 124.644,-112.937 L 124.474,-113.32 L 124.474,-113.739 L 124.644,-114.122 L 124.956,-114.402
 L 125.354,-114.532 L 125.771,-114.488 L 126.134,-114.279 L 126.381,-113.939 L 126.468,-113.529 L 126.381,-113.119
 L 126.134,-112.78 L 125.771,-112.571 L 125.354,-112.527 z
M 89.772,-110.35 L 89.4606,-110.631 L 89.2901,-111.014 L 89.2901,-111.433 L 89.4606,-111.816 L 89.772,-112.096
 L 90.1707,-112.226 L 90.5876,-112.182 L 90.9505,-111.972 L 91.1969,-111.633 L 91.284,-111.223 L 91.1969,-110.813
 L 90.9505,-110.474 L 90.5876,-110.265 L 90.1707,-110.221 z
M 122.326,-110.35 L 122.015,-110.631 L 121.844,-111.014 L 121.844,-111.433 L 122.015,-111.816 L 122.326,-112.096
 L 122.725,-112.226 L 123.142,-112.182 L 123.505,-111.972 L 123.751,-111.633 L 123.838,-111.223 L 123.751,-110.813
 L 123.505,-110.474 L 123.142,-110.265 L 122.725,-110.221 z
M 92.6801,-108.407 L 92.3686,-108.688 L 92.1982,-109.071 L 92.1982,-109.49 L 92.3686,-109.873 L 92.6801,-110.153
 L 93.0788,-110.283 L 93.4956,-110.239 L 93.8586,-110.029 L 94.105,-109.69 L 94.1921,-109.28 L 94.105,-108.87
 L 93.8586,-108.531 L 93.4956,-108.322 L 93.0788,-108.278 z
M 119.418,-108.407 L 119.107,-108.688 L 118.936,-109.071 L 118.936,-109.49 L 119.107,-109.873 L 119.418,-110.153
 L 119.817,-110.283 L 120.234,-110.239 L 120.597,-110.029 L 120.843,-109.69 L 120.93,-109.28 L 120.843,-108.87
 L 120.597,-108.531 L 120.234,-108.322 L 119.817,-108.278 z
M 95.8169,-106.86 L 95.5054,-107.141 L 95.335,-107.524 L 95.335,-107.943 L 95.5054,-108.326 L 95.8169,-108.606
 L 96.2156,-108.736 L 96.6324,-108.692 L 96.9954,-108.482 L 97.2418,-108.143 L 97.3289,-107.733 L 97.2418,-107.323
 L 96.9954,-106.984 L 96.6324,-106.775 L 96.2156,-106.731 z
M 116.281,-106.86 L 115.97,-107.141 L 115.799,-107.524 L 115.799,-107.943 L 115.97,-108.326 L 116.281,-108.606
 L 116.68,-108.736 L 117.097,-108.692 L 117.46,-108.482 L 117.706,-108.143 L 117.793,-107.733 L 117.706,-107.323
 L 117.46,-106.984 L 117.097,-106.775 L 116.68,-106.731 z
M 99.1288,-105.736 L 98.8173,-106.017 L 98.6469,-106.4 L 98.6469,-106.819 L 98.8173,-107.202 L 99.1288,-107.482
 L 99.5275,-107.612 L 99.9443,-107.568 L 100.307,-107.358 L 100.554,-107.019 L 100.641,-106.609 L 100.554,-106.199
 L 100.307,-105.86 L 99.9443,-105.65 L 99.5275,-105.607 z
M 112.969,-105.736 L 112.658,-106.017 L 112.487,-106.4 L 112.487,-106.819 L 112.658,-107.202 L 112.969,-107.482
 L 113.368,-107.612 L 113.785,-107.568 L 114.148,-107.358 L 114.394,-107.019 L 114.481,-106.609 L 114.394,-106.199
 L 114.148,-105.86 L 113.785,-105.65 L 113.368,-105.607 z
M 102.559,-105.054 L 102.248,-105.334 L 102.077,-105.717 L 102.077,-106.136 L 102.248,-106.519 L 102.559,-106.8
 L 102.958,-106.929 L 103.375,-106.885 L 103.738,-106.676 L 103.984,-106.337 L 104.071,-105.927 L 103.984,-105.517
 L 103.738,-105.178 L 103.375,-104.968 L 102.958,-104.924 z
M 109.539,-105.054 L 109.228,-105.334 L 109.057,-105.717 L 109.057,-106.136 L 109.228,-106.519 L 109.539,-106.8
 L 109.938,-106.929 L 110.355,-106.885 L 110.718,-106.676 L 110.964,-106.337 L 111.051,-105.927 L 110.964,-105.517
 L 110.718,-105.178 L 110.355,-104.968 L 109.938,-104.924 z
M 106.049,-104.825 L 105.738,-105.106 L 105.567,-105.488 L 105.567,-105.908 L 105.738,-106.29 L 106.049,-106.571
 L 106.448,-106.701 L 106.865,-106.657 L 107.228,-106.447 L 107.474,-106.108 L 107.561,-105.698 L 107.474,-105.288
 L 107.228,-104.949 L 106.865,-104.739 L 106.448,-104.696 z
" stroke="black" fill="lightgray" stroke-width="0.5"/>
</svg>
